<?xml version="1.0" encoding="UTF-8"?>
<svg width="188px" height="32px" viewBox="0 0 188 32" version="1.1" xmlns="http://www.w3.org/2000/svg" xmlns:xlink="http://www.w3.org/1999/xlink">
    <!-- Generator: sketchtool 51.1 (57501) - http://www.bohemiancoding.com/sketch -->
    <title>F7695EEC-A89B-4614-A374-5825EE83C691</title>
    <desc>Created with sketchtool.</desc>
    <defs></defs>
    <g id="Symbols" stroke="none" stroke-width="1" fill="none" fill-rule="evenodd">
        <g id="Logo-/-ContaAzul" transform="translate(-18.000000, -28.000000)" fill="#2687E9" fill-rule="nonzero">
            <g id="Logo_ContaAzul_Azul" transform="translate(18.000000, 28.000000)">
                <path d="M27.2561535,20.7734017 C26.9653199,24.3098596 25.6585792,27.0812488 23.3372717,29.0839416 C20.9565465,31.0290387 17.8212624,32 13.9327595,32 C9.40451216,32 5.95024928,30.6172532 3.57041762,27.8458639 C1.18969246,25.1928402 0,21.2745284 0,16.0886609 C0,10.7848812 1.21917789,6.80715976 3.65753366,4.15458965 C6.15262655,1.38546789 9.75297635,0 14.4550091,0 C18.2867748,0 21.3344961,0.973682346 23.5986198,2.9187795 C25.7456953,4.80446706 26.9653199,7.45749068 27.2561535,10.8742223 L23.5115038,10.8742223 C22.1180938,10.8742223 21.1307786,10.2547299 20.5508985,9.01801278 C20.1439102,8.25158374 19.6498059,7.57404232 19.0703725,6.984028 C17.9088252,6.1001403 16.3711153,5.65842321 14.4550091,5.65842321 C11.7843438,5.65842321 9.72304417,6.5418574 8.27289707,8.31099332 C6.87948709,10.0783152 6.18300548,12.6710222 6.18300548,16.0886609 C6.18300548,19.3906549 6.87993384,21.9225918 8.27289707,23.6917277 C9.60778294,25.5180057 11.6105585,26.4318249 14.2812237,26.4318249 C16.1383591,26.4318249 17.6774092,25.9601763 18.8965871,25.0173325 C19.9987168,24.1338983 20.7827612,22.7194059 21.2482736,20.7734017 L27.2561535,20.7734017 Z M32.3280943,29.1705616 C31.1084697,28.1111662 30.237756,26.682615 29.7150597,24.8840011 C29.1928102,23.0872011 28.9314621,21.2151188 28.9314621,19.2713822 C28.9314621,17.6809286 29.1490288,16.0886609 29.584609,14.4973002 C30.0197425,12.9068466 30.7023749,11.5812418 31.631166,10.5195788 C33.1398372,8.7518034 35.0831951,7.70646675 37.466154,7.38175479 C39.8450922,7.05885688 41.9935079,7.24887686 43.9100609,7.95634982 C46.1152137,8.83978402 47.7404864,10.3730956 48.7849854,12.5522031 C49.7723006,14.4973002 50.2659582,16.7680163 50.2659582,19.3593628 C50.2659582,21.2468644 50.0613472,22.8672496 49.6570394,24.222786 C49.2491576,25.5778688 48.7260146,26.7266053 48.0880571,27.6699026 C46.6946471,29.6154533 44.9246277,30.8235994 42.776212,31.2929805 C40.8618928,31.8240388 38.9297036,31.8675756 36.9863456,31.4258585 C35.040754,30.9836879 33.4891949,30.2331316 32.3280943,29.1705616 Z M36.5078775,13.6143195 C35.2882529,14.9712164 34.7360712,16.9875143 34.8531194,19.6704695 C34.9683806,22.3525177 35.4620382,24.222786 36.3327519,25.2826349 C36.6821096,25.75383 37.2910284,26.1524638 38.1612954,26.4753617 C39.0337961,26.8000737 39.9174655,26.8295517 40.8172179,26.5642494 C41.7169703,26.298947 42.5170977,25.6368249 43.214026,24.5751619 C43.9109544,23.515313 44.287117,21.8060402 44.3456411,19.4482504 C44.3456411,17.3262851 44.0096859,15.7358314 43.3444767,14.6741684 C42.6748,13.6143195 41.9063918,12.9367781 41.0356781,12.6419977 C40.1654112,12.3490313 39.2951442,12.3322515 38.4226435,12.5980074 C37.5523766,12.8633098 36.9117386,13.2020805 36.5078775,13.6143195 Z M72.3192734,31.292527 L69.2706586,31.292527 C68.4003916,31.292527 67.6882738,31.015887 67.1378791,30.4521761 C66.5856974,29.8943609 66.3105,29.1705616 66.3105,28.2871275 L66.3105,16.2664361 C66.3105,14.8519437 65.888769,13.8202123 65.0475407,13.1721489 C64.205419,12.5245391 63.2623319,12.1993736 62.2169394,12.1993736 C61.1719936,12.1993736 60.2427558,12.5245391 59.4310129,13.1721489 C58.6174831,13.8202123 58.2113883,14.8519437 58.2113883,16.2664361 L58.2113883,31.292527 L52.1159456,31.292527 L52.1159456,17.5026998 C52.1159456,13.4973144 53.1461487,10.8152662 55.2070016,9.45972988 C57.266961,8.10510055 59.5462742,7.36814954 62.043154,7.24933037 C64.5967711,7.24933037 66.9484575,7.92641828 69.0968732,9.28195462 C71.2435019,10.638398 72.3192734,13.3780417 72.3192734,17.5026998 L72.3192734,31.292527 Z M84.4440399,31.292527 C82.5283804,31.4117997 80.4518913,31.3814147 78.2172531,31.2059069 C75.9821681,31.0290387 74.8644022,29.5850682 74.8644022,26.872635 L74.8644022,0.8838877 L77.9996863,0.8838877 C78.7533518,0.8838877 79.4216882,1.1786681 80.0020151,1.76732189 C80.5814485,2.35778971 80.8727288,3.06480917 80.8727288,3.88928728 L80.8727288,7.8674622 L84.4435932,7.8674622 L84.4435932,9.10508638 C84.4435932,9.98806706 84.1518661,10.7118663 83.571986,11.2701351 C82.9912124,11.8306713 82.2947307,12.1100325 81.4825411,12.1100325 L80.8727288,12.1100325 L80.8727288,25.1928402 C80.8727288,26.1973611 81.4530557,26.6966738 82.614603,26.6966738 L84.4435932,26.6966738 L84.4435932,31.292527 L84.4440399,31.292527 Z M100.66192,30.3215657 C99.4422957,30.9696291 98.1494043,31.3659954 96.7859265,31.5142926 C95.4220019,31.6607758 94.2180135,31.7342441 93.1726209,31.7342441 C91.0827294,31.7342441 89.2541859,31.1591956 87.6860971,30.0109125 C86.1189018,28.8617225 85.3353041,26.9615227 85.3353041,24.309406 C85.3353041,21.8350647 86.0447414,20.0663823 87.4680836,19.0060798 C88.8900855,17.9444169 90.7038862,17.2373974 92.9117196,16.8841145 C93.2007661,16.8841145 93.5496771,16.8405777 93.9562186,16.75169 C94.3614199,16.6628024 94.8269323,16.5897876 95.3496286,16.5299245 C97.9036923,16.1775485 99.1800541,15.41248 99.1800541,14.2319978 C99.1800541,13.3490172 98.7306246,12.7739686 97.831319,12.5086663 C96.9302264,12.2429104 96.1028473,12.1100325 95.3496286,12.1100325 C94.535652,12.1100325 93.8110252,12.2297586 93.1726209,12.464676 C92.5324297,12.7005003 92.0687043,13.1422174 91.779211,13.7898272 L85.9442229,13.7898272 C86.1756389,11.9635493 86.9891687,10.4619832 88.3825787,9.28195462 C89.9506675,7.92641828 92.1839655,7.24933037 95.0878337,7.24933037 C98.3379323,7.24933037 100.776735,7.80986664 102.403348,8.92912515 C104.085804,10.1082468 104.928373,11.75811 104.928373,13.8796219 L104.928373,21.9225918 C104.928373,24.281742 104.505748,26.1220788 103.66586,27.4476836 C102.823292,28.7741954 101.821681,29.7333655 100.66192,30.3215657 Z M99.2685104,19.4482504 C98.4545338,19.860036 97.3229187,20.244611 95.8714314,20.596987 L93.8699961,21.0391576 C92.8246035,21.333938 92.069151,21.7185131 91.6049789,22.1878942 C91.1984373,22.8377716 90.9951666,23.4853814 90.9951666,24.1334448 C90.9951666,25.016879 91.2565147,25.724352 91.7796577,26.2549567 C92.3019072,26.7261518 93.0560195,26.9619762 94.0433346,26.9619762 C95.6686073,26.9619762 96.9449691,26.4903275 97.8751004,25.5474837 C98.802998,24.6050935 99.2685104,23.3089667 99.2685104,21.6591035 L99.2685104,19.4482504 Z M119.579058,0.8838877 L124.455323,0.8838877 L135.340808,31.292527 L128.809338,31.292527 L126.807009,25.016879 L115.137927,25.016879 L113.22182,31.292527 L106.690797,31.292527 L116.618899,2.9187795 C117.140255,1.56324315 118.126677,0.8838877 119.579058,0.8838877 Z M120.971574,6.9835745 L116.792238,19.889514 L125.152251,19.889514 L120.971574,6.9835745 Z M137.625929,31.292527 L137.625929,26.6073327 L150.078162,12.6415442 L141.283462,12.6415442 C140.469932,12.6415442 139.773004,12.3621831 139.193124,11.8011933 C138.61235,11.2424711 138.322857,10.5490568 138.322857,9.7227647 L138.322857,7.77948158 L157.306113,7.77948158 L157.306113,12.8170519 L145.028112,26.1656156 L157.741694,26.1656156 L157.741694,31.292527 L137.625929,31.292527 Z M179.794115,7.77948158 L179.794115,21.5693088 C179.794115,25.7533765 178.718791,28.4948343 176.572162,29.790961 C174.423299,31.0861808 172.07206,31.7342441 169.518443,31.7342441 C167.021563,31.617239 164.742696,30.9102195 162.68229,29.6145463 C160.621437,28.318873 159.590787,25.6363714 159.590787,21.5693088 L159.590787,7.77948158 L165.686677,7.77948158 L165.686677,22.80784 C165.686677,24.2223324 166.092325,25.2527033 166.906302,25.8998597 C167.718044,26.5501906 168.646835,26.872635 169.691781,26.872635 C170.737174,26.872635 171.680261,26.5501906 172.522829,25.8998597 C173.363611,25.2522498 173.784895,24.2223324 173.784895,22.80784 L173.784895,10.7848812 C173.784895,9.96131007 174.060092,9.25383711 174.612721,8.66336928 C175.162669,8.07471549 175.875233,7.77948158 176.745054,7.77948158 L179.794115,7.77948158 Z M181.904111,0.8838877 L185.039395,0.8838877 C185.851138,0.8838877 186.548066,1.16506285 187.128393,1.7242386 C187.708273,2.28477488 188,2.97773558 188,3.80176018 L188,31.292527 L181.904111,31.292527 L181.904111,0.8838877 Z" id="Shape"></path>
            </g>
        </g>
    </g>
</svg>