<?xml version="1.0" standalone="no"?>
<!DOCTYPE svg PUBLIC "-//W3C//DTD SVG 20010904//EN"
 "http://www.w3.org/TR/2001/REC-SVG-20010904/DTD/svg10.dtd">
<svg version="1.0" xmlns="http://www.w3.org/2000/svg"
 width="2083.000000pt" height="560.000000pt" viewBox="0 0 2083.000000 560.000000"
 preserveAspectRatio="xMidYMid meet">

<g transform="translate(0.000000,560.000000) scale(0.100000,-0.100000)"
fill="#000000" stroke="none">
<path d="M2285 5585 c-275 -60 -635 -267 -990 -569 -137 -117 -394 -375 -527
-529 -392 -455 -661 -921 -745 -1292 -22 -96 -24 -127 -21 -245 7 -214 44
-285 225 -438 68 -58 112 -101 108 -109 -32 -84 -40 -147 -40 -308 0 -165 1
-173 31 -257 43 -120 103 -216 193 -311 158 -166 346 -262 552 -283 l66 -6 52
-107 c248 -498 717 -877 1288 -1041 230 -66 352 -82 640 -88 368 -6 569 21
851 113 572 189 1018 603 1216 1129 81 215 119 503 82 628 -23 79 -69 137
-135 169 l-54 27 -39 118 -39 117 33 71 c31 67 33 77 33 186 0 110 -1 118 -33
182 -66 135 -229 241 -473 310 l-116 33 -7 205 c-8 231 -18 325 -47 437 -27
105 -105 265 -163 337 l-48 58 44 47 c162 169 305 412 347 591 84 350 -70 589
-424 655 -69 13 -123 16 -235 12 -226 -8 -440 -59 -687 -163 -59 -25 -113 -48
-120 -51 -6 -2 -85 67 -175 154 -217 210 -263 233 -473 232 -60 0 -137 -6
-170 -14z m359 -244 c53 -41 243 -239 235 -244 -2 -2 -38 -23 -79 -47 -479
-277 -1014 -717 -1283 -1055 -229 -287 -432 -632 -570 -970 l-58 -140 -87 -28
c-116 -37 -212 -95 -300 -185 l-73 -74 -84 76 c-49 45 -92 94 -104 119 -84
174 -10 494 205 879 450 807 1295 1563 1904 1704 30 7 96 12 146 11 91 -3 92
-3 148 -46z m606 -716 c0 -3 -20 -25 -45 -48 -63 -61 -60 -73 23 -82 140 -14
342 -70 427 -119 l30 -17 -45 6 c-25 3 -97 12 -160 21 -177 25 -503 15 -670
-21 -257 -54 -559 -173 -744 -295 l-79 -51 32 40 c52 66 255 254 363 337 99
76 288 197 296 190 2 -2 -5 -21 -16 -43 -11 -21 -25 -55 -32 -76 -19 -62 -2
-65 78 -18 129 77 329 150 467 170 33 5 63 9 68 10 4 0 7 -1 7 -4z m796 -769
c62 -29 99 -74 130 -160 29 -81 41 -176 54 -453 6 -122 15 -237 20 -254 16
-54 48 -78 140 -105 265 -80 334 -110 405 -175 80 -74 93 -156 41 -257 -108
-210 -494 -410 -956 -493 -152 -28 -445 -36 -637 -19 -173 16 -210 8 -283 -57
-112 -101 -139 -277 -65 -423 61 -120 232 -216 453 -255 170 -31 470 -13 692
41 286 70 564 216 714 375 56 59 81 99 61 99 -3 0 -57 -31 -121 -69 -220 -131
-483 -235 -731 -288 -117 -25 -147 -27 -348 -28 -195 0 -230 3 -307 22 -142
36 -233 89 -274 159 -31 52 -31 68 -1 60 168 -51 443 -77 602 -57 149 18 260
52 260 80 0 11 -48 14 -255 15 -194 2 -277 6 -345 19 -123 24 -275 68 -275 79
0 21 41 66 71 78 26 11 53 11 158 -1 336 -38 735 3 1051 108 132 43 360 154
467 227 l82 55 21 -57 c25 -65 60 -196 60 -223 0 -13 8 -17 36 -17 21 0 48 -9
63 -19 44 -34 53 -60 47 -153 -15 -267 -184 -571 -436 -784 -396 -335 -990
-457 -1457 -301 -456 153 -715 497 -714 950 0 243 76 477 208 638 77 94 93
119 93 143 0 24 -46 87 -146 201 -220 252 -273 536 -147 792 68 137 214 259
357 297 66 18 139 17 343 -2 290 -27 402 1 583 146 113 91 193 109 286 66z
m-2891 -1191 c262 -69 424 -358 402 -720 -11 -172 -59 -297 -147 -379 -74 -69
-146 -99 -250 -104 -167 -8 -319 57 -461 198 -142 141 -192 254 -192 435 0
189 53 326 171 436 133 125 315 176 477 134z"/>
<path d="M3911 3363 c-31 -26 -42 -85 -30 -168 13 -93 26 -140 55 -197 l24
-48 65 0 c35 0 67 5 70 11 4 6 9 36 12 68 10 106 -34 279 -83 328 -28 28 -82
31 -113 6z"/>
<path d="M3000 3006 c-104 -30 -204 -105 -198 -148 4 -30 32 -29 163 6 130 36
199 32 322 -18 109 -45 123 -46 123 -5 0 43 -81 120 -157 150 -71 26 -189 34
-253 15z"/>
<path d="M4009 2804 c-19 -20 -24 -36 -24 -79 0 -43 5 -59 24 -79 42 -45 99
-26 121 40 33 100 -56 187 -121 118z"/>
<path d="M3120 2770 c-80 -27 -138 -100 -94 -117 8 -3 49 5 91 17 61 18 93 22
172 19 92 -4 96 -3 99 17 2 15 -6 28 -25 41 -66 47 -152 55 -243 23z"/>
<path d="M3710 2687 c-29 -14 -38 -63 -20 -97 17 -31 70 -60 112 -60 28 0 42
6 58 27 35 44 9 101 -57 129 -40 17 -61 17 -93 1z"/>
<path d="M892 2444 c-93 -46 -161 -165 -162 -279 0 -70 9 -88 41 -83 24 3 27
8 74 110 32 71 77 102 146 102 36 0 56 -7 83 -28 70 -53 79 -101 41 -231 -38
-131 -1 -246 89 -280 81 -31 171 1 171 61 0 29 -1 29 -56 29 -107 0 -122 44
-64 194 62 160 44 275 -55 365 -58 52 -97 66 -183 66 -59 0 -83 -5 -125 -26z"/>
<path d="M10778 3935 c-266 -67 -333 -296 -123 -419 191 -112 510 -65 601 89
31 53 33 129 4 185 -26 50 -97 103 -175 130 -79 28 -229 35 -307 15z"/>
<path d="M15798 3935 c-240 -61 -324 -254 -168 -388 84 -72 241 -108 376 -88
182 27 294 119 294 240 0 100 -68 177 -195 221 -79 28 -229 35 -307 15z"/>
<path d="M11410 2835 l0 -1095 305 0 305 0 0 1095 0 1095 -305 0 -305 0 0
-1095z"/>
<path d="M13830 2835 l0 -1095 309 0 310 0 3 478 c3 461 4 479 26 543 24 72
68 139 108 165 33 22 100 22 141 0 19 -9 43 -35 55 -59 23 -42 23 -43 26 -584
l3 -543 310 0 310 0 -4 593 c-3 561 -5 597 -25 687 -43 190 -137 328 -264 388
-82 39 -148 52 -262 52 -227 0 -388 -113 -506 -356 -27 -55 -56 -106 -64 -113
-27 -23 -28 8 -2 97 67 227 90 406 83 635 -3 89 -8 172 -12 185 l-7 22 -269 0
-269 0 0 -1095z"/>
<path d="M6929 3441 c-135 -43 -242 -160 -325 -354 -19 -45 -41 -88 -49 -96
-26 -27 -28 14 -6 99 25 91 37 225 27 293 l-7 47 -230 0 -229 0 0 -845 0 -845
309 0 310 0 3 478 c4 459 5 480 25 542 31 92 76 158 119 176 67 28 138 -5 170
-78 18 -40 19 -82 22 -580 l3 -538 309 0 310 0 0 438 c1 491 6 553 62 661 40
79 74 106 129 105 53 -2 88 -28 119 -90 l25 -49 3 -532 3 -533 304 0 305 0 0
558 c0 435 -3 578 -15 652 -26 173 -84 299 -175 384 -103 95 -211 130 -384
124 -100 -3 -118 -6 -180 -36 -107 -50 -192 -142 -256 -279 -75 -158 -75 -158
-85 -158 -5 0 -14 39 -21 86 -28 192 -127 318 -293 369 -82 26 -223 26 -302 1z"/>
<path d="M9470 3454 c-14 -2 -59 -9 -100 -15 -142 -20 -372 -85 -462 -130
l-38 -19 0 -255 c0 -140 2 -255 5 -255 3 0 42 19 88 41 267 135 546 197 692
155 70 -21 118 -64 134 -121 24 -86 43 -80 -236 -80 -283 -1 -338 -11 -490
-85 -185 -91 -292 -269 -293 -486 0 -149 41 -257 136 -352 108 -108 256 -159
429 -148 258 16 436 149 531 398 42 110 50 93 57 -114 4 -101 9 -198 13 -215
l6 -33 234 0 234 0 0 494 c0 296 -4 525 -11 571 -46 337 -192 535 -454 622
-73 24 -96 26 -265 29 -102 1 -196 0 -210 -2z m330 -1042 c0 -19 -74 -130
-113 -170 -112 -115 -304 -147 -358 -58 -53 88 8 184 141 220 59 16 330 22
330 8z"/>
<path d="M12800 3441 c-303 -67 -496 -243 -587 -538 -26 -83 -27 -99 -28 -293
0 -241 15 -323 90 -475 103 -212 274 -348 510 -407 126 -31 352 -32 475 -1
113 28 233 80 319 138 l71 47 0 285 c0 156 -3 283 -7 281 -5 -1 -46 -24 -93
-50 -179 -99 -312 -133 -493 -126 -152 6 -219 29 -288 98 -46 47 -79 119 -79
175 0 89 71 193 163 238 83 40 145 50 282 44 145 -6 252 -35 403 -107 l102
-49 0 299 0 299 -30 21 c-50 36 -160 81 -260 107 -133 35 -422 42 -550 14z"/>
<path d="M17249 3442 c-136 -46 -242 -161 -325 -355 -19 -45 -41 -88 -49 -96
-26 -27 -28 15 -5 102 25 91 36 220 26 291 l-7 46 -230 0 -229 0 0 -845 0
-845 310 0 310 0 0 439 c0 487 5 546 60 658 38 76 79 108 136 107 54 -1 97
-32 120 -86 18 -40 19 -82 22 -580 l3 -538 309 0 309 0 3 468 c4 518 7 546 72
654 41 67 88 94 143 79 46 -13 75 -41 100 -96 16 -37 18 -85 21 -572 l3 -533
305 0 305 0 -4 608 c-3 531 -6 615 -20 672 -82 313 -253 448 -551 438 -100 -3
-118 -6 -180 -36 -49 -23 -88 -52 -135 -100 -64 -65 -81 -94 -180 -302 -9 -19
-20 -35 -25 -35 -6 0 -16 39 -22 86 -25 169 -100 281 -231 346 -72 35 -80 37
-191 40 -93 2 -128 -1 -173 -15z"/>
<path d="M20027 3450 c-59 -15 -142 -58 -198 -101 -68 -55 -133 -144 -191
-266 -27 -57 -53 -103 -58 -103 -20 0 -19 21 6 116 20 83 24 118 22 214 l-3
115 -227 3 -228 2 0 -1075 0 -1075 310 0 310 0 0 326 0 326 39 -49 c150 -190
402 -234 651 -115 125 61 233 185 296 342 63 153 68 194 68 475 0 236 -2 267
-21 337 -62 221 -150 355 -292 447 -102 65 -166 83 -316 87 -71 2 -147 -1
-168 -6z m65 -531 c48 -24 83 -76 111 -164 18 -59 22 -94 22 -220 0 -174 -14
-253 -59 -327 -78 -130 -234 -130 -323 1 -123 181 -101 542 42 685 57 58 125
66 207 25z"/>
<path d="M10600 2580 l0 -840 310 0 310 0 0 840 c0 462 -2 840 -5 840 -3 0
-31 -9 -63 -19 -31 -11 -94 -24 -138 -31 -76 -10 -93 -8 -235 20 -85 16 -160
30 -166 30 -10 0 -13 -175 -13 -840z"/>
<path d="M15620 2581 l0 -841 310 0 310 0 0 841 0 841 -22 -7 c-128 -41 -168
-47 -288 -47 -120 0 -160 6 -287 47 l-23 7 0 -841z"/>
</g>
</svg>
