<?xml version="1.0" encoding="UTF-8"?>
<svg width="183px" height="41px" viewBox="0 0 183 41" version="1.1" xmlns="http://www.w3.org/2000/svg" xmlns:xlink="http://www.w3.org/1999/xlink">
    <!-- Generator: sketchtool 51.1 (57501) - http://www.bohemiancoding.com/sketch -->
    <title>DBAC324E-129B-4543-913F-9FC854412933</title>
    <desc>Created with sketchtool.</desc>
    <defs></defs>
    <g id="Symbols" stroke="none" stroke-width="1" fill="none" fill-rule="evenodd">
        <g id="Logo-/-Pipedrive" transform="translate(-21.000000, -23.000000)">
            <g id="Logo" transform="translate(0.000000, 2.000000)">
                <polygon id="Shape" points="0 0 224 0 224 84 0 84"></polygon>
                <g id="Group" transform="translate(21.000000, 21.000000)" fill="#26292C" fill-rule="nonzero">
                    <path d="M9.12260479,20.5976447 C9.12260479,15.7283553 11.8021302,13.9944868 14.3087919,13.9944868 C17.385,13.9944868 19.4516946,16.6287368 19.4516946,20.5523289 C19.4516946,25.0272632 16.8225763,27.0262829 14.2222231,27.0262829 C10.7159102,27.0262829 9.12260479,23.6901776 9.12260479,20.5976447 Z M15.5440419,8.26581579 C11.8865075,8.26581579 9.76913174,9.89907237 8.74783832,11.0263026 C8.62510778,10.0544408 7.98104641,8.79342105 5.46507036,8.79342105 L0,8.79342105 L0,14.4770461 L2.23983234,14.4770461 C2.61952994,14.4770461 2.74198653,14.5965395 2.74198653,14.9739013 L2.74198653,40.9271711 L9.25492365,40.9271711 L9.25492365,31.1864342 C9.25492365,30.9237105 9.24999251,30.6777105 9.24286976,30.4581447 C10.259232,31.3844211 12.2034701,32.6645921 15.2388593,32.6645921 C21.6049581,32.6645921 26.0583234,27.6496447 26.0583234,20.4662829 C26.0583234,13.1685526 21.8309686,8.26581579 15.5440419,8.26581579 Z" id="Shape"></path>
                    <path d="M34.804518,26.0015526 L34.804518,12.24875 C34.804518,9.92523684 33.677479,8.79342105 31.3680629,8.79342105 L25.5474027,8.79342105 L25.5474027,14.4767763 L27.7894266,14.4767763 C28.1669326,14.4767763 28.2893892,14.5986974 28.2893892,14.9736316 L28.2893892,28.6786908 C28.2893892,31.0380789 29.3805404,32.1340197 31.7187216,32.1340197 L37.5465045,32.1340197 L37.5465045,26.5008355 L35.3044805,26.5008355 C34.9439596,26.5008355 34.804518,26.3573355 34.804518,26.0018224" id="Shape"></path>
                    <path d="M50.491015,27.0262829 C46.9942904,27.0262829 45.3935883,23.6901776 45.3935883,20.5976447 C45.3935883,15.7283553 48.0733877,13.9944868 50.582241,13.9944868 C53.6584491,13.9944868 55.7251437,16.6287368 55.7251437,20.5523289 C55.7251437,25.0272632 53.098491,27.0262829 50.491015,27.0262829 Z M51.8196826,8.26581579 C48.157491,8.26581579 46.0447725,9.89907237 45.0188219,11.0263026 C44.8985569,10.0544408 44.2569611,8.79342105 41.7407111,8.79342105 L36.2734491,8.79342105 L36.2734491,14.4770461 L38.5132814,14.4770461 C38.8905135,14.4770461 39.0129701,14.5965395 39.0129701,14.9739013 L39.0129701,40.9271711 L45.5308383,40.9271711 L45.5308383,31.1864342 C45.5308383,30.9237105 45.5237156,30.6777105 45.5165928,30.4581447 C46.5282979,31.3844211 48.4796587,32.6645921 51.5125823,32.6645921 C57.8811467,32.6645921 62.3295808,27.6496447 62.3295808,20.4662829 C62.3295808,13.1685526 58.1046916,8.26581579 51.8202305,8.26581579 L51.8196826,8.26581579 Z M69.6731407,17.0975395 C70.3796632,14.8074737 72.1458323,13.5081513 74.5878413,13.5081513 C76.5487904,13.5081513 78.0579925,14.9911645 78.3245479,17.0975395 L69.6731407,17.0975395 Z M74.5878413,8.26635526 C67.5702844,8.26635526 62.6627066,13.2837303 62.6627066,20.4670921 C62.6627066,27.5333882 67.9571048,32.6651316 75.2535449,32.6651316 C80.9922934,32.6651316 84.4986063,29.2885658 84.6473623,29.1450658 L84.9095344,28.8874671 L82.0713907,24.2091513 L81.6506003,24.6056645 C81.6218353,24.6272434 79.0480554,26.9839342 75.647488,26.9839342 C72.3838967,26.9839342 69.9950344,25.0043355 69.4304192,21.8999342 L84.8758383,21.8999342 L84.912,21.4748289 C84.9240539,21.417375 85.0511677,20.0398289 85.0511677,19.3660263 C85.0511677,12.7272632 80.845729,8.26635526 74.5875674,8.26635526 L74.5878413,8.26635526 Z M97.1256063,27.0262829 C94.027756,27.0262829 92.0235225,24.4494868 92.0235225,20.4662829 C92.0235225,16.5928618 94.1096677,13.9947566 97.2146407,13.9947566 C100.735199,13.9947566 102.314259,17.2208092 102.314259,20.4233947 C102.314259,25.2948421 99.632268,27.0265526 97.1256063,27.0265526 L97.1256063,27.0262829 Z M108.740353,26.0018224 L108.740353,3.46099342 C108.740353,1.13748026 107.598795,0.00566447368 105.258148,0.00566447368 L99.437488,0.00566447368 L99.437488,5.69144737 L101.679786,5.69144737 C102.057018,5.69144737 102.179475,5.81094079 102.179475,6.18803289 L102.179475,10.2621382 C101.218451,9.40005921 99.3413308,8.26581579 96.1089701,8.26581579 C89.7886213,8.26581579 85.3785404,13.2829211 85.3785404,20.4662829 C85.3785404,27.7642829 89.6034296,32.6645921 95.8903563,32.6645921 C99.483238,32.6645921 101.554864,31.0073289 102.566569,29.8512368 C102.698614,30.8592434 103.354729,32.1342895 105.791533,32.1342895 L111.434398,32.1342895 L111.434398,26.5008355 L109.240042,26.5008355 C108.879795,26.5008355 108.740353,26.357875 108.740353,26.0018224 Z M125.928108,8.48511184 C123.217352,8.48511184 120.722744,10.039875 119.242307,12.5163289 L119.242307,11.9835987 C119.242307,9.86778289 118.067052,8.79315132 115.760102,8.79315132 L110.160521,8.79315132 L110.160521,14.4767763 L112.400353,14.4767763 C112.777585,14.4767763 112.902507,14.5962697 112.902507,14.9736316 L112.902507,32.1342895 L119.415719,32.1342895 L119.415719,22.7943816 C119.415719,21.5643816 119.574337,20.3802368 119.881711,19.2840263 C120.86246,16.0625592 123.46747,14.9161776 125.574984,14.9161776 C126.322599,14.9161776 126.865572,14.9949408 126.87516,14.9973684 L127.418407,15.0785592 L127.418407,8.64533553 L127.021725,8.57844079 C127.002548,8.57358553 126.449987,8.48511184 125.928382,8.48511184 L125.928108,8.48511184 Z M136.688672,26.0015526 L136.688672,12.24875 C136.688672,9.92523684 135.566564,8.79342105 133.256874,8.79342105 L127.991515,8.79342105 L127.991515,14.4767763 L129.673581,14.4767763 C130.053552,14.4767763 130.173543,14.5986974 130.173543,14.9736316 L130.173543,28.6786908 C130.173543,31.0380789 131.26716,32.1340197 133.610272,32.1340197 L139.433398,32.1340197 L139.433398,26.5008355 L137.188635,26.5008355 C136.828114,26.5008355 136.688672,26.3573355 136.688672,26.0018224 L136.688672,26.0015526 Z" id="Shape"></path>
                    <path d="M161.27779,8.79369079 L157.802708,8.79369079 C155.771901,8.79369079 154.683216,9.49338816 154.039154,11.2105329 L149.792897,22.9953355 C149.646058,23.4323092 149.509082,23.9221513 149.391283,24.3925724 C149.268826,23.9221513 149.122262,23.4252961 148.961178,22.9883224 L144.714647,11.2081053 C144.063463,9.47207895 143.010665,8.79396053 140.953558,8.79396053 L137.257397,8.79396053 L137.257397,14.4773158 L138.216229,14.4773158 C138.72578,14.4773158 138.889329,14.6491382 139.00932,14.9644605 L145.582253,32.1345592 L152.907184,32.1345592 L159.480117,14.9644605 C159.600108,14.6491382 159.768588,14.4773158 160.277865,14.4773158 L161.27779,14.4773158 L161.27779,8.79396053 L161.27779,8.79369079 Z M167.579237,17.0975395 C168.293156,14.8074737 170.052476,13.5081513 172.491746,13.5081513 C174.457626,13.5081513 175.964362,14.9911645 176.231192,17.0975395 L167.579237,17.0975395 Z M172.491746,8.26635526 C165.476654,8.26635526 160.571542,13.2837303 160.571542,20.4670921 C160.571542,27.5333882 165.861009,32.6651316 173.157449,32.6651316 C178.898663,32.6651316 182.407442,29.2885658 182.554006,29.1450658 L182.81837,28.8874671 L179.987349,24.2091513 L179.554504,24.6056645 C179.533136,24.6272434 176.944837,26.9839342 173.556323,26.9839342 C170.290266,26.9839342 167.901404,25.0043355 167.336789,21.8999342 L182.787139,21.8999342 L182.823027,21.4748289 C182.830424,21.417375 182.962743,20.0398289 182.962743,19.3660263 C182.962743,12.7272632 178.754564,8.26635526 172.491746,8.26635526 Z M34.3590719,0.00701315789 L28.5526572,0.00701315789 L28.5526572,6.08472368 L34.3590719,6.08472368 L34.3590719,0.00701315789 Z M136.24624,0.00701315789 L130.437633,0.00701315789 L130.437633,6.08472368 L136.24624,6.08472368 L136.24624,0.00701315789 Z" id="Shape"></path>
                </g>
            </g>
        </g>
    </g>
</svg>