<svg xmlns="http://www.w3.org/2000/svg" xmlns:xlink="http://www.w3.org/1999/xlink" viewBox="0 0 565.42 565.42"><defs><style>.cls-1{fill:none;}.cls-2{isolation:isolate;}.cls-3{fill:#3b97d3;}.cls-4{fill:#f0c419;}.cls-5{fill:#e57e25;}.cls-6{fill:#14a085;}.cls-7{fill:#2c3e50;}.cls-8{clip-path:url(#clip-path);}.cls-9{opacity:0.1;mix-blend-mode:multiply;}.cls-10{clip-path:url(#clip-path-2);}.cls-11{clip-path:url(#clip-path-3);}.cls-12{fill:url(#radial-gradient);}.cls-13{clip-path:url(#clip-path-4);}.cls-14{clip-path:url(#clip-path-7);}.cls-15{clip-path:url(#clip-path-8);}.cls-16{clip-path:url(#clip-path-9);}.cls-17{fill:url(#radial-gradient-3);}.cls-18{clip-path:url(#clip-path-10);}</style><clipPath id="clip-path" transform="translate(-0.01)"><path class="cls-1" d="M.16,257.43l22.49-22.5,24.81,24.14c11.1-111.69,99.92-200.5,211.62-211.59l24.14-24.83L260.71.16c-.55,0-1.09-.12-1.63-.16C121.8,11.33,12.26,120.38.16,257.43"/></clipPath><clipPath id="clip-path-2" transform="translate(-0.01)"><rect class="cls-1" x="46.19" y="0.16" width="472.83" height="472.83"/></clipPath><clipPath id="clip-path-3" transform="translate(-0.01)"><path class="cls-1" d="M519,236.57C519,367.15,413.18,473,282.6,473S46.19,367.15,46.19,236.57,152,.16,282.6.16,519,106,519,236.57"/></clipPath><radialGradient id="radial-gradient" cx="118" cy="360.07" r="11.08" gradientTransform="matrix(21.33, 0, 0, -21.33, -2234.87, 7918.37)" gradientUnits="userSpaceOnUse"><stop offset="0" stop-color="#fff"/><stop offset="1" stop-color="#231f20"/></radialGradient><clipPath id="clip-path-4" transform="translate(-0.01)"><path class="cls-1" d="M330.5,22.65,306.37,47.48C418.05,58.57,506.86,147.38,518,259.07l24.8,24.14,22.52-22.5c0-.55.1-1.09.14-1.64C554.11,121.8,445,12.27,308,.16Z"/></clipPath><clipPath id="clip-path-7" transform="translate(-0.01)"><path class="cls-1" d="M306.37,518l-23.65,24.82,22.49,22.49,1.16.11v0l.23,0,.25,0v0c137-11.55,246.34-120.51,258.43-257.39L542.76,330.5,518,306.35C506.86,418.05,418.05,506.87,306.37,518"/></clipPath><clipPath id="clip-path-8" transform="translate(-0.01)"><rect class="cls-1" x="46.19" y="92.59" width="472.83" height="472.83"/></clipPath><clipPath id="clip-path-9" transform="translate(-0.01)"><path class="cls-1" d="M519,329c0,130.57-105.84,236.42-236.42,236.42S46.19,459.57,46.19,329,152,92.59,282.6,92.59,519,198.43,519,329"/></clipPath><radialGradient id="radial-gradient-3" cx="118" cy="356.13" r="11.08" gradientTransform="matrix(21.33, 0, 0, -21.33, -2234.87, 7926.72)" xlink:href="#radial-gradient"/><clipPath id="clip-path-10" transform="translate(-0.01)"><path class="cls-1" d="M.16,305.7c0,.22,0,.43-.07.65H0c0,.17,0,.34,0,.5s0,.34,0,.49H.09C11.86,444.15,120.71,553.19,257.43,565.27l-20.82-22.49L259.08,518C147.38,506.87,58.56,418.05,47.46,306.35L22.65,283.21Z"/></clipPath></defs><title>Ativo 1</title><g class="cls-2"><g id="Camada_2" data-name="Camada 2"><g id="Layer_1" data-name="Layer 1"><path class="cls-3" d="M308,.16l22.5,22.49L306.35,47.48C418.05,58.56,506.87,147.37,518,259.07l24.8,24.14,22.52-22.5c0-.54.1-1.09.14-1.64C554.1,121.8,445,12.27,308,.16" transform="translate(-0.01)"/><path class="cls-4" d="M259.07,518C147.38,506.86,58.56,418.05,47.46,306.35L22.65,283.21.15,305.7c0,.23,0,.44-.06.65H0c0,.17,0,.33,0,.5s0,.33,0,.5H.09c11.77,136.8,120.63,245.84,257.34,257.92l-20.82-22.49Z" transform="translate(-0.01)"/><path class="cls-5" d="M260.71.16c-.54,0-1.09-.12-1.64-.16C121.8,11.33,12.26,120.38.16,257.44l22.49-22.51,24.81,24.14c11.1-111.7,99.92-200.51,211.61-211.59l24.14-24.83Z" transform="translate(-0.01)"/><path class="cls-6" d="M565.28,308l-22.49,22.5L518,306.35C506.88,418.05,418,506.86,306.35,518l-23.64,24.8,22.5,22.51,1.14.11v0l.26,0,.24,0v0c137-11.56,246.34-120.49,258.43-257.39" transform="translate(-0.01)"/><path class="cls-7" d="M208.33,207.18c-5.58-5.26-12-7-19.44-7-9.26,0-14.35,2.87-14.35,7.82s4.62,8,14.66,8.61c14.84.95,33.65,4.3,33.65,25.19,0,13.87-11.32,25.83-33.81,25.83-12.43,0-24.88-2.06-36.36-14l9.58-13.87c5.57,6.23,18.33,10.85,27.1,11,7.34.16,14.19-3.67,14.19-9.41,0-5.42-4.46-7.65-15.63-8.29-14.82-1.12-32.52-6.54-32.52-24.39,0-18.19,18.82-24.57,33.17-24.57,12.27,0,21.52,2.39,30.61,10.37Z" transform="translate(-0.01)"/><path class="cls-7" d="M313.42,225.68c0,22.64-15.47,41-41,41s-40.82-18.33-40.82-41,15.63-41,40.66-41,41.14,18.5,41.14,41m-62.35,0c0,11.95,7.18,23.12,21.37,23.12s21.38-11.17,21.38-23.12-8.3-23.29-21.38-23.29c-14,0-21.37,11.48-21.37,23.29" transform="translate(-0.01)"/><path class="cls-7" d="M346.27,153.44V197c4.62-8.14,17.54-12.6,25.83-12.6,23,0,40,14,40,41.14,0,25.84-17.39,41.15-40.5,41.15-9.57,0-19.29-3.19-25.36-12.6L345,264.9H326.82V153.44Zm1.28,72.07c0,14.2,10.53,23.12,22.8,23.12,12.43,0,22.31-9.39,22.31-23.12,0-14.19-9.88-23-22.31-23a22.44,22.44,0,0,0-22.8,23" transform="translate(-0.01)"/><polygon class="cls-7" points="199.59 294.44 154.46 294.44 154.46 285.87 254.35 285.87 254.35 294.44 209.22 294.44 209.22 410.56 199.59 410.56 199.59 294.44"/><rect class="cls-7" x="272.71" y="285.7" width="9.45" height="124.87"/><path class="cls-7" d="M412.75,393.27A64.34,64.34,0,0,1,367.25,412c-42.09,0-64-29.44-64.2-63.15-.37-33.35,21.39-64.57,64.2-64.57A64.31,64.31,0,0,1,412.75,303l-6.61,5.7a54.67,54.67,0,0,0-38.89-15.86c-36.38,0-55.1,25.69-54.93,55.64.36,29.27,18.91,54.59,54.93,54.59a55.78,55.78,0,0,0,39.07-15.88Z" transform="translate(-0.01)"/><g class="cls-8"><g class="cls-9"><g class="cls-10"><g class="cls-11"><rect class="cls-12" x="46.18" y="0.16" width="472.83" height="472.83"/></g></g></g></g><g class="cls-13"><g class="cls-9"><g class="cls-10"><g class="cls-11"><rect class="cls-12" x="46.18" y="0.16" width="472.83" height="472.83"/></g></g></g></g><g class="cls-14"><g class="cls-9"><g class="cls-15"><g class="cls-16"><rect class="cls-17" x="46.18" y="92.59" width="472.83" height="472.83"/></g></g></g></g><g class="cls-18"><g class="cls-9"><g class="cls-15"><g class="cls-16"><rect class="cls-17" x="46.18" y="92.59" width="472.83" height="472.83"/></g></g></g></g></g></g></g></svg>