<svg xmlns="http://www.w3.org/2000/svg" xmlns:xlink="http://www.w3.org/1999/xlink" width="306px" height="306px" viewBox="0 0 306 306"> <!-- Generator: Sketch 44.1 (41455) - http://www.bohemiancoding.com/sketch --> <title>inverted_mono_logo</title> <desc>Created with Sketch.</desc> <defs></defs> <g id="Page-1" stroke="none" stroke-width="1" fill="none" fill-rule="evenodd"> <g id="inverted_mono_logo" fill-rule="nonzero"> <rect id="Rectangle" fill="#26292C" x="0" y="0" width="305.26001" height="305.26001"></rect> <path d="M126.680727,125.177159 C126.680727,93.1244425 144.0483,81.711852 160.294379,81.711852 C180.232041,81.711852 193.627658,99.0508152 193.627658,124.878482 C193.627658,154.337428 176.587187,167.494918 159.733632,167.494918 C137.007813,167.494918 126.680727,145.534328 126.680727,125.177159 Z M168.300597,44 C144.59347,44 130.870751,54.752358 124.250824,62.1721138 C123.456433,55.7741464 119.281985,47.4740806 102.9736,47.4740806 L67.5530969,47.4740806 L67.5530969,84.887256 L82.0702072,84.887256 C84.5312624,84.887256 85.3256536,85.6732471 85.3256536,88.1569789 L85.3256536,259 L127.537423,259 L127.537423,194.878848 C127.537423,193.149667 127.50627,191.530526 127.459541,190.084302 C134.048316,196.183593 146.649541,204.609417 166.322407,204.609417 C207.584022,204.609417 236.446903,171.597792 236.446903,124.312569 C236.446903,76.2727937 209.048194,44 168.300597,44 L168.300597,44 Z" id="Fill-1" fill="#FFFFFF"></path> </g> </g> </svg>