<svg xmlns="http://www.w3.org/2000/svg" id="Layer_1" viewBox="0 0 800 800"><style>.st0{fill:#4580ff}.st1{fill:#fff}</style><path d="M799.9 799.9H.1V223.5C.1 100.1 100.1.1 223.5.1h576.4c0 4.5 0 4.5 0 0v799.8c-6.4 0 0 0 0 0" class="st0"/><path d="M384.2 612.9c-3.4 40.7-18.7 72.5-45.8 95.6C310.6 730.9 274 742 228.6 742c-52.9 0-93.2-15.9-121-47.8-27.7-30.5-41.5-75.5-41.5-135.2 0-61 14.2-106.7 42.7-137.2 29.1-31.8 71.1-47.8 126-47.8 44.7 0 80.3 11.2 106.7 33.5 25.1 21.7 39.3 52.2 42.7 91.5h-43.7c-16.2 0-27.8-7.1-34.6-21.4-4.7-8.8-10.5-16.6-17.3-23.4-13.5-10.2-31.5-15.2-53.9-15.2-31.2 0-55.2 10.2-72.2 30.5-16.3 20.3-24.4 50.1-24.4 89.4 0 38 8.1 67.1 24.4 87.4 15.6 21 39 31.5 70.1 31.5 21.7 0 39.6-5.4 53.9-16.3 12.9-10.1 22-26.4 27.5-48.8h70.2zm177.3-158.6l-48.8 148.4h97.6l-48.8-148.4zm-16.2-70.1h56.9l127.1 349.7H653l-23.4-72.2H493.4L471 733.9h-76.3l115.9-326.3c6.2-15.6 17.7-23.4 34.7-23.4" class="st1"/></svg>