<?xml version="1.0" standalone="no"?>
<!DOCTYPE svg PUBLIC "-//W3C//DTD SVG 20010904//EN"
 "http://www.w3.org/TR/2001/REC-SVG-20010904/DTD/svg10.dtd">
<svg version="1.0" xmlns="http://www.w3.org/2000/svg"
 width="1024.000000pt" height="1024.000000pt" viewBox="0 0 1024.000000 1024.000000"
 preserveAspectRatio="xMidYMid meet" style="background-color: white;">

<g transform="translate(0.000000,1024.000000) scale(0.100000,-0.100000)"
fill="#325bff" stroke="none">
<path d="M0 5120 l0 -5120 5120 0 5120 0 0 5120 0 5120 -5120 0 -5120 0 0
-5120z m6443 2856 c3 -7 6 -156 7 -330 0 -250 -2 -317 -12 -320 -7 -2 -38 -9
-68 -16 -388 -86 -638 -372 -628 -716 l3 -94 671 0 c517 0 674 -3 686 -13 9
-6 25 -28 36 -47 10 -19 38 -71 62 -115 114 -213 125 -233 199 -367 28 -52 69
-129 152 -285 23 -43 49 -91 59 -108 10 -16 38 -68 62 -115 118 -223 176 -330
287 -532 16 -29 50 -93 76 -143 27 -49 56 -104 66 -121 111 -198 133 -255 110
-279 -4 -6 -28 -46 -51 -90 -23 -44 -57 -107 -75 -140 -43 -80 -117 -219 -147
-275 -12 -25 -25 -47 -28 -50 -3 -3 -19 -32 -36 -65 -29 -56 -60 -115 -140
-262 -19 -35 -50 -93 -70 -130 -20 -38 -49 -90 -64 -118 -38 -69 -94 -173
-150 -280 -26 -49 -58 -108 -70 -130 -13 -22 -40 -71 -60 -110 -21 -38 -51
-95 -67 -125 -16 -30 -54 -100 -83 -155 -29 -55 -58 -103 -64 -107 -19 -13
-876 -10 -876 3 0 11 71 150 130 254 12 22 44 81 70 130 26 50 56 106 67 125
11 19 40 73 65 120 25 47 64 121 88 165 23 44 55 103 70 130 26 47 55 102 138
255 19 36 48 89 64 118 16 29 48 90 72 135 24 45 52 98 63 117 11 19 40 73 65
120 108 203 132 249 166 310 19 36 39 70 44 77 9 12 2 28 -94 201 -16 29 -48
90 -72 135 -24 45 -57 107 -73 137 -43 78 -94 172 -143 265 -23 44 -55 103
-70 130 -15 28 -44 80 -64 118 -20 37 -52 97 -72 135 -20 37 -49 90 -64 117
-15 28 -45 84 -66 125 -21 41 -46 81 -54 87 -11 10 -111 12 -415 10 l-400 -2
-5 -1245 -5 -1245 -385 0 -385 0 -3 1239 c-2 977 -5 1242 -15 1248 -6 4 -90 8
-184 8 l-173 0 0 314 c0 288 1 314 17 320 10 4 92 6 183 5 l165 -2 2 59 c17
444 181 801 478 1043 238 195 499 312 820 370 128 23 181 25 188 7z m-3320
-1386 c88 -13 164 -28 237 -47 30 -8 69 -18 85 -23 99 -25 301 -124 421 -204
150 -101 290 -237 419 -410 94 -124 199 -346 243 -511 45 -167 55 -247 55
-430 0 -164 -8 -241 -40 -370 -8 -33 -19 -77 -24 -97 -40 -163 -195 -451 -316
-590 -152 -172 -308 -299 -486 -393 -86 -45 -217 -101 -274 -116 -18 -5 -50
-14 -70 -20 -103 -29 -316 -59 -422 -59 -84 0 -250 19 -341 40 -41 9 -61 14
-152 39 -36 9 -61 18 -95 32 -13 5 -33 13 -45 18 -52 20 -208 98 -267 133 -35
22 -68 35 -73 30 -4 -4 -9 -296 -10 -647 l-3 -640 -374 -3 c-293 -2 -376 1
-383 10 -13 21 -10 4128 3 4144 9 11 72 14 320 14 l309 0 67 -90 c36 -49 70
-90 75 -90 4 0 32 16 62 35 181 116 433 203 701 243 85 13 293 14 378 2z
m6221 -96 c11 -4 13 -10 8 -18 -5 -6 -31 -51 -57 -101 -26 -49 -60 -114 -76
-142 -16 -29 -42 -77 -58 -105 -16 -29 -44 -82 -63 -118 -19 -36 -46 -85 -60
-110 -14 -25 -45 -83 -70 -130 -25 -47 -59 -111 -77 -142 -17 -32 -45 -84 -62
-115 -18 -32 -50 -92 -72 -133 -42 -79 -92 -172 -137 -255 -72 -132 -101 -186
-138 -255 -22 -41 -45 -75 -52 -75 -6 0 -33 41 -60 91 -26 50 -62 118 -80 150
-18 33 -50 91 -70 129 -54 102 -108 202 -142 263 -86 156 -92 173 -68 207 4 6
34 62 68 125 33 63 77 147 97 185 21 39 54 102 74 140 20 39 38 72 41 75 3 3
17 28 31 55 80 155 134 252 147 268 14 16 48 17 438 17 232 0 430 -3 438 -6z"/>
<path d="M2700 5845 c-108 -26 -126 -32 -192 -63 -154 -71 -276 -175 -369
-314 -33 -48 -59 -90 -59 -93 0 -3 -8 -24 -19 -48 -58 -131 -89 -330 -71 -455
12 -84 26 -151 42 -197 75 -224 248 -421 458 -522 215 -104 415 -120 670 -55
176 45 393 211 495 378 25 41 45 77 45 79 0 3 9 24 19 48 53 114 65 184 65
357 -1 171 -7 213 -53 328 -109 275 -339 476 -629 551 -97 25 -310 28 -402 6z"/>
</g>
</svg>
