<?xml version="1.0" encoding="UTF-8" standalone="no"?>
<svg
   xmlns:dc="http://purl.org/dc/elements/1.1/"
   xmlns:cc="http://creativecommons.org/ns#"
   xmlns:rdf="http://www.w3.org/1999/02/22-rdf-syntax-ns#"
   xmlns:svg="http://www.w3.org/2000/svg"
   xmlns="http://www.w3.org/2000/svg"
   viewBox="0 0 566.02667 723.88"
   height="723.88"
   width="566.02667"
   xml:space="preserve"
   id="svg2"
   version="1.1"><metadata
     id="metadata8"><rdf:RDF><cc:Work
         rdf:about=""><dc:format>image/svg+xml</dc:format><dc:type
           rdf:resource="http://purl.org/dc/dcmitype/StillImage" /></cc:Work></rdf:RDF></metadata><defs
     id="defs6" /><g
     transform="matrix(1.3333333,0,0,-1.3333333,0,723.88)"
     id="g10"><g
       transform="scale(0.1)"
       id="g12"><path
         id="path14"
         style="fill:#231f20;fill-opacity:1;fill-rule:nonzero;stroke:none"
         d="m 2944.19,3466.06 c 30.32,3.62 59.37,3.77 86.06,0 15.45,35.43 18.1,96.51 4.21,163.02 -20.65,98.86 -48.61,158.68 -106.38,149.37 -57.77,-9.31 -59.9,-80.93 -39.25,-179.79 11.62,-55.62 32.32,-103.15 55.36,-132.6" /><path
         id="path16"
         style="fill:#231f20;fill-opacity:1;fill-rule:nonzero;stroke:none"
         d="m 2448.25,3387.82 c 41.33,-18.13 66.73,-30.15 76.68,-19.65 6.39,6.56 4.47,19.06 -5.4,35.18 -20.39,33.3 -62.35,67.07 -106.88,86.04 -91.04,39.19 -199.62,26.15 -283.38,-34.04 -27.66,-20.26 -53.88,-48.32 -50.12,-65.37 1.22,-5.51 5.35,-9.66 15.06,-11.02 22.8,-2.61 102.47,37.67 194.24,43.29 64.8,3.97 118.46,-16.29 159.8,-34.43" /><path
         id="path18"
         style="fill:#231f20;fill-opacity:1;fill-rule:nonzero;stroke:none"
         d="m 2365.1,3340.39 c -53.83,-8.5 -83.53,-26.25 -102.58,-42.75 -16.27,-14.23 -26.33,-29.94 -26.24,-40.99 0.04,-5.26 2.31,-8.29 4.12,-9.81 2.45,-2.17 5.36,-3.37 8.85,-3.37 12.16,0 39.39,10.93 39.39,10.93 74.92,26.81 124.34,23.57 173.32,17.98 27.06,-3.03 39.85,-4.72 45.78,4.56 1.76,2.66 3.89,8.43 -1.53,17.22 -12.62,20.46 -66.97,55.03 -141.11,46.23" /><path
         id="path20"
         style="fill:#231f20;fill-opacity:1;fill-rule:nonzero;stroke:none"
         d="m 2776.72,3166.23 c 36.55,-17.96 76.81,-10.91 89.91,15.74 13.09,26.66 -5.93,62.83 -42.47,80.79 -36.57,17.96 -76.81,10.91 -89.91,-15.75 -13.1,-26.65 5.92,-62.82 42.47,-80.78" /><path
         id="path22"
         style="fill:#231f20;fill-opacity:1;fill-rule:nonzero;stroke:none"
         d="m 3011.72,3371.57 c -29.69,0.5 -54.33,-32.11 -55.02,-72.82 -0.69,-40.72 22.83,-74.14 52.52,-74.65 29.7,-0.5 54.32,32.11 55.02,72.82 0.69,40.73 -22.82,74.15 -52.52,74.65" /><path
         id="path24"
         style="fill:#231f20;fill-opacity:1;fill-rule:nonzero;stroke:none"
         d="m 1017.16,2637.31 c -7.39,9.25 -19.527,6.43 -31.277,3.7 -8.207,-1.92 -17.504,-4.09 -27.695,-3.9 -21.844,0.41 -40.336,9.76 -50.727,25.7 -13.527,20.78 -12.742,51.75 2.191,87.22 2.012,4.77 4.387,10.08 6.965,15.87 23.817,53.43 63.68,142.86 18.926,228.08 -33.684,64.14 -88.613,104.08 -154.668,112.48 -63.414,8.03 -128.691,-15.49 -170.328,-61.42 -65.695,-72.48 -75.957,-171.09 -63.258,-205.94 4.66,-12.76 11.938,-16.29 17.227,-17.01 11.175,-1.51 27.707,6.63 38.058,34.47 0.75,2.01 1.739,5.12 2.969,9.06 4.609,14.73 13.203,42.14 27.27,64.12 16.968,26.51 43.386,44.76 74.41,51.4 31.59,6.77 63.89,0.75 90.925,-16.95 46.016,-30.13 63.739,-86.51 44.094,-140.32 -10.156,-27.82 -26.656,-81.03 -23.019,-124.74 7.359,-88.49 61.785,-124.02 110.679,-127.8 47.543,-1.79 80.768,24.89 89.178,44.41 4.96,11.53 0.78,18.56 -1.92,21.57" /><path
         id="path26"
         style="fill:#231f20;fill-opacity:1;fill-rule:nonzero;stroke:none"
         d="m 1469.13,4262.46 c 155.05,179.19 345.95,334.97 516.94,422.45 5.91,3.02 12.19,-3.4 8.98,-9.21 -13.57,-24.59 -39.72,-77.24 -48,-117.18 -1.3,-6.22 5.48,-10.91 10.73,-7.32 106.39,72.51 291.44,150.2 453.75,160.19 6.98,0.43 10.35,-8.51 4.8,-12.76 -24.68,-18.93 -51.68,-45.14 -71.4,-71.65 -3.35,-4.51 -0.2,-11 5.42,-11.04 113.99,-0.81 274.66,-40.7 379.38,-99.43 7.1,-3.98 2.05,-17.71 -5.88,-15.89 -158.45,36.33 -417.83,63.88 -687.25,-1.84 -240.53,-58.67 -424.12,-149.25 -558.05,-246.66 -6.77,-4.93 -14.9,4.01 -9.42,10.34 z M 2241.4,2526.41 c 0.01,-0.03 0.04,-0.06 0.05,-0.1 0.03,-0.06 0.05,-0.14 0.08,-0.2 -0.05,0.1 -0.08,0.2 -0.13,0.3 z m 639.45,-75.48 c 4.59,1.93 7.76,7.19 7.23,12.39 -0.65,6.41 -6.37,11.07 -12.77,10.41 0,0 -330.91,-48.98 -643.52,65.46 34.04,110.67 124.59,70.7 261.44,59.66 246.66,-14.7 467.74,21.33 631.12,68.22 141.57,40.64 327.53,120.74 471.95,234.73 48.72,-107 65.92,-224.77 65.92,-224.77 0,0 37.71,6.75 69.23,-12.65 29.77,-18.32 51.61,-56.42 36.7,-154.91 -30.37,-184 -108.59,-333.35 -240.04,-470.73 -80,-86.13 -177.15,-161.01 -288.3,-215.47 -59.02,-31 -121.88,-57.83 -188.26,-79.51 -495.54,-161.84 -1002.77,16.09 -1166.28,398.19 -13.05,28.72 -24.08,58.79 -32.79,90.25 -69.68,251.8 -10.52,553.89 174.4,744.04 0.01,0.01 -0.03,0.07 -0.02,0.09 11.4,12.11 23.03,26.37 23.03,44.32 0,15 -9.53,30.84 -17.81,42.06 -64.68,93.83 -288.77,253.73 -243.79,563.17 32.3,222.29 226.71,378.85 407.97,369.57 15.31,-0.79 30.65,-1.73 45.93,-2.64 78.56,-4.64 147.08,-14.72 211.75,-17.43 108.22,-4.67 205.55,11.06 320.81,107.1 38.89,32.41 70.05,60.5 122.81,69.44 5.53,0.94 19.33,5.88 46.9,4.59 28.14,-1.5 54.92,-9.23 79,-25.25 92.4,-61.5 105.51,-210.43 110.3,-319.38 2.73,-62.19 10.25,-212.65 12.82,-255.84 5.88,-98.77 31.84,-112.7 84.37,-129.99 29.53,-9.72 56.96,-16.97 97.37,-28.31 122.32,-34.35 194.84,-69.19 240.56,-113.95 27.26,-27.97 39.94,-57.69 43.85,-86.03 14.43,-105.22 -81.69,-235.21 -336.13,-353.31 -278.15,-129.1 -615.57,-161.78 -848.71,-135.82 -17.89,1.99 -81.46,9.2 -81.68,9.23 -186.49,25.12 -292.87,-215.9 -180.95,-381.01 72.13,-106.41 268.61,-175.68 465.19,-175.71 450.72,-0.06 797.16,192.42 926.02,358.65 3.86,4.97 4.24,5.51 10.32,14.69 6.33,9.56 1.11,14.82 -6.79,9.42 -105.29,-72.04 -572.94,-358.05 -1073.16,-272.01 0,0 -60.79,10 -116.27,31.59 -44.1,17.15 -136.37,59.59 -147.59,154.28 403.69,-124.85 657.87,-6.83 657.87,-6.83 z M 663.559,3410.3 C 523.168,3383 399.43,3303.44 323.766,3193.52 278.535,3231.24 194.281,3304.26 179.398,3332.71 58.5977,3562.1 311.238,4008.07 487.727,4259.92 923.891,4882.35 1607.02,5353.47 1923.26,5268 c 51.4,-14.55 221.67,-211.97 221.67,-211.97 0,0 -316.11,-175.39 -609.26,-419.87 C 1140.68,4332.02 842.309,3889.97 663.559,3410.3 Z m 235.91,-1052.58 c -21.242,-3.63 -42.926,-5.07 -64.781,-4.55 -211.243,5.67 -439.415,195.84 -462.09,421.37 -25.063,249.29 102.308,441.14 327.836,486.62 26.961,5.44 59.543,8.57 94.671,6.75 126.364,-6.92 312.565,-103.95 355.105,-379.21 37.68,-243.79 -22.16,-492.01 -250.741,-530.98 z M 3761,2799.13 c -1.82,6.4 -13.59,49.49 -29.79,101.42 -16.21,51.93 -32.97,88.48 -32.97,88.48 64.96,97.27 66.12,184.26 57.49,233.52 -9.23,61.07 -34.65,113.11 -85.89,166.91 -51.25,53.8 -156.05,108.89 -303.34,150.24 -16.85,4.73 -72.4,19.97 -77.29,21.46 -0.37,3.2 -4.05,182.2 -7.41,259.04 -2.44,55.54 -7.21,142.26 -34.11,227.69 -32.07,115.61 -87.94,216.78 -157.69,281.51 192.47,199.51 312.61,419.27 312.32,607.82 -0.55,362.57 -445.84,472.28 -994.58,245.06 -0.58,-0.24 -115.44,-48.95 -116.27,-49.36 -0.51,0.51 -210.19,206.23 -213.34,208.98 C 1452.49,5887.61 -503.637,3713.31 121.77,3185.24 l 136.683,-115.78 c -35.461,-91.84 -49.387,-197.06 -38.008,-310.22 14.61,-145.32 89.578,-284.65 211.082,-392.3 115.348,-102.18 267.004,-166.87 414.172,-166.74 243.381,-560.85 799.451,-904.92 1451.461,-924.28 699.4,-20.77 1286.51,307.4 1532.51,896.92 16.09,41.39 84.38,227.81 84.38,392.37 0,165.38 -93.5,233.92 -153.05,233.92" /><path
         id="path28"
         style="fill:#100f0d;fill-opacity:1;fill-rule:nonzero;stroke:none"
         d="m 574.27,626.34 c -76.985,0 -115.071,-60.578 -132.547,-99.649 -9.758,-21.832 -12.485,-39.07 -20.407,-39.07 -11.16,0 -3.164,14.988 -12.293,48.238 -12.011,43.75 -48.222,90.481 -125.144,90.481 -80.875,0 -115.512,-68.328 -131.93,-105.879 -11.226,-25.672 -11.242,-32.84 -19.883,-32.84 -12.507,0 -2.144,20.391 3.493,44.348 11.086,47.211 2.656,83.281 2.656,83.281 H 10 V 133.16 h 175.004 c 0,0 0,201.469 0,239.852 0,47.308 19.793,107.347 53.711,107.347 39.195,0 47.039,-30.097 47.039,-85.839 0,-50.54 0,-261.469 0,-261.469 h 175.707 c 0,0 0,202.691 0,239.961 0,42.117 17.187,107.347 53.973,107.347 39.742,0 46.777,-42.289 46.777,-85.839 0,-43.551 0,-261.36 0,-261.36 h 172.547 c 0,0 0,191.012 0,283.488 0,125.813 -44.352,209.692 -160.488,209.692" /><path
         id="path30"
         style="fill:#100f0d;fill-opacity:1;fill-rule:nonzero;stroke:none"
         d="m 3544.62,626.34 c -76.98,0 -115.07,-60.578 -132.54,-99.649 -9.77,-21.832 -12.5,-39.07 -20.41,-39.07 -11.16,0 -3.7,19.051 -12.29,48.238 -12.83,43.532 -44.73,90.481 -125.15,90.481 -80.88,0 -115.51,-68.328 -131.93,-105.879 -11.23,-25.672 -11.24,-32.84 -19.88,-32.84 -12.51,0 -2.15,20.391 3.48,44.348 11.1,47.211 2.66,83.281 2.66,83.281 H 2980.35 V 133.16 h 175 c 0,0 0,201.469 0,239.852 0,47.308 19.79,107.347 53.71,107.347 39.2,0 47.04,-30.097 47.04,-85.839 0,-50.54 0,-261.469 0,-261.469 h 175.71 c 0,0 0,202.691 0,239.961 0,42.117 17.18,107.347 53.97,107.347 39.74,0 46.78,-42.289 46.78,-85.839 0,-43.551 0,-261.36 0,-261.36 h 172.55 c 0,0 0,191.012 0,283.488 0,125.813 -44.35,209.692 -160.49,209.692" /><path
         id="path32"
         style="fill:#100f0d;fill-opacity:1;fill-rule:nonzero;stroke:none"
         d="m 990.957,245.82 c -41.84,-9.66 -63.535,3.219 -63.535,30.969 0,38 39.297,53.211 95.388,53.211 24.73,0 47.99,-2.141 47.99,-2.141 0,-16.269 -35.31,-71.757 -79.843,-82.039 z m 42.603,380.418 c -134.052,0 -230.24,-49.289 -230.24,-49.289 V 432.09 c 0,0 106.231,61.07 192.399,61.07 68.781,0 77.231,-37.09 74.091,-67.89 0,0 -19.82,5.25 -80.369,5.25 -142.625,0 -214.632,-64.821 -214.632,-168.77 0,-98.59 80.921,-139.809 149.101,-139.809 99.48,0 143.21,66.848 156.66,98.571 9.32,22.008 11.02,36.828 19.4,36.828 9.54,0 6.33,-10.629 5.86,-32.52 -0.8,-38.359 1.01,-67.359 7.08,-91.769 h 131.9 v 237.25 c 0,148.129 -52.41,255.937 -211.25,255.937" /><path
         id="path34"
         style="fill:#100f0d;fill-opacity:1;fill-rule:nonzero;stroke:none"
         d="m 1533.08,133.051 h 175 v 628.14 h -175 v -628.14" /><path
         id="path36"
         style="fill:#100f0d;fill-opacity:1;fill-rule:nonzero;stroke:none"
         d="m 1900.7,374.09 c 0,43.351 40.27,82.789 114.2,82.789 80.56,0 145.35,-38.777 159.88,-47.59 v 167.66 c 0,0 -51.18,49.289 -176.99,49.289 -132.63,0 -243.07,-77.609 -243.07,-244.648 0,-167.031 100.23,-259.649 242.71,-259.649 111.3,0 177.64,61.161 177.64,61.161 V 342.34 c -20.99,-11.738 -79.47,-52.32 -159.36,-52.32 -84.59,0 -115.01,38.91 -115.01,84.07" /><path
         id="path38"
         style="fill:#100f0d;fill-opacity:1;fill-rule:nonzero;stroke:none"
         d="m 2529.29,626.238 c -101.31,0 -139.84,-95.996 -147.62,-112.668 -7.79,-16.672 -11.63,-26.261 -18,-26.058 -11.06,0.367 -3.35,20.468 0.96,33.488 8.14,24.59 25.41,89.109 25.41,168.41 0,53.781 -7.27,71.781 -7.27,71.781 H 2231.7 v -628.14 h 175 c 0,0 0,200.789 0,239.847 0,39.071 15.59,107.364 59.68,107.364 36.51,0 47.95,-27.071 47.95,-81.551 0,-54.481 0,-265.66 0,-265.66 h 175 c 0,0 0,146.918 0,255.168 0,123.761 -20.52,238.019 -160.04,238.019" /><path
         id="path40"
         style="fill:#100f0d;fill-opacity:1;fill-rule:nonzero;stroke:none"
         d="M 2746.21,614.59 V 133.051 h 175 V 614.59 c 0,0 -29.42,-17.211 -87.32,-17.211 -57.9,0 -87.68,17.211 -87.68,17.211" /><path
         id="path42"
         style="fill:#100f0d;fill-opacity:1;fill-rule:nonzero;stroke:none"
         d="m 2833.19,766.07 c -59.16,0 -107.12,-31.3 -107.12,-69.918 0,-38.613 47.96,-69.914 107.12,-69.914 59.16,0 107.12,31.301 107.12,69.914 0,38.618 -47.96,69.918 -107.12,69.918" /><path
         id="path44"
         style="fill:#100f0d;fill-opacity:1;fill-rule:nonzero;stroke:none"
         d="M 1301.45,614.59 V 133.051 h 175 V 614.59 c 0,0 -29.42,-17.211 -87.32,-17.211 -57.91,0 -87.68,17.211 -87.68,17.211" /><path
         id="path46"
         style="fill:#100f0d;fill-opacity:1;fill-rule:nonzero;stroke:none"
         d="m 1388.43,766.07 c -59.17,0 -107.13,-31.3 -107.13,-69.918 0,-38.613 47.96,-69.914 107.13,-69.914 59.16,0 107.12,31.301 107.12,69.914 0,38.618 -47.96,69.918 -107.12,69.918" /><path
         id="path48"
         style="fill:#100f0d;fill-opacity:1;fill-rule:nonzero;stroke:none"
         d="m 4004.76,236.641 c -40.14,0 -69.66,50.898 -69.66,121.82 0,68.879 30.32,121.801 68.27,121.801 48.71,0 69.46,-44.672 69.46,-121.801 0,-80.242 -19.13,-121.82 -68.07,-121.82 z m 48.03,389.699 c -89.96,0 -131.18,-67.449 -149.1,-105.879 -11.85,-25.391 -11.25,-32.84 -19.89,-32.84 -12.51,0 -2.14,20.391 3.49,44.348 11.09,47.211 2.66,83.281 2.66,83.281 H 3761.73 V 0 h 175.01 c 0,0 0,100.672 0,195.059 20.71,-35.129 59.07,-72.661 118.2,-72.661 126.54,0 190.24,107.071 190.24,251.731 0,163.973 -76.25,252.211 -192.39,252.211" /></g></g></svg>