<svg id="Õ__1" data-name="Õº≤„_1" xmlns="http://www.w3.org/2000/svg" xmlns:xlink="http://www.w3.org/1999/xlink" viewBox="0 0 1078.86 659.92"><defs><style>.cls-1,.cls-59,.cls-97{fill:#05153e;}.cls-1{opacity:0.35;}.cls-2{isolation:isolate;}.cls-3{fill:gray;}.cls-4{fill:#939292;}.cls-5{fill:#d3d3d3;}.cls-6{fill:#fff;}.cls-7{fill:#3ba998;}.cls-8{fill:#297569;}.cls-9{fill:#4cdbc4;}.cls-10{fill:#f15a24;}.cls-11{fill:#29abe2;}.cls-12{fill:#b3b3b3;}.cls-13{fill:#f4a300;}.cls-14{fill:#2f8c7a;}.cls-15{fill:#3daf9d;}.cls-16{fill:#6d3904;}.cls-17{fill:#e0570b;}.cls-18{fill:#fcdb1f;}.cls-19{fill:#f27e00;}.cls-20{fill:#c62222;}.cls-21{fill:#f43737;}.cls-22{fill:#b21414;}.cls-23{fill:#c21a2c;}.cls-24{fill:#fcfdff;}.cls-25{fill:#a52224;}.cls-26{fill:#fede80;}.cls-27,.cls-34{fill:#091430;}.cls-28{fill:url(#Œ_ƒΩ_2);}.cls-29{fill:#1a2444;}.cls-30{fill:#040d21;opacity:0.8;}.cls-31{fill:#8e1325;}.cls-32{fill:#e9f6f8;}.cls-33{fill:#4bd3dd;}.cls-114,.cls-34{opacity:0.57;}.cls-35{fill:#ed2441;}.cls-111,.cls-36{fill:#4e0711;}.cls-37{fill:#f6d880;}.cls-38{fill:#fbfdff;}.cls-39{fill:#9c2424;}.cls-40{fill:#71bdc4;}.cls-41{fill:#586172;}.cls-42{fill:#eb8658;}.cls-43{fill:#f15a23;}.cls-44{fill:#576272;}.cls-45{fill:#6fbbc4;}.cls-46{fill:#ef8559;}.cls-47{fill:#898989;}.cls-48{fill:#5b94e5;}.cls-49{fill:#fc776d;}.cls-50{fill:#ec649d;}.cls-51{fill:#51bec2;}.cls-52{fill:#fbcb3e;}.cls-53{fill:#4dbbc9;}.cls-54{fill:#33bad0;}.cls-55{fill:#ea5d15;}.cls-56{fill:url(#Œ_ƒΩ_2-2);}.cls-57{fill:#960f23;}.cls-117,.cls-58,.cls-97{opacity:0.37;}.cls-100,.cls-112,.cls-113,.cls-60,.cls-61,.cls-80,.cls-88,.cls-92{fill:none;}.cls-60,.cls-61{stroke:#1a2444;stroke-width:1.34px;}.cls-112,.cls-113,.cls-60,.cls-92{stroke-miterlimit:10;}.cls-100,.cls-61,.cls-88{stroke-linecap:round;stroke-linejoin:round;}.cls-62{fill:#111b33;}.cls-63{fill:#fbfcff;}.cls-64{fill:#8c2729;}.cls-65{fill:#ffc77e;}.cls-66{fill:#23132d;}.cls-67,.cls-81,.cls-82{fill:#060e21;}.cls-68{fill:#0b1f51;opacity:0.5;}.cls-69{fill:#5b0915;opacity:0.6;}.cls-70{opacity:0.3;}.cls-71,.cls-75{fill:#0e1320;}.cls-72{fill:#d3cccc;}.cls-73{fill:#d89c4f;}.cls-74,.cls-78{fill:#441018;}.cls-74,.cls-82{opacity:0.21;}.cls-75{opacity:0.58;}.cls-76{fill:#f72140;}.cls-77{fill:#f4dc84;}.cls-79{fill:#9ef2e9;}.cls-81{opacity:0.32;}.cls-83{fill:#7ed1cf;}.cls-84{fill:#f2f3f6;}.cls-85{fill:#84a0a3;}.cls-86{fill:#898988;}.cls-87{fill:#ffe54f;}.cls-88{stroke:#282c2d;stroke-width:0.91px;}.cls-89{fill:#ffd401;}.cls-90{fill:#dbb601;}.cls-91{fill:#ff8b01;}.cls-92{stroke:#020f2f;stroke-width:0.45px;}.cls-93{fill:#f73741;}.cls-94{fill:#b7b5ac;}.cls-95{fill:#777570;}.cls-96{fill:#d8d8d8;}.cls-98{fill:#ede1b6;}.cls-99{fill:#b51d22;}.cls-100{stroke:#ede1b6;stroke-width:0.07px;}.cls-101{fill:#eaab77;}.cls-102,.cls-114,.cls-115{fill:#040b1b;}.cls-103,.cls-110{fill:#7e191e;}.cls-104{fill:#d7aca1;}.cls-105{fill:#358748;}.cls-106,.cls-109{fill:#0e2e18;}.cls-107{fill:#205c30;}.cls-108{fill:#560e10;opacity:0.26;}.cls-109{opacity:0.4;}.cls-110{opacity:0.28;}.cls-111,.cls-119{opacity:0.39;}.cls-112,.cls-113{stroke:#192f60;stroke-width:0.17px;}.cls-113{stroke-dasharray:0.66 0.66;}.cls-115{opacity:0.45;}.cls-116{fill:#f76575;}.cls-117{fill:#aa3542;}.cls-118{fill:#ffe761;}.cls-119{fill:#c6873c;}.cls-120,.cls-121{fill:#802831;}.cls-121{opacity:0.53;}</style><linearGradient id="Œ_ƒΩ_2" x1="20405.41" y1="-2223.99" x2="20412.13" y2="-2226.96" gradientTransform="matrix(0.98, 0.2, -0.2, 0.98, -19695.47, -1624.87)" gradientUnits="userSpaceOnUse"><stop offset="0" stop-color="#fede80"/><stop offset="1" stop-color="#ed9e48"/></linearGradient><linearGradient id="Œ_ƒΩ_2-2" x1="19536.82" y1="-3972.35" x2="19544.21" y2="-3975.61" gradientTransform="matrix(0.79, 0.61, -0.61, 0.79, -17502.58, -8511.09)" xlink:href="#Œ_ƒΩ_2"/></defs><title>shutterstock_686898865 [Convertido]</title><g id="_Grupo_" data-name="&lt;Grupo&gt;"><polygon id="_Caminho_" data-name="&lt;Caminho&gt;" class="cls-1" points="1078.86 277.9 600.65 0 37.84 324.38 36.65 323.7 36.66 325.07 36.65 325.07 36.66 327.39 36.69 337.28 36.71 337.77 36.77 350.15 39.39 412.52 438.28 652.73 1075.18 285.38 1078.86 277.9"/><g id="_Grupo_2" data-name="&lt;Grupo&gt;"><g id="_Grupo_3" data-name="&lt;Grupo&gt;"><g id="_Grupo_4" data-name="&lt;Grupo&gt;" class="cls-2"><g id="_Grupo_5" data-name="&lt;Grupo&gt;"><polygon id="_Caminho_2" data-name="&lt;Caminho&gt;" class="cls-3" points="2.62 388.98 2.74 414.06 0.12 351.68 0 326.6 2.62 388.98"/></g><g id="_Grupo_6" data-name="&lt;Grupo&gt;"><polygon id="_Caminho_3" data-name="&lt;Caminho&gt;" class="cls-4" points="425.68 634.84 425.81 659.92 2.74 414.06 2.62 388.98 425.68 634.84"/></g><g id="_Grupo_7" data-name="&lt;Grupo&gt;"><polygon id="_Caminho_4" data-name="&lt;Caminho&gt;" class="cls-5" points="1042.21 279.44 1042.34 304.51 425.81 659.92 425.68 634.84 1042.21 279.44"/></g><g id="_Grupo_8" data-name="&lt;Grupo&gt;"><polygon id="_Caminho_5" data-name="&lt;Caminho&gt;" class="cls-6" points="564 1.53 1042.21 279.44 425.68 634.84 2.62 388.98 0 326.6 564 1.53"/></g></g></g><g id="_Grupo_9" data-name="&lt;Grupo&gt;"><g id="_Grupo_10" data-name="&lt;Grupo&gt;" class="cls-2"><g id="_Grupo_11" data-name="&lt;Grupo&gt;"><polygon id="_Caminho_6" data-name="&lt;Caminho&gt;" class="cls-7" points="907.9 209.34 907.96 228.87 882.61 243.49 882.58 223.96 907.9 209.34"/></g><g id="_Grupo_12" data-name="&lt;Grupo&gt;"><polygon id="_Caminho_7" data-name="&lt;Caminho&gt;" class="cls-8" points="882.58 223.96 882.61 243.49 859.84 230.24 859.77 210.71 882.58 223.96"/></g><g id="_Grupo_13" data-name="&lt;Grupo&gt;"><polygon id="_Caminho_8" data-name="&lt;Caminho&gt;" class="cls-9" points="885.1 196.09 907.9 209.34 882.58 223.96 859.77 210.71 885.1 196.09"/></g></g><g id="_Grupo_14" data-name="&lt;Grupo&gt;" class="cls-2"><g id="_Grupo_15" data-name="&lt;Grupo&gt;"><polygon id="_Caminho_9" data-name="&lt;Caminho&gt;" class="cls-7" points="871.23 230.52 871.27 250.04 845.94 264.67 845.88 245.15 871.23 230.52"/></g><g id="_Grupo_16" data-name="&lt;Grupo&gt;"><polygon id="_Caminho_10" data-name="&lt;Caminho&gt;" class="cls-8" points="845.88 245.15 845.94 264.67 800.35 238.17 800.3 218.64 845.88 245.15"/></g><g id="_Grupo_17" data-name="&lt;Grupo&gt;"><polygon id="_Caminho_11" data-name="&lt;Caminho&gt;" class="cls-9" points="825.63 204.03 871.23 230.52 845.88 245.15 800.3 218.64 825.63 204.03"/></g></g><g id="_Grupo_18" data-name="&lt;Grupo&gt;" class="cls-2"><g id="_Grupo_19" data-name="&lt;Grupo&gt;"><polygon id="_Caminho_12" data-name="&lt;Caminho&gt;" class="cls-7" points="835.34 251.23 835.4 270.76 810.06 285.38 810 265.86 835.34 251.23"/></g><g id="_Grupo_20" data-name="&lt;Grupo&gt;"><polygon id="_Caminho_13" data-name="&lt;Caminho&gt;" class="cls-8" points="810 265.86 810.06 285.38 750.41 250.72 750.34 231.19 810 265.86"/></g><g id="_Grupo_21" data-name="&lt;Grupo&gt;"><polygon id="_Caminho_14" data-name="&lt;Caminho&gt;" class="cls-9" points="775.68 216.56 835.34 251.23 810 265.86 750.34 231.19 775.68 216.56"/></g></g></g><g id="_Grupo_22" data-name="&lt;Grupo&gt;"><polygon id="_Caminho_15" data-name="&lt;Caminho&gt;" class="cls-9" points="570.28 356.01 585.37 347.3 600.44 356.01 585.37 364.71 570.28 356.01"/><polygon id="_Caminho_16" data-name="&lt;Caminho&gt;" class="cls-10" points="592.74 368.97 607.81 360.27 622.9 368.97 607.81 377.67 592.74 368.97"/><polygon id="_Caminho_17" data-name="&lt;Caminho&gt;" class="cls-11" points="615.36 382.03 630.43 373.32 645.51 382.03 630.43 390.74 615.36 382.03"/><polygon id="_Caminho_18" data-name="&lt;Caminho&gt;" class="cls-12" points="711.57 279.73 600 344.15 597.53 342.72 709.12 278.31 711.57 279.73"/><polygon id="_Caminho_19" data-name="&lt;Caminho&gt;" class="cls-12" points="715.77 282.15 604.17 346.57 601.73 345.14 713.31 280.72 715.77 282.15"/><polygon id="_Caminho_20" data-name="&lt;Caminho&gt;" class="cls-12" points="719.96 284.56 608.38 348.99 605.92 347.56 717.49 283.14 719.96 284.56"/><polygon id="_Caminho_21" data-name="&lt;Caminho&gt;" class="cls-12" points="734.01 292.69 622.44 357.11 619.99 355.68 731.57 291.27 734.01 292.69"/><polygon id="_Caminho_22" data-name="&lt;Caminho&gt;" class="cls-12" points="738.2 295.11 626.63 359.52 624.18 358.1 735.76 293.69 738.2 295.11"/><polygon id="_Caminho_23" data-name="&lt;Caminho&gt;" class="cls-12" points="742.4 297.52 630.82 361.94 628.37 360.53 739.93 296.11 742.4 297.52"/><polygon id="_Caminho_24" data-name="&lt;Caminho&gt;" class="cls-12" points="756.65 305.75 645.06 370.17 642.61 368.75 754.18 304.33 756.65 305.75"/><polygon id="_Caminho_25" data-name="&lt;Caminho&gt;" class="cls-12" points="760.83 308.16 649.26 372.58 646.79 371.17 758.36 306.75 760.83 308.16"/><polygon id="_Caminho_26" data-name="&lt;Caminho&gt;" class="cls-12" points="765.01 310.58 653.45 375 650.99 373.59 762.57 309.17 765.01 310.58"/></g><polygon id="_Caminho_27" data-name="&lt;Caminho&gt;" class="cls-13" points="614 69.15 371.19 209.34 337.81 190.08 580.62 49.88 614 69.15"/><g id="_Grupo_23" data-name="&lt;Grupo&gt;"><path id="_Caminho_28" data-name="&lt;Caminho&gt;" class="cls-14" d="M475.81,251.12c0,.51,0,1,.08,1.55l0,.37c0,.52.08,1,.14,1.55v0c.06.51.14,1,.21,1.53l.06.37q.12.78.27,1.53l0,.16c.09.46.2.94.31,1.4,0,.12.06.24.1.37.12.5.25,1,.39,1.5,0,.07,0,.13.06.21.13.44.27.9.42,1.34,0,.12.08.24.12.36.16.5.34,1,.51,1.49a1.53,1.53,0,0,1,.11.27c.15.4.31.79.48,1.18,0,.13.1.25.15.38.19.47.4,1,.62,1.42l.16,56c-.22-.46-.42-.94-.62-1.41-.05-.13-.11-.26-.16-.4-.16-.38-.32-.77-.47-1.15a.84.84,0,0,0-.08-.21s0,0,0-.06c-.18-.5-.36-1-.53-1.5,0-.12-.08-.24-.11-.36-.15-.44-.29-.9-.42-1.35l-.06-.2c-.14-.51-.27-1-.4-1.51a2.21,2.21,0,0,1-.08-.37c-.12-.45-.22-.93-.32-1.38,0,0,0-.08,0-.12s0,0,0-.05q-.15-.76-.27-1.53a2.35,2.35,0,0,1-.05-.37c-.09-.51-.16-1-.22-1.54h0q-.09-.78-.15-1.56l0-.37c0-.52-.06-1-.07-1.56h0c0-.36,0-.73,0-1.08l-.16-56C475.79,250.39,475.8,250.76,475.81,251.12Z" transform="translate(-11.19 -83.61)"/><g id="_Grupo_24" data-name="&lt;Grupo&gt;"><polygon id="_Caminho_29" data-name="&lt;Caminho&gt;" class="cls-15" points="468.72 184.51 468.87 240.51 586.7 222.06 586.54 166.06 468.72 184.51"/></g><g id="_Grupo_25" data-name="&lt;Grupo&gt;"><polygon id="_Caminho_30" data-name="&lt;Caminho&gt;" class="cls-16" points="552.33 233.93 552.49 289.94 586.7 222.06 586.54 166.06 552.33 233.93"/></g><g id="_Grupo_26" data-name="&lt;Grupo&gt;"><path id="_Caminho_31" data-name="&lt;Caminho&gt;" class="cls-9" d="M511.78,199.73c-32.09,18.52-42.74,44.79-31.88,68.4l117.83-18.46-34.21,67.87c41.21,6.87,87.53.91,120.14-17.93,47.77-27.58,48-72.3.56-99.88S559.56,172.14,511.78,199.73Z" transform="translate(-11.19 -83.61)"/></g><path id="_Caminho_32" data-name="&lt;Caminho&gt;" class="cls-14" d="M572.27,374.78l-1.35-.17-2.49-.33c-.38-.06-.77-.1-1.15-.17l-3.61-.56-.15-56c1.19.2,2.39.39,3.6.56l1.16.17c.82.12,1.64.22,2.47.33l1.37.17,2.34.27,1.38.16,2.41.22,1.29.13,2.89.22.82.05c1.23.09,2.46.16,3.71.23l1,0,2.78.1,1.13,0,2.58.06,1.2,0h3.66l3.62-.08c.26,0,.53,0,.79,0,1,0,1.89-.06,2.85-.1l1.12,0c.91,0,1.83-.1,2.73-.16l.91-.05c1.19-.08,2.37-.16,3.56-.27l.73-.06,2.86-.27,1.11-.13c.9-.09,1.8-.18,2.7-.3.3,0,.6-.06.91-.11,1.17-.15,2.34-.29,3.5-.47.26,0,.51-.07.77-.11.93-.13,1.86-.27,2.78-.42l1.16-.2,2.49-.43,1.1-.2,3.13-.61.35-.07c1.18-.24,2.36-.5,3.54-.77l1-.25c.83-.19,1.65-.38,2.46-.59l1.29-.33c.74-.19,1.48-.37,2.21-.58.45-.11.89-.23,1.34-.36l1.91-.55,2-.58c.59-.18,1.17-.35,1.75-.54l1.92-.62c.57-.2,1.15-.4,1.72-.58l1.9-.66,1.69-.63c.62-.22,1.25-.47,1.86-.7l2-.78.76-.29c1-.42,2-.83,3-1.27a2.17,2.17,0,0,1,.38-.16l2.6-1.18c.25-.13.5-.23.76-.36,1-.45,1.92-.91,2.85-1.39l.24-.12c.88-.43,1.75-.89,2.62-1.36.23-.13.48-.25.7-.38.94-.51,1.85-1,2.76-1.55A88.54,88.54,0,0,0,707,280.85c.88-1.05,1.74-2.09,2.54-3.17a56.77,56.77,0,0,0,5.1-8.1,48.18,48.18,0,0,0,2.79-6.67c.38-1.13.71-2.25,1-3.38a42.74,42.74,0,0,0,1.24-10.2l.14,56c.06,18.21-11.94,36.43-36,50.3-.91.53-1.82,1-2.74,1.53l-.73.4c-.87.46-1.74.92-2.61,1.36a2.53,2.53,0,0,1-.23.12c-1,.46-1.9.94-2.88,1.39l-.74.36L671.28,362l-.38.16c-1,.44-2,.85-3,1.26-.25.11-.51.2-.76.3l-1,.41-1,.37-1.85.71-1.7.61-1.89.67L658,367l-1.92.62c-.59.18-1.17.35-1.75.54l-2,.58-1,.29-.93.26-1.34.36c-.73.21-1.46.39-2.2.58-.42.11-.86.23-1.3.33-.81.21-1.63.39-2.46.59-.35.09-.69.17-1,.24-1.15.27-2.31.52-3.48.76a.07.07,0,0,0-.06,0l-.35.07c-1,.21-2.08.41-3.13.6l-1.11.21-2.49.43-1.14.19-2.8.43c-.26.05-.5.09-.75.12l-.21,0c-1.1.15-2.2.3-3.3.43-.31,0-.62.08-.91.1-.89.12-1.8.22-2.7.32l-1.1.12c-1,.09-1.91.19-2.88.27l-.73.06-.21,0-3.34.24-.9.05-2.74.17-1.13,0c-.94,0-1.89.09-2.84.1l-.79,0h-.26l-3.36.06h-3.66c-.4,0-.8,0-1.2,0l-2.57-.06-1.14,0h-.56l-2.2-.1-1,0c-1.23-.06-2.47-.13-3.71-.22l-.8-.06c-1-.06-1.93-.14-2.89-.22l-1.31-.11c-.52-.06-1-.1-1.58-.15l-.83-.09-1.38-.15Z" transform="translate(-11.19 -83.61)"/></g><g id="_Grupo_27" data-name="&lt;Grupo&gt;"><g id="_Grupo_28" data-name="&lt;Grupo&gt;"><polygon id="_Caminho_33" data-name="&lt;Caminho&gt;" class="cls-17" points="412.41 271.29 412.58 327.3 487.64 271.5 487.49 215.49 412.41 271.29"/></g><g id="_Grupo_29" data-name="&lt;Grupo&gt;"><path id="_Caminho_34" data-name="&lt;Caminho&gt;" class="cls-18" d="M380.84,317.55c5.3,11.53,15.75,22.44,31.32,31.49,3.65,2.12,7.48,4.07,11.44,5.87l75.07-55.81Z" transform="translate(-11.19 -83.61)"/></g><path id="_Caminho_35" data-name="&lt;Caminho&gt;" class="cls-19" d="M381.83,375.26c-.29-.56-.56-1.14-.83-1.7l-.16-56c.27.57.55,1.14.83,1.71l.13.26c.28.54.57,1.07.88,1.61l.17.31c.3.54.62,1.08.94,1.61a1.5,1.5,0,0,1,.15.23c.33.53.67,1.06,1,1.6a.5.5,0,0,0,.07.08c.36.55.74,1.09,1.13,1.62.06.1.13.18.19.29.38.51.77,1,1.18,1.55l.34.44c.15.16.28.35.43.52s.27.34.41.5l.44.53.43.5.44.51.45.5c.15.17.32.36.48.52l.46.5c.16.16.31.34.48.51s.32.33.48.49.33.34.49.51l.5.5.52.49c.16.17.33.34.5.49l.52.5c.15.13.29.25.44.4.47.43,1,.87,1.47,1.31a.07.07,0,0,1,0,0c.48.43,1,.84,1.5,1.28l.37.31c.52.41,1,.85,1.59,1.26a1.14,1.14,0,0,0,.17.15l1.51,1.16a3.58,3.58,0,0,1,.39.29c.55.41,1.13.81,1.69,1.22l.29.21c.52.36,1,.72,1.57,1.07l.38.26,1.82,1.19.37.23,1.66,1,.39.22c.53.33,1.07.64,1.61,1,3.65,2.12,7.48,4.07,11.44,5.87l.17,56a125.29,125.29,0,0,1-11.44-5.86c-.55-.32-1.09-.64-1.62-1l-.14-.08a1.88,1.88,0,0,1-.24-.14l-1.67-1c-.12-.08-.24-.16-.37-.23-.61-.39-1.22-.79-1.81-1.2l-.4-.24-1.55-1.08-.3-.21-1.69-1.23-.38-.29-1.51-1.15a1.39,1.39,0,0,1-.19-.15c-.54-.41-1-.85-1.58-1.27l-.36-.3c-.52-.43-1-.86-1.52-1.29,0,0,0,0,0,0l-1.47-1.32-.17-.17-.25-.23-.53-.49-.51-.49c-.18-.16-.34-.33-.52-.51s-.33-.32-.48-.48l-.5-.51-.49-.49c-.15-.18-.32-.35-.47-.51s-.31-.34-.47-.5l-.46-.52-.45-.49-.45-.53c-.15-.16-.29-.33-.44-.5s-.29-.34-.43-.53l-.42-.5-.42-.52-.25-.3a.85.85,0,0,0-.09-.14c-.41-.51-.8-1-1.17-1.54-.08-.1-.14-.19-.21-.29-.38-.54-.77-1.08-1.13-1.61l-.06-.1c-.35-.53-.7-1.07-1-1.59a2.22,2.22,0,0,1-.15-.23c-.33-.53-.64-1.07-.95-1.61l-.1-.15c0-.06-.05-.1-.07-.15-.31-.54-.6-1.08-.88-1.62C381.92,375.45,381.88,375.35,381.83,375.26Z" transform="translate(-11.19 -83.61)"/></g><g id="_Grupo_30" data-name="&lt;Grupo&gt;"><path id="_Caminho_36" data-name="&lt;Caminho&gt;" class="cls-20" d="M512.91,384.92c-1.09-.4-2.18-.78-3.25-1.2-.21-.08-.42-.14-.61-.23-1.15-.43-2.28-.89-3.4-1.36a7.33,7.33,0,0,1-.72-.3c-1.14-.47-2.28-1-3.41-1.47l-.16-56c1.12.5,2.27,1,3.42,1.48.24.1.48.2.7.31,1.14.45,2.27.91,3.4,1.34l.62.23c1.07.41,2.16.8,3.25,1.2a3.47,3.47,0,0,1,.45.17c1.18.4,2.37.8,3.56,1.17l1,.32,1.49.47,1.17.35,1.51.44,1.17.33,1.54.43,1.17.32,1.59.39c.38.1.76.21,1.13.29l1.7.41c.35.08.7.17,1.06.24.65.16,1.31.3,2,.45l.8.16c.93.21,1.86.4,2.8.58l.48.08c.76.15,1.54.31,2.32.44l2.58.46.15,56-2.44-.44-.13,0-2.29-.44c-.18,0-.34-.06-.52-.09-.93-.18-1.87-.37-2.79-.57l-.82-.18-1.94-.43c-.36-.08-.71-.16-1.07-.26-.56-.12-1.12-.24-1.69-.39-.37-.09-.76-.18-1.14-.29s-1.06-.27-1.58-.4-.79-.21-1.18-.33-1-.26-1.53-.41l-1.18-.33-1.5-.43-1.18-.37-1.47-.46-.61-.19-.39-.12c-1.18-.39-2.38-.79-3.55-1.2C513.21,385,513.07,385,512.91,384.92Z" transform="translate(-11.19 -83.61)"/><g id="_Grupo_31" data-name="&lt;Grupo&gt;"><path id="_Caminho_37" data-name="&lt;Caminho&gt;" class="cls-21" d="M576.43,268.54l-75.07,55.81a166.12,166.12,0,0,0,40.85,12.06Z" transform="translate(-11.19 -83.61)"/></g><polygon id="_Caminho_38" data-name="&lt;Caminho&gt;" class="cls-22" points="531.18 308.8 565.24 184.92 531.02 252.79 531.18 308.8"/></g><g id="_Grupo_32" data-name="&lt;Grupo&gt;"><path id="_Caminho_39" data-name="&lt;Caminho&gt;" class="cls-23" d="M750,257c6.2-.11,21.5-2.32,21.5-2.32l-.3-2.26-28.39-3.07C734.21,252,738.15,257.23,750,257Z" transform="translate(-11.19 -83.61)"/><g id="_Grupo_33" data-name="&lt;Grupo&gt;"><g id="_Grupo_34" data-name="&lt;Grupo&gt;"><polygon id="_Caminho_40" data-name="&lt;Caminho&gt;" class="cls-24" points="760.31 171.3 761.06 171.28 761.07 168.74 759.98 168.82 760.31 171.3"/><path id="_Caminho_41" data-name="&lt;Caminho&gt;" class="cls-25" d="M772,253a.17.17,0,0,1-.24-.05.17.17,0,1,1,.29-.19A.17.17,0,0,1,772,253Z" transform="translate(-11.19 -83.61)"/></g><polygon id="_Caminho_42" data-name="&lt;Caminho&gt;" class="cls-26" points="761.07 168.74 763.04 168.88 765.04 169.25 764.83 169.67 764.73 169.72 764.75 170.92 763.14 171.36 761.88 170.31 761.06 170.26 761.07 168.74"/></g><polygon id="_Caminho_43" data-name="&lt;Caminho&gt;" class="cls-27" points="739.07 248.51 739.24 250.26 743.63 250.44 739.07 248.51"/><path id="_Caminho_44" data-name="&lt;Caminho&gt;" class="cls-28" d="M746,248.4c-.34-.32-.81-1.16-1.34-1.48l-2.9,4.18,3.5,1.44,2.42-1.61.88-1.3A8.37,8.37,0,0,1,746,248.4Z" transform="translate(-11.19 -83.61)"/><path id="_Caminho_45" data-name="&lt;Caminho&gt;" class="cls-29" d="M744.77,282s7,10.47-5.9,24.2c0,0-6.53,17.46-8.19,24l-1.63-.06s-4.28-31.17,5.74-31.35c0,0-.42-15.34,2.71-18.59Z" transform="translate(-11.19 -83.61)"/><path id="_Caminho_46" data-name="&lt;Caminho&gt;" class="cls-30" d="M733.63,281.19l1.42,5,8.89,14.75s5.24-12.33,5.51-13.38c.42-1.6-4.79-5.33-4.79-5.33Z" transform="translate(-11.19 -83.61)"/><path id="_Caminho_47" data-name="&lt;Caminho&gt;" class="cls-31" d="M725.88,283.5s4.75-4.12,9-4.54l-2.55-5.07Z" transform="translate(-11.19 -83.61)"/><path id="_Caminho_48" data-name="&lt;Caminho&gt;" class="cls-23" d="M748.7,251.92s5.95,15-4.91,24.45c2-5.86,3.51-23.61,3.51-23.61Z" transform="translate(-11.19 -83.61)"/><path id="_Caminho_49" data-name="&lt;Caminho&gt;" class="cls-29" d="M733.12,276.54s-5.31,8.17,2.47,10.53c9,2.73,7.32,13.49,7.1,18.62-.76,17.95,8.18,24.8,8.18,24.8l1.75.57s.36-54.21-6.35-57.26C733.93,268.17,733.12,276.54,733.12,276.54Z" transform="translate(-11.19 -83.61)"/><polygon id="_Caminho_50" data-name="&lt;Caminho&gt;" class="cls-32" points="737.32 167.22 734.72 168.06 732.92 168.09 731.77 165.35 724.85 166.71 720.54 196.04 736.56 191.9 738.22 172.28 737.32 167.22"/><path id="_Caminho_51" data-name="&lt;Caminho&gt;" class="cls-33" d="M745.92,251.61A17.53,17.53,0,0,1,747,254s1.85-2.17,1.48-4.3A11.85,11.85,0,0,1,745.92,251.61Z" transform="translate(-11.19 -83.61)"/><path id="_Caminho_52" data-name="&lt;Caminho&gt;" class="cls-33" d="M743.2,248.89c.14.57.48,1.7,2.7,2.78a11.68,11.68,0,0,1-1.41,2.24s-1.93-2.82-1.53-4.94Z" transform="translate(-11.19 -83.61)"/><polygon id="_Caminho_53" data-name="&lt;Caminho&gt;" class="cls-27" points="722.87 249.7 717.46 247.68 717.08 249.31 722.87 249.7"/><path id="_Caminho_54" data-name="&lt;Caminho&gt;" class="cls-34" d="M732.78,277.72s-1.42-.07-1,1.93l7.86-4.26S735.43,275.56,732.78,277.72Z" transform="translate(-11.19 -83.61)"/><path id="_Caminho_55" data-name="&lt;Caminho&gt;" class="cls-23" d="M733.32,268.79l2.74-18.47L743,249l2.32,7.74a16.69,16.69,0,0,1-5.84,18.74c-7.38.58-13.56,8.05-13.56,8.05l0-5.49C726.65,276.11,733.32,268.79,733.32,268.79Z" transform="translate(-11.19 -83.61)"/><path id="_Caminho_56" data-name="&lt;Caminho&gt;" class="cls-35" d="M741.15,249.37s-1.89.35-2.43.55c.08.34,1.2,3.09,1.2,3.09s1.1.2,1.28.43c-.24.21-1.29.86-1.29.86s3.06,1.61,5.78,10.38c0,0,1.48-4.47-2.33-11.17C742,251.2,741.15,249.37,741.15,249.37Z" transform="translate(-11.19 -83.61)"/><path id="_Caminho_57" data-name="&lt;Caminho&gt;" class="cls-26" d="M750,247.05c-.06-1.6.15-2.67-.67-4.43-.53-1.15-5.15,1.27-5.94,2.78a14.47,14.47,0,0,1,.45,1.59c.07.3.34-.22.59-.07.53.32.66,1.33,1,1.65a5.44,5.44,0,0,0,3,1.06,1.78,1.78,0,0,0,.53-.08C749.69,249.33,750.07,248.66,750,247.05Z" transform="translate(-11.19 -83.61)"/><path id="_Caminho_58" data-name="&lt;Caminho&gt;" class="cls-36" d="M748.93,241.52c-.66-.41-1.58-1.18-4.5-.21-3.63,1.2-.56,6.72-.56,6.72l.59-.49c.09-.36.44-1.24.44-1.24a.91.91,0,0,1-.2-.24l0-.53s0-.29.39-.43c.32.06.56.4.72.71a1.4,1.4,0,0,0,.27-.59c-.15-.49-.29-.92-.32-1v0s3.88-.26,4-.61A5.14,5.14,0,0,0,748.93,241.52Z" transform="translate(-11.19 -83.61)"/><g id="_Grupo_35" data-name="&lt;Grupo&gt;"><g id="_Grupo_36" data-name="&lt;Grupo&gt;"><polygon id="_Caminho_59" data-name="&lt;Caminho&gt;" class="cls-8" points="740.15 169.41 740.09 191.65 763.09 204.93 763.15 182.69 740.15 169.41"/></g><g id="_Grupo_37" data-name="&lt;Grupo&gt;"><polygon id="_Caminho_60" data-name="&lt;Caminho&gt;" class="cls-7" points="763.15 182.69 763.09 204.93 785.95 191.65 786.01 169.41 763.15 182.69"/></g><g id="_Grupo_38" data-name="&lt;Grupo&gt;"><polygon id="_Caminho_61" data-name="&lt;Caminho&gt;" class="cls-9" points="763 156.13 740.15 169.41 763.15 182.69 786.01 169.41 763 156.13"/></g></g><path id="_Caminho_62" data-name="&lt;Caminho&gt;" class="cls-23" d="M735.05,257.17s2.63,5,11.67,9.06C752.38,268.78,766,262,766,262l-.7-2.6-16.76,1.53a32,32,0,0,1-11.72-10.46Z" transform="translate(-11.19 -83.61)"/><g id="_Grupo_39" data-name="&lt;Grupo&gt;"><g id="_Grupo_40" data-name="&lt;Grupo&gt;"><polygon id="_Caminho_63" data-name="&lt;Caminho&gt;" class="cls-37" points="754.84 177.64 756.28 178.07 760.24 177.78 760.64 175.5 755.97 176.04 754.26 175.93 754.84 177.64"/><polygon id="_Caminho_64" data-name="&lt;Caminho&gt;" class="cls-37" points="755.39 176.35 757.8 175 758.6 175.4 757.38 176.5 755.39 176.35"/><polygon id="_Caminho_65" data-name="&lt;Caminho&gt;" class="cls-37" points="757.8 175 759.03 174.96 759.11 175.47 758.6 175.4 757.8 175"/></g><g id="_Grupo_41" data-name="&lt;Grupo&gt;"><polygon id="_Caminho_66" data-name="&lt;Caminho&gt;" class="cls-38" points="754.82 178.35 755.68 178.21 755.31 175.26 754.06 175.54 754.82 178.35"/><path id="_Caminho_67" data-name="&lt;Caminho&gt;" class="cls-39" d="M766.25,259.63a.2.2,0,0,1-.29,0,.21.21,0,0,1,0-.29.22.22,0,0,1,.29,0A.21.21,0,0,1,766.25,259.63Z" transform="translate(-11.19 -83.61)"/></g></g></g><g id="_Grupo_42" data-name="&lt;Grupo&gt;"><path id="_Caminho_68" data-name="&lt;Caminho&gt;" class="cls-6" d="M502.41,505.06l-167,96.41c-5.07,2.93-12.82,3.25-17.21.71l-287.53-166c-4.4-2.53-3.84-7,1.23-9.93l167-96.41c5.07-2.93,12.82-3.25,17.21-.72l287.53,166C508,497.66,507.48,502.13,502.41,505.06Z" transform="translate(-11.19 -83.61)"/><g id="_Grupo_43" data-name="&lt;Grupo&gt;"><polygon id="_Caminho_69" data-name="&lt;Caminho&gt;" class="cls-40" points="225.53 446.09 221.11 448.65 189.44 430.36 193.86 427.81 225.53 446.09"/><polygon id="_Caminho_70" data-name="&lt;Caminho&gt;" class="cls-41" points="232.24 442.23 227.81 444.78 207.17 432.86 211.59 430.31 232.24 442.23"/><polygon id="_Caminho_71" data-name="&lt;Caminho&gt;" class="cls-42" points="238.94 438.36 234.52 440.91 173.75 405.82 178.17 403.27 238.94 438.36"/><polygon id="_Caminho_72" data-name="&lt;Caminho&gt;" class="cls-40" points="252.27 430.66 247.85 433.21 196.16 403.37 200.58 400.81 252.27 430.66"/><polygon id="_Caminho_73" data-name="&lt;Caminho&gt;" class="cls-41" points="258.97 426.79 254.55 429.34 207.49 402.17 211.91 399.62 258.97 426.79"/><polygon id="_Caminho_74" data-name="&lt;Caminho&gt;" class="cls-42" points="265.67 422.92 261.25 425.47 200.49 390.39 204.91 387.84 265.67 422.92"/><polygon id="_Caminho_75" data-name="&lt;Caminho&gt;" class="cls-40" points="279.22 415.1 274.8 417.65 223.1 387.81 227.53 385.26 279.22 415.1"/><polygon id="_Caminho_76" data-name="&lt;Caminho&gt;" class="cls-41" points="285.92 411.23 281.5 413.78 236.93 388.05 241.34 385.5 285.92 411.23"/><polygon id="_Caminho_77" data-name="&lt;Caminho&gt;" class="cls-42" points="292.62 407.36 288.2 409.91 264.67 396.33 269.09 393.78 292.62 407.36"/><polygon id="_Caminho_78" data-name="&lt;Caminho&gt;" class="cls-40" points="306.09 399.58 301.67 402.13 232.46 362.17 236.88 359.62 306.09 399.58"/><polygon id="_Caminho_79" data-name="&lt;Caminho&gt;" class="cls-41" points="312.8 395.71 308.38 398.27 263.8 372.53 268.22 369.98 312.8 395.71"/><polygon id="_Caminho_80" data-name="&lt;Caminho&gt;" class="cls-42" points="319.5 391.85 315.08 394.4 227.83 344.02 232.25 341.47 319.5 391.85"/><polygon id="_Caminho_81" data-name="&lt;Caminho&gt;" class="cls-40" points="333.04 384.02 328.62 386.58 280.41 358.74 284.83 356.19 333.04 384.02"/><polygon id="_Caminho_82" data-name="&lt;Caminho&gt;" class="cls-41" points="339.74 380.15 335.32 382.71 304.28 364.78 308.7 362.23 339.74 380.15"/><polygon id="_Caminho_83" data-name="&lt;Caminho&gt;" class="cls-42" points="346.44 376.29 342.02 378.84 281.26 343.75 285.68 341.2 346.44 376.29"/><polygon id="_Caminho_84" data-name="&lt;Caminho&gt;" class="cls-40" points="357.95 369.64 353.53 372.2 284.31 332.23 288.73 329.68 357.95 369.64"/><polygon id="_Caminho_85" data-name="&lt;Caminho&gt;" class="cls-41" points="362.44 367.05 360.23 368.33 269.42 315.9 271.63 314.62 362.44 367.05"/><polygon id="_Caminho_86" data-name="&lt;Caminho&gt;" class="cls-42" points="371.35 361.91 366.93 364.46 279.68 314.09 284.1 311.53 371.35 361.91"/></g><g id="_Grupo_44" data-name="&lt;Grupo&gt;"><path id="_Caminho_87" data-name="&lt;Caminho&gt;" class="cls-43" d="M210.46,382c4.31,2.48,6.47,5.74,6.48,9l19.35,2.21c1.07-6.89-2.77-14-11.9-19.26-6.83-3.94-15.45-6.14-24.35-6.78l-.42,11.41A29.43,29.43,0,0,1,210.46,382Z" transform="translate(-11.19 -83.61)"/><path id="_Caminho_88" data-name="&lt;Caminho&gt;" class="cls-44" d="M190.87,378.5l.41-11.4a64.07,64.07,0,0,0-19.14,3.67l12.51,9A33.94,33.94,0,0,1,190.87,378.5Z" transform="translate(-11.19 -83.61)"/><path id="_Caminho_89" data-name="&lt;Caminho&gt;" class="cls-45" d="M210.46,400.12c-8.65,5-22.68,5-31.34,0a14.34,14.34,0,0,1-5.07-4.64l-19.56,1.75c1.83,4,5.28,7.8,10.7,10.93,16.35,9.44,42.85,9.44,59.2,0a25.71,25.71,0,0,0,10.2-10L215.24,396A14.91,14.91,0,0,1,210.46,400.12Z" transform="translate(-11.19 -83.61)"/><path id="_Caminho_90" data-name="&lt;Caminho&gt;" class="cls-46" d="M177.84,382.93l-12.54-9-.11.05c-8.69,5-12.61,11.69-12.06,18.26l19.6-1.75C172.94,387.78,174.66,385.14,177.84,382.93Z" transform="translate(-11.19 -83.61)"/></g><g id="_Grupo_45" data-name="&lt;Grupo&gt;"><polygon id="_Caminho_91" data-name="&lt;Caminho&gt;" class="cls-47" points="165.61 359.69 125.7 382.73 122.25 380.74 162.16 357.7 165.61 359.69"/><polygon id="_Caminho_92" data-name="&lt;Caminho&gt;" class="cls-47" points="188.52 355.15 133.23 387.07 131.03 385.81 186.32 353.88 188.52 355.15"/><polygon id="_Caminho_93" data-name="&lt;Caminho&gt;" class="cls-47" points="194.22 358.44 138.93 390.37 136.73 389.1 192.03 357.18 194.22 358.44"/><polygon id="_Caminho_94" data-name="&lt;Caminho&gt;" class="cls-47" points="199.93 361.74 144.63 393.66 142.44 392.39 197.73 360.47 199.93 361.74"/></g><g id="_Grupo_46" data-name="&lt;Grupo&gt;"><polygon id="_Caminho_95" data-name="&lt;Caminho&gt;" class="cls-47" points="385.51 370.08 233.41 457.9 229.16 455.44 381.26 367.63 385.51 370.08"/><polygon id="_Caminho_96" data-name="&lt;Caminho&gt;" class="cls-47" points="390.52 372.98 238.42 460.79 236.3 459.56 388.4 371.75 390.52 372.98"/><polygon id="_Caminho_97" data-name="&lt;Caminho&gt;" class="cls-47" points="395.43 375.81 243.33 463.63 241.21 462.4 393.31 374.58 395.43 375.81"/><polygon id="_Caminho_98" data-name="&lt;Caminho&gt;" class="cls-47" points="352.1 406.5 248.25 466.46 246.12 465.23 349.97 405.27 352.1 406.5"/></g><g id="_Grupo_47" data-name="&lt;Grupo&gt;"><path id="_Caminho_99" data-name="&lt;Caminho&gt;" class="cls-48" d="M137.64,422.57a13.06,13.06,0,0,1,3.25,2.58l22-5.67a30,30,0,0,0-8.22-6.73c-16.12-9.3-42.1-9.43-58.5-.38l17,9.83C120.17,418.58,130.92,418.69,137.64,422.57Z" transform="translate(-11.19 -83.61)"/><path id="_Caminho_100" data-name="&lt;Caminho&gt;" class="cls-49" d="M111.82,423l-17-9.83C90,416,86.73,419.41,84.9,423l23.26,3.64A10.76,10.76,0,0,1,111.82,423Z" transform="translate(-11.19 -83.61)"/><path id="_Caminho_101" data-name="&lt;Caminho&gt;" class="cls-50" d="M137.64,437.11a22.87,22.87,0,0,1-7.46,2.57l5.68,13.51a54.39,54.39,0,0,0,18.79-6.26,32.7,32.7,0,0,0,6.29-4.65L140,435.4A14,14,0,0,1,137.64,437.11Z" transform="translate(-11.19 -83.61)"/><path id="_Caminho_102" data-name="&lt;Caminho&gt;" class="cls-51" d="M141,434.44l20.92,6.88c6-6.45,6.62-14.13,1.77-20.82l-22,5.67A6.48,6.48,0,0,1,141,434.44Z" transform="translate(-11.19 -83.61)"/><path id="_Caminho_103" data-name="&lt;Caminho&gt;" class="cls-52" d="M112.47,437.11a14.35,14.35,0,0,1-2.21-1.56l-20.71,7.09a32.74,32.74,0,0,0,5.91,4.29c10.46,6,25.08,8.21,38.53,6.52l-5.68-13.51C122.74,440.54,116.77,439.6,112.47,437.11Z" transform="translate(-11.19 -83.61)"/><path id="_Caminho_104" data-name="&lt;Caminho&gt;" class="cls-53" d="M107.65,427.7,84.4,424.07c-2.5,5.89-1.1,12.21,4.17,17.62l20.7-7.09A6.58,6.58,0,0,1,107.65,427.7Z" transform="translate(-11.19 -83.61)"/></g></g><g id="_Grupo_48" data-name="&lt;Grupo&gt;"><polygon id="_Caminho_105" data-name="&lt;Caminho&gt;" class="cls-6" points="561.75 455.28 395.25 551.4 278.64 484.08 445.14 387.95 561.75 455.28"/><path id="_Caminho_106" data-name="&lt;Caminho&gt;" class="cls-54" d="M439,595.8c1.84,1.06,1.84,2.78,0,3.84l-19.12,11a7.35,7.35,0,0,1-6.65,0h0c-1.84-1.06-1.84-2.78,0-3.84l19.12-11a7.35,7.35,0,0,1,6.65,0Z" transform="translate(-11.19 -83.61)"/><path id="_Caminho_107" data-name="&lt;Caminho&gt;" class="cls-13" d="M484.61,569.48c1.84,1.07,1.84,2.78,0,3.84l-19.12,11a7.35,7.35,0,0,1-6.65,0h0c-1.84-1.06-1.84-2.78,0-3.84l19.12-11a7.32,7.32,0,0,1,6.65,0Z" transform="translate(-11.19 -83.61)"/><path id="_Caminho_108" data-name="&lt;Caminho&gt;" class="cls-55" d="M530.2,543.17c1.83,1.06,1.83,2.78,0,3.84l-19.12,11a7.35,7.35,0,0,1-6.65,0h0c-1.84-1.06-1.83-2.78,0-3.84l19.13-11a7.35,7.35,0,0,1,6.65,0Z" transform="translate(-11.19 -83.61)"/><g id="_Grupo_49" data-name="&lt;Grupo&gt;"><polygon id="_Caminho_109" data-name="&lt;Caminho&gt;" class="cls-54" points="357.01 515.59 368.23 498.07 360.75 471.19 419.94 466.24 420.2 440.23 512.49 443.11 371.98 524.23 357.01 515.59"/><polygon id="_Caminho_110" data-name="&lt;Caminho&gt;" class="cls-55" points="368.26 518.31 361.58 495.19 386.11 489.19 386.52 470.71 432.05 473.23 439.57 458.61 514.98 446.47 379.4 524.74 368.26 518.31"/><polygon id="_Caminho_111" data-name="&lt;Caminho&gt;" class="cls-13" points="367.4 521.59 371.98 504.07 400.66 502.39 396.09 485.35 424.77 488.47 415.63 465.43 452.62 472.39 451.17 459.07 472.16 461.11 430.18 415.75 524.54 440.95 376.13 526.63 367.4 521.59"/></g></g><g id="_Grupo_50" data-name="&lt;Grupo&gt;"><path id="_Caminho_112" data-name="&lt;Caminho&gt;" class="cls-26" d="M392.14,349.53l.86.81,1.33.79,1.32.94.52,2.8-.5-.06-.69-2.28a18,18,0,0,1-3.46-1.55.65.65,0,0,1,0-.81Z" transform="translate(-11.19 -83.61)"/><path id="_Caminho_113" data-name="&lt;Caminho&gt;" class="cls-23" d="M361,337.82s8.65-3.58,12.46-1.35c4,2.33,19.6,13.42,19.6,13.42L391.32,351,372,343.19a56.78,56.78,0,0,1-6.53,4.74Z" transform="translate(-11.19 -83.61)"/><path id="_Caminho_114" data-name="&lt;Caminho&gt;" class="cls-56" d="M365.46,334.9a11,11,0,0,0-.6-2.11l-4.9,2.69,2.75,3.14,3-1.09,1.67-.17A9,9,0,0,1,365.46,334.9Z" transform="translate(-11.19 -83.61)"/><path id="_Caminho_115" data-name="&lt;Caminho&gt;" class="cls-29" d="M360.08,371.23s4.42,13.09-13.11,24c0,0-16.16,19.85-19.78,26.34l-1.7-.54s8.55-37.46,19.24-34.81c0,0,3.9-16.41,8.15-19Z" transform="translate(-11.19 -83.61)"/><path id="_Caminho_116" data-name="&lt;Caminho&gt;" class="cls-30" d="M350.51,370l-1.51,3,8.69,11.86s2.64-3.67,4-12.7c.27-1.8-2.3-5.11-2.3-5.11Z" transform="translate(-11.19 -83.61)"/><path id="_Caminho_117" data-name="&lt;Caminho&gt;" class="cls-31" d="M344.57,373.07s5-4.74,9.69-5.39l-3-5.45Z" transform="translate(-11.19 -83.61)"/><path id="_Caminho_118" data-name="&lt;Caminho&gt;" class="cls-23" d="M369.08,337.27s6.35,16.35-5.16,27.17c2-6.53,2.8-26.09,2.8-26.09Z" transform="translate(-11.19 -83.61)"/><path id="_Caminho_119" data-name="&lt;Caminho&gt;" class="cls-29" d="M352.22,365.11s-5.47,9.2,3.18,11.45c10,2.59,15.26,16.94,15.26,16.94-11.64,6-12.81,26.38-12.81,26.38l2.35.45s9.53-15.06,18.4-24.32c9.24-9.65-8.78-33.17-12.07-34.51C352.73,355.87,352.22,365.11,352.22,365.11Z" transform="translate(-11.19 -83.61)"/><polygon id="_Caminho_120" data-name="&lt;Caminho&gt;" class="cls-32" points="357.81 253.53 353.95 253.61 351.98 253.73 350.6 250.78 343.06 252.58 339.64 284.97 357.05 279.71 357.98 258.09 357.81 253.53"/><path id="_Caminho_121" data-name="&lt;Caminho&gt;" class="cls-33" d="M365.14,337.23a17.68,17.68,0,0,1,2.56,1.38s1.24-3.72-.51-5.32A10.69,10.69,0,0,0,365.14,337.23Z" transform="translate(-11.19 -83.61)"/><path id="_Caminho_122" data-name="&lt;Caminho&gt;" class="cls-33" d="M362,334.29c.19.62.61,1.85,3.1,2.94a13.71,13.71,0,0,1-1.45,2.52s-2.25-3-1.91-5.36Z" transform="translate(-11.19 -83.61)"/><polygon id="_Caminho_123" data-name="&lt;Caminho&gt;" class="cls-27" points="320.19 339.08 314.15 338.17 313.81 339.98 320.19 339.08"/><polygon id="_Caminho_124" data-name="&lt;Caminho&gt;" class="cls-27" points="352.58 338.17 346.55 337.26 346.21 339.08 352.58 338.17"/><path id="_Caminho_125" data-name="&lt;Caminho&gt;" class="cls-34" d="M351.89,366.41s-1.56,0-1.07,2.17l8.45-5S354.71,363.92,351.89,366.41Z" transform="translate(-11.19 -83.61)"/><path id="_Caminho_126" data-name="&lt;Caminho&gt;" class="cls-23" d="M352.09,356.59l2.18-20.41,7.51-1.79,2.9,8.4a18.33,18.33,0,0,1-5.57,20.83c-8.08,1-14.54,9.45-14.54,9.45l-.27-6C345.09,364.92,352.09,356.59,352.09,356.59Z" transform="translate(-11.19 -83.61)"/><path id="_Caminho_127" data-name="&lt;Caminho&gt;" class="cls-35" d="M359.82,334.91s-2.06.47-2.65.71c.11.37,1.46,3.34,1.46,3.34a4.24,4.24,0,0,1,1.42.42c-.25.24-1.37,1-1.37,1s3.43,1.63,6.81,11.14c0,0,1.43-5-3.07-12.16C360.88,336.88,359.82,334.91,359.82,334.91Z" transform="translate(-11.19 -83.61)"/><path id="_Caminho_128" data-name="&lt;Caminho&gt;" class="cls-26" d="M370.07,335.53c.73-1.6,1.45-2.55,1.51-4.68,0-1.4-5.69-1.27-7.21-.17a17.19,17.19,0,0,1-.33,1.78c-.08.33.44,0,.61.23.36.57,0,1.63.18,2.11a6,6,0,0,0,2.47,2.53,2.33,2.33,0,0,0,.57.18C368.63,337.62,369.34,337.15,370.07,335.53Z" transform="translate(-11.19 -83.61)"/><path id="_Caminho_129" data-name="&lt;Caminho&gt;" class="cls-36" d="M371.7,329.56c-.44-.73-1-1.93-4.32-2.41-4.17-.59-3.84,6.34-3.84,6.34l.81-.19c.28-.31,1-1,1-1a.94.94,0,0,1-.08-.33l.31-.5s.11-.29.59-.23a1.35,1.35,0,0,1,.36,1.06,1.77,1.77,0,0,0,.56-.46c.09-.55.16-1,.18-1.15l0,0s3.94,1.63,4.23,1.34A5.5,5.5,0,0,0,371.7,329.56Z" transform="translate(-11.19 -83.61)"/><path id="_Caminho_130" data-name="&lt;Caminho&gt;" class="cls-57" d="M354.27,336.18s5.35,10.23,7.48,12.82a14.33,14.33,0,0,0,3.9,3.53l-3.54,2.71-5.19-5.3Z" transform="translate(-11.19 -83.61)"/><path id="_Caminho_131" data-name="&lt;Caminho&gt;" class="cls-57" d="M353.15,347.38l11.74,8.08a18.42,18.42,0,0,1-4.49,7l-.44.41s-4.74-4-5.48-6.86C354.07,354.43,353.15,347.38,353.15,347.38Z" transform="translate(-11.19 -83.61)"/><path id="_Caminho_132" data-name="&lt;Caminho&gt;" class="cls-26" d="M381.66,354.91l1.77-.17,1.34-.88,1.06-.87a10.52,10.52,0,0,1,2.7.8c.43.31,1.51,1,1.51,1l-.5.66-3.19-.43s-1.15,1.51-1.73,1.64-2-.67-2-.67Z" transform="translate(-11.19 -83.61)"/><path id="_Caminho_133" data-name="&lt;Caminho&gt;" class="cls-23" d="M350.82,339.21s4.6,19.43,9,19.38c4.62-.06,23.67-2,23.67-2l-.91-1.84L361.9,352c-1.24-3.54-7.63-15.85-7.63-15.85Z" transform="translate(-11.19 -83.61)"/></g><g id="_Grupo_51" data-name="&lt;Grupo&gt;" class="cls-58"><path id="_Caminho_134" data-name="&lt;Caminho&gt;" class="cls-59" d="M396.14,386.24l-1.32-.48-1.33-.41-.27-.12.3-.11s-15.62-5.65-19.6-6.84a13.08,13.08,0,0,0-3.47-.37l.1-.1a5.76,5.76,0,0,0,1.39-1.79h.12a1.59,1.59,0,0,0,.13-1.25c-.45-.37-1-1-4.33-1.23-4.16-.3-3.84,3.24-3.84,3.24h.09l-1.57.43v0l-.26.05-7.51.91h0l-3.42,1.53a39.57,39.57,0,0,0,2.26,4.06l-1,4.8s-7,4.24-7.79,5.33l.27,3.07a35.42,35.42,0,0,1,6.2-2.18,2.57,2.57,0,0,0-.2.59l-.06,0h0a15.36,15.36,0,0,0-1.49,1.52h0a33.81,33.81,0,0,0-4.27,6.72C334.53,402.31,326,421.4,326,421.4l1.71.27c3.62-3.3,19.78-13.42,19.78-13.42,8-2.55,11.43-5.33,12.79-7.59.16-.23.31-.48.47-.75a23.89,23.89,0,0,1,10.43,7.44c-11.64,3.06-12.82,13.45-12.82,13.45l2.35.22a139.74,139.74,0,0,1,18.41-12.39c8.15-4.34-4.9-14.16-10.35-16.9l.19-2.29.18-.18c6.89-.3,14.88-.71,14.88-.71l-.11-.12a4.73,4.73,0,0,0,1.23.15,6,6,0,0,0,1.73-.83L390,388l.5-.34-1.52-.52a19.5,19.5,0,0,0-2.69-.41l-1.07.44-1.34.46-.81,0,0,0-12.34-.83a7.46,7.46,0,0,0,.39-4.5l1.34-.57,19.34,4,.17-.06,0,0a29.75,29.75,0,0,0,3.45.79l.69,1.16.5,0Z" transform="translate(-11.19 -83.61)"/><polygon id="_Caminho_135" data-name="&lt;Caminho&gt;" class="cls-59" points="314.3 339.08 320.67 338.61 314.64 338.15 314.3 339.08"/><polygon id="_Caminho_136" data-name="&lt;Caminho&gt;" class="cls-59" points="346.69 338.61 353.07 338.15 347.04 337.69 346.69 338.61"/></g><polygon id="_Caminho_137" data-name="&lt;Caminho&gt;" class="cls-19" points="369.71 255.47 369.71 265.41 386.64 273.07 387.07 259.6 369.71 255.47"/><g id="_Grupo_52" data-name="&lt;Grupo&gt;"><path id="_Caminho_138" data-name="&lt;Caminho&gt;" class="cls-13" d="M389.6,305.07c1.13-2.21.86-4.1-.46-5.15l.06-.05-41.11-24.53h0a4.88,4.88,0,0,0-3.61-1A13.79,13.79,0,0,0,334,281.17c-1.09,2.13-.87,4,.33,5h0l0,0a3.54,3.54,0,0,0,1.07.64l40,23.91h0a4.83,4.83,0,0,0,3.74,1.12A13.79,13.79,0,0,0,389.6,305.07Z" transform="translate(-11.19 -83.61)"/><path id="_Caminho_139" data-name="&lt;Caminho&gt;" class="cls-6" d="M379.34,306.09a8.47,8.47,0,0,1,6-4.83c2.42-.38,3.67,1.16,2.78,3.45a8.47,8.47,0,0,1-6,4.83C379.7,309.92,378.45,308.37,379.34,306.09Z" transform="translate(-11.19 -83.61)"/><line id="_Caminho_140" data-name="&lt;Caminho&gt;" class="cls-60" x1="332.81" y1="210.79" x2="212.85" y2="218.49"/><polyline id="_Caminho_141" data-name="&lt;Caminho&gt;" class="cls-61" points="373.09 223.13 361.56 227.98 312.53 198.66 326.66 196.64"/><polygon id="_Caminho_142" data-name="&lt;Caminho&gt;" class="cls-26" points="265.22 215.08 266.22 214.75 266.41 214.18 267.48 214.18 268.5 215.77 266.98 216.58 265.69 216.5 265.22 215.08"/><g id="_Grupo_53" data-name="&lt;Grupo&gt;"><polygon id="_Caminho_143" data-name="&lt;Caminho&gt;" class="cls-62" points="236.06 279.77 237.5 277.64 236.25 277.15 233.87 278.54 236.06 279.77"/><polygon id="_Caminho_144" data-name="&lt;Caminho&gt;" class="cls-62" points="244.79 283.95 246.23 281.82 244.98 281.32 242.6 282.71 244.79 283.95"/><polygon id="_Caminho_145" data-name="&lt;Caminho&gt;" class="cls-26" points="242.31 199.55 242.42 203.38 236.97 203.68 238.03 198.64 242.31 199.55"/><path id="_Caminho_146" data-name="&lt;Caminho&gt;" class="cls-26" d="M255.9,276.16a12,12,0,0,1-1.59,7.39c-1.27.31-5.73-.11-6.15-2.23C246.9,274.93,255.9,276.16,255.9,276.16Z" transform="translate(-11.19 -83.61)"/><path id="_Caminho_147" data-name="&lt;Caminho&gt;" class="cls-36" d="M256.16,275.6c.84,1.89-1.83,3.47-2.56,4.33,0,0-.32-.95-.69-.85-.93.25-.72.77-.72.77a3.4,3.4,0,0,1-1,2.53c-2.36.31-2.58-.23-2.58-.23s-3-2.13-1.34-6.7A5.28,5.28,0,0,1,256.16,275.6Z" transform="translate(-11.19 -83.61)"/><path id="_Caminho_148" data-name="&lt;Caminho&gt;" class="cls-29" d="M258.22,315s.34,19.12,0,21.94-2.2,30.62-2.2,30.62h-2.7s-3.73-26.69-3.23-30.92-4-25.75-4-25.75Z" transform="translate(-11.19 -83.61)"/><path id="_Caminho_149" data-name="&lt;Caminho&gt;" class="cls-29" d="M249.45,310.82s-.68,19.36-1,22.18-1.19,30.39-1.19,30.39h-2.7s-3.24-26.77-3.87-31c-2.14-14.24-1-23.19-1-23.19Z" transform="translate(-11.19 -83.61)"/><path id="_Caminho_150" data-name="&lt;Caminho&gt;" class="cls-23" d="M256,285.78l-12.6-.82-2.47,3.93s.11,12.62-.23,15.78c-.4,3.74-3.4,12.07-3.4,12.07l5.2,2.05,9.7.47,6-2.21s.54-10.21.71-12,1.29-18.42,1.29-18.42Z" transform="translate(-11.19 -83.61)"/><polygon id="_Caminho_151" data-name="&lt;Caminho&gt;" class="cls-6" points="237.59 200.72 242.09 201.66 243.6 201.54 243.97 202.01 241.84 202.34 234.79 201.58 237.64 200.5 237.59 200.72"/><polygon id="_Caminho_152" data-name="&lt;Caminho&gt;" class="cls-23" points="232.16 201.34 228.21 202.16 224.34 218.39 224.26 232.63 226.06 232.63 228.87 216.28 232.16 201.34"/><path id="_Caminho_153" data-name="&lt;Caminho&gt;" class="cls-62" d="M248.9,325.74s-3.09-.69-4-6.83l-2.5-.12-3.08-1.21.15,3.52s.66,5.94,9.17,8.68Z" transform="translate(-11.19 -83.61)"/><polygon id="_Caminho_154" data-name="&lt;Caminho&gt;" class="cls-62" points="237.5 245.07 236.06 279.77 234.89 279.77 234.47 244.9 237.5 245.07"/><path id="_Caminho_155" data-name="&lt;Caminho&gt;" class="cls-23" d="M260.13,286.6,269,298.72l7.5-.11.55,1.65a64.59,64.59,0,0,1-9.63,4.28c-1.95.6-10.05-10.52-10.05-10.52Z" transform="translate(-11.19 -83.61)"/><g id="_Grupo_54" data-name="&lt;Grupo&gt;"><g id="_Grupo_55" data-name="&lt;Grupo&gt;"><polygon id="_Caminho_156" data-name="&lt;Caminho&gt;" class="cls-63" points="226.49 231.93 226.51 232.69 223.89 232.83 223.92 231.71 226.49 231.93"/><path id="_Caminho_157" data-name="&lt;Caminho&gt;" class="cls-64" d="M235.69,316.12a.18.18,0,0,0-.07-.25.17.17,0,0,0-.24.07.18.18,0,0,0,.06.24A.19.19,0,0,0,235.69,316.12Z" transform="translate(-11.19 -83.61)"/></g><g id="_Grupo_56" data-name="&lt;Grupo&gt;"><polygon id="_Caminho_158" data-name="&lt;Caminho&gt;" class="cls-65" points="224.3 232.77 224.06 235.87 225.91 236.92 226.39 236.28 225.38 234.49 225.71 232.69 224.3 232.77"/><polygon id="_Caminho_159" data-name="&lt;Caminho&gt;" class="cls-65" points="225.71 232.69 226.32 233.8 226.03 234.9 225.65 235.15 225.35 234.75 225.72 234.15 225.36 233.79 225.71 232.69"/></g></g></g><path id="_Caminho_160" data-name="&lt;Caminho&gt;" class="cls-13" d="M337,277.59s-3,2.4-3.52,5.14c3.12,1.12,8.69-1.85,8.69-1.85l-1.38-2.39Z" transform="translate(-11.19 -83.61)"/></g><g id="_Grupo_57" data-name="&lt;Grupo&gt;"><path id="_Caminho_161" data-name="&lt;Caminho&gt;" class="cls-26" d="M570.26,501.49a13.13,13.13,0,0,0,.18,4.7,36.12,36.12,0,0,0,4.82,1.63c.67-.07.25-1.31.25-1.31s2.68-2.84,2-9.3c0,0-.37-2.06-4.27-1.81S569,499.09,570.26,501.49Z" transform="translate(-11.19 -83.61)"/><path id="_Caminho_162" data-name="&lt;Caminho&gt;" class="cls-25" d="M578.36,512s3.43,3.84,3.86,7.79a40.35,40.35,0,0,1-.7,9.7l1.72,1.42,1.73-2s.38-11.41-6-17.43Z" transform="translate(-11.19 -83.61)"/><path id="_Caminho_163" data-name="&lt;Caminho&gt;" class="cls-59" d="M576.16,539.29s10.76,18.73,8.53,27.2l-12.36,29.73-2.8-.58c-.52-18.75,5-31.4,5-31.4l-13.73-30.45Z" transform="translate(-11.19 -83.61)"/><path id="_Caminho_164" data-name="&lt;Caminho&gt;" class="cls-59" d="M560.76,533.79s-3.42,4.67-3.59,10,.17,20.34.17,20.34c-3.35,11-4.25,31.75-4.25,31.75l3.31.5A145.9,145.9,0,0,1,567,566.87c5.57-9,3.69-31.06,3.69-31.06Z" transform="translate(-11.19 -83.61)"/><path id="_Caminho_165" data-name="&lt;Caminho&gt;" class="cls-6" d="M576.44,540.1l-2-.93c1.94-2.66,4.25-6.54,5.91-9.45C580,535.11,576.44,540.1,576.44,540.1Z" transform="translate(-11.19 -83.61)"/><path id="_Caminho_166" data-name="&lt;Caminho&gt;" class="cls-23" d="M561.46,523.51c.83-3.87-1.88-13.31-2-14.81-.2-3.83,14.53-2.14,14.53-2.14s8.46,3.44,9,3.45-.45,10-1.78,14.18c-.09.29-.18.62-.26,1a39.13,39.13,0,0,0-.6,4.55c-1.66,2.91-4,6.79-5.91,9.45a15.4,15.4,0,0,1-2.21,2.57l-17.46-8S560.72,526.94,561.46,523.51Z" transform="translate(-11.19 -83.61)"/><path id="_Caminho_167" data-name="&lt;Caminho&gt;" class="cls-66" d="M570.13,503.52a10.45,10.45,0,0,0,0-2.06c-1.29-2.4-.78-5.8,3.13-6.06s4.27,1.81,4.27,1.81a16.17,16.17,0,0,1-.36,5.87c-1.11,2.12-.81,2.34-2.64,2.87a12.46,12.46,0,0,1-2.91-.42A4.3,4.3,0,0,1,570.13,503.52Z" transform="translate(-11.19 -83.61)"/><path id="_Caminho_168" data-name="&lt;Caminho&gt;" class="cls-67" d="M564.08,538.23s-.74,9.11,6.08,18.76c-.43,2.54-1.15,5.28-1.15,5.28S561.47,544.82,564.08,538.23Z" transform="translate(-11.19 -83.61)"/><polygon id="_Caminho_169" data-name="&lt;Caminho&gt;" class="cls-59" points="558.29 512.37 563.11 513.61 558.6 514.31 558.29 512.37"/><polygon id="_Caminho_170" data-name="&lt;Caminho&gt;" class="cls-59" points="543.76 512.42 545.11 511.14 546.64 510.96 545.88 512.91 543.76 512.42"/><g id="_Grupo_58" data-name="&lt;Grupo&gt;"><g id="_Grupo_59" data-name="&lt;Grupo&gt;" class="cls-2"><g id="_Grupo_60" data-name="&lt;Grupo&gt;"><polygon id="_Caminho_171" data-name="&lt;Caminho&gt;" class="cls-14" points="569.08 425.35 571.49 427 551.91 472.91 549.5 471.26 569.08 425.35"/></g><g id="_Grupo_61" data-name="&lt;Grupo&gt;"><polygon id="_Caminho_172" data-name="&lt;Caminho&gt;" class="cls-8" points="549.5 471.26 551.91 472.91 528.27 466.43 525.86 464.77 549.5 471.26"/></g><g id="_Grupo_62" data-name="&lt;Grupo&gt;"><polygon id="_Caminho_173" data-name="&lt;Caminho&gt;" class="cls-9" points="569.08 425.35 549.5 471.26 525.86 464.77 545.44 418.87 569.08 425.35"/></g></g></g><path id="_Caminho_174" data-name="&lt;Caminho&gt;" class="cls-26" d="M560.62,538.69l.83.06,1.22-.85s.65-.74,1-.82,1.35-.19,1.35-.19l.42,1.7-1.25.36s-1,1.41-1.55,1.55a5.13,5.13,0,0,1-1.9-.56Z" transform="translate(-11.19 -83.61)"/><polygon id="_Caminho_175" data-name="&lt;Caminho&gt;" class="cls-6" points="553.67 452.8 552.9 453.09 553.44 456.12 554.38 455.67 553.67 452.8"/><path id="_Caminho_176" data-name="&lt;Caminho&gt;" class="cls-23" d="M564.43,536.91a.18.18,0,1,1,.18.18A.18.18,0,0,1,564.43,536.91Z" transform="translate(-11.19 -83.61)"/><path id="_Caminho_177" data-name="&lt;Caminho&gt;" class="cls-26" d="M548.9,525.53l-.35-.76.39-1.43a3.77,3.77,0,0,0,.44-1.19,13.21,13.21,0,0,0-.28-1.33l-1.74.18.09,1.3s-1,1.44-.93,2,1.17,1.59,1.17,1.59Z" transform="translate(-11.19 -83.61)"/><polygon id="_Caminho_178" data-name="&lt;Caminho&gt;" class="cls-6" points="538.41 437.15 538.4 437.98 535.37 438.5 535.47 437.47 538.41 437.15"/><path id="_Caminho_179" data-name="&lt;Caminho&gt;" class="cls-23" d="M549.27,521.34a.19.19,0,0,0,.11-.23.19.19,0,0,0-.23-.11.17.17,0,0,0-.11.23A.19.19,0,0,0,549.27,521.34Z" transform="translate(-11.19 -83.61)"/><path id="_Caminho_180" data-name="&lt;Caminho&gt;" class="cls-68" d="M574.56,529.65l-3.52,1L570,533A51.8,51.8,0,0,0,574.56,529.65Z" transform="translate(-11.19 -83.61)"/><polygon id="_Caminho_181" data-name="&lt;Caminho&gt;" class="cls-69" points="560.1 453.71 565.85 451.75 563.88 454.74 559.78 454.46 560.1 453.71"/><polygon id="_Caminho_182" data-name="&lt;Caminho&gt;" class="cls-69" points="571.49 429.24 563.37 446.04 571.1 443.65 571.49 429.24"/><path id="_Caminho_183" data-name="&lt;Caminho&gt;" class="cls-23" d="M583.08,510s-1,12.68-5,16.64c-4.25,4.14-13.21,9.76-13.21,9.76l.7,2.88,16.7-5.72c5.4-3.47,5.66-14.4,4.85-19.57C586.88,512.6,583.08,510,583.08,510Z" transform="translate(-11.19 -83.61)"/><path id="_Caminho_184" data-name="&lt;Caminho&gt;" class="cls-23" d="M546.65,521.08a13.71,13.71,0,0,1,1.88-3.2,9.24,9.24,0,0,1,1.94-1l-1.65,3.93Z" transform="translate(-11.19 -83.61)"/><g id="_Grupo_63" data-name="&lt;Grupo&gt;" class="cls-70"><path id="_Caminho_185" data-name="&lt;Caminho&gt;" class="cls-59" d="M603.29,579.12l3.42-.29c6.76-1,11.31-4,12.53-5.43.32-.39-2.46-1.11-2.46-1.11h0c-.18,0-1.07-.11-2.18-.24l-.18,0-.6,0-3.34-.44a.34.34,0,0,0,.15-.19,18.13,18.13,0,0,0,3-1h0a10.77,10.77,0,0,0,1.32-.65,5.13,5.13,0,0,0,1.33-1,.09.09,0,0,0,0-.11l0,0a.86.86,0,0,0-.24-.12,11.34,11.34,0,0,0-3.28-.22c-4,.07-5.84,1-5.5,1.68a2.87,2.87,0,0,1-.3.25c-.15.09-.33.2-.5.32h0c-.37.25-.71.53-.74.74l.21,0h-.21l-12.36-1-11.82,4h0s-1.44.12-2.32.26-3.13.89-3.13.89l-.5.29.93,0-.11.09a11.4,11.4,0,0,0-1.71.55c-.06.06,0,.14.15.22l-19.09,6.47,1.77.46,15.82,1.35c-1.85,1.35-3.46,2.56-3.46,2.56a135.7,135.7,0,0,0-16.71,8.56l3.11.39.61,0,1.52-.54-1,0c10.6-4.52,21.13-7.72,21.13-7.72a35.49,35.49,0,0,0,3.77-1.28h0a41.44,41.44,0,0,0,4.17-2l.52,2.51s-10.45,3.51-17.28,8.71l2.58.16,24-8.24c4.93-2.09,2.8-6.41,2.25-7.37C599,580.45,601.2,579.87,603.29,579.12Z" transform="translate(-11.19 -83.61)"/><polygon id="_Caminho_186" data-name="&lt;Caminho&gt;" class="cls-59" points="558.57 513.62 563.19 513.47 558.29 512.37 558.57 513.62"/></g></g><g id="_Grupo_64" data-name="&lt;Grupo&gt;"><polygon id="_Caminho_187" data-name="&lt;Caminho&gt;" class="cls-71" points="603.26 191.31 603.26 192.94 608.48 193.39 603.26 191.31"/><path id="_Caminho_188" data-name="&lt;Caminho&gt;" class="cls-23" d="M622.57,182.83s2.74,4.93,2.74,9.32-3.48,19.43-3.48,19.43Z" transform="translate(-11.19 -83.61)"/><path id="_Caminho_189" data-name="&lt;Caminho&gt;" class="cls-72" d="M601.44,219.46c.19-1.38,5.3-12.44,3.68-14.51-4.52-4.57-7-14-6.48-14.8s1.89-2,6.31-4.46a32.08,32.08,0,0,1,15-3.65c2,0,3,2.1,3.23,3.54s-.64,11.27-1,15.09.21,14.59,1.28,18.79l-.22.32-21.19-.13C602,219.55,601.53,219.55,601.44,219.46Z" transform="translate(-11.19 -83.61)"/><path id="_Caminho_190" data-name="&lt;Caminho&gt;" class="cls-59" d="M623.18,219.88s1,14.08,0,22.74c-1,9.15-5.44,32-5.44,32h-3.38c-3-10-1.42-33.88-1.42-33.88-5.28-9.38-1.46-23.42-1.46-23.42Z" transform="translate(-11.19 -83.61)"/><path id="_Caminho_191" data-name="&lt;Caminho&gt;" class="cls-59" d="M601.91,217.24s-2.12,15.57-.86,26.1c-5.61,12.76-1.88,36.8-1.88,36.8l2.57-.62s7.37-27.79,8.63-33.51c1.74-7.91,7-26.78,7-26.78Z" transform="translate(-11.19 -83.61)"/><path id="_Caminho_192" data-name="&lt;Caminho&gt;" class="cls-73" d="M612.59,187.82h0a3,3,0,0,0,3.18-2.74l.23-3a3,3,0,0,0-2.75-3.18h0a3,3,0,0,0-3.18,2.74l-.22,3A3,3,0,0,0,612.59,187.82Z" transform="translate(-11.19 -83.61)"/><path id="_Caminho_193" data-name="&lt;Caminho&gt;" class="cls-73" d="M608.05,178.72s-.55-1.51-1-1.7a.63.63,0,0,0-.82.8c.16.58.6,1.54.67,1.78s.57,1.41,1.38,1S608.05,178.72,608.05,178.72Z" transform="translate(-11.19 -83.61)"/><path id="_Caminho_194" data-name="&lt;Caminho&gt;" class="cls-73" d="M615.72,177.74s1.07-.67,1.58-.21.19,1.3.11,2-1,2-1.64,1.43S615.72,177.74,615.72,177.74Z" transform="translate(-11.19 -83.61)"/><path id="_Caminho_195" data-name="&lt;Caminho&gt;" class="cls-74" d="M615.82,184.46a6.22,6.22,0,0,1-1.27.39,5.59,5.59,0,0,1-4.64-1.11l.08-1.06a6,6,0,0,0,4.75,1,6.1,6.1,0,0,0,1.16-.33Z" transform="translate(-11.19 -83.61)"/><path id="_Caminho_196" data-name="&lt;Caminho&gt;" class="cls-6" d="M615.39,187.43s1.53-2.87,0-5.08l.39-.11s3.92,3.35,2.75,7.59A15.23,15.23,0,0,0,615.39,187.43Z" transform="translate(-11.19 -83.61)"/><path id="_Caminho_197" data-name="&lt;Caminho&gt;" class="cls-23" d="M615.7,181.85s4.22-.06,4.9.06a10.35,10.35,0,0,1,2.24,1.08s.77,2.16.89,2.56-1.34,11.73-1.31,17.3,1.1,17.07,1.1,17.07l-4.75,2.44a19.24,19.24,0,0,1-2.07-7.71c-.42-5,1.65-14.43,1.73-19.13S619.38,185.93,615.7,181.85Z" transform="translate(-11.19 -83.61)"/><polygon id="_Caminho_198" data-name="&lt;Caminho&gt;" class="cls-75" points="590.27 136.29 590.3 137.56 603.44 144.03 605.91 136.29 590.27 136.29"/><path id="_Caminho_199" data-name="&lt;Caminho&gt;" class="cls-76" d="M615.34,181.82s3.62.07,4.84,3.08l-1.08.33,2.12,1-3.65,17.31s1.09-12,.86-15a9.37,9.37,0,0,0-3-6.17Z" transform="translate(-11.19 -83.61)"/><path id="_Caminho_200" data-name="&lt;Caminho&gt;" class="cls-23" d="M609,182.82a9.35,9.35,0,0,0,.88,8.51c2.82,4,8.85,13.79,8.85,18.75s-1,10.51-4.15,13.65c-1.69-1.19-13.41-3.88-13.41-3.88s3-10.78,2.5-13.6-5.42-9.4-5.23-17.17l4.4-3.23A24.33,24.33,0,0,1,609,182.82Z" transform="translate(-11.19 -83.61)"/><path id="_Caminho_201" data-name="&lt;Caminho&gt;" class="cls-76" d="M609,182.82a27.77,27.77,0,0,0-4.08,1.82,20.31,20.31,0,0,0,.59,2.82s1.57.42,1.81.77c-.38.29-2,1.11-2,1.11s8.2,11.16,12,15.3c0,0-4.74-11.51-7.06-16A9.6,9.6,0,0,1,609,182.82Z" transform="translate(-11.19 -83.61)"/><path id="_Caminho_202" data-name="&lt;Caminho&gt;" class="cls-6" d="M609.49,182.92c.17,1,0,1.89,5.9,4.51a29.13,29.13,0,0,0-2.27,4S608,186.5,609,182.83Z" transform="translate(-11.19 -83.61)"/><path id="_Caminho_203" data-name="&lt;Caminho&gt;" class="cls-6" d="M614.09,189.57l1.3-2.14,1.92,1.3-.63,2.38s3,13.3,6.1,18.76v4.19l-2.49-1.87s-4.81-18.26-4.95-20.94Z" transform="translate(-11.19 -83.61)"/><path id="_Caminho_204" data-name="&lt;Caminho&gt;" class="cls-77" d="M607.81,174.85a18.59,18.59,0,0,0,.09,4.23c.32,1.62.62,3.14,1.46,4a4,4,0,0,0,3.74,1.26c1.7-.32,3.26-1.68,3.31-4.47s.34-5.53-1.62-6.53S609.26,172.26,607.81,174.85Z" transform="translate(-11.19 -83.61)"/><path id="_Caminho_205" data-name="&lt;Caminho&gt;" class="cls-78" d="M615.83,175.88s.26,2,.26,2.09l.51,0a11.79,11.79,0,0,0,.38-2.62,3.28,3.28,0,0,0-1.67-3.22c-1.39-.88-1.55-1.64-2.8-1.8s-4.09-.28-5.2,2.54,0,4.22,0,4.22l.54,1.14H608a15.83,15.83,0,0,1,.25-1.83c.14-.6,1-.74,1.18-1.95.22-.43,2.4.84,4.4-.55a1.34,1.34,0,0,1,1.82.84A9.08,9.08,0,0,0,615.83,175.88Z" transform="translate(-11.19 -83.61)"/><g id="_Grupo_65" data-name="&lt;Grupo&gt;"><g id="_Grupo_66" data-name="&lt;Grupo&gt;" class="cls-2"><g id="_Grupo_67" data-name="&lt;Grupo&gt;"><polygon id="_Caminho_206" data-name="&lt;Caminho&gt;" class="cls-79" points="606.31 96.05 609.77 100.89 605.98 98.9 602.52 94.05 606.31 96.05"/></g><g id="_Grupo_68" data-name="&lt;Grupo&gt;"><polygon id="_Caminho_207" data-name="&lt;Caminho&gt;" class="cls-19" points="629.22 108.12 632.69 112.97 628.9 110.97 625.43 106.12 629.22 108.12"/></g><g id="_Grupo_69" data-name="&lt;Grupo&gt;"><polygon id="_Caminho_208" data-name="&lt;Caminho&gt;" class="cls-17" points="627.41 84.52 630.88 89.36 632.69 112.97 629.22 108.12 627.41 84.52"/></g><g id="_Grupo_70" data-name="&lt;Grupo&gt;"><polygon id="_Caminho_209" data-name="&lt;Caminho&gt;" class="cls-19" points="600.62 141.73 604.09 146.57 584.96 136.5 581.5 131.65 600.62 141.73"/></g><g id="_Grupo_71" data-name="&lt;Grupo&gt;"><polygon id="_Caminho_210" data-name="&lt;Caminho&gt;" class="cls-17" points="625.43 106.12 628.9 110.97 604.09 146.57 600.62 141.73 625.43 106.12"/></g><g id="_Grupo_72" data-name="&lt;Grupo&gt;"><polygon id="_Caminho_211" data-name="&lt;Caminho&gt;" class="cls-18" points="627.41 84.52 629.22 108.12 625.43 106.12 600.62 141.73 581.5 131.65 606.31 96.05 602.52 94.05 627.41 84.52"/></g></g></g><polygon id="_Caminho_212" data-name="&lt;Caminho&gt;" class="cls-80" points="628.72 110.62 634.89 114.39 628.73 110.61 628.72 110.62"/><path id="_Caminho_213" data-name="&lt;Caminho&gt;" class="cls-23" d="M636.91,198.55c-3,1.64-7.91,2.12-14.13,4.73l.63,3.41,8.75-.74s4-1.84,4.92-3c1.27-1.61,2.57-7.79,2.57-7.79C638.06,197.49,637.3,198.33,636.91,198.55Z" transform="translate(-11.19 -83.61)"/><g id="_Grupo_73" data-name="&lt;Grupo&gt;"><g id="_Grupo_74" data-name="&lt;Grupo&gt;"><polygon id="_Caminho_214" data-name="&lt;Caminho&gt;" class="cls-26" points="611.88 122.99 609.07 123.14 604.76 121.51 605.06 118.84 610.09 120.98 611.2 121.28 611.88 122.99"/><polygon id="_Caminho_215" data-name="&lt;Caminho&gt;" class="cls-26" points="610.64 121.52 608.4 119.21 607.38 119.39 608.37 121.03 610.64 121.52"/><polygon id="_Caminho_216" data-name="&lt;Caminho&gt;" class="cls-26" points="605.06 118.84 605.92 118.5 605.96 119.22 605.06 118.84"/><polygon id="_Caminho_217" data-name="&lt;Caminho&gt;" class="cls-26" points="608.4 119.21 607.03 118.76 606.78 119.31 607.38 119.39 608.4 119.21"/></g><g id="_Grupo_75" data-name="&lt;Grupo&gt;"><polygon id="_Caminho_218" data-name="&lt;Caminho&gt;" class="cls-24" points="612.79 123.32 611.72 123.72 610.27 120.09 611.86 119.6 612.79 123.32"/><path id="_Caminho_219" data-name="&lt;Caminho&gt;" class="cls-25" d="M622.21,204.41a.27.27,0,0,0,.32-.2.27.27,0,0,0-.21-.32.27.27,0,1,0-.11.52Z" transform="translate(-11.19 -83.61)"/></g></g><polygon id="_Caminho_220" data-name="&lt;Caminho&gt;" class="cls-68" points="613.71 122.95 618.35 126.1 620.98 122.33 613.71 122.95"/><polygon id="_Caminho_221" data-name="&lt;Caminho&gt;" class="cls-68" points="595.6 135.82 586.9 123.89 588.17 122.07 595.6 135.82"/><path id="_Caminho_222" data-name="&lt;Caminho&gt;" class="cls-23" d="M604.39,186.57a13.86,13.86,0,0,0-.87,4.88c.41,4.48-7.35,13.64-7.35,13.64s7.78,9.61,10.61,14.59l-2.49,3.1-16.83-17.25c-.54-3.75,4.78-10.22,6.89-13.48S602.58,186.12,604.39,186.57Z" transform="translate(-11.19 -83.61)"/><g id="_Grupo_76" data-name="&lt;Grupo&gt;"><g id="_Grupo_77" data-name="&lt;Grupo&gt;"><polygon id="_Caminho_223" data-name="&lt;Caminho&gt;" class="cls-26" points="592.91 138.13 592.57 140.93 594.63 146.32 597.97 145.92 595.26 139.65 594.88 138.26 592.91 138.13"/><polygon id="_Caminho_224" data-name="&lt;Caminho&gt;" class="cls-26" points="594.59 138.97 597.48 141.75 597.26 143.03 595.21 141.8 594.59 138.97"/><polygon id="_Caminho_225" data-name="&lt;Caminho&gt;" class="cls-26" points="597.97 145.92 598.39 144.85 597.48 144.8 597.97 145.92"/><polygon id="_Caminho_226" data-name="&lt;Caminho&gt;" class="cls-26" points="597.48 141.75 598.06 143.46 597.37 143.78 597.26 143.03 597.48 141.75"/></g><g id="_Grupo_78" data-name="&lt;Grupo&gt;"><polygon id="_Caminho_227" data-name="&lt;Caminho&gt;" class="cls-24" points="592.04 138.08 592.57 139.17 596.54 137.84 595.6 135.82 592.04 138.08"/><path id="_Caminho_228" data-name="&lt;Caminho&gt;" class="cls-25" d="M606.34,220.57a.33.33,0,0,1,.26-.4.32.32,0,0,1,.39.26.34.34,0,0,1-.26.4A.33.33,0,0,1,606.34,220.57Z" transform="translate(-11.19 -83.61)"/></g></g><g id="_Grupo_79" data-name="&lt;Grupo&gt;" class="cls-70"><polygon id="_Caminho_229" data-name="&lt;Caminho&gt;" class="cls-59" points="603.7 193.15 608.71 193.24 604.45 192.82 603.7 193.15"/><polygon id="_Caminho_230" data-name="&lt;Caminho&gt;" class="cls-59" points="588.06 197.18 591.8 197.41 591.14 196.99 588.06 197.18"/><path id="_Caminho_composto_" data-name="&lt;Caminho composto&gt;" class="cls-59" d="M682,263.73l.64.09,9-4.75-1.24-1-25.52,1.67c.21-.07.41-.14.6-.22.62-.27.79-.47-.19-.65a7.44,7.44,0,0,0-2-.36,26.64,26.64,0,0,0-6.36.51c-2.41.57-2,.85-2,.85V260a.34.34,0,0,0-.17-.06,2.51,2.51,0,0,0-1.19.16c-.11.12-.11.31-.15.36s-.07.26.85.2c-.2.18-.29.34-.09.45h-.13s-3.81.2-7.55.6L644,262c-2.86.19-6.56.55-8.81,1-3.61.66-11.9,2-13.09,2.71l3.71,1.45-3,.51,1.24,1,3.9.54a72.74,72.74,0,0,0-9.68,4.13,61.56,61.56,0,0,0-18.79,7.41l2.86-.13s20.14-5.59,24-6.74c1.26-.38,3-.87,4.91-1.41a.58.58,0,0,0,.06.36s-14.14,1.65-15.71,3.66h3.38s16.51-1.45,21.72-3.29a97.69,97.69,0,0,0,10.37-4.54l.41,0,.17-.09h0l.34-.19,11.59-2,3-.51s4.87-.37,6.28-.6c2-.32,6.16-1.56,6.16-1.56l.71-.13,2.15.3,2.27.39ZM631.83,266l-.8-.48s3.67-.57,7.23-1.23a2.08,2.08,0,0,0,0,.6Zm22.81-4.8h-.29s0-.06.09-.09l.24.06Zm7.13-.41.3-.08,0,0Z" transform="translate(-11.19 -83.61)"/></g></g><g id="_Grupo_80" data-name="&lt;Grupo&gt;"><path id="_Caminho_231" data-name="&lt;Caminho&gt;" class="cls-81" d="M552.58,432.09h0a.77.77,0,0,0-.59-1.24c-1.44-.34-4.54.6-6.9,2.09l-13.29,8.39a5.82,5.82,0,0,0-2.31,2.23.56.56,0,0,1,0-.12l-6.82,13.76c-.3.6-.13,1.05.58,1.22a2.22,2.22,0,0,0,.59.07,4.42,4.42,0,0,0,.51,0l.23,0h.23l.46-.08.45-.11.48-.12.14,0,0,0,.31-.1.55-.19.65-.26.28-.13.23-.1c.15-.07.3-.13.45-.21a13.61,13.61,0,0,0,1.3-.73L543.49,448l.2-.13.33-.24.34-.24.08-.06c.15-.12.29-.23.42-.35l.06-.06.08-.07c0-.06.11-.11.17-.17l.24-.26,0,0,0,0a2.14,2.14,0,0,0,.13-.19,1.58,1.58,0,0,0,.15-.24v0Z" transform="translate(-11.19 -83.61)"/><path id="_Caminho_composto_2" data-name="&lt;Caminho composto&gt;" class="cls-82" d="M552.91,408.29v-.11a.09.09,0,0,1,0-.05v-.06h0a.07.07,0,0,0,0-.05.13.13,0,0,0,0-.06v-.06l0-.06v0h0l0-.06,0-.06,0-.05,0-.05,0,0h0l0-.06,0,0,0-.07,0-.07h0v0l-.09-.12-.06-.1-.05-.07,0-.05,0,0,0,0h0l0,0s0,0-.05-.05l0,0,0,0,0,0h0l0,0a.1.1,0,0,1-.05,0l0,0,0,0h0l0,0,0,0,0,0,0,0,0,0h0l-.05,0h-.31l-.08,0-.08,0-9,5.23h0a.77.77,0,0,0-.32.71,2,2,0,0,0,.13.66l-51.66,30.13a.45.45,0,0,0-.22.38.44.44,0,0,0,.2.39l24.67,16-8.6,5-6.58-3.93a6.7,6.7,0,0,0,.81-3,2.4,2.4,0,0,0-1-2.21h0l-28.21-16.39a1,1,0,0,0-.28-.13l-.23-.07h0l-.2,0h-.49l-.15,0-.14,0-.14,0-.1,0h0l-.14.06-.13.05-.14.07-.14.07-.11.06,0,0-.14.09-.15.1-.15.11-.15.11-.06.05h0a.27.27,0,0,0-.08.07l-.16.13-.15.14-.14.14-.1.11h0l0,0-.14.15-.13.15-.13.17-.15.2-.22.3-.25.41,0,.05,0,0-.12.22-.11.21a1.42,1.42,0,0,0-.08.18,1.19,1.19,0,0,0-.08.16v0h0a.61.61,0,0,1-.05.12c0,.06-.05.12-.07.17l-.06.17-.06.17-.06.18v0h0c0,.05,0,.1,0,.14s0,.12-.05.18,0,.12,0,.18,0,.12,0,.18l0,.17h0c0,.06,0,.11,0,.17a1,1,0,0,0,0,.17,1,1,0,0,0,0,.17.86.86,0,0,0,0,.16v.16h0v.16c0,.06,0,.11,0,.17a.88.88,0,0,0,0,.16.78.78,0,0,0,0,.16s0,.05,0,.08v0s0,.05,0,.07a1.16,1.16,0,0,0,0,.18l.06.18c0,.06.05.11.07.17h0c0,.08.08.16.13.24l.13.15.09.12a1.74,1.74,0,0,0,.37.3L494.62,464l-.06,0a2.4,2.4,0,0,0,2.51-.21,6.85,6.85,0,0,0,2.15-2.11l6.8,4.06a.53.53,0,0,0,.24.06.46.46,0,0,0,.23-.06l9.47-5.49a.45.45,0,0,0,.22-.38.43.43,0,0,0-.2-.39l-24.67-16,51-29.76a1.86,1.86,0,0,0,.5.44.72.72,0,0,0,.85,0l-.07.06,9-5.22.12-.1,0,0,0,0,.05-.07h0s0,0,0,0a.14.14,0,0,0,0-.06l0-.06v0h0v-.07a.13.13,0,0,0,0-.06v-.1h0Zm-59,54.91v0Zm3.15-7.28-.11.07.11-.07.11-.06Zm1.35-.47h0Zm.58,0H499Zm43.18-43.92.07,0h0Zm.19,0h0Zm.21,0h0Zm.29.11h0l.22.15h0Zm.22.16h0l.07.06Zm.2.19h0l0,0Zm.58,1,0-.09,0,.09Zm-.08,1.1h0l0-.08A.16.16,0,0,1,543.76,414.12Zm.08-.13h0a.65.65,0,0,0,0-.13A.42.42,0,0,1,543.84,414Zm0-1h0a1.6,1.6,0,0,1,0,.21A1.6,1.6,0,0,0,543.84,413Zm.07.77h0a1,1,0,0,0,0-.24A1.64,1.64,0,0,1,543.91,413.79Z" transform="translate(-11.19 -83.61)"/><path id="_Caminho_composto_3" data-name="&lt;Caminho composto&gt;" class="cls-81" d="M519.05,415.07v-.17c0-.06,0-.11,0-.17a1.11,1.11,0,0,0,0-.17,1.11,1.11,0,0,0,0-.17h0l0-.16a340402839903.11,340402839903.11,0,0,1-.08-.36,1.8,1.8,0,0,0,0-.19.65.65,0,0,0,0-.13v-.05l-.06-.17-.06-.18-.06-.17-.07-.16s0-.09,0-.13h0v0l-.07-.16-.09-.18a2.12,2.12,0,0,0-.11-.21l-.12-.22,0,0,0,0c-.08-.14-.16-.27-.25-.4a3.46,3.46,0,0,0-.22-.31l-.15-.2c0-.06-.09-.11-.13-.16s-.09-.11-.13-.16l-.14-.15,0,0h0l-.1-.1-.14-.15-.15-.14-.15-.13-.08-.07h0l-.06,0-.15-.11-.15-.11-.15-.1-.14-.08,0,0-.1-.07-.14-.07-.14-.06-.14-.06L515,409h0l-.1,0-.14,0-.14,0-.15,0h-.49l-.2,0h0a.86.86,0,0,0-.23.06,1.43,1.43,0,0,0-.28.13L485,425.45h0a2.39,2.39,0,0,0-1,2.2,7.58,7.58,0,0,0,3.42,5.92,2.4,2.4,0,0,0,2.51.2l-.06,0,28.21-16.39a1.56,1.56,0,0,0,.37-.31l.1-.12.12-.15a1.83,1.83,0,0,0,.13-.24h0c0-.05.05-.11.07-.17l.06-.18c0-.06,0-.12.05-.18s0-.05,0-.07v0s0,0,0-.07a1,1,0,0,0,0-.17.88.88,0,0,0,0-.16.86.86,0,0,0,0-.16c0-.06,0-.11,0-.17h0A.76.76,0,0,0,519.05,415.07Zm-33.62,10.2h0Zm.62,0h0Zm1.38.46-.11-.06.11.06.12.07Zm3.15,7.28h0v0A0,0,0,0,1,490.58,433Z" transform="translate(-11.19 -83.61)"/><path id="_Caminho_composto_4" data-name="&lt;Caminho composto&gt;" class="cls-81" d="M506.13,407.48a.91.91,0,0,0,0-.17,1,1,0,0,0,0-.17,508829341285.51,508829341285.51,0,0,1,0-.34h0l0-.16c0-.06,0-.12,0-.18s0-.12,0-.18,0-.13,0-.19a.65.65,0,0,0,0-.13v-.05l-.06-.17-.06-.18-.06-.17-.07-.16c0-.05,0-.09-.05-.13h0v0l-.07-.16-.09-.18-.11-.21-.12-.22,0,0,0-.05c-.08-.14-.16-.27-.25-.4a3.46,3.46,0,0,0-.22-.31l-.15-.2-.13-.17-.13-.15-.14-.15,0,0h0a.94.94,0,0,0-.1-.1l-.14-.15-.15-.14-.16-.13-.08-.07h0l-.06-.05-.15-.11-.15-.11-.15-.1-.14-.08,0,0a.41.41,0,0,0-.11-.07l-.14-.07-.13-.06-.14-.06-.14-.05h0l-.1,0-.14,0-.14,0-.15,0H501l-.2,0h0a.86.86,0,0,0-.23.06,1.43,1.43,0,0,0-.28.13l-28.21,16.39h0a2.39,2.39,0,0,0-1,2.2,7.58,7.58,0,0,0,3.42,5.92,2.4,2.4,0,0,0,2.51.2l-.06,0,28.21-16.39a1.85,1.85,0,0,0,.37-.31l.1-.12.12-.15a1.83,1.83,0,0,0,.13-.24h0c0-.05.05-.11.07-.17l.06-.18c0-.06,0-.12.05-.18s0,0,0-.07v0a.64.64,0,0,1,0-.07,1,1,0,0,0,0-.17.88.88,0,0,0,0-.16.86.86,0,0,0,0-.16v-.17h0Zm-33.62,10.2h0Zm.62,0h0Zm1.38.46-.12-.06.12.06.12.07Zm3.15,7.28h0v0A0,0,0,0,1,477.66,425.38Z" transform="translate(-11.19 -83.61)"/><path id="_Caminho_composto_5" data-name="&lt;Caminho composto&gt;" class="cls-81" d="M469.57,432.94c0-.05,0-.11,0-.17s0-.11,0-.16a1.11,1.11,0,0,1,0-.17l0-.17h0l0-.17,0-.18c0-.06,0-.12-.05-.18s0-.12,0-.18a.74.74,0,0,1,0-.14h0v0a1.21,1.21,0,0,0-.05-.18l-.06-.17c0-.06-.05-.12-.07-.17l-.06-.17-.06-.12h0v0l-.08-.17-.09-.18-.1-.2-.12-.22,0,0,0,0c-.08-.14-.17-.28-.26-.41l-.21-.31-.15-.2-.14-.16-.13-.15-.13-.15,0,0h0l-.1-.11-.15-.14-.15-.14-.15-.14-.08-.06h0s0,0-.05,0l-.16-.12-.15-.1a.71.71,0,0,0-.14-.1l-.15-.09,0,0-.11-.06-.14-.07-.14-.07-.14-.06-.14-.05h0l-.1,0-.14,0-.15,0-.15,0h-.49l-.2,0h0l-.23.06a2.24,2.24,0,0,0-.27.13L435.5,443.32h0a2.4,2.4,0,0,0-1,2.21,7.52,7.52,0,0,0,3.42,5.91,2.38,2.38,0,0,0,2.5.2l-.06,0,28.21-16.39A1.84,1.84,0,0,0,469,435l.09-.11a1.67,1.67,0,0,0,.12-.16,1.71,1.71,0,0,0,.13-.23h0l.08-.18a1.89,1.89,0,0,0,.06-.18c0-.05,0-.11,0-.17l0-.08v0s0,0,0-.07l0-.16c0-.06,0-.11,0-.17a.92.92,0,0,1,0-.16v-.16h0ZM436,443.15l.05,0h0Zm.61,0h0Zm1.38.46-.11-.05.11.05.12.08Zm3.16,7.29h0l0,0A0,0,0,0,0,441.1,450.85Z" transform="translate(-11.19 -83.61)"/><g id="_Grupo_81" data-name="&lt;Grupo&gt;"><path id="_Caminho_232" data-name="&lt;Caminho&gt;" class="cls-83" d="M506.31,411a1,1,0,0,0,0-.17.86.86,0,0,0,0-.16.88.88,0,0,0,0-.17,1.1,1.1,0,0,0,0-.18h0l0-.17c0-.06,0-.12,0-.18s0-.12,0-.18,0-.12-.05-.18,0-.09,0-.14h0v0l-.06-.18-.06-.18-.06-.16c0-.06-.05-.11-.07-.17l-.05-.12h0v0c0-.06-.05-.11-.07-.17l-.09-.18c0-.07-.07-.14-.11-.2l-.12-.22,0,0,0,0c-.08-.14-.16-.28-.25-.41s-.14-.21-.22-.31l-.15-.2-.13-.16a1,1,0,0,1-.13-.16l-.14-.14,0,0h0a.52.52,0,0,0-.1-.11l-.14-.14-.15-.14-.16-.14-.08-.06v0l-.06,0-.15-.12-.15-.1-.15-.1-.14-.09,0,0-.11-.06-.14-.07-.14-.07-.13-.06-.14-.05h0l-.1,0-.14,0a.35.35,0,0,0-.14,0l-.15,0h-.49a.64.64,0,0,0-.2,0h0l-.23.06-.28.13-28.21,16.39a1.84,1.84,0,0,1,.51-.19h0a1.84,1.84,0,0,1,.58,0h0a3.13,3.13,0,0,1,.63.14h0a4.78,4.78,0,0,1,.7.32,6,6,0,0,1,.68.48h0a5.8,5.8,0,0,1,.63.59h0a8.11,8.11,0,0,1,1.07,1.45l0,0a8.62,8.62,0,0,1,.41.8h0a7.13,7.13,0,0,1,.31.84h0a5.49,5.49,0,0,1,.2.85h0a6.2,6.2,0,0,1,.07.84,4.11,4.11,0,0,1-.07.73v0a2.64,2.64,0,0,1-.19.6h0a3.07,3.07,0,0,1-.26.4.52.52,0,0,1-.1.11,1.56,1.56,0,0,1-.37.31l28.21-16.39a1.56,1.56,0,0,0,.37-.31l.1-.12.12-.15a1.71,1.71,0,0,0,.13-.23h0l.07-.18.06-.18c0-.05,0-.11.05-.17s0,0,0-.08v0a.64.64,0,0,0,0-.07.88.88,0,0,0,0-.16,1,1,0,0,0,0-.17s0-.1,0-.16v-.16h0Z" transform="translate(-11.19 -83.61)"/><g id="_Grupo_82" data-name="&lt;Grupo&gt;"><path id="_Caminho_233" data-name="&lt;Caminho&gt;" class="cls-84" d="M474.69,421.65a7.56,7.56,0,0,1,3.42,5.93c0,2.17-1.55,3.05-3.45,1.95a7.55,7.55,0,0,1-3.42-5.92C471.25,421.43,472.79,420.56,474.69,421.65Z" transform="translate(-11.19 -83.61)"/></g><g id="_Grupo_83" data-name="&lt;Grupo&gt;"><path id="_Caminho_234" data-name="&lt;Caminho&gt;" class="cls-85" d="M474.68,424.13a2.82,2.82,0,0,1,1.27,2.2c0,.81-.57,1.13-1.28.72a2.8,2.8,0,0,1-1.27-2.19C473.4,424.05,474,423.73,474.68,424.13Z" transform="translate(-11.19 -83.61)"/></g></g><g id="_Grupo_84" data-name="&lt;Grupo&gt;"><g id="_Grupo_85" data-name="&lt;Grupo&gt;"><path id="_Caminho_235" data-name="&lt;Caminho&gt;" class="cls-86" d="M552.91,410.81v-.21h0v-.06a.07.07,0,0,0,0-.05v-.06l0-.06v0h0l0-.05,0-.06,0-.05,0-.06,0,0h0s0,0,0-.05l0-.06,0-.06a.43.43,0,0,0,0-.07h0v0l-.09-.13-.06-.1-.05-.06,0-.05,0-.05,0-.05h0l0,0-.05,0,0-.05,0,0,0,0h0l0,0,0,0-.05,0,0,0,0,0h0l0,0,0,0,0,0,0,0h-.45l-.08,0-.08,0-9,5.22a.44.44,0,0,1,.16-.06h0a.59.59,0,0,1,.19,0h0l.2,0h0a.84.84,0,0,1,.22.1,1.43,1.43,0,0,1,.22.15h0a1.8,1.8,0,0,1,.2.19h0a2.73,2.73,0,0,1,.35.47h0c0,.08.09.17.13.25h0a1.17,1.17,0,0,1,.1.26h0a2.68,2.68,0,0,1,.07.27h0a2.45,2.45,0,0,1,0,.27,1.64,1.64,0,0,1,0,.23h0a.6.6,0,0,1-.06.19h0a.57.57,0,0,1-.08.13l0,0-.12.09,9-5.22a.35.35,0,0,0,.11-.1l0,0,0-.05.05-.08h0l0-.06a.14.14,0,0,0,0-.06s0,0,0-.05v0h0V411a.07.07,0,0,0,0,0v-.1h0Z" transform="translate(-11.19 -83.61)"/><g id="_Grupo_86" data-name="&lt;Grupo&gt;"><path id="_Caminho_236" data-name="&lt;Caminho&gt;" class="cls-84" d="M542.84,414.2a2.41,2.41,0,0,1,1.09,1.89c0,.69-.49,1-1.1.62a2.43,2.43,0,0,1-1.09-1.89C541.74,414.13,542.24,413.85,542.84,414.2Z" transform="translate(-11.19 -83.61)"/></g><g id="_Grupo_87" data-name="&lt;Grupo&gt;"><path id="_Caminho_237" data-name="&lt;Caminho&gt;" class="cls-85" d="M542.84,415a.9.9,0,0,1,.4.7c0,.25-.18.36-.41.23a.9.9,0,0,1-.4-.7C542.43,415,542.61,414.86,542.84,415Z" transform="translate(-11.19 -83.61)"/></g></g><g id="_Grupo_88" data-name="&lt;Grupo&gt;"><path id="_Caminho_238" data-name="&lt;Caminho&gt;" class="cls-87" d="M465.42,447.82a1,1,0,0,1,0-.17.86.86,0,0,1,0-.16.88.88,0,0,1,0-.17c0-.06,0-.12,0-.18h0l0-.17c0-.06,0-.12,0-.18s0-.12,0-.18,0-.12.05-.18,0-.09,0-.14h0v0l.06-.18.06-.18.06-.16c0-.06.05-.11.07-.17a.61.61,0,0,0,.05-.12h0v0a1.3,1.3,0,0,1,.08-.17,1.42,1.42,0,0,1,.08-.18c0-.07.07-.14.11-.2l.12-.22,0,0,0,0c.08-.14.16-.28.25-.41s.14-.21.22-.31l.15-.2.13-.16a1,1,0,0,0,.13-.16l.14-.14,0,0h0a.52.52,0,0,1,.1-.11l.14-.14.15-.14.16-.14.08-.06v0l.06,0,.15-.12.15-.1.15-.1.14-.09,0,0L469,442a983433096725.44,983433096725.44,0,0,1,.28-.14l.13-.06.14-.05h0l.1,0,.14,0,.14,0,.15,0h.49a.64.64,0,0,1,.2,0h0l.23.06.28.13,28.21,16.39A1.84,1.84,0,0,0,499,458h0a1.79,1.79,0,0,0-.57,0h0a3.13,3.13,0,0,0-.63.14h0a4.78,4.78,0,0,0-.7.32,6,6,0,0,0-.68.48h0a8.51,8.51,0,0,0-.63.59h0a8.62,8.62,0,0,0-1.07,1.45l0,0a8.62,8.62,0,0,0-.41.8h0c-.12.28-.22.56-.31.84h0a6.94,6.94,0,0,0-.2.85h0a6.2,6.2,0,0,0-.07.84,4.11,4.11,0,0,0,.07.73v0a2.57,2.57,0,0,0,.19.61h0a2.26,2.26,0,0,0,.25.4.52.52,0,0,0,.1.11,1.56,1.56,0,0,0,.37.31l-28.21-16.39a1.79,1.79,0,0,1-.37-.31l-.09-.12a.93.93,0,0,1-.13-.15,1.71,1.71,0,0,1-.13-.23h0l-.07-.18-.06-.18a.85.85,0,0,1,0-.17l0-.08v0a.64.64,0,0,1,0-.07.88.88,0,0,1,0-.16,1,1,0,0,1,0-.17c0-.05,0-.1,0-.16V448h0Z" transform="translate(-11.19 -83.61)"/><g id="_Grupo_89" data-name="&lt;Grupo&gt;"><path id="_Caminho_239" data-name="&lt;Caminho&gt;" class="cls-84" d="M497,458.44a7.58,7.58,0,0,0-3.42,5.93c0,2.17,1.55,3.05,3.45,1.95a7.55,7.55,0,0,0,3.42-5.92C500.48,458.22,498.94,457.35,497,458.44Z" transform="translate(-11.19 -83.61)"/></g><g id="_Grupo_90" data-name="&lt;Grupo&gt;"><path id="_Caminho_240" data-name="&lt;Caminho&gt;" class="cls-85" d="M497.05,460.92a2.82,2.82,0,0,0-1.27,2.2c0,.8.58,1.13,1.28.72a2.8,2.8,0,0,0,1.27-2.19C498.33,460.84,497.75,460.52,497.05,460.92Z" transform="translate(-11.19 -83.61)"/></g></g><polyline id="_Caminho_241" data-name="&lt;Caminho&gt;" class="cls-88" points="485.87 378.77 495.07 384.26 504.54 378.77 479.25 362.39 531.33 332.01"/></g><path id="_Caminho_242" data-name="&lt;Caminho&gt;" class="cls-89" d="M542.22,428.33a2.09,2.09,0,0,1-.1.6s0,0,0,.05a2.26,2.26,0,0,1-.28.56.56.56,0,0,0-.05.08,3.44,3.44,0,0,1-.45.5c-.09.08-.2.15-.31.23a4.57,4.57,0,0,1-.48.35L527.87,438a7,7,0,0,1-1.78.69l-.25.06a9.59,9.59,0,0,1-2,.22h-.07a9.07,9.07,0,0,1-2.1-.24l-.08,0a6.67,6.67,0,0,1-1.86-.72,2.84,2.84,0,0,1-1.67-2.34l.05,19.54a2.88,2.88,0,0,0,1.67,2.34,5.8,5.8,0,0,0,.87.41,5.21,5.21,0,0,0,.7.23l.29.08.09,0,.22.05.58.1.56.06.57,0h.59l.64,0c.24,0,.48-.06.72-.11s.2-.05.3-.07l.24-.06c.16,0,.33-.07.49-.12a6.89,6.89,0,0,0,1.3-.56l12.65-7.31.19-.11c.12-.07.2-.16.3-.23l.3-.24.07,0a3.81,3.81,0,0,0,.34-.37l0-.07.06-.09a1.22,1.22,0,0,0,.12-.19,1.87,1.87,0,0,0,.15-.32s0,0,0,0,0,0,0,0a2.17,2.17,0,0,0,.07-.24,1.84,1.84,0,0,0,0-.33v0Z" transform="translate(-11.19 -83.61)"/><g id="_Grupo_91" data-name="&lt;Grupo&gt;"><path id="_Caminho_243" data-name="&lt;Caminho&gt;" class="cls-90" d="M532.4,426a9,9,0,0,1,8.14,0c2.23,1.3,2.24,3.43,0,4.73L527.87,438a9,9,0,0,1-8.15,0c-2.24-1.29-2.23-3.41,0-4.71Z" transform="translate(-11.19 -83.61)"/><path id="_Caminho_244" data-name="&lt;Caminho&gt;" class="cls-91" d="M523.81,438.29a7.73,7.73,0,0,1-3.75-.88,1.84,1.84,0,0,1,0-3.54l12.66-7.31a7.56,7.56,0,0,1,3.73-.88,7.67,7.67,0,0,1,3.73.88,1.84,1.84,0,0,1,0,3.55l-12.65,7.31A7.67,7.67,0,0,1,523.81,438.29Z" transform="translate(-11.19 -83.61)"/></g><path id="_Caminho_245" data-name="&lt;Caminho&gt;" class="cls-92" d="M520,440.8s3.15,5.15,4.05,6.34,4.54.9,4.54.9l14.7-8.1-.37-4.17-.7.11" transform="translate(-11.19 -83.61)"/><g id="_Grupo_92" data-name="&lt;Grupo&gt;"><path id="_Caminho_246" data-name="&lt;Caminho&gt;" class="cls-87" d="M520.42,417.08a1,1,0,0,1,0-.17c0-.06,0-.11,0-.17s0-.11,0-.17l0-.17h0l0-.17,0-.18c0-.06,0-.12,0-.18s0-.12,0-.18,0-.1-.05-.14h0v0a.84.84,0,0,1,0-.17,1.34,1.34,0,0,0-.07-.18L520,415a3.47,3.47,0,0,1-.12-.29h0l0,0-.07-.16-.09-.18-.1-.21a2.39,2.39,0,0,0-.13-.21l0,0,0-.05-.26-.4-.21-.31a1.56,1.56,0,0,0-.16-.2,1,1,0,0,0-.13-.16c0-.06-.09-.11-.13-.16l-.13-.15,0,0h0a.94.94,0,0,1-.1-.1l-.15-.15-.15-.14-.15-.13a.27.27,0,0,1-.08-.07h0l-.06,0-.15-.11-.15-.11-.14-.09-.15-.09,0,0-.11-.06-.14-.08-.14-.06-.14-.06-.14-.05h0l-.1,0-.15,0-.14,0-.15,0h-.49l-.2,0h0a1,1,0,0,0-.23.06,1.43,1.43,0,0,0-.28.13l-28.2,16.39a1.67,1.67,0,0,1,.5-.19h0a1.86,1.86,0,0,1,.58,0h0a2.54,2.54,0,0,1,.64.14h0a4.19,4.19,0,0,1,.69.32,4.87,4.87,0,0,1,.68.47l0,0a5.8,5.8,0,0,1,.63.59h0a7.81,7.81,0,0,1,1.08,1.45l0,0a7.46,7.46,0,0,1,.4.8h0a6.53,6.53,0,0,1,.31.84h0a6.48,6.48,0,0,1,.19.85h0a4.76,4.76,0,0,1,.07.84,3.35,3.35,0,0,1-.07.73v0a2.73,2.73,0,0,1-.2.61h0a1.77,1.77,0,0,1-.26.39l-.09.12a1.84,1.84,0,0,1-.38.31l28.21-16.39a1.56,1.56,0,0,0,.37-.31l.1-.12a.88.88,0,0,0,.12-.15,1.36,1.36,0,0,0,.13-.24h0a.87.87,0,0,0,.07-.17.64.64,0,0,0,.06-.18,1.09,1.09,0,0,0,.05-.17s0-.06,0-.08v0s0-.05,0-.07l0-.17c0-.05,0-.1,0-.16a.86.86,0,0,0,0-.16,1,1,0,0,0,0-.17h0Z" transform="translate(-11.19 -83.61)"/><g id="_Grupo_93" data-name="&lt;Grupo&gt;"><path id="_Caminho_247" data-name="&lt;Caminho&gt;" class="cls-84" d="M488.79,427.7a7.52,7.52,0,0,1,3.42,5.93c0,2.17-1.54,3-3.44,1.95a7.54,7.54,0,0,1-3.42-5.92C485.35,427.48,486.9,426.61,488.79,427.7Z" transform="translate(-11.19 -83.61)"/></g><g id="_Grupo_94" data-name="&lt;Grupo&gt;"><path id="_Caminho_248" data-name="&lt;Caminho&gt;" class="cls-85" d="M488.78,430.18a2.78,2.78,0,0,1,1.27,2.2c0,.8-.57,1.13-1.28.72a2.76,2.76,0,0,1-1.26-2.19C487.51,430.1,488.08,429.77,488.78,430.18Z" transform="translate(-11.19 -83.61)"/></g></g><g id="_Grupo_95" data-name="&lt;Grupo&gt;"><path id="_Caminho_249" data-name="&lt;Caminho&gt;" class="cls-93" d="M470.17,435.71v-.16c0-.06,0-.11,0-.17a1,1,0,0,0,0-.17,1,1,0,0,0,0-.17h0l0-.17a851007099422.61,851007099422.61,0,0,0-.08-.36,1.21,1.21,0,0,0-.05-.18,1,1,0,0,0,0-.14h0v0l-.06-.18-.06-.17-.06-.17c0-.05-.05-.11-.07-.17l0-.12h0v0l-.07-.16-.09-.18-.11-.21-.12-.22,0,0,0-.05-.25-.41-.22-.3-.15-.2-.13-.17-.13-.15-.14-.15,0,0h0l-.1-.11-.14-.14-.15-.14-.16-.13a.27.27,0,0,0-.08-.07h0l-.06-.05-.15-.11-.15-.11-.15-.1-.14-.09,0,0-.11-.06-.14-.07-.13-.07-.14-.05-.14-.06h0l-.1,0-.14,0-.14,0-.15,0H465l-.2,0h0l-.23.07a1.39,1.39,0,0,0-.28.12L436.1,446.1a1.57,1.57,0,0,1,.51-.19h0a2.71,2.71,0,0,1,.58,0h0a2.6,2.6,0,0,1,.64.13h0a3.5,3.5,0,0,1,.69.32,4.87,4.87,0,0,1,.68.47h0a7,7,0,0,1,.63.59h0a7.84,7.84,0,0,1,1.07,1.46l0,0a8.62,8.62,0,0,1,.41.8h0a7.13,7.13,0,0,1,.31.84v0a5,5,0,0,1,.2.85h0a4.73,4.73,0,0,1,.07.83,4.23,4.23,0,0,1-.07.74v0a2.64,2.64,0,0,1-.19.6h0a2.3,2.3,0,0,1-.26.4l-.1.12a1.56,1.56,0,0,1-.37.31l28.21-16.4a1.52,1.52,0,0,0,.37-.3l.1-.12.12-.16a1.71,1.71,0,0,0,.13-.23h0c0-.06,0-.11.07-.17l.06-.18c0-.06,0-.12,0-.18s0-.05,0-.07v0s0-.05,0-.08a.78.78,0,0,0,0-.16.88.88,0,0,0,0-.16,1,1,0,0,0,0-.17.92.92,0,0,1,0-.16h0C470.18,435.82,470.17,435.77,470.17,435.71Z" transform="translate(-11.19 -83.61)"/><g id="_Grupo_96" data-name="&lt;Grupo&gt;"><path id="_Caminho_250" data-name="&lt;Caminho&gt;" class="cls-84" d="M438.55,446.34a7.52,7.52,0,0,1,3.42,5.92c0,2.17-1.55,3.05-3.45,1.95a7.55,7.55,0,0,1-3.42-5.91C435.11,446.12,436.66,445.24,438.55,446.34Z" transform="translate(-11.19 -83.61)"/></g><g id="_Grupo_97" data-name="&lt;Grupo&gt;"><path id="_Caminho_251" data-name="&lt;Caminho&gt;" class="cls-85" d="M438.54,448.81a2.82,2.82,0,0,1,1.27,2.2c0,.81-.57,1.13-1.28.73a2.82,2.82,0,0,1-1.27-2.2C437.26,448.73,437.84,448.41,438.54,448.81Z" transform="translate(-11.19 -83.61)"/></g></g></g><g id="_Grupo_98" data-name="&lt;Grupo&gt;"><g id="_Grupo_99" data-name="&lt;Grupo&gt;" class="cls-2"><g id="_Grupo_100" data-name="&lt;Grupo&gt;"><polygon id="_Caminho_252" data-name="&lt;Caminho&gt;" class="cls-94" points="43.34 350.41 43.37 364 2.11 387.84 2.06 374.26 43.34 350.41"/></g><g id="_Grupo_101" data-name="&lt;Grupo&gt;"><polygon id="_Caminho_253" data-name="&lt;Caminho&gt;" class="cls-95" points="2.06 374.26 2.11 387.84 0.04 338.82 0 325.23 2.06 374.26"/></g><g id="_Grupo_102" data-name="&lt;Grupo&gt;"><polygon id="_Caminho_254" data-name="&lt;Caminho&gt;" class="cls-96" points="0 325.23 43.34 350.41 2.06 374.26 0 325.23"/></g></g></g><path id="_Caminho_composto_6" data-name="&lt;Caminho composto&gt;" class="cls-97" d="M755.82,469.72l-11-3.58-2.37,1.16h0l-22.93,10.59c-.39-.1-.78-.2-.88-.24s-.26.14,0,.22l.58.17-.14.06-.85-.16c-.07,0-.15.18.33.25l.25,0-.25.11c-.24,0-.53,0-.73,0,0,0-.14.12.37.15l-11.69,5.4h0l-67.55,31.16h0L631.57,523l-1.2,1.62,4.27-1.28,21.46-6h0l58.76-28h0l2.49-1.19,1.64-.79,4.68,1.3a6.28,6.28,0,0,0-2.41,1.56,8.77,8.77,0,0,0-2,3.47,4.67,4.67,0,0,0-.78,2.45l1.78.15.1.12h0l0,0c-.15.4-.39.95-.7,1.58-.63,1.27,2.94,4.27,2.94,4.27l-.54,1.5,1.21.61,1.23,5.24.34,0,0,.2h0a.46.46,0,0,0-.18.11,1.5,1.5,0,0,1-.29.18h0l0,0a10.05,10.05,0,0,0-2.33.54c-.09.08.21.11.78.1a0,0,0,0,0,0,.05h0l0,.05a5.71,5.71,0,0,0,.85-.1,1.84,1.84,0,0,0,.3-.07c1.12-.07,2.62-.22,4.31-.42s3-.39,4.19-.58h.35c-.25.1-.45.2-.4.27h0a0,0,0,0,0,0,0l0,0a4,4,0,0,0,.56,0,3.38,3.38,0,0,0,.4-.07h.06l.23-.07.51-.17a19.33,19.33,0,0,0,4-.38c.26-.14-.74-.25-2.45-.29a.36.36,0,0,0-.15-.15l-.09.05-.22-.13.32-.06a2.08,2.08,0,0,1-1.07-3c1.1-2.22.7-2.21.35-2.46a20.54,20.54,0,0,0-2.74-.85,10.23,10.23,0,0,1,.32-3v0l.09-.38a6.59,6.59,0,0,0,.16-.92,1.41,1.41,0,0,0,0-.18h0c1,.26,2.1.49,3.38.7a8.57,8.57,0,0,1,.54-2.52s-2.19-1.31-2.06-2.24c0-.33.21-1.11.41-2h0v-.09c.35-1.5.78-3.2.78-3.2l-3.94-1.06,0,0v-.63h.8a9.23,9.23,0,0,1,1.49-.58c.82-.25.12-.44.31-.61a1.19,1.19,0,0,1,.57-.21l-.43-.16c0-.86-1.26-.91-1.26-.91.33.07.19.33.19.33-.23-.4-2.42-.31-2.42-.31l-.07.51a38.62,38.62,0,0,0-4.06,1.15c-.71-.51-1.57-1-2.18-1.39l28.85-13.75Zm-34.89,16.73,1-.45c.16.19.31.39.47.59C721.8,486.55,721.31,486.51,720.93,486.45Zm13.44,22.44V509H734Zm-8.12.94c-.06-.08-.12-.16-.19-.18l-.09.06-.29-.17-.84.08.92-.09a8,8,0,0,0,1.55.15Zm.64-7.89c.62.32,1.06.52,1.06.52l.15.73c-.63-.33-1.5-.7-1.5-.7S726.69,502.29,726.89,501.94Zm.09,4.23a8.42,8.42,0,0,0,1.85-2.13l1,.29L733.9,509h-1.17a56.23,56.23,0,0,0-6.67.36C725.73,508.94,725.19,507.92,727,506.17ZM728,487Z" transform="translate(-11.19 -83.61)"/><polygon id="_Caminho_255" data-name="&lt;Caminho&gt;" class="cls-98" points="724.77 424.4 725.28 425.34 724.17 425.67 723.75 425.1 723.75 424.4 724.77 424.4"/><g id="_Grupo_103" data-name="&lt;Grupo&gt;"><path id="_Caminho_256" data-name="&lt;Caminho&gt;" class="cls-99" d="M735.14,508.6a.67.67,0,0,0-.42.43,2.71,2.71,0,0,1-1,1.22c-.48.29-1.25.82-1.09,1.28l0,.18a2.06,2.06,0,0,0,1.55-.27,15.72,15.72,0,0,1,2.59-1.53l.06-.08a5.65,5.65,0,0,0-.39-1.27,3.94,3.94,0,0,1-.36.46C736,509.06,735.61,508.55,735.14,508.6Z" transform="translate(-11.19 -83.61)"/><path id="_Caminho_257" data-name="&lt;Caminho&gt;" class="cls-98" d="M736.79,509.62l-.07.08a15.14,15.14,0,0,0-2.59,1.54,2.08,2.08,0,0,1-1.55.26v0a.14.14,0,0,0,0,.06l0,.18a2.06,2.06,0,0,0,1.55-.27,15.72,15.72,0,0,1,2.59-1.53l.06-.08-.05-.25Z" transform="translate(-11.19 -83.61)"/><path id="_Caminho_258" data-name="&lt;Caminho&gt;" class="cls-100" d="M733.76,510.16a.64.64,0,0,1,.64.08" transform="translate(-11.19 -83.61)"/><path id="_Caminho_259" data-name="&lt;Caminho&gt;" class="cls-100" d="M734,510a.64.64,0,0,1,.64.08" transform="translate(-11.19 -83.61)"/><path id="_Caminho_260" data-name="&lt;Caminho&gt;" class="cls-100" d="M734.18,509.78a.64.64,0,0,1,.64.08" transform="translate(-11.19 -83.61)"/><path id="_Caminho_261" data-name="&lt;Caminho&gt;" class="cls-100" d="M734.39,509.58a.65.65,0,0,1,.64.08" transform="translate(-11.19 -83.61)"/></g><g id="_Grupo_104" data-name="&lt;Grupo&gt;"><path id="_Caminho_262" data-name="&lt;Caminho&gt;" class="cls-101" d="M714.13,406.08s.23-2.91.18-3.26a2.2,2.2,0,0,0-.71-1.1c-.33-.27-1.7-1.27-1.93-1.52a.45.45,0,0,0,0,.68c.27.26,1.51,1.27,1.79,1.55a18,18,0,0,0-1.33,1.66,1.94,1.94,0,0,0,.21,1.37,3.39,3.39,0,0,0,.5.83S714.13,406.08,714.13,406.08Z" transform="translate(-11.19 -83.61)"/><path id="_Caminho_263" data-name="&lt;Caminho&gt;" class="cls-101" d="M713.63,402.67l-1.09-.79c-.17-.13-1.17-.71-1.32-.79-.08.09-.15.53.4.79a10.37,10.37,0,0,1,1.62,1.2Z" transform="translate(-11.19 -83.61)"/><path id="_Caminho_264" data-name="&lt;Caminho&gt;" class="cls-101" d="M713.18,403.13s-1.07-.6-1.28-.75-.76,0-1.08,0c0,0-.2.48.79.54a1.36,1.36,0,0,1,1,.64Z" transform="translate(-11.19 -83.61)"/><path id="_Caminho_265" data-name="&lt;Caminho&gt;" class="cls-101" d="M712.77,403.62l-1-.34a.76.76,0,0,1-.67.21.5.5,0,0,0,.44.36c.35,0,.93.13.93.13Z" transform="translate(-11.19 -83.61)"/></g><path id="_Caminho_266" data-name="&lt;Caminho&gt;" class="cls-102" d="M728.27,459.11a51.77,51.77,0,0,1-1.66,12.58,101.6,101.6,0,0,0-2.34,11.68,27.9,27.9,0,0,1,2.74,4.45c.28,1.07.75,1.25-1.73,8.42s-.41,11.4-.41,11.4h-2.1L720.52,489,719,486.59l.43-5s-4.59-11.08-4-15.18.8-7.27.8-7.27Z" transform="translate(-11.19 -83.61)"/><path id="_Caminho_267" data-name="&lt;Caminho&gt;" class="cls-25" d="M719.28,437.56s-2.42-9.7-3.89-13.12c-2.3.76-2.61-18.21-2.61-18.21l1.36-.17s1.45,6.24,2.05,8.56,2.38,3.59,2.49,6.62c.83,2.92,5.52,8.12,5.29,12.8C722.15,435.42,719.28,437.56,719.28,437.56Z" transform="translate(-11.19 -83.61)"/><path id="_Caminho_268" data-name="&lt;Caminho&gt;" class="cls-103" d="M719,436s-5.76,14.16-5.2,23.92l3,1.3A70.64,70.64,0,0,1,719,436Z" transform="translate(-11.19 -83.61)"/><path id="_Caminho_269" data-name="&lt;Caminho&gt;" class="cls-27" d="M730.09,459.85a51.59,51.59,0,0,1,.88,12.66,101.36,101.36,0,0,0,0,11.9,27.86,27.86,0,0,1,3.57,3.81c.5,1,1,1.08,0,8.6s1.88,11.25,1.88,11.25l-2.07.41-5.91-17.79-2-2.07-.57-5s-6.71-9.94-7-14.07a59,59,0,0,0-1.25-8.39Z" transform="translate(-11.19 -83.61)"/><path id="_Caminho_270" data-name="&lt;Caminho&gt;" class="cls-24" d="M723.54,432.6s-6,2.9-7.3,8.32c-.25,1-3.93,12.89-.2,19.95.72.28,14.59,1.74,14.59,1.74s2.42-22.81,2.64-24.52a24.38,24.38,0,0,1-4.06-3.29C728.33,434,723.54,432.6,723.54,432.6Z" transform="translate(-11.19 -83.61)"/><path id="_Caminho_271" data-name="&lt;Caminho&gt;" class="cls-104" d="M728.17,430.42l-4.6.32s.3,3.6.35,4a16.46,16.46,0,0,0,4.41-.67Z" transform="translate(-11.19 -83.61)"/><path id="_Caminho_272" data-name="&lt;Caminho&gt;" class="cls-25" d="M723.88,435.33s-3.32,4.07-3.58,8.12a41.11,41.11,0,0,0,1.16,9.87l-1.7,1.52-1.85-1.94s-.91-11.63,5.33-18.07Z" transform="translate(-11.19 -83.61)"/><path id="_Caminho_273" data-name="&lt;Caminho&gt;" class="cls-105" d="M725.4,461.45s-7.72-.61-9.85-1.63l.46,1.37s7.45,1.27,9.85,1.13Z" transform="translate(-11.19 -83.61)"/><path id="_Caminho_274" data-name="&lt;Caminho&gt;" class="cls-106" d="M725.86,462.32l.08.14c-2.41.14-9.93-1.12-9.93-1.12l0-.15A93.79,93.79,0,0,0,725.86,462.32Z" transform="translate(-11.19 -83.61)"/><polygon id="_Caminho_275" data-name="&lt;Caminho&gt;" class="cls-107" points="706.82 376.89 706.92 377.92 706.45 377.84 706.36 376.8 706.82 376.89"/><polygon id="_Caminho_276" data-name="&lt;Caminho&gt;" class="cls-107" points="706.75 377.64 705.72 377.49 705.72 377.73 706.75 377.89 706.75 377.64"/><polygon id="_Caminho_277" data-name="&lt;Caminho&gt;" class="cls-107" points="706.75 376.9 705.74 376.66 705.72 376.98 706.75 377.14 706.75 376.9"/><polygon id="_Caminho_278" data-name="&lt;Caminho&gt;" class="cls-107" points="706.75 377.27 705.45 377.03 705.51 377.36 706.75 377.51 706.75 377.27"/><path id="_Caminho_279" data-name="&lt;Caminho&gt;" class="cls-108" d="M724.53,440.11s-4.68,12.09-1.28,22.22l2.69.13S722,449.7,724.53,440.11Z" transform="translate(-11.19 -83.61)"/><path id="_Caminho_280" data-name="&lt;Caminho&gt;" class="cls-25" d="M728.33,433.39a22.74,22.74,0,0,0-4.15,7.77c-1.5,4.79-4.93,20.65,11.17,30.86a76.21,76.21,0,0,1,.25-8.63s-3-5-2.94-8.17.65-17.63.65-17.63Z" transform="translate(-11.19 -83.61)"/><polygon id="_Caminho_281" data-name="&lt;Caminho&gt;" class="cls-109" points="714.21 377.83 714.75 378.85 713.79 378.85 713.46 377.78 714.21 377.83"/><path id="_Caminho_282" data-name="&lt;Caminho&gt;" class="cls-110" d="M723.56,431.07l1.08.52,1.72-.44s.22.33.79.06a8.67,8.67,0,0,0,1-.59l.11,2.67s-2.39-1.24-3.34-.9Z" transform="translate(-11.19 -83.61)"/><path id="_Caminho_283" data-name="&lt;Caminho&gt;" class="cls-104" d="M727,430.52a4.45,4.45,0,0,1-2.13,1.48,24.31,24.31,0,0,1-3.3-2.12,2.87,2.87,0,0,1-.11-1.17s3.62-3.18,5.44-3.89c0,0,1.32-.52,2.56,1.82S728.88,430.42,727,430.52Z" transform="translate(-11.19 -83.61)"/><path id="_Caminho_284" data-name="&lt;Caminho&gt;" class="cls-36" d="M726.94,424.82v-1.66s2.62,0,3,1.36c0,0,.12-.85-.29-1.13,0,0,1.51.34,1.67,3.2l.55.61a.85.85,0,0,0-.66.6c-.2.56.68,1.3-.28,2a8.68,8.68,0,0,0-1.71,1.7l-1.16-.16s.36-1.35-.14-1.46h-.51l0-.37.84-.25a1.91,1.91,0,0,0,.83-3.08A4.25,4.25,0,0,0,726.94,424.82Z" transform="translate(-11.19 -83.61)"/><path id="_Caminho_285" data-name="&lt;Caminho&gt;" class="cls-104" d="M727.73,429.89a.64.64,0,0,1,.82.65.85.85,0,0,1-.89.94c-.25,0-1,.35-1.38.17-.15,0-.33-.39-.33-.39Z" transform="translate(-11.19 -83.61)"/><path id="_Caminho_286" data-name="&lt;Caminho&gt;" class="cls-111" d="M723.6,431.24,721.74,430s-.6,3.83-3,5.49l.12.48,4.86-3.32Z" transform="translate(-11.19 -83.61)"/><path id="_Caminho_287" data-name="&lt;Caminho&gt;" class="cls-25" d="M724.15,434.78l.14.54-.39.15s-.2-.14-.84-.64l.24-.36.43,0A.45.45,0,0,0,724.15,434.78Z" transform="translate(-11.19 -83.61)"/><g id="_Grupo_105" data-name="&lt;Grupo&gt;"><g id="_Grupo_106" data-name="&lt;Grupo&gt;"><g id="_Grupo_107" data-name="&lt;Grupo&gt;"><path id="_Caminho_288" data-name="&lt;Caminho&gt;" class="cls-112" d="M724.65,462.47s0,.11.05.32" transform="translate(-11.19 -83.61)"/><path id="_Caminho_289" data-name="&lt;Caminho&gt;" class="cls-113" d="M724.8,463.45c.37,2.39,1.31,8.54,1.7,12,.48,4.3,2,9,3.2,10.18a13.3,13.3,0,0,1,3.37,8.69c0,3.83-.63,7.78,2,13.4" transform="translate(-11.19 -83.61)"/><path id="_Caminho_290" data-name="&lt;Caminho&gt;" class="cls-112" d="M735.25,508l.15.29" transform="translate(-11.19 -83.61)"/></g></g></g><path id="_Caminho_291" data-name="&lt;Caminho&gt;" class="cls-114" d="M726.71,488.57c.1,0,3.91,2,3.91,2a6.13,6.13,0,0,0-1.86,0Z" transform="translate(-11.19 -83.61)"/><path id="_Caminho_292" data-name="&lt;Caminho&gt;" class="cls-115" d="M727.57,476.32c-1.37-4.63-.47-12-.47-12l3.61,4.15s-.05,3.24-.28,5.6a37.88,37.88,0,0,0,.31,9.43l0-.1s.17.81.24,1.43c.58.67,1.18,1.28,1.73,1.91l1.35,1.37a2.19,2.19,0,0,0-.67-.55,6,6,0,0,1,1.26,5.16,22.62,22.62,0,0,0,.55,12.92,14.53,14.53,0,0,1-1.77-4.76c-.55-2.87.29-6.07.62-8.6.17-1.34-1-3.42-2.08-5.09a9.43,9.43,0,0,0-3.68.78,12.47,12.47,0,0,0,1.87-3.26l-.17-.21S728.94,481,727.57,476.32Z" transform="translate(-11.19 -83.61)"/><path id="_Caminho_293" data-name="&lt;Caminho&gt;" class="cls-102" d="M731,468.74a32.42,32.42,0,0,1-5.08-6.28c.06,2.39,5,11.58,5,11.58S731.06,470.17,731,468.74Z" transform="translate(-11.19 -83.61)"/><g id="_Grupo_108" data-name="&lt;Grupo&gt;"><polygon id="_Caminho_294" data-name="&lt;Caminho&gt;" class="cls-24" points="701.58 322.62 701.62 323.46 704.08 323.36 703.97 322.15 701.58 322.62"/><path id="_Caminho_295" data-name="&lt;Caminho&gt;" class="cls-25" d="M714.67,406.68a.22.22,0,0,1,0-.28.16.16,0,0,1,.24.05.21.21,0,0,1-.05.27A.14.14,0,0,1,714.67,406.68Z" transform="translate(-11.19 -83.61)"/></g><polygon id="_Caminho_296" data-name="&lt;Caminho&gt;" class="cls-98" points="713.01 424.02 713.52 424.96 712.41 425.29 711.99 424.72 711.99 424.01 713.01 424.02"/><g id="_Grupo_109" data-name="&lt;Grupo&gt;"><path id="_Caminho_297" data-name="&lt;Caminho&gt;" class="cls-99" d="M723.38,508.22a.64.64,0,0,0-.41.43,2.81,2.81,0,0,1-1.05,1.22c-.48.29-1.25.82-1.09,1.28l0,.18a2.06,2.06,0,0,0,1.55-.27,15.82,15.82,0,0,1,2.59-1.54l.07-.08a5.92,5.92,0,0,0-.4-1.27,5.14,5.14,0,0,1-.35.47C724.27,508.68,723.85,508.17,723.38,508.22Z" transform="translate(-11.19 -83.61)"/><path id="_Caminho_298" data-name="&lt;Caminho&gt;" class="cls-98" d="M725,509.24l-.07.08a15.66,15.66,0,0,0-2.58,1.53,2.08,2.08,0,0,1-1.56.27v0a.64.64,0,0,0,0,.07l0,.18a2.06,2.06,0,0,0,1.55-.27,16.57,16.57,0,0,1,2.59-1.54l.07-.08s0-.1-.06-.24Z" transform="translate(-11.19 -83.61)"/><path id="_Caminho_299" data-name="&lt;Caminho&gt;" class="cls-100" d="M722,509.77a.66.66,0,0,1,.64.09" transform="translate(-11.19 -83.61)"/><path id="_Caminho_300" data-name="&lt;Caminho&gt;" class="cls-100" d="M722.21,509.58a.66.66,0,0,1,.64.09" transform="translate(-11.19 -83.61)"/><path id="_Caminho_301" data-name="&lt;Caminho&gt;" class="cls-100" d="M722.42,509.39a.66.66,0,0,1,.64.09" transform="translate(-11.19 -83.61)"/><path id="_Caminho_302" data-name="&lt;Caminho&gt;" class="cls-100" d="M722.63,509.2a.65.65,0,0,1,.64.08" transform="translate(-11.19 -83.61)"/></g><path id="_Caminho_composto_7" data-name="&lt;Caminho composto&gt;" class="cls-111" d="M733.83,460.38a8,8,0,0,1-1.32-4.07c0-1.78.31-7.94.31-7.94s-.3-.29-.56-.5v-2.15l-3.34-6.33-4.53,1.28s6.55,6.49,6.63,12.1a9.29,9.29,0,0,1-.67,4.29c-1,1.21-4.41,2.6-4.41,2.6s7.67-1.55,9.35,4l.21-.28S734.32,461.14,733.83,460.38Zm-1.57-11.26v-.77l.12.18S732.33,448.76,732.26,449.12Z" transform="translate(-11.19 -83.61)"/><path id="_Caminho_303" data-name="&lt;Caminho&gt;" class="cls-111" d="M728,433.92l-.75,1.24,2.36,1.49s1.93,0,2.5.75A17.07,17.07,0,0,0,728,433.92Z" transform="translate(-11.19 -83.61)"/><polygon id="_Caminho_304" data-name="&lt;Caminho&gt;" class="cls-116" points="726.84 284.85 625.28 415.53 640.37 427.2 741.53 296.79 726.84 284.85"/><polygon id="_Caminho_305" data-name="&lt;Caminho&gt;" class="cls-117" points="728.69 286.65 741.37 296.95 741.53 296.74 726.84 284.8 625.28 415.48 627.34 417.07 728.69 286.65"/><polygon id="_Caminho_306" data-name="&lt;Caminho&gt;" class="cls-118" points="625.28 415.53 619.18 436.59 621.74 438.55 640.37 427.2 625.28 415.53"/><polygon id="_Caminho_307" data-name="&lt;Caminho&gt;" class="cls-119" points="627.25 417.07 640.36 427.21 640.37 427.2 625.28 415.53 619.18 436.59 621.16 438.11 627.25 417.07"/><polygon id="_Caminho_308" data-name="&lt;Caminho&gt;" points="619.18 436.59 618.19 440.96 621.74 438.55 619.18 436.59"/><polygon id="_Caminho_309" data-name="&lt;Caminho&gt;" class="cls-120" points="726.84 284.85 729.58 281.11 744.19 293 741.53 296.79 726.84 284.85"/><path id="_Caminho_310" data-name="&lt;Caminho&gt;" class="cls-121" d="M702.69,422.28a11.33,11.33,0,0,0,2.72,3.86c1.51,1.07,3.44,10.82,3.44,10.82l2.66-3.43-5.83-11.61s-1.38-.65-1.76-.44S702.69,422.28,702.69,422.28Z" transform="translate(-11.19 -83.61)"/><g id="_Grupo_110" data-name="&lt;Grupo&gt;"><path id="_Caminho_311" data-name="&lt;Caminho&gt;" class="cls-101" d="M707.33,422.21s-2.55-3.28-2.94-3.6a3,3,0,0,0-1.81-.43c-.63.05-3.05.39-3.53.36a.62.62,0,0,0,.64.72c.54,0,2.83-.19,3.4-.19a29.34,29.34,0,0,0,.17,3.09,2.67,2.67,0,0,0,1.55,1.23,5.73,5.73,0,0,0,1.32.37S707.33,422.21,707.33,422.21Z" transform="translate(-11.19 -83.61)"/><path id="_Caminho_312" data-name="&lt;Caminho&gt;" class="cls-101" d="M703.52,419.15s-1.63.23-1.93.26-1.94.45-2.18.51c0,.18.35.72,1.2.43a14.28,14.28,0,0,1,2.88-.38Z" transform="translate(-11.19 -83.61)"/><path id="_Caminho_313" data-name="&lt;Caminho&gt;" class="cls-101" d="M703.48,420.08s-1.72.46-2.09.5c-.33.25-.79.81-1.18,1.09,0,0,.26.7,1.37-.24a2,2,0,0,1,1.72-.37Z" transform="translate(-11.19 -83.61)"/><path id="_Caminho_314" data-name="&lt;Caminho&gt;" class="cls-101" d="M703.51,421l-1.41.65a1.11,1.11,0,0,1-.51.88.7.7,0,0,0,.82-.05c.4-.33,1.13-.81,1.13-.81Z" transform="translate(-11.19 -83.61)"/></g><path id="_Caminho_315" data-name="&lt;Caminho&gt;" class="cls-25" d="M732.87,448.61a23.83,23.83,0,0,1-4.42-3.74c-1.5-1.83-2.8-3.72-2.8-3.72l-5.4-3.65s-13.5-12-14.22-12.91c-.08-.81,1.27-1.88,1.27-1.88s6.21,4.69,7.94,5.78,5.77,1.2,7.08,3.87c4.15,2.47,6,.68,8.23,4.91S732.87,448.61,732.87,448.61Z" transform="translate(-11.19 -83.61)"/><g id="_Grupo_111" data-name="&lt;Grupo&gt;"><polygon id="_Caminho_316" data-name="&lt;Caminho&gt;" class="cls-24" points="694.96 341.1 694.22 340.45 696.37 337.87 697.4 338.88 694.96 341.1"/><path id="_Caminho_317" data-name="&lt;Caminho&gt;" class="cls-25" d="M707.34,422.35a.22.22,0,0,0,.28.15.23.23,0,1,0-.28-.15Z" transform="translate(-11.19 -83.61)"/></g><path id="_Caminho_318" data-name="&lt;Caminho&gt;" class="cls-19" d="M385.53,381.47s2.8,3.82,3.85,5a27.18,27.18,0,0,0,3.41,1.06l5.89,1.28L397,382.74Z" transform="translate(-11.19 -83.61)"/><path id="_Caminho_composto_8" data-name="&lt;Caminho composto&gt;" class="cls-1" d="M302.56,332.55l0-.07h-1.06l-.15.1-8.87.26-4.65-5.56-3.9-.38-1.21,0,.47,0-.2-.22-1.27.05.51-.75.82,0a9.48,9.48,0,0,0,3.73-2.83c.54-.26.9-.55.83-.87-2-2.33-8-.6-8.86-.06-3.24,2.12-.94,3.11-.94,3.11s0,0,.07,0a1.58,1.58,0,0,0,.32.17l-.82.7-3.06.47-2.7-.08-4.23.38-8.63,6.92-12.11.36-.37.62,11.7-.34-4.61,6.18H253l-.42.52H253l-1.29,1.42,1.5.48.7-.29-.26-.55.37-.09.67-.51-.22-.5h.47l-.29.19,1.84.39-.29.46c-.24.36-.49.74-.74,1.14l0,0h0a35,35,0,0,0-2.69,5.24c-.8,2-6.68,14.39-6.68,14.39h2.7l2.17-1-1.08-.23-.1,0,11.36-13.82.52-.6h0l1.58-1.88a17.55,17.55,0,0,1-2.51,5.07c-2,2-7.3,14.36-7.3,14.36h2.7l0,0,2.09-1-1.06-.22c2.85-3.25,10.51-11.95,11.57-13,1.21-1.23,6.66-9,7.38-10.08,1.19-1.4,3.51-4.13,4.09-4.75.23-.24.95-1.06,1.87-2.09l3.21-.09c1.25,1.11,2.65,2.08,3.62,2,4.6-.6,11.08-2,11.08-2v-.07l1.19,0,1.8-.38-.05-.08,44.16-36.93-.87-.58Zm-49,9.42,0-.05.3-.27.16.11Zm9.7,3.49h0l.06-.07Zm-1.07-9.78a61.59,61.59,0,0,1-6.69,5.05h-.28l7-6.39,1.09,0C262.87,334.88,262.46,335.37,262.17,335.68Zm1.65-2-.89,0,.27-.24,2.12-1.76C264.82,332.37,264.31,333.05,263.82,333.68Zm18.83-.55,1-1.11c.3.32.66.68,1,1.05Z" transform="translate(-11.19 -83.61)"/></g></g></svg>