<svg xmlns="http://www.w3.org/2000/svg" xmlns:xlink="http://www.w3.org/1999/xlink" viewBox="0 0 4064.69 2721.24"><defs><style>.cls-1{mask:url(#mask);}.cls-2{mix-blend-mode:multiply;fill:url(#Œ_ƒΩ_11);}.cls-3,.cls-75,.cls-91,.cls-92{fill:none;}.cls-4{isolation:isolate;}.cls-5,.cls-6,.cls-7{opacity:0.35;}.cls-5{fill:url(#Œ_ƒΩ_13);}.cls-6{fill:url(#Œ_ƒΩ_13-2);}.cls-7{fill:url(#Œ_ƒΩ_13-3);}.cls-8{fill:url(#Œ_ƒΩ_13-4);}.cls-9{fill:url(#Œ_ƒΩ_13-5);}.cls-10{fill:url(#Œ_ƒΩ_13-6);}.cls-11{fill:#85d0e5;}.cls-12{fill:url(#Œ_ƒΩ_6);}.cls-13{fill:url(#Œ_ƒΩ_10);}.cls-14,.cls-22{fill:#fff;}.cls-14{opacity:0.23;}.cls-15{fill:url(#Œ_ƒΩ_13-7);}.cls-16,.cls-18{opacity:0.21;mix-blend-mode:color-dodge;}.cls-16{fill:url(#Œ_ƒΩ_36);}.cls-17{fill:url(#Œ_ƒΩ_13-8);}.cls-18{fill:url(#Œ_ƒΩ_36-2);}.cls-19{fill:url(#Œ_ƒΩ_13-9);}.cls-20{fill:#f29e25;}.cls-21{fill:#7af5e9;}.cls-23{fill:url(#Œ_ƒΩ_37);}.cls-24{fill:url(#Œ_ƒΩ_29);}.cls-25{fill:url(#Œ_ƒΩ_57);}.cls-26{opacity:0.3;fill:url(#Œ_ƒΩ_17);}.cls-27{fill:url(#linear-gradient);}.cls-28{fill:#d32032;}.cls-29{fill:#a41c24;}.cls-30{fill:#eda63f;}.cls-31{fill:url(#linear-gradient-2);}.cls-32{fill:url(#Œ_ƒΩ_29-2);}.cls-33{fill:#002f70;}.cls-34{fill:#00204c;}.cls-35{fill:#003886;}.cls-36{fill:#b72129;}.cls-37{fill:#5c1115;}.cls-38{fill:#f42c37;}.cls-39{mask:url(#mask-2);}.cls-40,.cls-41{mix-blend-mode:overlay;}.cls-40{fill:url(#Œ_ƒΩ_59);}.cls-41{fill:url(#Œ_ƒΩ_44);}.cls-42{fill:#1f629a;}.cls-43{clip-path:url(#clip-path);}.cls-44{fill:#174b76;}.cls-45{fill:#39a2ea;}.cls-46{fill:#8c24b5;}.cls-47{clip-path:url(#clip-path-2);}.cls-48{fill:#62197e;}.cls-49{fill:#a72bd7;}.cls-50{fill:#9d8d2a;}.cls-51{fill:#ff8200;}.cls-52{fill:#ffe644;}.cls-53{fill:#bf6200;}.cls-54{fill:#ff9b33;}.cls-55{fill:#5b94e5;}.cls-56{fill:#fc776d;}.cls-57{fill:#ec649d;}.cls-58{fill:#51bec2;}.cls-59{fill:#fbcb3e;}.cls-60{fill:#4dbbc9;}.cls-61{fill:#fb6e5e;}.cls-62{fill:#e62068;}.cls-63{fill:#fed315;}.cls-64{fill:#30dc85;}.cls-65{fill:#1abbd5;}.cls-66{fill:#ee2c4f;}.cls-67{fill:#979aac;}.cls-68{fill:#4cdbc4;}.cls-69{fill:#f15a24;}.cls-70{fill:#29abe2;}.cls-71{fill:#b3b3b3;}.cls-72{fill:#05153e;}.cls-72,.cls-96{opacity:0.37;}.cls-73{fill:#ede1b6;}.cls-74{fill:#b51d22;}.cls-75{stroke:#ede1b6;stroke-linecap:round;stroke-linejoin:round;stroke-width:0.07px;}.cls-76{fill:#eaab77;}.cls-77,.cls-93,.cls-94{fill:#040b1b;}.cls-78{fill:#a52224;}.cls-79,.cls-88{fill:#7e191e;}.cls-111,.cls-80{fill:#091430;}.cls-81{fill:#fcfdff;}.cls-82{fill:#d7aca1;}.cls-83{fill:#358748;}.cls-84,.cls-87{fill:#0e2e18;}.cls-85{fill:#205c30;}.cls-86{fill:#560e10;opacity:0.26;}.cls-87{opacity:0.4;}.cls-88{opacity:0.28;}.cls-89,.cls-90{fill:#4e0711;}.cls-90,.cls-98{opacity:0.39;}.cls-91,.cls-92{stroke:#192f60;stroke-miterlimit:10;stroke-width:0.17px;}.cls-92{stroke-dasharray:0.66 0.66;}.cls-111,.cls-93{opacity:0.57;}.cls-94{opacity:0.45;}.cls-95{fill:#f76575;}.cls-96{fill:#aa3542;}.cls-97{fill:#ffe761;}.cls-98{fill:#c6873c;}.cls-100,.cls-99{fill:#802831;}.cls-100{opacity:0.53;}.cls-101{fill:#3ba998;}.cls-102{fill:#297569;}.cls-103{fill:#c21a2c;}.cls-104{fill:#fede80;}.cls-105{fill:url(#Œ_ƒΩ_2);}.cls-106{fill:#1a2444;}.cls-107{fill:#040d21;opacity:0.8;}.cls-108{fill:#8e1325;}.cls-109{fill:#e9f6f8;}.cls-110{fill:#4bd3dd;}.cls-112{fill:#ed2441;}.cls-113{fill:#f6d880;}.cls-114{fill:#fbfdff;}.cls-115{fill:#9c2424;}.cls-116{fill:url(#Œ_ƒΩ_14);}.cls-117{fill:#d89c4f;}.cls-118{fill:#f4dc84;}.cls-119{fill:#441018;}.cls-120{fill:#6b1521;opacity:0.65;}.cls-121{fill:#f5f2e3;}.cls-122{filter:url(#luminosity-noclip-2);}.cls-123{filter:url(#luminosity-noclip);}</style><filter id="luminosity-noclip" x="2482.54" y="-9692" width="360.15" height="32766" filterUnits="userSpaceOnUse" color-interpolation-filters="sRGB"><feFlood flood-color="#fff" result="bg"/><feBlend in="SourceGraphic" in2="bg"/></filter><mask id="mask" x="2482.54" y="-9692" width="360.15" height="32766" maskUnits="userSpaceOnUse"><g class="cls-123"/></mask><linearGradient id="Œ_ƒΩ_11" x1="2482.54" y1="1544.87" x2="2842.69" y2="1544.87" gradientUnits="userSpaceOnUse"><stop offset="0" stop-color="#fff"/><stop offset="1"/></linearGradient><linearGradient id="Œ_ƒΩ_13" x1="2789.46" y1="1180.06" x2="2930.62" y2="1180.06" gradientUnits="userSpaceOnUse"><stop offset="0" stop-color="#000032"/><stop offset="1" stop-color="#002555"/></linearGradient><linearGradient id="Œ_ƒΩ_13-2" x1="3340.53" y1="1984.46" x2="3516.29" y2="1984.46" xlink:href="#Œ_ƒΩ_13"/><linearGradient id="Œ_ƒΩ_13-3" x1="2424.12" y1="941.58" x2="4529.47" y2="941.58" xlink:href="#Œ_ƒΩ_13"/><linearGradient id="Œ_ƒΩ_13-4" x1="2438.27" y1="441.98" x2="3576.11" y2="441.98" xlink:href="#Œ_ƒΩ_13"/><linearGradient id="Œ_ƒΩ_13-5" x1="2381.92" y1="852.63" x2="3632.46" y2="852.63" xlink:href="#Œ_ƒΩ_13"/><linearGradient id="Œ_ƒΩ_13-6" x1="3167.68" y1="361" x2="3167.68" y2="361" xlink:href="#Œ_ƒΩ_13"/><linearGradient id="Œ_ƒΩ_6" x1="3476.8" y1="961.78" x2="3632.46" y2="961.78" gradientUnits="userSpaceOnUse"><stop offset="0" stop-color="#ffb355"/><stop offset="1" stop-color="#ffb355"/></linearGradient><linearGradient id="Œ_ƒΩ_10" x1="3395.16" y1="935.69" x2="3609.75" y2="935.69" gradientUnits="userSpaceOnUse"><stop offset="0" stop-color="#ffb355"/><stop offset="1" stop-color="#ff7537"/></linearGradient><linearGradient id="Œ_ƒΩ_13-7" x1="2381.92" y1="1017.64" x2="3632.46" y2="1017.64" xlink:href="#Œ_ƒΩ_13"/><linearGradient id="Œ_ƒΩ_36" x1="2766.79" y1="1017.64" x2="2924.2" y2="1017.64" gradientUnits="userSpaceOnUse"><stop offset="0" stop-color="#fff"/><stop offset="1" stop-color="#fff"/></linearGradient><linearGradient id="Œ_ƒΩ_13-8" x1="2381.92" y1="1031.83" x2="3632.46" y2="1031.83" xlink:href="#Œ_ƒΩ_13"/><linearGradient id="Œ_ƒΩ_36-2" x1="2951.34" y1="1031.83" x2="3079.8" y2="1031.83" xlink:href="#Œ_ƒΩ_36"/><linearGradient id="Œ_ƒΩ_13-9" x1="3502.46" y1="1213.47" x2="4469.56" y2="1213.47" xlink:href="#Œ_ƒΩ_13"/><linearGradient id="Œ_ƒΩ_37" x1="1953.2" y1="2216.21" x2="3519.63" y2="2216.21" gradientUnits="userSpaceOnUse"><stop offset="0" stop-color="#0084a6"/><stop offset="1" stop-color="#02588d"/></linearGradient><linearGradient id="Œ_ƒΩ_29" x1="4.55" y1="2105.87" x2="1953.2" y2="2105.87" gradientUnits="userSpaceOnUse"><stop offset="0" stop-color="#02588d"/><stop offset="1" stop-color="#02588d"/></linearGradient><linearGradient id="Œ_ƒΩ_57" x1="1659.01" y1="2402.74" x2="1812.64" y2="1834.63" gradientUnits="userSpaceOnUse"><stop offset="0.24" stop-color="#fff"/><stop offset="0.63" stop-color="#7a7a7a"/><stop offset="0.98" stop-color="#9b9b9b"/></linearGradient><linearGradient id="Œ_ƒΩ_17" x1="1651.26" y1="2444.75" x2="1742.69" y2="2088.76" gradientUnits="userSpaceOnUse"><stop offset="0.58" stop-color="#fff"/><stop offset="0.58" stop-color="#fdfdfd"/><stop offset="0.61" stop-color="#cecece"/><stop offset="0.64" stop-color="#a4a4a4"/><stop offset="0.67" stop-color="#7f7f7f"/><stop offset="0.71" stop-color="#5f5f5f"/><stop offset="0.75" stop-color="#464646"/><stop offset="0.79" stop-color="#323232"/><stop offset="0.83" stop-color="#242424"/><stop offset="0.89" stop-color="#1c1c1c"/><stop offset="1" stop-color="#1a1a1a"/></linearGradient><linearGradient id="linear-gradient" x1="501.62" y1="1319.23" x2="1928.29" y2="1319.23" gradientUnits="userSpaceOnUse"><stop offset="0" stop-color="#ef5a28"/><stop offset="1" stop-color="#f09126"/></linearGradient><linearGradient id="linear-gradient-2" x1="1290.4" y1="1249.09" x2="1170.75" y2="1053.11" gradientUnits="userSpaceOnUse"><stop offset="0" stop-color="#f09126"/><stop offset="1" stop-color="#ef5a28"/></linearGradient><linearGradient id="Œ_ƒΩ_29-2" x1="4.55" y1="1657.84" x2="434.64" y2="1657.84" xlink:href="#Œ_ƒΩ_29"/><filter id="luminosity-noclip-2" x="2482.54" y="1401.23" width="360.15" height="287.29" filterUnits="userSpaceOnUse" color-interpolation-filters="sRGB"><feFlood flood-color="#fff" result="bg"/><feBlend in="SourceGraphic" in2="bg"/></filter><mask id="mask-2" x="2017.76" y="1191.39" width="360.15" height="287.29" maskUnits="userSpaceOnUse"><g class="cls-122"><g transform="translate(-464.78 -209.84)"><g id="_Grupo_2" data-name="&lt;Grupo&gt;"><g class="cls-1"><path id="_Caminho_" data-name="&lt;Caminho&gt;" class="cls-2" d="M2731.18,1401.23,2482.54,1554.4,2796,1688.52C2876.07,1599.35,2852.29,1482.83,2731.18,1401.23Z"/></g></g></g></g></mask><linearGradient id="Œ_ƒΩ_59" x1="2482.54" y1="1544.87" x2="2842.69" y2="1544.87" gradientUnits="userSpaceOnUse"><stop offset="0" stop-color="#fff"/><stop offset="1" stop-color="#fff"/></linearGradient><linearGradient id="Œ_ƒΩ_44" x1="2463.12" y1="1627.55" x2="2832.87" y2="1627.55" gradientUnits="userSpaceOnUse"><stop offset="0" stop-color="#fff"/><stop offset="1" stop-color="#e84378"/></linearGradient><clipPath id="clip-path" transform="translate(-464.78 -209.84)"><path id="_Caminho_de_recorte_" data-name="&lt;Caminho de recorte&gt;" class="cls-3" d="M2053.64,1709.7l7.08-117.88c-.07,1-.12,2.07-.16,3.11l-7.07,117.88C2053.53,1711.77,2053.58,1710.74,2053.64,1709.7Z"/></clipPath><clipPath id="clip-path-2" transform="translate(-464.78 -209.84)"><path id="_Caminho_de_recorte_2" data-name="&lt;Caminho de recorte&gt;" class="cls-3" d="M2127.8,1789.32l-4.24,70.72c-48.3-44.91-71.86-96.63-69.87-147.28l4.25-70.72C2056,1692.68,2079.5,1744.4,2127.8,1789.32Z"/></clipPath><linearGradient id="Œ_ƒΩ_2" x1="21641.92" y1="-372.2" x2="21663.07" y2="-381.55" gradientTransform="matrix(0.98, 0.2, -0.2, 0.98, -19438.33, -1991.1)" gradientUnits="userSpaceOnUse"><stop offset="0" stop-color="#fede80"/><stop offset="1" stop-color="#ed9e48"/></linearGradient><linearGradient id="Œ_ƒΩ_14" x1="2181.73" y1="2407.49" x2="2231.24" y2="2047.14" gradientUnits="userSpaceOnUse"><stop offset="0" stop-color="#7db3cc"/><stop offset="0.95" stop-color="#fff"/></linearGradient></defs><title>shutterstock_711685930 [Convertido]</title><g class="cls-4"><g id="Õ__1" data-name="Õº≤„_1"><ellipse id="_Caminho_2" data-name="&lt;Caminho&gt;" class="cls-5" cx="2860.04" cy="1180.06" rx="70.58" ry="28.84"/><ellipse id="_Caminho_3" data-name="&lt;Caminho&gt;" class="cls-6" cx="3428.41" cy="1984.46" rx="87.88" ry="35.92"/><path id="_Caminho_composto_" data-name="&lt;Caminho composto&gt;" class="cls-7" d="M4511.07,1456.45,3674,970c-2.23-17.93-9.77-30.89-20.87-37.88,14.38-30.82,21.57-62.53,21.57-94.23V635.29c0,66.4-31.54,132.81-94.61,191.08,63.07-58.27,94.61-124.68,94.61-191.08h0c0-92.39-61-184.78-183.14-255.27-244.18-141-640.08-141-884.27,0-122.09,70.49-183.13,162.88-183.13,255.27V837.87c0,92.39,61.05,184.77,183.14,255.27,244.18,141,640.08,141,884.26,0l.82-.48,49.39,28.41-.14-.09c12.66,7.43,29.71,7.33,48.66-1.72l835.52,485.55c-.29-.17-.57-.37-.85-.55,11.1,7,26.73,6.3,44-3.68,33.52-19.36,60.65-66.35,60.54-104.87C4529.42,1476.21,4522.37,1462.62,4511.07,1456.45ZM2480.48,636.3c0-.34,0-.68,0-1h0c0,.33,0,.66,0,1Zm0,2.62c0,.64,0,1.27.05,1.91h0C2480.55,640.2,2480.53,639.56,2480.52,638.92Zm.07,2.37h0a157.07,157.07,0,0,0,2.57,22.81A157,157,0,0,1,2480.59,641.29Zm58.38,126c2.09,2.25,4.21,4.48,6.4,6.7C2543.18,771.72,2541.06,769.49,2539,767.24ZM3618.22,640.15c0-.5,0-1,.05-1.5,0,.5,0,1-.05,1.51Zm-65,134c40.72-41.22,63.17-86.5,65-132.72h0C3616.35,687.69,3593.9,733,3553.17,774.19Z" transform="translate(-464.78 -209.84)"/><g id="_Grupo_3" data-name="&lt;Grupo&gt;"><path id="_Caminho_4" data-name="&lt;Caminho&gt;" class="cls-8" d="M2593.23,458.26c109.66-63.31,256.69-98.18,414-98.18s304.29,34.87,414,98.18c79,45.63,129.82,101,147.68,159.53a160,160,0,0,0,7.27-47c0-75.45-55-148.77-155-206.47-109.67-63.31-256.69-98.18-414-98.18s-304.31,34.87-414,98.18c-99.93,57.7-155,131-155,206.47a160.62,160.62,0,0,0,7.27,47C2463.4,559.3,2514.21,503.89,2593.23,458.26Z" transform="translate(-464.78 -209.84)"/><path id="_Caminho_5" data-name="&lt;Caminho&gt;" class="cls-9" d="M3449.33,826.1c-244.19,141-640.08,141-884.27,0C2443,755.61,2381.92,663.22,2381.92,570.83h0V773.42c0,92.39,61,184.77,183.14,255.26,244.19,141,640.08,141,884.27,0,122.09-70.48,183.13-162.87,183.13-255.26V570.84C3632.46,663.22,3571.42,755.61,3449.33,826.1Z" transform="translate(-464.78 -209.84)"/><polygon id="_Caminho_6" data-name="&lt;Caminho&gt;" class="cls-10" points="3167.68 361 3167.68 361 3167.68 361 3167.68 361"/><path id="_Caminho_composto_2" data-name="&lt;Caminho composto&gt;" class="cls-11" d="M3449.32,315.57c-244.18-141-640.08-141-884.27,0C2443,386.06,2381.92,478.45,2381.92,570.84s61,184.77,183.14,255.26c244.18,141,640.08,141,884.26,0,122.1-70.49,183.14-162.88,183.14-255.26h0C3632.46,478.45,3571.41,386.06,3449.32,315.57Zm126.79,255.27c0,75.45-55,148.78-155,206.47-109.66,63.32-256.67,98.18-414,98.18s-304.3-34.86-414-98.18c-99.92-57.69-155-131-154.95-206.47h0c0-75.45,55-148.77,154.95-206.46,109.67-63.32,256.69-98.19,414-98.19s304.3,34.87,414,98.19c99.93,57.69,155,131,155,206.46Z" transform="translate(-464.78 -209.84)"/><g id="_Grupo_4" data-name="&lt;Grupo&gt;"><g id="_Grupo_5" data-name="&lt;Grupo&gt;"><path id="_Caminho_7" data-name="&lt;Caminho&gt;" class="cls-12" d="M3554.34,872.36c43-24.81,78-4.86,78.12,44.44s-34.63,109.62-77.61,134.43-77.91,4.83-78-44.55S3511.43,897.14,3554.34,872.36Z" transform="translate(-464.78 -209.84)"/></g><path id="_Caminho_8" data-name="&lt;Caminho&gt;" class="cls-13" d="M3478.09,989.76c.29-2,.66-4.11,1.06-6.17.27-1.42.51-2.84.83-4.27s.65-2.66,1-4c.47-1.85.94-3.7,1.48-5.54.31-1.08.65-2.16,1-3.23.66-2.07,1.35-4.14,2.09-6.21.3-.86.6-1.72.92-2.58,1.08-2.86,2.21-5.71,3.45-8.53.15-.35.31-.69.47-1,1.11-2.52,2.3-5,3.53-7.5.39-.77.78-1.55,1.18-2.32,1.21-2.36,2.48-4.7,3.79-7,.26-.45.5-.91.76-1.36q2.35-4,4.9-8c.49-.76,1-1.5,1.51-2.25q1.88-2.82,3.86-5.57c.71-1,1.44-2,2.16-2.93,1.15-1.52,2.33-3,3.52-4.49,1-1.24,2-2.48,3-3.69s2-2.25,3-3.37q2.55-2.84,5.19-5.52c1.09-1.11,2.18-2.22,3.29-3.29.87-.83,1.74-1.64,2.62-2.44q2.17-2,4.39-3.84c.89-.75,1.77-1.49,2.66-2.21,1.61-1.28,3.24-2.49,4.89-3.67.78-.57,1.55-1.17,2.35-1.71,2.44-1.68,4.9-3.26,7.4-4.71a95.43,95.43,0,0,1,9.78-4.86c1-.44,2-.83,3-1.22,1.85-.71,3.68-1.35,5.49-1.89,1.17-.35,2.33-.7,3.48-1s2.13-.49,3.18-.68c1.39-.26,2.76-.48,4.12-.64.79-.08,1.58-.18,2.35-.23a49.88,49.88,0,0,1,5-.1c.37,0,.75,0,1.11,0a43,43,0,0,1,5.76.73c.47.09.92.21,1.38.32a38.22,38.22,0,0,1,4.28,1.23c.44.16.89.3,1.32.47a37.21,37.21,0,0,1,5.1,2.42l-81.63-47-.43-.24a37.26,37.26,0,0,0-3.91-1.92c-.25-.1-.51-.17-.77-.27-.43-.17-.88-.31-1.32-.46-.67-.24-1.33-.52-2-.72s-1.5-.35-2.25-.52c-.46-.1-.91-.23-1.37-.32-.26,0-.5-.12-.76-.17a42.11,42.11,0,0,0-4.71-.55h-.29c-.37,0-.75,0-1.11,0-1.24,0-2.48-.09-3.75,0-.42,0-.85.1-1.27.13-.78.05-1.56.14-2.35.23s-1.45.11-2.19.22-1.3.29-1.94.41c-1.05.2-2.1.42-3.18.68-.58.14-1.14.21-1.73.37s-1.17.43-1.75.61c-1.8.53-3.62,1.17-5.47,1.88-.65.25-1.28.4-1.95.67-.36.16-.75.4-1.11.56a92.34,92.34,0,0,0-9.77,4.86c-2.51,1.44-5,3-7.41,4.71-.79.54-1.56,1.13-2.34,1.7-1.64,1.19-3.28,2.4-4.89,3.68-.9.72-1.78,1.46-2.66,2.2-1.48,1.25-2.95,2.52-4.4,3.85-.88.8-1.75,1.61-2.61,2.44-.54.51-1.09,1-1.63,1.51s-1.1,1.2-1.67,1.78q-2.64,2.69-5.18,5.53c-.54.6-1.12,1.13-1.64,1.74s-.88,1.08-1.32,1.61c-1,1.22-2,2.46-3.05,3.71-.64.8-1.32,1.56-1.95,2.38s-1,1.4-1.55,2.09q-1.1,1.45-2.16,2.94c-.49.67-1,1.32-1.48,2-.82,1.16-1.59,2.37-2.39,3.56-.5.75-1,1.49-1.51,2.25l-.61.92c-1.39,2.17-2.74,4.37-4,6.6-.09.14-.16.29-.25.43-.27.47-.52,1-.78,1.42-.89,1.56-1.79,3.13-2.63,4.72-.4.74-.76,1.49-1.14,2.23s-.79,1.56-1.18,2.34-.71,1.37-1.05,2.06c-.86,1.8-1.68,3.62-2.49,5.44-.15.35-.32.69-.47,1,0,.1-.09.19-.13.29q-1.52,3.48-2.86,7c-.16.42-.29.84-.45,1.26-.32.86-.62,1.72-.93,2.58-.42,1.17-.87,2.34-1.26,3.51-.3.9-.54,1.8-.82,2.7-.34,1.07-.67,2.14-1,3.22-.2.67-.43,1.34-.62,2-.33,1.18-.57,2.36-.86,3.54-.34,1.33-.68,2.65-1,4-.11.46-.25.94-.35,1.41-.2,1-.3,1.9-.49,2.86-.39,2.06-.76,4.12-1.06,6.16-.08.58-.22,1.17-.29,1.74s0,1.05-.11,1.59a116.81,116.81,0,0,0-.89,13.59c.07,24.54,8.75,41.82,22.74,49.94l81.63,46.95c-14-8.12-22.66-25.39-22.73-49.94a112.71,112.71,0,0,1,.89-13.59C3477.81,992,3477.93,990.87,3478.09,989.76Z" transform="translate(-464.78 -209.84)"/></g><path id="_Caminho_9" data-name="&lt;Caminho&gt;" class="cls-14" d="M3421.15,364.37c-109.66-63.32-256.69-98.19-414-98.19s-304.3,34.87-414,98.19c-99.92,57.69-154.95,131-154.95,206.46s55,148.79,154.95,206.48c109.67,63.32,256.7,98.18,414,98.18s304.3-34.86,414-98.18c99.93-57.69,155-131,155-206.48S3521.08,422.06,3421.15,364.37Z" transform="translate(-464.78 -209.84)"/><path id="_Caminho_10" data-name="&lt;Caminho&gt;" class="cls-15" d="M2766.79,904.12V1106.7a1006.25,1006.25,0,0,0,157.41,24.47V928.59A1007.43,1007.43,0,0,1,2766.79,904.12Z" transform="translate(-464.78 -209.84)"/><path id="_Caminho_11" data-name="&lt;Caminho&gt;" class="cls-16" d="M2766.79,904.12V1106.7a1006.25,1006.25,0,0,0,157.41,24.47V928.59A1007.43,1007.43,0,0,1,2766.79,904.12Z" transform="translate(-464.78 -209.84)"/><path id="_Caminho_12" data-name="&lt;Caminho&gt;" class="cls-17" d="M2951.34,930.35v202.59a1088,1088,0,0,0,128.46-1V929.3A1085.84,1085.84,0,0,1,2951.34,930.35Z" transform="translate(-464.78 -209.84)"/><path id="_Caminho_13" data-name="&lt;Caminho&gt;" class="cls-18" d="M2951.34,930.35v202.59a1088,1088,0,0,0,128.46-1V929.3A1085.84,1085.84,0,0,1,2951.34,930.35Z" transform="translate(-464.78 -209.84)"/><g id="_Grupo_6" data-name="&lt;Grupo&gt;"><g id="_Grupo_7" data-name="&lt;Grupo&gt;"><path id="_Caminho_14" data-name="&lt;Caminho&gt;" class="cls-11" d="M4426.33,1396.59c33.53-19.36,60.84-3.8,60.95,34.67s-27,85.51-60.55,104.87-60.78,3.76-60.89-34.76S4392.86,1415.91,4426.33,1396.59Z" transform="translate(-464.78 -209.84)"/></g><path id="_Caminho_15" data-name="&lt;Caminho&gt;" class="cls-19" d="M4366.85,1488.2c.23-1.59.52-3.2.82-4.81.22-1.11.41-2.22.66-3.33s.5-2.07.76-3.11c.36-1.44.73-2.88,1.15-4.32.25-.84.51-1.68.77-2.52.51-1.61,1.05-3.23,1.63-4.84q.34-1,.72-2c.84-2.23,1.72-4.46,2.68-6.66l.37-.81c.87-2,1.8-3.91,2.76-5.85l.92-1.81c.95-1.84,1.93-3.66,3-5.47.2-.35.38-.71.59-1.06,1.22-2.11,2.5-4.18,3.82-6.22.38-.59.79-1.17,1.18-1.75q1.47-2.2,3-4.35c.55-.77,1.12-1.53,1.69-2.28.89-1.19,1.81-2.35,2.74-3.51.78-1,1.56-1.93,2.36-2.87s1.54-1.76,2.32-2.63c1.32-1.48,2.67-2.91,4-4.31.85-.86,1.7-1.73,2.57-2.57.67-.64,1.36-1.27,2-1.9q1.69-1.55,3.43-3c.69-.58,1.38-1.16,2.08-1.72,1.25-1,2.52-1.94,3.8-2.87.61-.44,1.22-.9,1.84-1.33,1.9-1.3,3.82-2.54,5.77-3.67a74,74,0,0,1,7.63-3.79c.8-.35,1.59-.65,2.38-1,1.44-.55,2.87-1,4.28-1.47.91-.27,1.82-.54,2.71-.76s1.66-.37,2.48-.53c1.09-.2,2.16-.37,3.22-.49.61-.07,1.23-.14,1.83-.18a36.9,36.9,0,0,1,3.92-.08c.28,0,.58,0,.86,0a32.74,32.74,0,0,1,4.5.56c.36.07.71.17,1.07.25a30.54,30.54,0,0,1,3.34,1l1,.37a27.92,27.92,0,0,1,4,1.89L3606.18,890.66l-.33-.19a29.62,29.62,0,0,0-3-1.49l-.6-.21c-.34-.14-.69-.25-1-.37-.53-.18-1-.4-1.59-.56s-1.16-.27-1.75-.4c-.36-.08-.71-.18-1.07-.25l-.59-.14a33.66,33.66,0,0,0-3.68-.42h-1.1c-1,0-1.93-.07-2.92,0-.32,0-.66.08-1,.1-.61,0-1.22.12-1.83.19s-1.13.08-1.71.17-1,.23-1.51.32c-.82.15-1.64.33-2.48.53-.46.11-.89.16-1.36.29s-.91.33-1.36.47q-2.1.63-4.26,1.47c-.52.2-1,.31-1.52.52-.29.12-.59.31-.87.44a73,73,0,0,0-7.63,3.79c-1.95,1.13-3.87,2.37-5.78,3.67-.61.43-1.21.89-1.82,1.33-1.28.92-2.56,1.87-3.82,2.87-.7.56-1.38,1.14-2.07,1.72q-1.74,1.46-3.43,3c-.69.62-1.37,1.25-2,1.9-.42.4-.85.77-1.27,1.18s-.86.94-1.3,1.39c-1.38,1.4-2.72,2.83-4.05,4.31-.42.47-.87.89-1.28,1.37s-.68.84-1,1.25c-.8,1-1.59,1.92-2.37,2.89-.51.63-1,1.22-1.53,1.86s-.8,1.09-1.2,1.63c-.57.76-1.14,1.52-1.69,2.29-.38.53-.78,1-1.16,1.57-.64.91-1.24,1.85-1.86,2.78-.39.58-.79,1.16-1.17,1.75l-.49.72c-1.08,1.7-2.13,3.41-3.14,5.15-.07.11-.12.23-.19.34-.21.36-.4.74-.61,1.1-.7,1.22-1.4,2.44-2.05,3.68-.31.58-.59,1.17-.89,1.75l-.93,1.82c-.26.54-.55,1.07-.81,1.61-.67,1.4-1.31,2.82-1.94,4.25-.12.26-.25.53-.37.8l-.1.22q-1.18,2.71-2.23,5.46c-.13.32-.23.65-.35,1-.25.68-.49,1.35-.73,2-.32.92-.67,1.83-1,2.74-.23.7-.42,1.4-.64,2.1s-.52,1.68-.77,2.52c-.15.52-.33,1-.48,1.57-.25.92-.44,1.84-.67,2.76s-.53,2.06-.77,3.1c-.08.36-.19.73-.26,1.1-.16.75-.25,1.48-.39,2.23-.31,1.61-.6,3.21-.82,4.81-.07.45-.18.91-.24,1.36s0,.82-.08,1.23a89.51,89.51,0,0,0-.69,10.61c.05,19.15,6.82,32.62,17.73,39l863.38,501.74c-10.9-6.34-17.68-19.81-17.73-39a91.37,91.37,0,0,1,.69-10.6C4366.63,1489.93,4366.72,1489.07,4366.85,1488.2Z" transform="translate(-464.78 -209.84)"/></g></g><polygon id="_Caminho_16" data-name="&lt;Caminho&gt;" class="cls-20" points="3519.63 1816.88 1953.2 2721.24 4.55 1596.17 1570.94 691.81 3519.63 1816.88"/><polygon id="_Caminho_17" data-name="&lt;Caminho&gt;" class="cls-21" points="3519.63 1711.18 1953.2 2615.54 4.55 1490.49 1570.94 586.11 3519.63 1711.18"/><polygon id="_Caminho_18" data-name="&lt;Caminho&gt;" class="cls-22" points="201.72 1490.48 1570.94 699.96 3322.42 1711.2 1953.2 2501.7 201.72 1490.48"/><polygon id="_Caminho_19" data-name="&lt;Caminho&gt;" class="cls-23" points="3519.63 1816.88 3519.63 1711.18 1953.2 2615.54 1953.2 2721.24 3519.63 1816.88"/><polygon id="_Caminho_20" data-name="&lt;Caminho&gt;" class="cls-24" points="4.55 1490.49 4.55 1596.17 1953.2 2721.24 1953.2 2615.54 4.55 1490.49"/><polygon id="_Caminho_21" data-name="&lt;Caminho&gt;" class="cls-25" points="1160.64 2044.11 1953.2 2501.7 2278.37 2313.97 1160.64 2044.11"/><polygon id="_Caminho_22" data-name="&lt;Caminho&gt;" class="cls-26" points="1160.64 2044.11 1953.2 2501.7 2278.37 2313.97 1160.64 2044.11"/><path id="_Caminho_23" data-name="&lt;Caminho&gt;" class="cls-27" d="M1928.16,1132.85c-.26-.06-.49-.16-.71-.22l-.78-.23h0l-.77-.16c-.26-.06-.51-.09-.81-.15l-.83-.07c-.29,0-.62,0-.88,0h-.19c-1.67,0-3.35,0-5-.11-.74,0-1.45,0-2.19-.08-2.16-.14-4.32-.37-6.57-.67-.33-.07-.71-.14-1.1-.2-1.81-.27-3.67-.6-5.54-1-.65-.13-1.29-.29-2-.43-1.68-.39-3.35-.83-5.06-1.29-.55-.16-1.13-.33-1.74-.49-2.2-.66-4.42-1.38-6.68-2.17l-1.22-.49c-1.93-.7-3.87-1.48-5.84-2.32-.58-.24-1.16-.48-1.7-.74q-3.49-1.5-7-3.24l-1-.51c-2.45-1.25-4.84-2.53-7.29-3.92-4.58-2.61-9.06-5.47-13.47-8.52l-.06,0c-4.29-3-8.52-6.14-12.61-9.46-.39-.31-.74-.61-1.13-.94q-5.74-4.68-11.34-9.84c-.46-.42-.91-.86-1.33-1.27-3.64-3.44-7.25-7-10.73-10.72-.39-.41-.81-.82-1.19-1.24-3.61-3.87-7.12-7.87-10.61-12l-.58-.72c-3.54-4.26-7-8.66-10.31-13.14a8,8,0,0,0-.52-.71c-3-4.11-5.93-8.36-8.77-12.65q-5.42-8.17-10.37-16.66a2.41,2.41,0,0,1-.23-.36q-4.2-7.25-8-14.7c-.32-.61-.65-1.24-.94-1.85q-3.81-7.57-7.18-15.26v0q-3.39-7.82-6.36-15.7c-.16-.42-.29-.84-.44-1.28-2-5.27-3.74-10.59-5.36-15.9a.22.22,0,0,1,0-.08c-1.58-5.31-3-10.59-4.25-15.88a11.07,11.07,0,0,0-.33-1.38c-1.12-5-2.13-10.09-3-15.11-.06-.35-.13-.69-.16-1-.81-5.19-1.45-10.37-1.9-15.51a8.59,8.59,0,0,1-.07-1c-.45-5.2-.71-10.36-.71-15.43s.26-10.08.71-14.85c0-.32.07-.64.1-1a125.91,125.91,0,0,1,1.84-12.68c.06-.52.19-1,.29-1.53.8-3.9,1.74-7.62,2.83-11.19.23-.62.42-1.25.61-1.86,1.07-3.2,2.26-6.23,3.55-9.13.26-.53.45-1.09.68-1.62a85.27,85.27,0,0,1,5.31-9.69l.39-.57a80.92,80.92,0,0,1,5.55-7.39c.64-.76,1.29-1.45,2-2.18a60.8,60.8,0,0,1,5-4.91c.71-.62,1.39-1.26,2.13-1.84a64.64,64.64,0,0,1,7.67-5.39L540.27,1505.47a65,65,0,0,0-7.67,5.39c-.74.58-1.42,1.22-2.13,1.84a64.17,64.17,0,0,0-5,4.91c-.71.73-1.36,1.44-2,2.18a77.15,77.15,0,0,0-5.55,7.4,5.55,5.55,0,0,0-.38.56l-.1.1a83.47,83.47,0,0,0-4.93,9,5.62,5.62,0,0,0-.29.62c-.23.54-.45,1.1-.68,1.63-.77,1.77-1.58,3.52-2.29,5.39-.45,1.2-.8,2.48-1.25,3.74-.2.62-.39,1.24-.62,1.86l-.48,1.47c-.65,2.16-1.22,4.39-1.74,6.66-.23,1-.42,2-.65,3.06-.06.51-.19,1-.25,1.52s-.29,1.25-.39,1.9q-.58,3.12-1,6.38c-.19,1.45-.32,2.93-.52,4.42,0,.32-.06.64-.06,1a7.85,7.85,0,0,1-.13.94q-.24,3.09-.38,6.32c-.1,2.09-.16,4.22-.2,6.36v1.23c0,1.61.07,3.24.07,4.85.06,2.09.19,4.22.32,6.33.06,1.42.19,2.85.32,4.27,0,.32,0,.66.06,1s.07.81.07,1.23c.2,2.15.45,4.35.71,6.52s.58,4.43.93,6.66c.07.37.13.74.2,1.13a9.41,9.41,0,0,0,.16,1c.26,1.55.52,3.07.77,4.62.46,2.31.9,4.6,1.39,6.9.26,1.19.55,2.4.81,3.6.12.46.22.91.32,1.38.19.66.32,1.34.45,2,.58,2.35,1.22,4.69,1.84,7s1.28,4.56,2,6.84c0,0,0,.06,0,.09a.07.07,0,0,1,0,.08c.7,2.29,1.41,4.58,2.19,6.87s1.48,4.49,2.29,6.73c.29.75.55,1.49.8,2.21.2.44.32.86.49,1.28.38,1,.74,2,1.12,3,.84,2.12,1.68,4.25,2.55,6.36s1.74,4.19,2.64,6.27c0,0,0,0,0,0v.06c.93,2.13,1.86,4.24,2.87,6.35s2.09,4.48,3.19,6.72c.38.73.77,1.46,1.12,2.18s.62,1.24.94,1.85c.64,1.29,1.29,2.58,2,3.87,1.9,3.64,3.9,7.25,6,10.83,0,0,0,.07,0,.08s.13.21.19.31c3.29,5.67,6.78,11.2,10.39,16.63.32.47.58,1,.9,1.45,2.45,3.68,5,7.29,7.61,10.83.06.13.19.26.25.39s.36.45.52.67c1.55,2.1,3.09,4.18,4.7,6.23s3.36,4.23,5.1,6.31a4.64,4.64,0,0,0,.51.62l.58.72c1.29,1.53,2.58,3.06,3.87,4.56,1.71,2,3.42,3.87,5.16,5.74.52.58,1.06,1.13,1.61,1.69.35.41.74.82,1.13,1.21.87.94,1.74,1.87,2.61,2.77,1.87,1.91,3.71,3.76,5.61,5.58.84.81,1.68,1.59,2.54,2.38.46.42.87.86,1.33,1.26l1.9,1.79c2,1.76,3.9,3.48,5.9,5.18,1.16,1,2.35,1.93,3.54,2.9.39.32.74.62,1.13.93s.81.66,1.19,1c1.94,1.53,3.87,3,5.81,4.46s3.67,2.69,5.54,4a.24.24,0,0,1,.13.08s0,0,0,0c1.87,1.28,3.74,2.52,5.64,3.74s3.68,2.32,5.55,3.43l2.25,1.31,3.29,1.83c1.32.73,2.64,1.41,4,2.08.32.18.64.36,1,.52l.39.19c1.77.89,3.55,1.73,5.29,2.52l1.29.53c.54.26,1.13.5,1.71.74.74.32,1.51.68,2.28,1,1.16.48,2.39.94,3.55,1.37l1.23.45c.13.07.32.13.44.18,1.81.64,3.55,1.22,5.33,1.75.29.1.61.17.9.26l1.74.49c.93.25,1.83.53,2.74.75s1.54.36,2.32.54l2,.43c.38.1.77.2,1.16.27,1.48.29,3,.52,4.38.75.39,0,.74.13,1.1.17.09,0,.16,0,.26,0,2,.3,4,.49,5.93.63a2.42,2.42,0,0,0,.38,0c.75,0,1.48,0,2.19.08,1.23,0,2.45.13,3.68.13.45,0,.9,0,1.35,0a14.49,14.49,0,0,1,3.48.42h0c.49.13,1,.4,1.52.58l1229.88-705.43Z" transform="translate(-464.78 -209.84)"/><path id="_Caminho_24" data-name="&lt;Caminho&gt;" class="cls-28" d="M700.47,1839.13a23.08,23.08,0,0,1,3.48,2.09l.1.07a33.78,33.78,0,0,1,3.35,2.78s.07,0,.07.08a36.73,36.73,0,0,1,3.22,3.45h0c1,1.21,1.93,2.52,2.84,3.87a3.28,3.28,0,0,1,.25.44,46,46,0,0,1,2.39,4.17h0a41.44,41.44,0,0,1,2,4.8,32.14,32.14,0,0,1,2.06,10.87,18.84,18.84,0,0,1-.39,3.93v.1a13.3,13.3,0,0,1-1,3.25.27.27,0,0,1,0,.15,14.07,14.07,0,0,1-1.13,1.8,10.06,10.06,0,0,1-2.9,2.81L1944.53,1178.4a9.49,9.49,0,0,0,2.9-2.79c.1-.14.26-.21.32-.35a8.46,8.46,0,0,0,.71-1.24,1.6,1.6,0,0,0,.1-.23.18.18,0,0,0,0-.13,3.49,3.49,0,0,0,.33-.74,6.24,6.24,0,0,0,.32-1,4.59,4.59,0,0,0,.25-1,3.2,3.2,0,0,0,.13-.58v-.1a.48.48,0,0,0,.07-.23c.06-.29.09-.58.13-.88a8.38,8.38,0,0,0,.09-.89c0-.27,0-.58.07-.87a8.43,8.43,0,0,0,0-.87v-.87a8.48,8.48,0,0,1-.06-.87c0-.29,0-.58-.07-.89s-.06-.59-.1-.9-.09-.59-.12-.92-.1-.62-.17-.93-.12-.65-.19-1a9.05,9.05,0,0,0-.23-1c-.09-.32-.15-.66-.22-1s-.19-.66-.32-1-.19-.64-.29-1-.2-.52-.29-.79a.41.41,0,0,0-.07-.18,9.17,9.17,0,0,0-.32-.92l-.39-.92c-.12-.3-.22-.61-.35-.9s-.29-.58-.42-.89-.32-.65-.45-1-.35-.69-.55-1c-.29-.54-.55-1.05-.87-1.57s-.64-1-1-1.56a3.48,3.48,0,0,0-.27-.44c-.06-.09-.12-.21-.19-.32-.38-.55-.77-1.1-1.16-1.61s-.51-.71-.77-1.07-.45-.57-.71-.86v0h0c-.26-.29-.48-.56-.71-.84s-.51-.56-.74-.82-.48-.53-.74-.81-.52-.51-.81-.77a2.11,2.11,0,0,0-.23-.19.12.12,0,0,0-.06-.1,6,6,0,0,1-.51-.49c-.26-.24-.58-.49-.84-.72a9.24,9.24,0,0,0-.84-.68,10,10,0,0,0-.8-.62,2,2,0,0,0-.36-.26.23.23,0,0,0-.1-.07,2,2,0,0,0-.35-.24c-.26-.18-.52-.36-.78-.51a7.47,7.47,0,0,0-.73-.47l-.75-.44-.77-.39-.1-.06h-.06a4,4,0,0,0-.55-.26,5.91,5.91,0,0,0-.74-.32,5.05,5.05,0,0,0-.61-.23L698.41,1838.35a18.06,18.06,0,0,1,2,.75Z" transform="translate(-464.78 -209.84)"/><path id="_Caminho_25" data-name="&lt;Caminho&gt;" class="cls-3" d="M693.41,1565.22c-18-21-38.29-38.63-59.89-51-36.49-20.92-69.37-22.72-93.25-8.74s-38.58,43.65-38.65,85.8c.07,26.22,5.74,54.07,15.73,81.3L697,1568.88A36.4,36.4,0,0,1,693.41,1565.22Z" transform="translate(-464.78 -209.84)"/><path id="_Caminho_26" data-name="&lt;Caminho&gt;" class="cls-29" d="M693.41,1837.35c-18,.31-38.29-5.28-59.89-17.66-26.62-15.28-51.28-38.57-72-66.11l-55.6-32.11c2.71,5.13,5.35,10.22,8.26,15.22,30.42,52.86,72.78,99,119.32,125.69,27.53,15.88,53.67,23.1,76.66,22.61,6.38-.12,10.05-5.47,10.05-13.24a32.14,32.14,0,0,0-2.06-10.87C713.53,1847.7,702.47,1837.18,693.41,1837.35Z" transform="translate(-464.78 -209.84)"/><path id="_Caminho_27" data-name="&lt;Caminho&gt;" class="cls-21" d="M568.54,1687.85,605.16,1709c-5.68-10.91-10.87-22.07-15.51-33.36Z" transform="translate(-464.78 -209.84)"/><path id="_Caminho_28" data-name="&lt;Caminho&gt;" class="cls-21" d="M718.17,1570.13c-4,6.84-13,6.06-21.21-1.25L517.35,1672.57a316.6,316.6,0,0,0,22.92,48.87,328,328,0,0,0,21.27,32.14l36,20.77L2124.4,847.17,2035.72,796,719.59,1555.82a31.25,31.25,0,0,1,.64,5.77A16.28,16.28,0,0,1,718.17,1570.13Z" transform="translate(-464.78 -209.84)"/><path id="_Caminho_29" data-name="&lt;Caminho&gt;" class="cls-21" d="M639.49,1709a316.11,316.11,0,0,1-22.92-48.87l-26.92,15.54c4.64,11.29,9.83,22.45,15.51,33.36l55.6,32.1A326,326,0,0,1,639.49,1709Z" transform="translate(-464.78 -209.84)"/><path id="_Caminho_30" data-name="&lt;Caminho&gt;" class="cls-30" d="M719.59,1555.82a43.52,43.52,0,0,0-9.41-19c-23-26.83-49.13-49.57-76.66-65.32-46.54-26.75-88.9-29.11-119.32-11.18-30.5,17.77-49.42,56-49.42,109.81,0,37.9,9.51,78.74,25.66,118l26.91-15.54c-10-27.23-15.66-55.08-15.73-81.3.07-42.15,14.8-71.79,38.65-85.8s56.76-12.18,93.25,8.74c21.6,12.38,41.84,30,59.89,51a36.4,36.4,0,0,0,3.55,3.66c8.25,7.31,17.18,8.09,21.21,1.25a16.28,16.28,0,0,0,2.06-8.54A31.25,31.25,0,0,0,719.59,1555.82Z" transform="translate(-464.78 -209.84)"/><path id="_Caminho_31" data-name="&lt;Caminho&gt;" class="cls-31" d="M1950,854.66c0-.29,0-.58-.07-.88s-.06-.6-.1-.91-.09-.61-.12-.93-.1-.63-.17-.94-.12-.58-.19-.87h0v-.07a8.68,8.68,0,0,0-.23-1c-.09-.33-.15-.65-.25-1a9.53,9.53,0,0,0-.29-1c-.1-.32-.19-.64-.29-1s-.23-.64-.36-1a4.87,4.87,0,0,0-.32-.9c-.06-.18-.13-.34-.19-.5v-.07a1.25,1.25,0,0,1-.16-.33c-.1-.29-.23-.58-.36-.87s-.26-.6-.39-.89-.25-.45-.35-.69-.1-.18-.13-.28c-.16-.35-.35-.72-.55-1.07-.29-.55-.58-1.09-.9-1.64-.06-.12-.19-.27-.26-.41s-.13-.2-.19-.31l-1-1.58c-.38-.53-.74-1.06-1.13-1.58-.25-.35-.51-.71-.8-1s-.49-.62-.71-.93-.35-.4-.52-.6c-.64-.75-1.32-1.53-2-2.29-2.12-2.46-4.31-4.91-6.5-7.31a.86.86,0,0,1-.17-.15c-.22-.26-.48-.5-.71-.75q-2.94-3.23-6-6.35c-.46-.49-.94-.94-1.42-1.42-.87-.91-1.77-1.79-2.65-2.68-1-1-2.06-2.06-3.09-3.06s-1.9-1.77-2.84-2.68-1.9-1.79-2.87-2.67c-.54-.52-1.12-1.06-1.7-1.58-1.68-1.55-3.42-3-5.1-4.51l-1.93-1.68c-.13-.15-.32-.27-.45-.42-2.48-2.11-5-4.14-7.48-6.14-.29-.22-.58-.42-.84-.64-.71-.55-1.42-1.08-2.13-1.65-1.48-1.13-2.93-2.27-4.41-3.37l-2.58-1.85c-.87-.61-1.71-1.24-2.58-1.85-.67-.47-1.35-1-2-1.45-2.19-1.5-4.38-3-6.58-4.37l-.38-.26-.13-.08c-2.29-1.47-4.61-2.92-7-4.29l-3.1-1.82c-1.42-.81-2.77-1.58-4.16-2.32-.93-.51-1.83-1-2.8-1.46s-1.87-1-2.8-1.47c-.49-.26-1-.54-1.49-.78-1.51-.77-3.06-1.46-4.57-2.17-.59-.28-1.2-.58-1.78-.84-.13-.06-.29-.15-.45-.21-2.25-1-4.51-2-6.74-2.88a4.5,4.5,0,0,0-.51-.2c-.65-.27-1.32-.5-2-.74-1.41-.56-2.83-1.13-4.25-1.63-.48-.17-1-.3-1.42-.46-.9-.31-1.84-.62-2.77-.91s-1.74-.61-2.65-.88c-.71-.23-1.48-.41-2.19-.62-1-.27-2-.54-3-.8-.55-.16-1.16-.35-1.71-.49-1-.25-2-.45-2.94-.67l-3-.66c-.39-.08-.78-.18-1.13-.24-1.13-.24-2.26-.39-3.38-.59l-3.1-.51c-.25,0-.51-.1-.77-.13-1.07-.14-2.13-.21-3.16-.32-1.26-.15-2.48-.31-3.71-.39l-.67-.08c-.87-.06-1.71,0-2.58-.1-1.49-.08-3-.14-4.52-.14-.32,0-.61-.05-.9-.05-.64,0-1.29.08-2,.1-1.78,0-3.52.09-5.26.24-.45,0-.9,0-1.35,0s-.87.14-1.32.19c-2.36.24-4.71.56-7,1-.45.09-.9.1-1.35.2l-.36.09a83.65,83.65,0,0,0-10.21,2.76c-.33.11-.71.16-1,.27s-.71.29-1,.42c-1.61.58-3.16,1.23-4.71,1.9-.7.33-1.48.62-2.19.94-2.22,1.05-4.38,2.18-6.51,3.42L514.2,1460.32c2.12-1.24,4.31-2.36,6.5-3.4.71-.34,1.49-.63,2.2-1,1.54-.67,3.09-1.32,4.7-1.88.65-.26,1.36-.47,2-.69a84.49,84.49,0,0,1,10.25-2.78c.55-.11,1.13-.19,1.71-.29,2.29-.41,4.64-.74,7-1,.87-.1,1.77-.18,2.67-.24,1.74-.13,3.48-.19,5.26-.24.93,0,1.9,0,2.87,0,1.48,0,3,.08,4.54.16,1.06,0,2.16.06,3.22.16s2.49.24,3.71.39,2.61.25,3.93.45c1,.14,2.07.35,3.1.51,1.48.26,3,.52,4.51.83,1,.21,2,.43,3,.67,1.55.36,3.1.73,4.65,1.13,1,.28,2,.55,3,.82q2.41.71,4.84,1.5c.93.31,1.87.58,2.77.92,1.87.65,3.8,1.36,5.7,2.08.65.26,1.3.48,1.94.74,2.54,1,5.13,2.11,7.7,3.29l1.81.85c2,.94,4,1.9,6,2.94,1,.46,1.9,1,2.84,1.48,2.32,1.21,4.64,2.43,7,3.77,3.42,2,6.8,4,10.19,6.19.13.1.29.19.45.29,2.84,1.85,5.71,3.8,8.51,5.8.9.6,1.74,1.23,2.61,1.84,2.36,1.69,4.68,3.43,7,5.22l2.12,1.65c3,2.33,5.87,4.73,8.77,7.21.65.54,1.29,1.1,1.87,1.65,2.32,2,4.61,4,6.86,6.13.94.87,1.91,1.77,2.84,2.66,2,1.88,4,3.81,6,5.75.9.88,1.77,1.75,2.64,2.64,2.51,2.58,5,5.17,7.48,7.85l.67.68q4.41,4.79,8.68,9.76a45,45,0,0,1,4.12,5.74l.19.32c.68,1.13,1.16,2.31,1.75,3.47.41.9,1,1.79,1.35,2.71v0a38.38,38.38,0,0,1,1.93,6.39h0a29.46,29.46,0,0,1,.71,6.09,20.46,20.46,0,0,1-.52,4.61v0a12.37,12.37,0,0,1-1.54,3.89,9,9,0,0,1-1.1,1.49c-.19.19-.32.43-.51.61a8.78,8.78,0,0,1-1.84,1.4L1944.53,868.26a9.46,9.46,0,0,0,1.81-1.4c.19-.18.32-.42.51-.61a8,8,0,0,0,.9-1.13c.07-.11.13-.23.2-.35a5.29,5.29,0,0,0,.51-1,6.37,6.37,0,0,0,.46-1.08c.12-.32.25-.64.35-1a6.43,6.43,0,0,0,.22-.89h0v0c.07-.29.13-.59.2-.9s.09-.58.13-.87a8.38,8.38,0,0,0,.09-.89c0-.27,0-.56.07-.85a8.43,8.43,0,0,0,0-.87v-.87A8.48,8.48,0,0,1,1950,854.66Z" transform="translate(-464.78 -209.84)"/><polygon id="_Caminho_32" data-name="&lt;Caminho&gt;" class="cls-32" points="4.55 1490.49 434.64 1738.81 401.21 1825.19 4.55 1596.17 4.55 1490.49"/><polygon id="_Caminho_33" data-name="&lt;Caminho&gt;" class="cls-22" points="1376.09 809.51 1543.77 935.04 1361.13 1132.13 417.62 1615.12 201.72 1490.48 1376.09 809.51"/><polygon id="_Caminho_34" data-name="&lt;Caminho&gt;" class="cls-21" points="201.72 1490.48 100.08 1548.19 342.9 1685.84 454.98 1636.71 201.72 1490.48"/><g id="_Grupo_8" data-name="&lt;Grupo&gt;"><g id="_Grupo_9" data-name="&lt;Grupo&gt;"><g id="_Grupo_10" data-name="&lt;Grupo&gt;" class="cls-4"><g id="_Grupo_11" data-name="&lt;Grupo&gt;"><polygon id="_Caminho_35" data-name="&lt;Caminho&gt;" class="cls-33" points="2269.6 1208.33 2260.76 1355.67 1987.63 1523.94 1996.47 1376.59 2269.6 1208.33"/></g><g id="_Grupo_12" data-name="&lt;Grupo&gt;"><polygon id="_Caminho_36" data-name="&lt;Caminho&gt;" class="cls-34" points="1996.47 1376.59 1987.63 1523.94 1778.3 1307.56 1787.14 1160.21 1996.47 1376.59"/></g><g id="_Grupo_13" data-name="&lt;Grupo&gt;"><path id="_Caminho_37" data-name="&lt;Caminho&gt;" class="cls-35" d="M2724.77,1412.43c3.27,1.89,6.46,3.8,9.61,5.73l-273.13,168.27-209.33-216.38C2397.32,1320.47,2589.85,1334.53,2724.77,1412.43Z" transform="translate(-464.78 -209.84)"/></g></g></g><path id="_Caminho_38" data-name="&lt;Caminho&gt;" class="cls-36" d="M2850.37,1767.13c.06-.52.13-1,.19-1.54.09-.85.17-1.71.25-2.56,0-.43.09-.86.13-1.29.11-1.29.21-2.57.28-3.86l10.62-176.82c-.08,1.29-.18,2.57-.29,3.86,0,.43-.08.86-.12,1.29-.08.85-.16,1.71-.26,2.56-.06.51-.13,1-.19,1.54-.09.77-.19,1.54-.29,2.31l-.24,1.63c-.11.75-.22,1.49-.35,2.23l-.24,1.43c-.14.77-.27,1.54-.42,2.31l-.3,1.5c-.15.75-.3,1.5-.46,2.25-.11.5-.22,1-.34,1.5-.17.76-.35,1.52-.53,2.28-.12.48-.23,1-.36,1.45-.2.8-.42,1.61-.63,2.42-.12.43-.23.85-.35,1.27-.29,1.06-.6,2.11-.92,3.17l-.15.51c-.37,1.23-.77,2.45-1.17,3.67-.12.37-.26.74-.38,1.1-.29.86-.58,1.71-.89,2.56-.17.48-.36,1-.54,1.46q-.4,1.11-.84,2.22c-.19.51-.4,1-.6,1.53-.29.72-.58,1.44-.88,2.15-.21.52-.43,1-.65,1.55-.3.72-.61,1.43-.93,2.14-.22.51-.45,1-.68,1.53-.33.72-.67,1.44-1,2.16-.23.49-.46,1-.7,1.48-.37.75-.74,1.5-1.12,2.25-.23.46-.45.91-.69,1.37-.43.85-.88,1.7-1.34,2.55-.18.35-.36.7-.56,1-.64,1.19-1.31,2.39-2,3.57-.27.49-.56,1-.85,1.45-.44.75-.87,1.51-1.33,2.26-.31.52-.64,1-1,1.55-.44.71-.87,1.42-1.32,2.13l-1,1.62-1.34,2c-.37.56-.76,1.11-1.13,1.66l-1.37,2c-.39.56-.8,1.12-1.2,1.67l-1.4,2c-.41.56-.84,1.11-1.26,1.67l-1.45,1.92c-.43.56-.88,1.12-1.32,1.68l-1.49,1.89c-.45.56-.92,1.12-1.38,1.68s-1,1.27-1.58,1.9c-.24.3-.5.59-.75.89-.67.79-1.36,1.58-2.05,2.37l-.92,1c-.71.8-1.43,1.59-2.15,2.38l-.76.84q-1.45,1.58-3,3.14l-.6.62c-.81.85-1.64,1.69-2.47,2.53-.33.34-.67.67-1,1l-2.27,2.24-1,.94c-1.08,1-2.16,2-3.26,3.07l-10.62,176.82c1.11-1,2.19-2,3.26-3.07l1-1c.77-.74,1.53-1.48,2.28-2.23l1-1c.84-.84,1.66-1.68,2.48-2.53l.6-.62c1-1,2-2.09,3-3.15l.75-.83c.73-.79,1.45-1.59,2.16-2.39l.92-1c.69-.79,1.37-1.58,2-2.38l.75-.88.29-.34c.44-.52.86-1,1.29-1.57s.93-1.11,1.38-1.67,1-1.26,1.49-1.9.89-1.11,1.32-1.67l1.45-1.92c.42-.56.84-1.11,1.25-1.67s.95-1.31,1.42-2,.8-1.1,1.19-1.66.91-1.32,1.36-2l1.13-1.65c.46-.68.9-1.36,1.34-2s.71-1.08,1-1.62c.45-.7.88-1.41,1.32-2.12l1-1.56c.46-.76.9-1.52,1.34-2.28.28-.48.57-1,.84-1.43l0,0c.67-1.17,1.32-2.34,2-3.52l.56-1.06c.46-.84.91-1.69,1.34-2.54.24-.46.46-.92.69-1.37q.57-1.12,1.11-2.25c.24-.5.48-1,.71-1.49.34-.71.68-1.43,1-2.15.24-.51.46-1,.69-1.54q.48-1.07.93-2.13c.22-.51.44-1,.65-1.55.3-.72.59-1.43.87-2.15.21-.51.41-1,.61-1.53.29-.74.56-1.48.84-2.23l.54-1.45c.05-.16.11-.31.17-.46.25-.7.48-1.4.72-2.1.12-.37.25-.73.37-1.1.41-1.22.8-2.44,1.18-3.67l.15-.51c.32-1.06.63-2.11.92-3.17.12-.42.23-.85.34-1.27.22-.81.44-1.62.64-2.43l.36-1.45c.18-.75.36-1.51.53-2.27q.18-.75.33-1.5c.17-.75.32-1.5.47-2.25l.3-1.5c.14-.77.28-1.54.41-2.3.09-.48.17-1,.25-1.44l.09-.51c.09-.57.17-1.15.25-1.72s.17-1.09.25-1.63C2850.18,1768.67,2850.27,1767.9,2850.37,1767.13Z" transform="translate(-464.78 -209.84)"/><g id="_Grupo_14" data-name="&lt;Grupo&gt;"><polygon id="_Caminho_39" data-name="&lt;Caminho&gt;" class="cls-37" points="2335.05 1491.19 2324.43 1668.01 1987.73 1523.96 1998.34 1347.14 2335.05 1491.19"/></g><g id="_Grupo_15" data-name="&lt;Grupo&gt;"><path id="_Caminho_40" data-name="&lt;Caminho&gt;" class="cls-38" d="M2736.26,1388.71c141.23,86.61,165.29,218.24,63.57,312.32L2463.12,1557Z" transform="translate(-464.78 -209.84)"/></g><g class="cls-39"><path id="_Caminho_41" data-name="&lt;Caminho&gt;" class="cls-40" d="M2731.18,1401.23,2482.54,1554.4,2796,1688.52C2876.07,1599.35,2852.29,1482.83,2731.18,1401.23Z" transform="translate(-464.78 -209.84)"/></g><path id="_Caminho_42" data-name="&lt;Caminho&gt;" class="cls-41" d="M2802.07,1697.58l-334.93-143.3-4,2.48,336.71,144a221.11,221.11,0,0,0,33-38A223.68,223.68,0,0,1,2802.07,1697.58Z" transform="translate(-464.78 -209.84)"/><path id="_Caminho_43" data-name="&lt;Caminho&gt;" class="cls-41" d="M2802.07,1697.58l-334.93-143.3-4,2.48,336.71,144a221.11,221.11,0,0,0,33-38A223.68,223.68,0,0,1,2802.07,1697.58Z" transform="translate(-464.78 -209.84)"/><g id="_Grupo_16" data-name="&lt;Grupo&gt;"><g id="_Grupo_17" data-name="&lt;Grupo&gt;" class="cls-4"><g id="_Grupo_18" data-name="&lt;Grupo&gt;"><polygon id="_Caminho_44" data-name="&lt;Caminho&gt;" class="cls-42" points="1994.64 1406.06 1987.56 1523.94 1588.71 1502.97 1595.78 1385.1 1994.64 1406.06"/></g><g id="_Grupo_de_clipes_" data-name="&lt;Grupo de clipes&gt;" class="cls-4"><g class="cls-43"><g id="_Grupo_19" data-name="&lt;Grupo&gt;" class="cls-4"><path id="_Caminho_45" data-name="&lt;Caminho&gt;" class="cls-44" d="M2060.56,1594.93l-7.07,117.88c0-1,.09-2.07.15-3.11l7.08-117.88c-.07,1-.12,2.07-.16,3.11" transform="translate(-464.78 -209.84)"/></g></g></g><g id="_Grupo_20" data-name="&lt;Grupo&gt;"><path id="_Caminho_46" data-name="&lt;Caminho&gt;" class="cls-45" d="M2250.1,1399.52l209.32,216.37-398.86-21c2.18-55.39,34.89-109.49,99.28-152C2186.69,1425.2,2217.19,1410.73,2250.1,1399.52Z" transform="translate(-464.78 -209.84)"/></g></g></g><g id="_Grupo_21" data-name="&lt;Grupo&gt;" class="cls-4"><g id="_Grupo_22" data-name="&lt;Grupo&gt;"><polygon id="_Caminho_47" data-name="&lt;Caminho&gt;" class="cls-46" points="1992.01 1453.17 1987.77 1523.9 1658.78 1650.21 1663.02 1579.48 1992.01 1453.17"/></g><g id="_Grupo_de_clipes_2" data-name="&lt;Grupo de clipes&gt;" class="cls-4"><g class="cls-47"><g id="_Grupo_23" data-name="&lt;Grupo&gt;" class="cls-4"><path id="_Caminho_48" data-name="&lt;Caminho&gt;" class="cls-48" d="M2127.8,1789.32l-4.24,70.72c-48.3-44.91-71.86-96.63-69.87-147.28l4.25-70.72c-2,50.64,21.56,102.36,69.86,147.28" transform="translate(-464.78 -209.84)"/></g></g></g><g id="_Grupo_24" data-name="&lt;Grupo&gt;"><path id="_Caminho_49" data-name="&lt;Caminho&gt;" class="cls-49" d="M2057.94,1642l398.85,21-329,126.31C2079.5,1744.4,2056,1692.68,2057.94,1642Z" transform="translate(-464.78 -209.84)"/></g></g><g id="_Grupo_25" data-name="&lt;Grupo&gt;"><g id="_Grupo_26" data-name="&lt;Grupo&gt;"><polygon id="_Caminho_50" data-name="&lt;Caminho&gt;" class="cls-50" points="1994.07 1417.46 1987.7 1523.55 1915.51 1761.71 1921.88 1655.62 1994.07 1417.46"/></g><path id="_Caminho_51" data-name="&lt;Caminho&gt;" class="cls-51" d="M2381.76,1864.69l-1.8-.28c-2-.32-4.05-.66-6.07-1l-1-.18-5-.89-2.11-.39c-1.31-.24-2.63-.48-3.94-.74l-2.39-.46-3.66-.72-2.48-.51c-1.2-.24-2.39-.49-3.59-.75l-2.47-.52-3.62-.8-2.39-.53-3.47-.8-2.71-.63-3.49-.85-2.63-.64-3.59-.91-2.5-.64c-1.29-.33-2.58-.68-3.86-1l-2.19-.58c-1.6-.43-3.18-.88-4.77-1.32l-1.27-.35q-3-.86-6-1.74l-1.64-.49-4.33-1.3-2.25-.7-3.65-1.14-6.06-2-.41-.14c-2.15-.71-4.29-1.44-6.42-2.17l-2.07-.73c-1.45-.51-2.89-1-4.33-1.53l-2.46-.9q-2-.7-3.9-1.44l-2.58-1-3.75-1.44-2.6-1-3.72-1.49-2.54-1-3.82-1.58-2.38-1-4.18-1.82-2-.85-3.06-1.38-2.66-1.19-3.06-1.42-2.61-1.22-3-1.47-2.58-1.24c-1-.5-2.05-1-3.07-1.53L2217,1813l-3.12-1.61c-.8-.41-1.6-.81-2.39-1.23l-3.26-1.73c-.73-.39-1.47-.77-2.2-1.17l-3.63-2-1.77-1q-2.7-1.5-5.35-3c-25.34-14.63-47.17-30.67-65.46-47.68l-6.37,106.09c18.3,17,40.12,33,65.46,47.69,1.77,1,3.56,2,5.35,3l1.72.95,3.68,2,2.16,1.15,3.3,1.76,2.33,1.19c1.06.55,2.12,1.1,3.19,1.64.81.42,1.63.82,2.45,1.22l3.12,1.55,2.52,1.22,3.1,1.49,2.6,1.21,3.07,1.43,2.66,1.2,3.07,1.37.32.15,1.64.71,4.19,1.81,2.38,1,3.81,1.59,2.54,1,3.73,1.49,2.59,1,3.76,1.45,2.57,1,3.91,1.45,2.45.89,4.36,1.54,2,.71q3.21,1.11,6.43,2.19l.35.11c2,.67,4.08,1.34,6.12,2l.39.12,3.22,1,2.29.71,4.25,1.28,1.72.52,6,1.73,1.38.38,4.65,1.29,2.25.59,3.81,1,2.52.65,3.57.9,2.64.65,3.48.84,2.72.63,2.5.59,1,.21,2.39.53,3.62.8,2.47.52c1.2.26,2.39.51,3.59.75l2.48.51,3.66.72,2.39.47,3.92.73,2.14.39,5,.89,1,.18c2,.34,4.05.68,6.07,1l1.8.28c1.2.19,2.4.39,3.61.57l1.29.19,6.36-106.09C2385,1865.21,2383.39,1865,2381.76,1864.69Z" transform="translate(-464.78 -209.84)"/><g id="_Grupo_27" data-name="&lt;Grupo&gt;"><path id="_Caminho_52" data-name="&lt;Caminho&gt;" class="cls-52" d="M2458.85,1627.29l-72.2,238.16c-68.73-10.29-135-31.67-191.33-64.17-25.34-14.63-47.17-30.67-65.46-47.68Z" transform="translate(-464.78 -209.84)"/></g></g><g id="_Grupo_28" data-name="&lt;Grupo&gt;"><path id="_Caminho_53" data-name="&lt;Caminho&gt;" class="cls-53" d="M2780.08,1885.89l1.38-1.16,2.75-2.39,1.21-1.07c1.28-1.13,2.55-2.27,3.79-3.42h0l7.78-129.67c-1.24,1.16-2.51,2.3-3.8,3.44l-1.2,1.06c-.91.8-1.83,1.59-2.76,2.39l-1.37,1.16c-1,.81-1.93,1.62-2.91,2.42l-1.19,1q-1.92,1.56-3.9,3.1l-.81.63c-1.39,1.08-2.78,2.15-4.2,3.21l-.16.11c-1.39,1-2.8,2.08-4.23,3.1l-.81.58q-2.13,1.53-4.32,3l-.86.59c-1.51,1-3,2.08-4.6,3.1s-3,1.93-4.43,2.88l-1.53,1-3,1.87-1.82,1.11c-.91.55-1.83,1.11-2.75,1.65l-2,1.16-2.65,1.55-2.08,1.17c-.87.49-1.73,1-2.61,1.47-.71.4-1.43.78-2.14,1.17l-2.61,1.42-2.19,1.16-2.61,1.37-2.23,1.14-2.64,1.33-2.27,1.13-2.64,1.28-2.32,1.11-2.66,1.25-2.34,1.08-2.69,1.22-2.36,1-2.73,1.19-2.38,1-2.75,1.16-2.4,1-2.79,1.13-2.41,1-2.84,1.1-2.41.93c-1,.37-1.92.73-2.89,1.08l-2.41.9c-1,.36-2,.71-2.94,1.06l-2.4.86-3,1c-.79.27-1.57.55-2.36.81-1,.36-2.1.7-3.15,1.05-.76.25-1.51.51-2.27.75l-3.36,1.07-2.11.68-3.83,1.17-1.68.51q-2.76.83-5.55,1.62c-.28.09-.57.16-.85.24-1.57.45-3.15.9-4.74,1.33l-2,.53c-1.21.33-2.42.66-3.64,1l-2.29.59-3.37.86-2.43.6-3.27.79-2.53.6-3.2.74-2.6.58-3.16.69-2.64.56-3.16.65c-.88.19-1.77.36-2.66.54l-3.16.62-2.7.51-2.85.53q-3,.54-5.92,1.05l-1.24.22c-2.37.4-4.76.79-7.14,1.16l-2,.3c-1.78.28-3.57.54-5.36.8l-2.33.33c-1.87.26-3.75.52-5.63.76l-1.68.22q-3.61.46-7.24.88l-1.75.19c-1.87.21-3.75.42-5.64.61l-2.35.24-5.52.52-1.93.17q-3.66.32-7.34.6l-2.6.18-3.73.26-2.77.17-3.61.21-2.85.14-3.54.18-2.92.11-3.48.14-3,.09-3.46.1-3,.06-3.45.06-3,0-3.43,0h-6.45c-1.08,0-2.16,0-3.23,0s-1.86,0-2.79,0l-3.37-.06c-.93,0-1.85,0-2.77-.06-1.14,0-2.28-.06-3.41-.09l-2.74-.08-3.47-.13-2.67-.1-3.58-.17-2.57-.12-3.78-.22-2.36-.13-4.42-.29-1.71-.12c-2-.14-4.1-.3-6.14-.46l-.79-.07-5.17-.44-2-.19-3.91-.37-2.34-.24-3.63-.38-2.43-.27-3.57-.41-2.41-.29-3.66-.45-2.29-.3-4-.53-2-.27-5.82-.84h-.08l-7.78,129.66c2,.3,3.93.58,5.9.86l2,.26c1.32.19,2.65.37,4,.54l2.3.29,3.65.46,2.42.29,3.57.41,2.43.26,3.62.38,2.35.24,3.91.37,2,.2,5.17.44.79.06h.07l6.06.46,1.7.11,4.44.29,2.34.14c1.27.07,2.53.15,3.8.21l2.57.13,3.58.16,2.67.11,3.47.13,2.73.08,3.42.09,2.76.06,3.38.06,2.79,0,1.87,0h7.8l3.44,0,3,0,3.45-.06,3-.07,3.48-.09,2.94-.09,3.51-.14,2.9-.12,3.55-.17,2.85-.14,3.6-.22,2.78-.16,3.74-.26,2.31-.16.27,0q3.67-.27,7.35-.59l1.92-.18q2.78-.24,5.53-.51l2.35-.24,5.64-.61,1.75-.19c2.41-.28,4.83-.58,7.24-.88l1.67-.22,5.65-.76,2.31-.33,5.38-.8,1.94-.3q3.58-.56,7.15-1.16l1.24-.22c2-.34,3.95-.69,5.91-1l1-.17,1.88-.36,2.71-.51,3.14-.62,2.69-.54,3.14-.65c.88-.19,1.77-.37,2.65-.57,1.06-.22,2.11-.46,3.16-.69l2.6-.58,3.2-.74,2.53-.59,3.25-.79,2.45-.6,3.36-.86,2.3-.59c1.21-.31,2.41-.64,3.62-1,.67-.18,1.34-.35,2-.54,1.58-.43,3.16-.87,4.72-1.32l.87-.24q2.78-.79,5.54-1.63c.57-.16,1.12-.34,1.69-.51,1.27-.38,2.55-.77,3.82-1.17l2.12-.67,3.35-1.07,2.28-.75,3.15-1,2.36-.81,3-1,2.4-.86,2.94-1.06,2.41-.89,2.89-1.08,2.41-.93,2.83-1.11c.81-.31,1.61-.64,2.42-1l2.78-1.13,2.41-1,2.75-1.15,2.39-1,2.71-1.19c.79-.34,1.58-.69,2.36-1s1.8-.81,2.7-1.22l2.33-1.07,2.67-1.26,2.31-1.1,2.64-1.29,2.28-1.12,2.63-1.33,2.23-1.14,2.61-1.37,2.2-1.16,2.61-1.42,2.14-1.17,2.61-1.47,2.08-1.18,2.65-1.54,2-1.16,2.75-1.66,1.82-1.1,3-1.87,1.52-.95q2.24-1.43,4.44-2.88t4.6-3.1l.86-.59q2.19-1.51,4.32-3l.81-.58c1.42-1,2.84-2.06,4.23-3.1l.15-.11c1.42-1.07,2.82-2.13,4.2-3.21l.82-.63c1.16-.91,2.32-1.83,3.46-2.75l.43-.35,1.2-1C2778.16,1887.5,2779.13,1886.7,2780.08,1885.89Z" transform="translate(-464.78 -209.84)"/><g id="_Grupo_29" data-name="&lt;Grupo&gt;"><path id="_Caminho_54" data-name="&lt;Caminho&gt;" class="cls-54" d="M2797,1748.17a288.37,288.37,0,0,1-37.12,28.91c-96,63.41-238.46,85.17-371.78,65.2l72.2-238.16Z" transform="translate(-464.78 -209.84)"/></g></g></g><g id="_Grupo_30" data-name="&lt;Grupo&gt;"><path id="_Caminho_55" data-name="&lt;Caminho&gt;" class="cls-55" d="M1736.66,1866.83a88.51,88.51,0,0,1,22.15,17.56l149.87-38.64c-13.63-16.59-32.28-32.14-56.06-45.87-109.88-63.44-287-64.28-398.77-2.61l116.07,67C1617.56,1839.58,1690.84,1840.37,1736.66,1866.83Z" transform="translate(-464.78 -209.84)"/><path id="_Caminho_56" data-name="&lt;Caminho&gt;" class="cls-56" d="M1560.64,1869.64l-116.07-67c-32.44,19.6-55,42.65-67.41,67.07l158.53,24.76C1540.79,1885.49,1549.12,1877,1560.64,1869.64Z" transform="translate(-464.78 -209.84)"/><path id="_Caminho_57" data-name="&lt;Caminho&gt;" class="cls-57" d="M1736.66,1965.91c-14.69,8.48-32.23,14.33-50.83,17.55l38.71,92c46.91-7.21,91.28-21.4,128.08-42.64a222.07,222.07,0,0,0,42.87-31.67l-142.63-46.91A96.41,96.41,0,0,1,1736.66,1965.91Z" transform="translate(-464.78 -209.84)"/><path id="_Caminho_58" data-name="&lt;Caminho&gt;" class="cls-58" d="M1759.34,1947.69,1902,1994.61c41.11-43.93,45.12-96.35,12-141.94l-149.91,38.64C1776.19,1909.55,1774.6,1930.07,1759.34,1947.69Z" transform="translate(-464.78 -209.84)"/><path id="_Caminho_59" data-name="&lt;Caminho&gt;" class="cls-59" d="M1565.05,1965.91A98.28,98.28,0,0,1,1550,1955.3l-141.14,48.32a225.22,225.22,0,0,0,40.24,29.24c71.31,41.17,171,56,262.71,44.42l-38.73-92.05C1635.1,1989.29,1594.42,1982.87,1565.05,1965.91Z" transform="translate(-464.78 -209.84)"/><path id="_Caminho_60" data-name="&lt;Caminho&gt;" class="cls-60" d="M1532.24,1901.76,1373.74,1877c-17,40.15-7.52,83.26,28.41,120.11l141.12-48.31C1530.07,1934.22,1526.44,1917.53,1532.24,1901.76Z" transform="translate(-464.78 -209.84)"/></g><g id="_Grupo_31" data-name="&lt;Grupo&gt;"><polygon id="_Caminho_61" data-name="&lt;Caminho&gt;" class="cls-58" points="1072.71 1400.8 669.13 1633.81 653.82 1624.96 1057.39 1391.96 1072.71 1400.8"/><polygon id="_Caminho_62" data-name="&lt;Caminho&gt;" class="cls-58" points="1096.47 1414.52 692.9 1647.53 677.58 1638.68 1081.15 1405.68 1096.47 1414.52"/><polygon id="_Caminho_63" data-name="&lt;Caminho&gt;" class="cls-58" points="1120.23 1428.24 716.66 1661.24 701.34 1652.4 1104.91 1419.4 1120.23 1428.24"/><polygon id="_Caminho_64" data-name="&lt;Caminho&gt;" class="cls-58" points="977.66 1345.93 574.09 1578.93 558.77 1570.09 962.34 1337.08 977.66 1345.93"/><polygon id="_Caminho_65" data-name="&lt;Caminho&gt;" class="cls-61" points="703.24 1504.36 574.09 1578.93 558.77 1570.09 687.92 1495.52 703.24 1504.36"/><polygon id="_Caminho_66" data-name="&lt;Caminho&gt;" class="cls-58" points="1001.42 1359.65 597.85 1592.65 582.53 1583.81 986.1 1350.8 1001.42 1359.65"/><polygon id="_Caminho_67" data-name="&lt;Caminho&gt;" class="cls-59" points="1001.42 1359.65 932.75 1399.29 917.43 1390.45 986.1 1350.8 1001.42 1359.65"/><polygon id="_Caminho_68" data-name="&lt;Caminho&gt;" class="cls-61" points="727 1518.08 597.85 1592.65 582.53 1583.81 711.68 1509.24 727 1518.08"/><polygon id="_Caminho_69" data-name="&lt;Caminho&gt;" class="cls-58" points="1025.18 1373.37 621.61 1606.37 606.29 1597.53 1009.87 1364.52 1025.18 1373.37"/><polygon id="_Caminho_70" data-name="&lt;Caminho&gt;" class="cls-59" points="1025.18 1373.37 880.45 1456.93 865.13 1448.09 1009.87 1364.52 1025.18 1373.37"/><polygon id="_Caminho_71" data-name="&lt;Caminho&gt;" class="cls-61" points="750.76 1531.8 621.61 1606.37 606.29 1597.53 735.45 1522.96 750.76 1531.8"/><polygon id="_Caminho_72" data-name="&lt;Caminho&gt;" class="cls-58" points="1048.95 1387.09 645.37 1620.09 630.05 1611.24 1033.63 1378.24 1048.95 1387.09"/><polygon id="_Caminho_73" data-name="&lt;Caminho&gt;" class="cls-59" points="1048.95 1387.09 887.83 1480.1 872.51 1471.26 1033.63 1378.24 1048.95 1387.09"/><polygon id="_Caminho_74" data-name="&lt;Caminho&gt;" class="cls-59" points="1072.71 1400.8 870.92 1517.31 855.6 1508.46 1057.39 1391.96 1072.71 1400.8"/><polygon id="_Caminho_75" data-name="&lt;Caminho&gt;" class="cls-59" points="1096.47 1414.52 855.07 1553.9 839.75 1545.05 1081.15 1405.68 1096.47 1414.52"/><polygon id="_Caminho_76" data-name="&lt;Caminho&gt;" class="cls-59" points="1120.23 1428.24 959.12 1521.26 943.8 1512.42 1104.91 1419.4 1120.23 1428.24"/><polygon id="_Caminho_77" data-name="&lt;Caminho&gt;" class="cls-61" points="774.53 1545.52 645.37 1620.09 630.05 1611.24 759.21 1536.68 774.53 1545.52"/><polygon id="_Caminho_78" data-name="&lt;Caminho&gt;" class="cls-61" points="798.29 1559.24 669.13 1633.81 653.82 1624.96 782.97 1550.39 798.29 1559.24"/><polygon id="_Caminho_79" data-name="&lt;Caminho&gt;" class="cls-61" points="822.05 1572.96 692.9 1647.53 677.58 1638.68 806.73 1564.11 822.05 1572.96"/><polygon id="_Caminho_80" data-name="&lt;Caminho&gt;" class="cls-61" points="845.81 1586.68 716.66 1661.24 701.34 1652.4 830.49 1577.83 845.81 1586.68"/></g><g id="_Grupo_32" data-name="&lt;Grupo&gt;"><path id="_Caminho_81" data-name="&lt;Caminho&gt;" class="cls-62" d="M891.84,1670.53c-13.11-7.57-11.47-20.79,3.67-29.53s38-9.69,51.14-2.12,11.46,20.79-3.67,29.53S904.94,1678.1,891.84,1670.53Z" transform="translate(-464.78 -209.84)"/><path id="_Caminho_82" data-name="&lt;Caminho&gt;" class="cls-63" d="M973.38,1623.45c-13.1-7.57-11.46-20.79,3.68-29.53s38-9.69,51.14-2.12,11.46,20.79-3.67,29.53S986.49,1631,973.38,1623.45Z" transform="translate(-464.78 -209.84)"/><path id="_Caminho_83" data-name="&lt;Caminho&gt;" class="cls-64" d="M1054.93,1576.36c-13.1-7.57-11.46-20.78,3.68-29.52s38-9.69,51.14-2.12,11.46,20.78-3.68,29.52S1068,1583.93,1054.93,1576.36Z" transform="translate(-464.78 -209.84)"/></g><g id="_Grupo_33" data-name="&lt;Grupo&gt;"><g id="_Grupo_34" data-name="&lt;Grupo&gt;"><polygon id="_Caminho_84" data-name="&lt;Caminho&gt;" class="cls-65" points="1086.16 1334.87 1096.25 1253.74 1178.33 1244.01 1195.02 1171.32 1307.26 1156.87 1361.24 1025.44 1550.31 1001.84 1646.84 877.48 1762.62 944.32 1086.16 1334.87"/><polygon id="_Caminho_85" data-name="&lt;Caminho&gt;" class="cls-63" points="1126.98 1205.36 1139.63 1245.85 1175.49 1241.86 1186.06 1194.31 1126.98 1205.36"/><polygon id="_Caminho_86" data-name="&lt;Caminho&gt;" class="cls-66" points="1242.45 1162.42 1247.67 1117.97 1293.66 1114.81 1294.11 1156.03 1242.45 1162.42"/><polygon id="_Caminho_87" data-name="&lt;Caminho&gt;" class="cls-63" points="1310.17 1141.7 1305.94 1048.57 1348.59 1042.32 1310.17 1141.7"/><polygon id="_Caminho_88" data-name="&lt;Caminho&gt;" class="cls-66" points="1385.22 924.92 1469.37 926.8 1448.19 1012.22 1393.44 1018.43 1385.22 924.92"/><polygon id="_Caminho_89" data-name="&lt;Caminho&gt;" class="cls-63" points="1466.46 1010.03 1487.79 910.82 1620.63 905.31 1547.14 999.88 1466.46 1010.03"/></g><g id="_Grupo_35" data-name="&lt;Grupo&gt;"><polygon id="_Caminho_90" data-name="&lt;Caminho&gt;" class="cls-66" points="1205.56 1341.81 1163.67 1365.99 1128.56 1345.71 1170.44 1321.53 1205.56 1341.81"/><polygon id="_Caminho_91" data-name="&lt;Caminho&gt;" class="cls-63" points="1266.54 1377.01 1224.65 1401.19 1189.53 1380.92 1231.42 1356.73 1266.54 1377.01"/><polygon id="_Caminho_92" data-name="&lt;Caminho&gt;" class="cls-65" points="1327.51 1412.21 1285.63 1436.4 1250.51 1416.12 1292.4 1391.94 1327.51 1412.21"/><polygon id="_Caminho_93" data-name="&lt;Caminho&gt;" class="cls-67" points="1527.1 1147.7 1238.34 1314.42 1215.96 1301.49 1504.72 1134.78 1527.1 1147.7"/><polygon id="_Caminho_94" data-name="&lt;Caminho&gt;" class="cls-67" points="1421.93 1279.94 1300.28 1350.18 1277.9 1337.25 1399.55 1267.02 1421.93 1279.94"/><polygon id="_Caminho_95" data-name="&lt;Caminho&gt;" class="cls-67" points="1610.36 1241.56 1361.26 1385.38 1338.87 1372.46 1587.97 1228.64 1610.36 1241.56"/></g></g><g id="_Grupo_36" data-name="&lt;Grupo&gt;"><g id="_Grupo_37" data-name="&lt;Grupo&gt;"><polygon id="_Caminho_96" data-name="&lt;Caminho&gt;" class="cls-68" points="2157.71 1851.71 2213.36 1819.55 2268.98 1851.71 2213.36 1883.79 2157.71 1851.71"/><polygon id="_Caminho_97" data-name="&lt;Caminho&gt;" class="cls-69" points="2240.55 1899.53 2296.18 1867.41 2351.82 1899.53 2296.18 1931.61 2240.55 1899.53"/><polygon id="_Caminho_98" data-name="&lt;Caminho&gt;" class="cls-70" points="2324.01 1947.7 2379.63 1915.58 2435.24 1947.7 2379.63 1979.82 2324.01 1947.7"/><polygon id="_Caminho_99" data-name="&lt;Caminho&gt;" class="cls-71" points="2678.93 1570.31 2267.33 1807.94 2258.24 1802.68 2669.9 1565.07 2678.93 1570.31"/><polygon id="_Caminho_100" data-name="&lt;Caminho&gt;" class="cls-71" points="2694.43 1579.24 2282.75 1816.87 2273.72 1811.61 2685.34 1573.97 2694.43 1579.24"/><polygon id="_Caminho_101" data-name="&lt;Caminho&gt;" class="cls-71" points="2709.87 1588.14 2298.26 1825.79 2289.17 1820.55 2700.76 1582.9 2709.87 1588.14"/><polygon id="_Caminho_102" data-name="&lt;Caminho&gt;" class="cls-71" points="2761.73 1618.12 2350.15 1855.76 2341.1 1850.48 2752.72 1612.86 2761.73 1618.12"/><polygon id="_Caminho_103" data-name="&lt;Caminho&gt;" class="cls-71" points="2777.16 1627.03 2365.6 1864.65 2356.55 1859.41 2768.16 1621.79 2777.16 1627.03"/><polygon id="_Caminho_104" data-name="&lt;Caminho&gt;" class="cls-71" points="2792.66 1635.92 2381.04 1873.6 2371.99 1868.37 2783.57 1630.72 2792.66 1635.92"/><polygon id="_Caminho_105" data-name="&lt;Caminho&gt;" class="cls-71" points="2845.23 1666.29 2433.58 1903.93 2424.54 1898.69 2836.14 1661.06 2845.23 1666.29"/><polygon id="_Caminho_106" data-name="&lt;Caminho&gt;" class="cls-71" points="2860.64 1675.18 2449.06 1912.82 2439.97 1907.64 2851.56 1669.99 2860.64 1675.18"/><polygon id="_Caminho_107" data-name="&lt;Caminho&gt;" class="cls-71" points="2876.09 1684.12 2464.52 1921.77 2455.44 1916.54 2867.07 1678.92 2876.09 1684.12"/></g><path id="_Caminho_composto_3" data-name="&lt;Caminho composto&gt;" class="cls-72" d="M3265.69,2172.57l-40.46-13.2-8.76,4.26-.06,0-84.61,39c-1.42-.35-2.86-.73-3.24-.87-.51.19-1,.52-.12.8.35.11,1.2.36,2.16.63l-.51.23-3.15-.58c-.27.12-.57.64,1.24.9.26,0,.57.09.88.16l-.9.41c-.87,0-1.94.09-2.7.07,0,0-.5.43,1.39.54l-43.16,19.92h-.08v0l-249.17,115h.1l-.1.05-27.11,29.18-4.45,6,15.77-4.7,79.15-22.07h0l.05,0L3114.61,2245h0l9.2-4.39,6.06-2.88c6.64,1.85,13.15,3.66,17.26,4.79-3.77,1.61-7.22,3.54-8.91,5.74-.6.77-6.18,6.71-7.35,12.81-1.86,3.16-3,6.3-2.9,9l6.56.56.37.41h-.16l.11.12c-.58,1.48-1.43,3.52-2.59,5.83-2.33,4.69,10.83,15.76,10.83,15.76l-2,5.53,4.46,2.23,4.57,19.35,1.25-.12-.09.75h0a2.16,2.16,0,0,0-.68.39,4.86,4.86,0,0,1-1.06.68h0l-.12.07c-4.89.83-8.17,1.56-8.61,2s.78.42,2.89.37a.15.15,0,0,0,0,.18h0l0,0,.11.17a19.24,19.24,0,0,0,3.1-.33c.36-.07.74-.16,1.12-.26,4.13-.28,9.68-.82,15.91-1.56,5.75-.69,11.12-1.45,15.44-2.15l1.29,0c-.92.35-1.64.72-1.47,1h0l0,0a.21.21,0,0,0,0,.06l.1.18a17.73,17.73,0,0,0,2.08-.18,14.89,14.89,0,0,0,1.47-.27l.24-.05c.28-.07.56-.15.83-.24l1.9-.62c7.81-.33,13.71-.86,14.71-1.41s-2.73-.92-9-1.09a1.48,1.48,0,0,0-.56-.54l-.34.19-.82-.49,1.2-.2s-8-3.07-3.94-11.23,2.58-8.14,1.27-9.06-10.11-3.16-10.11-3.16a38.07,38.07,0,0,1,1.19-11.24s0-.07,0-.11c.11-.46.22-.92.35-1.4a22.47,22.47,0,0,0,.6-3.41,6.06,6.06,0,0,0,.07-.65h0c3.62.95,7.74,1.83,12.48,2.58,0,0-.19-2.12,2-9.3,0,0-8.07-4.83-7.6-8.24.17-1.23.8-4.1,1.53-7.25h0s0-.12,0-.33c1.29-5.52,2.87-11.81,2.87-11.81l-14.55-3.89-.09,0v-2.3h3a36.3,36.3,0,0,1,5.48-2.13c3-.9.47-1.61,1.14-2.25a4.17,4.17,0,0,1,2.1-.76l-1.58-.6c-.07-3.17-4.66-3.35-4.66-3.35,1.23.25.73,1.22.73,1.22-.87-1.47-8.93-1.14-8.93-1.14l-.25,1.86a140.49,140.49,0,0,0-15,4.27c-2.62-1.88-5.81-3.63-8.05-5.15l106.43-50.74ZM3137,2234.29l3.5-1.67c.57.69,1.15,1.43,1.72,2.18C3140.2,2234.66,3138.39,2234.51,3137,2234.29Zm49.57,82.79,0,.22h-1.26Zm-30,3.45a1.72,1.72,0,0,0-.68-.65l-.35.19-1.06-.62-3.12.3,3.39-.33a33.11,33.11,0,0,0,5.73.57Zm2.37-29.12c2.3,1.18,3.91,1.94,3.91,1.94l.55,2.69c-2.31-1.22-5.53-2.59-5.53-2.59S3158.23,2292.73,3159,2291.41Zm.33,15.6c4.74-4.64,6.41-6.71,6.83-7.83l3.54,1.05,15.14,17.06-4.31,0c-10.81.12-20.84.68-24.59,1.33C3154.68,2317.26,3152.68,2313.48,3159.3,2307Zm3.58-70.83,0,0v0h0Z" transform="translate(-464.78 -209.84)"/><polygon id="_Caminho_108" data-name="&lt;Caminho&gt;" class="cls-73" points="2727.63 2104.01 2729.51 2107.48 2725.41 2108.67 2723.85 2106.59 2723.85 2103.98 2727.63 2104.01"/><g id="_Grupo_38" data-name="&lt;Grupo&gt;"><path id="_Caminho_109" data-name="&lt;Caminho&gt;" class="cls-74" d="M3189.39,2316a2.47,2.47,0,0,0-1.53,1.59,10.2,10.2,0,0,1-3.84,4.51c-1.77,1.07-4.62,3-4,4.74l.15.66a7.76,7.76,0,0,0,5.74-1c2.67-1.79,7.15-4.89,9.54-5.67l.24-.3s-.88-4-1.46-4.68a17.55,17.55,0,0,1-1.31,1.72C3192.67,2317.69,3191.13,2315.82,3189.39,2316Z" transform="translate(-464.78 -209.84)"/><path id="_Caminho_110" data-name="&lt;Caminho&gt;" class="cls-73" d="M3195.47,2319.74l-.24.3c-2.39.78-6.87,3.88-9.54,5.67a7.76,7.76,0,0,1-5.74,1l0-.15a1.22,1.22,0,0,0,.06.26l.15.66a7.76,7.76,0,0,0,5.74-1c2.67-1.79,7.15-4.89,9.54-5.67l.24-.3s-.08-.37-.21-.9Z" transform="translate(-464.78 -209.84)"/><path id="_Caminho_111" data-name="&lt;Caminho&gt;" class="cls-75" d="M3184.3,2321.73a2.37,2.37,0,0,1,2.36.32" transform="translate(-464.78 -209.84)"/><path id="_Caminho_112" data-name="&lt;Caminho&gt;" class="cls-75" d="M3185.08,2321a2.37,2.37,0,0,1,2.36.32" transform="translate(-464.78 -209.84)"/><path id="_Caminho_113" data-name="&lt;Caminho&gt;" class="cls-75" d="M3185.87,2320.33a2.35,2.35,0,0,1,2.35.32" transform="translate(-464.78 -209.84)"/><path id="_Caminho_114" data-name="&lt;Caminho&gt;" class="cls-75" d="M3186.64,2319.6a2.37,2.37,0,0,1,2.36.32" transform="translate(-464.78 -209.84)"/></g><g id="_Grupo_39" data-name="&lt;Grupo&gt;"><path id="_Caminho_115" data-name="&lt;Caminho&gt;" class="cls-76" d="M3111.89,1937.77s.86-10.72.65-12a7.93,7.93,0,0,0-2.61-4c-1.23-1-6.28-4.7-7.11-5.61a1.64,1.64,0,0,0,0,2.51c1,1,5.55,4.67,6.59,5.69,0,0-4.48,5.16-4.9,6.15s-.22,2.85.78,5a14.68,14.68,0,0,0,1.82,3.07C3107.1,1938.69,3111.89,1937.77,3111.89,1937.77Z" transform="translate(-464.78 -209.84)"/><path id="_Caminho_116" data-name="&lt;Caminho&gt;" class="cls-76" d="M3110,1925.22s-3.4-2.47-4-2.94-4.32-2.61-4.87-2.9c-.29.35-.56,2,1.49,2.92s6,4.41,6,4.41Z" transform="translate(-464.78 -209.84)"/><path id="_Caminho_117" data-name="&lt;Caminho&gt;" class="cls-76" d="M3108.39,1926.91s-3.95-2.2-4.71-2.78c-1-.12-2.83.13-4,0,0,0-.72,1.78,2.92,2a5,5,0,0,1,3.8,2.37Z" transform="translate(-464.78 -209.84)"/><path id="_Caminho_118" data-name="&lt;Caminho&gt;" class="cls-76" d="M3106.87,1928.73s-3.12-1.06-3.7-1.27a2.76,2.76,0,0,1-2.44.76,1.8,1.8,0,0,0,1.59,1.34c1.3.1,3.45.49,3.45.49Z" transform="translate(-464.78 -209.84)"/></g><path id="_Caminho_119" data-name="&lt;Caminho&gt;" class="cls-77" d="M3164.05,2133.44s.49,20.34-6.12,46.39-8.64,43.08-8.64,43.08,9.06,12.45,10.11,16.4,2.79,4.63-6.39,31.08-1.49,42.06-1.49,42.06l-7.77,0-8.3-68.67-5.63-8.95,1.6-18.36s-17-40.87-14.87-56,2.94-26.8,2.94-26.8Z" transform="translate(-464.78 -209.84)"/><path id="_Caminho_120" data-name="&lt;Caminho&gt;" class="cls-78" d="M3130.88,2053.93s-8.92-35.81-14.35-48.43c-8.47,2.81-9.63-67.14-9.63-67.14l5-.65s5.33,23,7.55,31.59,8.8,13.23,9.2,24.42c3.05,10.78,20.37,30,19.52,47.23C3141.48,2046,3130.88,2053.93,3130.88,2053.93Z" transform="translate(-464.78 -209.84)"/><path id="_Caminho_121" data-name="&lt;Caminho&gt;" class="cls-79" d="M3129.86,2048.1s-21.24,52.24-19.19,88.24l11,4.78S3116.11,2096.13,3129.86,2048.1Z" transform="translate(-464.78 -209.84)"/><path id="_Caminho_122" data-name="&lt;Caminho&gt;" class="cls-80" d="M3170.76,2136.16s4.53,19.84,3.25,46.68.11,43.92.11,43.92,11.36,10.39,13.18,14.06,3.66,4-.06,31.72,6.92,41.49,6.92,41.49l-7.63,1.51-21.81-65.62-7.31-7.64-2.09-18.31s-24.77-36.65-25.73-51.91a221.41,221.41,0,0,0-4.59-30.94Z" transform="translate(-464.78 -209.84)"/><path id="_Caminho_123" data-name="&lt;Caminho&gt;" class="cls-81" d="M3146.6,2035.62s-22.1,10.71-26.93,30.69c-.92,3.84-14.49,47.56-.72,73.61,2.64,1,53.82,6.42,53.82,6.42s8.91-84.17,9.74-90.47c-7.14-4.25-11.76-9.3-15-12.14S3146.6,2035.62,3146.6,2035.62Z" transform="translate(-464.78 -209.84)"/><path id="_Caminho_124" data-name="&lt;Caminho&gt;" class="cls-82" d="M3163.68,2027.59l-17,1.16s1.12,13.29,1.32,14.61c3.57-.55,7.11.34,16.24-2.47Z" transform="translate(-464.78 -209.84)"/><path id="_Caminho_125" data-name="&lt;Caminho&gt;" class="cls-78" d="M3147.85,2045.7s-12.25,15-13.2,30,4.28,36.4,4.28,36.4l-6.25,5.63-6.85-7.18s-3.36-42.91,19.67-66.64Z" transform="translate(-464.78 -209.84)"/><path id="_Caminho_126" data-name="&lt;Caminho&gt;" class="cls-83" d="M3153.45,2142s-28.46-2.24-36.3-6l1.68,5.06s27.48,4.68,36.34,4.17Z" transform="translate(-464.78 -209.84)"/><path id="_Caminho_127" data-name="&lt;Caminho&gt;" class="cls-84" d="M3155.17,2145.28l.28.5c-8.86.5-36.62-4.13-36.62-4.13l-.18-.54C3125.23,2142.18,3145.21,2145.07,3155.17,2145.28Z" transform="translate(-464.78 -209.84)"/><polygon id="_Caminho_128" data-name="&lt;Caminho&gt;" class="cls-85" points="2661.4 1928.74 2661.78 1932.51 2660.05 1932.24 2659.72 1928.39 2661.4 1928.74"/><polygon id="_Caminho_129" data-name="&lt;Caminho&gt;" class="cls-85" points="2661.14 1931.51 2657.36 1930.96 2657.36 1931.82 2661.14 1932.41 2661.14 1931.51"/><polygon id="_Caminho_130" data-name="&lt;Caminho&gt;" class="cls-85" points="2661.15 1928.76 2657.41 1927.87 2657.36 1929.06 2661.15 1929.66 2661.15 1928.76"/><polygon id="_Caminho_131" data-name="&lt;Caminho&gt;" class="cls-85" points="2661.15 1930.13 2656.36 1929.24 2656.56 1930.44 2661.15 1931.04 2661.15 1930.13"/><path id="_Caminho_132" data-name="&lt;Caminho&gt;" class="cls-86" d="M3150.26,2063.33s-17.27,44.59-4.74,82l9.93.48S3141,2098.7,3150.26,2063.33Z" transform="translate(-464.78 -209.84)"/><path id="_Caminho_133" data-name="&lt;Caminho&gt;" class="cls-78" d="M3164.27,2038.55a84.54,84.54,0,0,0-15.32,28.64c-5.53,17.67-18.16,76.21,41.23,113.85,0,0-.59-7.42.92-31.84,0,0-10.87-18.53-10.85-30.12s2.38-65,2.38-65Z" transform="translate(-464.78 -209.84)"/><polygon id="_Caminho_134" data-name="&lt;Caminho&gt;" class="cls-87" points="2688.67 1932.2 2690.67 1935.94 2687.14 1935.97 2685.92 1931.99 2688.67 1932.2"/><path id="_Caminho_135" data-name="&lt;Caminho&gt;" class="cls-88" d="M3146.7,2030l4,1.93,6.35-1.63s.82,1.22,2.93.21a29.2,29.2,0,0,0,3.77-2.18l.43,9.86s-8.82-4.59-12.32-3.33Z" transform="translate(-464.78 -209.84)"/><path id="_Caminho_136" data-name="&lt;Caminho&gt;" class="cls-82" d="M3159.51,2028s-3.57,4.54-7.84,5.45c0,0-11.27-6.31-12.18-7.84a10.58,10.58,0,0,1-.43-4.32s13.37-11.71,20.09-14.34c0,0,4.88-1.92,9.44,6.73S3166.32,2027.57,3159.51,2028Z" transform="translate(-464.78 -209.84)"/><path id="_Caminho_137" data-name="&lt;Caminho&gt;" class="cls-89" d="M3159.15,2006.92v-6.12s9.65,0,10.94,5c0,0,.45-3.16-1.08-4.18,0,0,5.59,1.24,6.18,11.81l2,2.24a3.2,3.2,0,0,0-2.45,2.23c-.71,2,2.53,4.79-1,7.32a32.54,32.54,0,0,0-6.32,6.29l-4.27-.62s1.32-5-.51-5.37h-1.88l-.19-1.37,3.11-.92s8.34-3.15,3.07-11.34C3164.59,2008.54,3159.15,2006.92,3159.15,2006.92Z" transform="translate(-464.78 -209.84)"/><path id="_Caminho_138" data-name="&lt;Caminho&gt;" class="cls-82" d="M3162.06,2025.61a2.38,2.38,0,0,1,3,2.4,3.16,3.16,0,0,1-3.31,3.5c-.92,0-3.69,1.27-5.06.62-.56-.15-1.24-1.46-1.24-1.46Z" transform="translate(-464.78 -209.84)"/><path id="_Caminho_139" data-name="&lt;Caminho&gt;" class="cls-90" d="M3146.84,2030.62l-6.88-4.53s-2.2,14.12-11,20.25l.46,1.76,17.91-12.27Z" transform="translate(-464.78 -209.84)"/><path id="_Caminho_140" data-name="&lt;Caminho&gt;" class="cls-78" d="M3148.87,2043.68l.49,2-1.43.56s-.73-.51-3.11-2.37l.89-1.35,1.58.1A1.69,1.69,0,0,0,3148.87,2043.68Z" transform="translate(-464.78 -209.84)"/><g id="_Grupo_40" data-name="&lt;Grupo&gt;"><g id="_Grupo_41" data-name="&lt;Grupo&gt;"><g id="_Grupo_42" data-name="&lt;Grupo&gt;"><path id="_Caminho_141" data-name="&lt;Caminho&gt;" class="cls-91" d="M3150.69,2145.81s.07.42.19,1.2" transform="translate(-464.78 -209.84)"/><path id="_Caminho_142" data-name="&lt;Caminho&gt;" class="cls-92" d="M3151.25,2149.43c1.37,8.8,4.84,31.52,6.27,44.13,1.79,15.86,7.25,33.26,11.81,37.54s12.47,17.41,12.44,32.05c0,14.15-2.32,28.7,7.51,49.43" transform="translate(-464.78 -209.84)"/><path id="_Caminho_143" data-name="&lt;Caminho&gt;" class="cls-91" d="M3189.82,2313.69c.17.36.36.73.54,1.09" transform="translate(-464.78 -209.84)"/></g></g></g><path id="_Caminho_144" data-name="&lt;Caminho&gt;" class="cls-93" d="M3158.29,2242.09c.38-.15,14.43,7.24,14.43,7.24a23.33,23.33,0,0,0-6.86,0Z" transform="translate(-464.78 -209.84)"/><path id="_Caminho_145" data-name="&lt;Caminho&gt;" class="cls-94" d="M3161.48,2196.92c-5.05-17.09-1.74-44.31-1.74-44.31l13.3,15.29s-.16,12-1,20.66c-1.58,13.21.07,27.64,1.14,34.79l.15-.37s.64,3,.9,5.27c2.12,2.48,4.34,4.76,6.39,7.07,2.8,2.83,5,5,5,5a8,8,0,0,0-2.46-2c3.81,5,6.27,10.57,4.64,19-6.47,27.28,2,47.68,2,47.68a54.18,54.18,0,0,1-6.52-17.57c-2-10.61,1.06-22.39,2.28-31.74.64-4.92-3.55-12.6-7.65-18.78-6.44-.33-13.59,2.9-13.59,2.9,1.89-1.51,4.89-7.59,6.91-12l-.66-.81S3166.52,2214,3161.48,2196.92Z" transform="translate(-464.78 -209.84)"/><path id="_Caminho_146" data-name="&lt;Caminho&gt;" class="cls-77" d="M3174.2,2169a119.62,119.62,0,0,1-18.75-23.18c.25,8.81,18.33,42.71,18.33,42.71S3174.34,2174.21,3174.2,2169Z" transform="translate(-464.78 -209.84)"/><g id="_Grupo_43" data-name="&lt;Grupo&gt;"><polygon id="_Caminho_147" data-name="&lt;Caminho&gt;" class="cls-81" points="2642.09 1728.54 2642.22 1731.61 2651.3 1731.27 2650.9 1726.78 2642.09 1728.54"/><path id="_Caminho_148" data-name="&lt;Caminho&gt;" class="cls-78" d="M3113.87,1940a.82.82,0,0,1,.16-1,.57.57,0,0,1,.87.18.8.8,0,0,1-.16,1A.57.57,0,0,1,3113.87,1940Z" transform="translate(-464.78 -209.84)"/></g><polygon id="_Caminho_149" data-name="&lt;Caminho&gt;" class="cls-73" points="2684.25 2102.6 2686.14 2106.07 2682.03 2107.27 2680.47 2105.18 2680.48 2102.57 2684.25 2102.6"/><g id="_Grupo_44" data-name="&lt;Grupo&gt;"><path id="_Caminho_150" data-name="&lt;Caminho&gt;" class="cls-74" d="M3146,2314.57a2.48,2.48,0,0,0-1.53,1.59,10.23,10.23,0,0,1-3.85,4.51c-1.77,1.07-4.62,3-4,4.74l.16.66a7.73,7.73,0,0,0,5.73-1c2.68-1.79,7.16-4.89,9.55-5.67l.23-.3s-.87-4-1.45-4.68a17.43,17.43,0,0,1-1.32,1.73C3149.29,2316.28,3147.75,2314.41,3146,2314.57Z" transform="translate(-464.78 -209.84)"/><path id="_Caminho_151" data-name="&lt;Caminho&gt;" class="cls-73" d="M3152.1,2318.33l-.24.3c-2.39.78-6.87,3.88-9.55,5.67a7.73,7.73,0,0,1-5.73,1l0-.15a2.38,2.38,0,0,0,0,.26l.16.66a7.73,7.73,0,0,0,5.73-1c2.68-1.79,7.16-4.89,9.55-5.67l.23-.3-.2-.9Z" transform="translate(-464.78 -209.84)"/><path id="_Caminho_152" data-name="&lt;Caminho&gt;" class="cls-75" d="M3140.93,2320.32a2.35,2.35,0,0,1,2.35.32" transform="translate(-464.78 -209.84)"/><path id="_Caminho_153" data-name="&lt;Caminho&gt;" class="cls-75" d="M3141.71,2319.62a2.37,2.37,0,0,1,2.36.32" transform="translate(-464.78 -209.84)"/><path id="_Caminho_154" data-name="&lt;Caminho&gt;" class="cls-75" d="M3142.49,2318.92a2.37,2.37,0,0,1,2.36.32" transform="translate(-464.78 -209.84)"/><path id="_Caminho_155" data-name="&lt;Caminho&gt;" class="cls-75" d="M3143.27,2318.19a2.35,2.35,0,0,1,2.35.32" transform="translate(-464.78 -209.84)"/></g><path id="_Caminho_composto_4" data-name="&lt;Caminho composto&gt;" class="cls-90" d="M3184.58,2138.12c-1.8-2.79-4.81-8.49-4.87-15s1.13-29.28,1.13-29.28-1.12-1.08-2.07-1.84V2084l-12.31-23.34-16.7,4.71s24.15,24,24.46,44.63c.12,8.21-1,13-2.51,15.82-3.68,4.47-16.24,9.61-16.24,9.61s28.27-5.73,34.47,14.87l.79-1S3186.39,2140.9,3184.58,2138.12Zm-5.81-41.54v-2.84l.44.65S3179.05,2095.22,3178.77,2096.58Z" transform="translate(-464.78 -209.84)"/><path id="_Caminho_156" data-name="&lt;Caminho&gt;" class="cls-90" d="M3163.06,2040.49l-2.76,4.56,8.72,5.51s7.08.11,9.2,2.76C3178.22,2053.32,3170.18,2044,3163.06,2040.49Z" transform="translate(-464.78 -209.84)"/><polygon id="_Caminho_157" data-name="&lt;Caminho&gt;" class="cls-95" points="2735.25 1589.18 2360.62 2071.26 2416.28 2114.34 2789.46 1633.22 2735.25 1589.18"/><polygon id="_Caminho_158" data-name="&lt;Caminho&gt;" class="cls-96" points="2742.08 1595.83 2788.85 1633.83 2789.46 1633.05 2735.25 1589 2360.62 2071.09 2368.2 2076.95 2742.08 1595.83"/><polygon id="_Caminho_159" data-name="&lt;Caminho&gt;" class="cls-97" points="2360.62 2071.26 2338.11 2148.95 2347.55 2156.21 2416.28 2114.34 2360.62 2071.26"/><polygon id="_Caminho_160" data-name="&lt;Caminho&gt;" class="cls-98" points="2367.88 2076.95 2416.23 2114.37 2416.28 2114.34 2360.62 2071.26 2338.11 2148.95 2345.4 2154.55 2367.88 2076.95"/><polygon id="_Caminho_161" data-name="&lt;Caminho&gt;" points="2338.11 2148.95 2334.44 2165.09 2347.55 2156.21 2338.11 2148.95"/><polygon id="_Caminho_162" data-name="&lt;Caminho&gt;" class="cls-99" points="2735.25 1589.18 2745.38 1575.38 2799.26 1619.27 2789.46 1633.22 2735.25 1589.18"/><path id="_Caminho_163" data-name="&lt;Caminho&gt;" class="cls-100" d="M3069.69,1997.55s4.47,10.25,10,14.23,12.68,39.93,12.68,39.93l9.83-12.66-21.52-42.83s-5.08-2.38-6.49-1.61S3069.69,1997.55,3069.69,1997.55Z" transform="translate(-464.78 -209.84)"/><g id="_Grupo_45" data-name="&lt;Grupo&gt;"><path id="_Caminho_164" data-name="&lt;Caminho&gt;" class="cls-76" d="M3086.79,1997.3s-9.38-12.12-10.84-13.27-4.38-1.74-6.68-1.59-11.25,1.41-13,1.3a2.3,2.3,0,0,0,2.38,2.67c2,0,10.44-.71,12.52-.7,0,0,.15,9.94.65,11.41s2.5,3.22,5.69,4.52a20.67,20.67,0,0,0,4.9,1.37C3082.53,2003.11,3086.79,1997.3,3086.79,1997.3Z" transform="translate(-464.78 -209.84)"/><path id="_Caminho_165" data-name="&lt;Caminho&gt;" class="cls-76" d="M3072.75,1986s-6,.83-7.13,1-7.14,1.64-8,1.89c0,.66,1.3,2.63,4.4,1.56s10.64-1.4,10.64-1.4Z" transform="translate(-464.78 -209.84)"/><path id="_Caminho_166" data-name="&lt;Caminho&gt;" class="cls-76" d="M3072.6,1989.44s-6.34,1.68-7.72,1.84c-1.2.91-2.91,3-4.33,4,0,0,.94,2.59,5-.86a7.29,7.29,0,0,1,6.34-1.36Z" transform="translate(-464.78 -209.84)"/><path id="_Caminho_167" data-name="&lt;Caminho&gt;" class="cls-76" d="M3072.72,1992.89s-4.36,2-5.19,2.4a4.24,4.24,0,0,1-1.89,3.28,2.59,2.59,0,0,0,3-.21c1.49-1.22,4.17-3,4.17-3Z" transform="translate(-464.78 -209.84)"/></g><path id="_Caminho_168" data-name="&lt;Caminho&gt;" class="cls-78" d="M3181,2094.68s-10.77-7-16.31-13.79-10.33-13.72-10.33-13.72l-19.92-13.49s-49.83-44.35-52.47-47.62c-.28-3,4.68-6.94,4.68-6.94s22.93,17.3,29.29,21.33,21.28,4.44,26.11,14.28c15.31,9.12,22.15,2.53,30.37,18.12S3181,2094.68,3181,2094.68Z" transform="translate(-464.78 -209.84)"/><g id="_Grupo_46" data-name="&lt;Grupo&gt;"><polygon id="_Caminho_169" data-name="&lt;Caminho&gt;" class="cls-81" points="2617.66 1796.7 2614.94 1794.31 2622.87 1784.78 2626.67 1788.49 2617.66 1796.7"/><path id="_Caminho_170" data-name="&lt;Caminho&gt;" class="cls-78" d="M3086.83,1997.8a.85.85,0,0,0,1.06.57.85.85,0,1,0-1.06-.57Z" transform="translate(-464.78 -209.84)"/></g></g><g id="_Grupo_47" data-name="&lt;Grupo&gt;"><g id="_Grupo_48" data-name="&lt;Grupo&gt;" class="cls-4"><g id="_Grupo_49" data-name="&lt;Grupo&gt;"><polygon id="_Caminho_171" data-name="&lt;Caminho&gt;" class="cls-101" points="1981.01 1850.77 1981.21 1912.2 1901.46 1958.2 1901.35 1896.76 1981.01 1850.77"/></g><g id="_Grupo_50" data-name="&lt;Grupo&gt;"><polygon id="_Caminho_172" data-name="&lt;Caminho&gt;" class="cls-102" points="1901.35 1896.76 1901.46 1958.2 1829.81 1916.5 1829.61 1855.07 1901.35 1896.76"/></g><g id="_Grupo_51" data-name="&lt;Grupo&gt;"><polygon id="_Caminho_173" data-name="&lt;Caminho&gt;" class="cls-68" points="1909.29 1809.08 1981.01 1850.77 1901.35 1896.76 1829.61 1855.07 1909.29 1809.08"/></g></g><g id="_Grupo_52" data-name="&lt;Grupo&gt;" class="cls-4"><g id="_Grupo_53" data-name="&lt;Grupo&gt;"><polygon id="_Caminho_174" data-name="&lt;Caminho&gt;" class="cls-101" points="1865.63 1917.38 1865.77 1978.81 1786.08 2024.84 1785.9 1963.41 1865.63 1917.38"/></g><g id="_Grupo_54" data-name="&lt;Grupo&gt;"><polygon id="_Caminho_175" data-name="&lt;Caminho&gt;" class="cls-102" points="1785.9 1963.41 1786.08 2024.84 1642.64 1941.45 1642.5 1880.02 1785.9 1963.41"/></g><g id="_Grupo_55" data-name="&lt;Grupo&gt;"><polygon id="_Caminho_176" data-name="&lt;Caminho&gt;" class="cls-68" points="1722.18 1834.03 1865.63 1917.38 1785.9 1963.41 1642.5 1880.02 1722.18 1834.03"/></g></g><g id="_Grupo_56" data-name="&lt;Grupo&gt;" class="cls-4"><g id="_Grupo_57" data-name="&lt;Grupo&gt;"><polygon id="_Caminho_177" data-name="&lt;Caminho&gt;" class="cls-101" points="1752.74 1982.56 1752.94 2043.99 1673.2 2089.99 1673.01 2028.56 1752.74 1982.56"/></g><g id="_Grupo_58" data-name="&lt;Grupo&gt;"><polygon id="_Caminho_178" data-name="&lt;Caminho&gt;" class="cls-102" points="1673.01 2028.56 1673.2 2089.99 1485.52 1980.94 1485.3 1919.5 1673.01 2028.56"/></g><g id="_Grupo_59" data-name="&lt;Grupo&gt;"><polygon id="_Caminho_179" data-name="&lt;Caminho&gt;" class="cls-68" points="1565.05 1873.47 1752.74 1982.56 1673.01 2028.56 1485.3 1919.5 1565.05 1873.47"/></g></g></g><g id="_Grupo_60" data-name="&lt;Grupo&gt;"><path id="_Caminho_180" data-name="&lt;Caminho&gt;" class="cls-103" d="M1863.64,1966.6c19.53-.34,67.66-7.32,67.66-7.32l-1-7.11-89.29-9.65C1814.07,1950.68,1826.48,1967.24,1863.64,1966.6Z" transform="translate(-464.78 -209.84)"/><g id="_Grupo_61" data-name="&lt;Grupo&gt;"><g id="_Grupo_62" data-name="&lt;Grupo&gt;"><polygon id="_Caminho_181" data-name="&lt;Caminho&gt;" class="cls-81" points="1466.62 1750.13 1468.95 1750.08 1468.98 1742.08 1465.56 1742.34 1466.62 1750.13"/><path id="_Caminho_182" data-name="&lt;Caminho&gt;" class="cls-78" d="M1932.85,1953.83a.55.55,0,0,1-.6-.92.55.55,0,1,1,.6.92Z" transform="translate(-464.78 -209.84)"/></g><polygon id="_Caminho_183" data-name="&lt;Caminho&gt;" class="cls-104" points="1468.98 1742.08 1475.2 1742.51 1481.47 1743.67 1480.83 1745 1480.51 1745.17 1480.56 1748.94 1475.52 1750.31 1471.55 1747 1468.96 1746.88 1468.98 1742.08"/></g><polygon id="_Caminho_184" data-name="&lt;Caminho&gt;" class="cls-80" points="1399.78 1993.06 1400.3 1998.56 1414.13 1999.13 1399.78 1993.06"/><path id="_Caminho_185" data-name="&lt;Caminho&gt;" class="cls-105" d="M1851.18,1939.47c-1.07-1-2.56-3.63-4.21-4.65l-9.16,13.14,11,4.55,7.6-5.08,2.77-4.08C1858.7,1943.52,1852.76,1941,1851.18,1939.47Z" transform="translate(-464.78 -209.84)"/><path id="_Caminho_186" data-name="&lt;Caminho&gt;" class="cls-106" d="M1847.28,2045s21.89,32.94-18.55,76.15c0,0-20.54,54.93-25.77,75.53l-5.11-.21s-13.47-98,18-98.6c0,0-1.3-48.27,8.55-58.49Z" transform="translate(-464.78 -209.84)"/><path id="_Caminho_187" data-name="&lt;Caminho&gt;" class="cls-107" d="M1812.26,2042.63l4.46,15.73,28,46.4s16.48-38.77,17.34-42.07c1.31-5.05-15.08-16.79-15.08-16.79Z" transform="translate(-464.78 -209.84)"/><path id="_Caminho_188" data-name="&lt;Caminho&gt;" class="cls-108" d="M1787.86,2049.91s15-13,28.33-14.29l-8-15.94Z" transform="translate(-464.78 -209.84)"/><path id="_Caminho_189" data-name="&lt;Caminho&gt;" class="cls-103" d="M1859.66,1950.56s18.72,47.29-15.45,76.92c6.37-18.45,11.06-74.3,11.06-74.3Z" transform="translate(-464.78 -209.84)"/><path id="_Caminho_190" data-name="&lt;Caminho&gt;" class="cls-106" d="M1810.65,2028s-16.71,25.7,7.75,33.13c28.2,8.57,23,42.44,22.36,58.57-2.4,56.48,25.74,78,25.74,78l5.5,1.79s1.12-170.53-20-180.16C1813.18,2001.67,1810.65,2028,1810.65,2028Z" transform="translate(-464.78 -209.84)"/><polygon id="_Caminho_191" data-name="&lt;Caminho&gt;" class="cls-109" points="1394.27 1737.29 1386.09 1739.93 1380.43 1740.03 1376.82 1731.43 1355.03 1735.7 1341.48 1827.96 1391.89 1814.95 1397.1 1753.21 1394.27 1737.29"/><path id="_Caminho_192" data-name="&lt;Caminho&gt;" class="cls-110" d="M1850.91,1949.58a55.31,55.31,0,0,1,3.43,7.61s5.84-6.85,4.66-13.53C1859,1943.66,1858.5,1944.62,1850.91,1949.58Z" transform="translate(-464.78 -209.84)"/><path id="_Caminho_193" data-name="&lt;Caminho&gt;" class="cls-110" d="M1842.35,1941c.45,1.8,1.53,5.36,8.51,8.75a38.19,38.19,0,0,1-4.44,7s-6.08-8.89-4.83-15.55Z" transform="translate(-464.78 -209.84)"/><polygon id="_Caminho_194" data-name="&lt;Caminho&gt;" class="cls-80" points="1348.81 1996.78 1331.79 1990.43 1330.6 1995.58 1348.81 1996.78"/><path id="_Caminho_195" data-name="&lt;Caminho&gt;" class="cls-111" d="M1809.56,2031.71s-4.46-.21-3.3,6.09l24.75-13.42S1817.91,2024.91,1809.56,2031.71Z" transform="translate(-464.78 -209.84)"/><path id="_Caminho_196" data-name="&lt;Caminho&gt;" class="cls-103" d="M1811.28,2003.63l8.63-58.13,21.68-4.24,7.31,24.36s13.26,34-18.37,59c-23.21,1.82-42.67,25.34-42.67,25.34l-.08-17.26C1790.29,2026.65,1811.28,2003.63,1811.28,2003.63Z" transform="translate(-464.78 -209.84)"/><path id="_Caminho_197" data-name="&lt;Caminho&gt;" class="cls-112" d="M1835.92,1942.52s-6,1.1-7.65,1.73c.25,1.07,3.77,9.73,3.77,9.73s3.46.63,4,1.35c-.76.67-4,2.72-4,2.72s9.63,5.06,18.19,32.64c0,0,4.66-14.06-7.35-35.13C1838.71,1948.29,1835.92,1942.52,1835.92,1942.52Z" transform="translate(-464.78 -209.84)"/><path id="_Caminho_198" data-name="&lt;Caminho&gt;" class="cls-104" d="M1863.81,1935.23c-.18-5,.47-8.39-2.09-13.94-1.68-3.63-16.2,4-18.7,8.75a50.26,50.26,0,0,1,1.42,5c.22.94,1.07-.7,1.86-.21,1.65,1,2.07,4.17,3.13,5.18,1.58,1.49,6.41,3.46,9.56,3.36a6,6,0,0,0,1.69-.28C1862.77,1942.4,1864,1940.3,1863.81,1935.23Z" transform="translate(-464.78 -209.84)"/><path id="_Caminho_199" data-name="&lt;Caminho&gt;" class="cls-89" d="M1860.39,1917.83c-2.07-1.3-5-3.7-14.15-.67-11.44,3.77-1.78,21.15-1.78,21.15l1.85-1.53c.31-1.15,1.4-3.92,1.4-3.92a2.63,2.63,0,0,1-.62-.76l.16-1.67s-.09-.9,1.22-1.34c1,.18,1.75,1.25,2.27,2.25a4.64,4.64,0,0,0,.84-1.87c-.47-1.54-.9-2.88-1-3.18,0,0,0-.07,0-.1s12.2-.82,12.58-1.93C1862.82,1922.48,1861.6,1919,1860.39,1917.83Z" transform="translate(-464.78 -209.84)"/><g id="_Grupo_63" data-name="&lt;Grupo&gt;"><g id="_Grupo_64" data-name="&lt;Grupo&gt;"><polygon id="_Caminho_200" data-name="&lt;Caminho&gt;" class="cls-102" points="1403.18 1744.2 1402.98 1814.17 1475.35 1855.95 1475.55 1785.98 1403.18 1744.2"/></g><g id="_Grupo_65" data-name="&lt;Grupo&gt;"><polygon id="_Caminho_201" data-name="&lt;Caminho&gt;" class="cls-101" points="1475.55 1785.98 1475.35 1855.95 1547.26 1814.17 1547.46 1744.2 1475.55 1785.98"/></g><g id="_Grupo_66" data-name="&lt;Grupo&gt;"><polygon id="_Caminho_202" data-name="&lt;Caminho&gt;" class="cls-68" points="1475.08 1702.41 1403.18 1744.2 1475.55 1785.98 1547.46 1744.2 1475.08 1702.41"/></g></g><path id="_Caminho_203" data-name="&lt;Caminho&gt;" class="cls-103" d="M1816.71,1967.06s8.29,15.74,36.71,28.53c17.81,8,60.67-13.43,60.67-13.43l-2.19-8.19-52.74,4.82c-25-13.1-36.88-32.89-36.88-32.89Z" transform="translate(-464.78 -209.84)"/><g id="_Grupo_67" data-name="&lt;Grupo&gt;"><g id="_Grupo_68" data-name="&lt;Grupo&gt;"><polygon id="_Caminho_204" data-name="&lt;Caminho&gt;" class="cls-113" points="1449.39 1770.07 1453.94 1771.45 1466.38 1770.52 1467.63 1763.36 1452.96 1765.06 1447.57 1764.7 1449.39 1770.07"/><polygon id="_Caminho_205" data-name="&lt;Caminho&gt;" class="cls-113" points="1451.14 1766.03 1458.69 1761.77 1461.21 1763.02 1457.39 1766.51 1451.14 1766.03"/><polygon id="_Caminho_206" data-name="&lt;Caminho&gt;" class="cls-113" points="1458.69 1761.77 1462.59 1761.64 1462.83 1763.27 1461.21 1763.02 1458.69 1761.77"/></g><g id="_Grupo_69" data-name="&lt;Grupo&gt;"><polygon id="_Caminho_207" data-name="&lt;Caminho&gt;" class="cls-114" points="1449.32 1772.33 1452.03 1771.88 1450.89 1762.59 1446.94 1763.46 1449.32 1772.33"/><path id="_Caminho_208" data-name="&lt;Caminho&gt;" class="cls-115" d="M1914.89,1974.81a.65.65,0,0,1-.91-.06.65.65,0,0,1,1-.85A.65.65,0,0,1,1914.89,1974.81Z" transform="translate(-464.78 -209.84)"/></g></g></g><path id="_Caminho_209" data-name="&lt;Caminho&gt;" class="cls-116" d="M2322.5,2081.25c-272.47,272.47-697.08,172.69-697.08,172.69L2743.15,2523.8C2334.82,2398.2,2322.5,2081.25,2322.5,2081.25Z" transform="translate(-464.78 -209.84)"/><g id="_Grupo_70" data-name="&lt;Grupo&gt;"><g id="_Grupo_71" data-name="&lt;Grupo&gt;"><path id="_Caminho_210" data-name="&lt;Caminho&gt;" class="cls-106" d="M3255,1411.08s-12.9,29.48-12,47.18,26.36,18.61,31.33,2.94,2.58-29.48,4.42-37.4,5.9-7.93-.73-20.83S3255,1411.08,3255,1411.08Z" transform="translate(-464.78 -209.84)"/><path id="_Caminho_211" data-name="&lt;Caminho&gt;" class="cls-106" d="M3362.24,1333.1s14.37,23.69,15.51,38.79-20.69,18.45-26.71,5.67-5.46-24.73-7.92-31.26-6-6.12-1.65-17.73S3362.24,1333.1,3362.24,1333.1Z" transform="translate(-464.78 -209.84)"/><path id="_Caminho_212" data-name="&lt;Caminho&gt;" class="cls-22" d="M3207.71,750.39s67.39-51.3,81.76-63.71c24.16-8.49,59.33-14.92,59.33-14.92s80.95,7.45,87.48,36.18S3450.65,957.4,3450,984.18c0,0-160.65-3.27-204.4-17Z" transform="translate(-464.78 -209.84)"/><path id="_Caminho_213" data-name="&lt;Caminho&gt;" class="cls-106" d="M3246.89,1008.56s2.74,273.1,8,403.71c0,0,21.65,8.14,29.49-6.66,0,0,75.14-360.32,84.59-446.6Z" transform="translate(-464.78 -209.84)"/><path id="_Caminho_214" data-name="&lt;Caminho&gt;" class="cls-106" d="M3342.67,1039.91,3340.5,1332l21.33,1.36s74.88-255.12,77.5-363.09l-110.46-15.68Z" transform="translate(-464.78 -209.84)"/><polygon id="_Caminho_215" data-name="&lt;Caminho&gt;" class="cls-104" points="2884.32 471.6 2867.01 507.91 2825.18 480.16 2821.26 429.16 2883.07 431.19 2884.32 471.6"/><path id="_Caminho_216" data-name="&lt;Caminho&gt;" class="cls-103" d="M3348.8,671.76s20.21,10.71,26.09,34.87,21.55,293.87,28.74,321.3c0,0,31.34-.65,41.79-22.85s18.94-209.63-9.14-297.14C3424.52,668.76,3379.49,659.35,3348.8,671.76Z" transform="translate(-464.78 -209.84)"/><path id="_Caminho_217" data-name="&lt;Caminho&gt;" class="cls-103" d="M3289.47,686.68s-77.93,37.29-85.54,55.42c-14.2,33.86,23.37,219.22,37.09,273.42,21.55,18.94,85.55,40.49,116.24,24.82,0,0,22.2-102.53,9.14-165.22S3289.47,686.68,3289.47,686.68Z" transform="translate(-464.78 -209.84)"/><path id="_Caminho_218" data-name="&lt;Caminho&gt;" class="cls-103" d="M3203.08,744.57s-11.67,7.8,13.34,157c10.45,25.25,71.4,43.1,71.4,43.1l3.92-30.48s-29.72-30.91-36.19-39.61C3253.86,852.37,3260.55,740.22,3203.08,744.57Z" transform="translate(-464.78 -209.84)"/><path id="_Caminho_219" data-name="&lt;Caminho&gt;" class="cls-103" d="M3437.58,716s21.34,128.87,20.9,208.11l-9.52,7Z" transform="translate(-464.78 -209.84)"/><g id="_Grupo_72" data-name="&lt;Grupo&gt;"><path id="_Caminho_220" data-name="&lt;Caminho&gt;" class="cls-117" d="M3349.48,632.35s3.17-13.43,6.71-15.52,8.56.85,7.8,6-3.59,13.72-3.95,15.87-3.4,12.65-10.83,9.54S3349.48,632.35,3349.48,632.35Z" transform="translate(-464.78 -209.84)"/><path id="_Caminho_221" data-name="&lt;Caminho&gt;" class="cls-117" d="M3283,631.68s-9.87-4.64-13.76-.16-.29,11.28,1.11,17.07,10.28,16.14,15.46,10.6S3283,631.68,3283,631.68Z" transform="translate(-464.78 -209.84)"/><path id="_Caminho_222" data-name="&lt;Caminho&gt;" class="cls-118" d="M3347.66,599s4.67,22.12,3.53,36.27-2.13,27.4-8.49,35.5-15.74,15.68-30.63,14.6-29.53-11.13-32.82-34.87-8.5-46.87,7.28-57.4S3332.63,578.41,3347.66,599Z" transform="translate(-464.78 -209.84)"/><path id="_Caminho_223" data-name="&lt;Caminho&gt;" class="cls-119" d="M3280.24,615.93s-.24,17.12-.17,18.12l-4.35.35a99.86,99.86,0,0,1-5.91-22c-1.5-11.29.05-20.34,11-29.25S3292.45,567.65,3303,565s34.59-6.56,47,16.39,4.7,36,4.7,36l-3.45,10.3-1.77.31s-2.14-10.42-4-15.39-9-5.35-12.06-15.43c-2.35-3.47-19.71,9.57-38.19-.31-5-2.94-14.87,3.09-14.67,9A74.34,74.34,0,0,1,3280.24,615.93Z" transform="translate(-464.78 -209.84)"/></g></g><g id="_Grupo_73" data-name="&lt;Grupo&gt;"><path id="_Caminho_224" data-name="&lt;Caminho&gt;" class="cls-118" d="M3304.67,938.23s9.75,8.67,15.75-1.87c2.82-5-11.82-14.93-15.75-17.83s-13.48,1-17.63,3.73-8.29,19.28-4.77,27.78,14,15.14,18.73,19.91c9.68,2.07,19.21-1.87,19.21-1.87s15.76-13.27,18.46-14.51c.62-2.08-5.39-9.75-12.86-7.05s-14.53,11.26-14.53,11.26-5-11.68-9.93-13.75C3299.69,940.92,3304.67,938.23,3304.67,938.23Z" transform="translate(-464.78 -209.84)"/><polygon id="_Caminho_225" data-name="&lt;Caminho&gt;" class="cls-22" points="3016.59 747.8 2832.6 747.8 2850.23 706.54 2990.48 706.54 3016.59 747.8"/><rect id="_Caminho_226" data-name="&lt;Caminho&gt;" class="cls-11" x="2832.6" y="747.8" width="183.99" height="3.62"/><path id="_Caminho_227" data-name="&lt;Caminho&gt;" class="cls-118" d="M3305.42,938.82c2.4,1.77,10,6.33,15-2.46,1.8-3.16-3.51-8.37-8.62-12.48Z" transform="translate(-464.78 -209.84)"/><path id="_Caminho_228" data-name="&lt;Caminho&gt;" class="cls-118" d="M3338.67,953.57c.62-2.08-5.39-9.75-12.86-7.05-6.91,2.49-13.47,10-14.4,11.12H3333A47,47,0,0,1,3338.67,953.57Z" transform="translate(-464.78 -209.84)"/><polygon id="_Caminho_229" data-name="&lt;Caminho&gt;" class="cls-118" points="2846.63 747.8 2843.32 751.42 2863.68 751.42 2868.35 747.8 2846.63 747.8"/></g><path id="_Caminho_230" data-name="&lt;Caminho&gt;" class="cls-120" d="M3238.66,765.19s19.12,26.18,16.75,107.09l45.2,45.23s-25.91-31.26-31-58.48-6.13-79.93-31-94.88" transform="translate(-464.78 -209.84)"/></g><g id="_Grupo_74" data-name="&lt;Grupo&gt;"><g id="_Grupo_75" data-name="&lt;Grupo&gt;"><path id="_Caminho_231" data-name="&lt;Caminho&gt;" class="cls-106" d="M3882,2228.2s-.23,15.73-5.23,21.93c0,0-10.76-2.29-13.22-2.68l-1.59-6.94a27.54,27.54,0,0,0-8.28-1.29c-4.12.11-39.92,3-51.07-7.13,0,0-1.45-2.06.8-2.85C3807.74,2227.73,3882,2228.2,3882,2228.2Z" transform="translate(-464.78 -209.84)"/></g><g id="_Grupo_76" data-name="&lt;Grupo&gt;"><path id="_Caminho_232" data-name="&lt;Caminho&gt;" class="cls-106" d="M4001,2183.36s-.23,15.74-5.23,21.94c0,0-10.76-2.29-13.21-2.68l-1.59-6.94a27.64,27.64,0,0,0-8.29-1.29c-4.12.11-39.91,3-51.07-7.13,0,0-1.45-2.07.81-2.86C3926.72,2182.89,4001,2183.36,4001,2183.36Z" transform="translate(-464.78 -209.84)"/></g><path id="_Caminho_233" data-name="&lt;Caminho&gt;" class="cls-106" d="M3783.86,1703.56s12.33,190.8,26.31,280.43,31.5,248.36,31.5,248.36h40s14-208.88,13.16-278,46-144.74,13.16-250.83Z" transform="translate(-464.78 -209.84)"/><path id="_Caminho_234" data-name="&lt;Caminho&gt;" class="cls-106" d="M3896.52,1786.9S3923.94,1922,3936,1968s27.51,218.46,27.51,218.46l37.18,2.89s12.06-228.07,12.06-282.89,19.74-167.77-12.06-223.69S3896.52,1786.9,3896.52,1786.9Z" transform="translate(-464.78 -209.84)"/><path id="_Caminho_235" data-name="&lt;Caminho&gt;" class="cls-103" d="M3815.38,1504l-41.12,11.51-38.11,3-17.26,16.54s9.32,37.44,18.09,58.82,96.5,23.58,96.5,23.58Z" transform="translate(-464.78 -209.84)"/><g id="_Grupo_77" data-name="&lt;Grupo&gt;"><polygon id="_Caminho_236" data-name="&lt;Caminho&gt;" class="cls-121" points="3207.12 1204.95 3266.06 1151.22 3334.04 1250.45 3269.89 1303.92 3207.12 1204.95"/><polygon id="_Caminho_237" data-name="&lt;Caminho&gt;" class="cls-21" points="3223.29 1156.99 3187.11 1200.3 3269.89 1303.92 3286.89 1258.42 3223.29 1156.99"/></g><path id="_Caminho_238" data-name="&lt;Caminho&gt;" class="cls-118" d="M3706,1472.75s-4.39,21.93,0,31.25,12.88,31.09,12.88,31.09l17.26-16.54s-4.38-17-8.21-22.5S3706,1472.75,3706,1472.75Z" transform="translate(-464.78 -209.84)"/><path id="_Caminho_239" data-name="&lt;Caminho&gt;" class="cls-103" d="M3808.53,1368.86s69.08-41.12,92.93-53.46,69.9-11.51,69.9-11.51,45.23,10.69,55.92,23.85,17.27,110.2,17.27,149.67-27.14,101.15-27.14,133.23,9.87,105.26,9.87,105.26-73.19,64.15-153.78,47.7-102-56.75-102-56.75,19.74-78.12,19.74-115.95-4.93-138.16-4.93-166.12S3795.18,1376.76,3808.53,1368.86Z" transform="translate(-464.78 -209.84)"/><path id="_Caminho_240" data-name="&lt;Caminho&gt;" class="cls-118" d="M3858.84,1191.58s-5.91,45,0,71.27c6.23,27.69,19.38,25.86,19.38,25.86s51.41-3.21,52.17-34.63C3932,1187.26,3858.84,1191.58,3858.84,1191.58Z" transform="translate(-464.78 -209.84)"/><path id="_Caminho_241" data-name="&lt;Caminho&gt;" class="cls-118" d="M3878.22,1282.32s13.45,18.52,15.09,37.44l66-14.84,7.71-50.56-63.74-16Z" transform="translate(-464.78 -209.84)"/><path id="_Caminho_242" data-name="&lt;Caminho&gt;" class="cls-119" d="M3913.87,1285s33.79,3.33,48.59-4.07c15.63-8.64,39.06-63.74,32.07-89.37-8.76-32.14-23.84-51.95-63-51.12-39.88.85-67.78-.73-72.72,51.12,6.39,10.17,25.32,24.54,30.93,28.24s6.07,15.56,6.9,25.6C3899.16,1275.36,3913.87,1285,3913.87,1285Z" transform="translate(-464.78 -209.84)"/><path id="_Caminho_243" data-name="&lt;Caminho&gt;" class="cls-103" d="M4030.28,1333.86s31.54,124.64,42.23,162.46-66.61,134-66.61,134Z" transform="translate(-464.78 -209.84)"/></g><ellipse id="_Caminho_244" data-name="&lt;Caminho&gt;" class="cls-22" cx="2890.17" cy="309.17" rx="75.53" ry="13.07" transform="translate(-480.93 143.89) rotate(-6.98)"/><ellipse id="_Caminho_245" data-name="&lt;Caminho&gt;" class="cls-22" cx="2760.46" cy="337" rx="27.6" ry="7.58" transform="translate(-410.3 768.56) rotate(-20.29)"/></g></g></svg>