<svg xmlns="http://www.w3.org/2000/svg" xmlns:xlink="http://www.w3.org/1999/xlink" viewBox="0 0 1279.62 443.86"><defs><style>.cls-1,.cls-13,.cls-2{fill:none;}.cls-1,.cls-10,.cls-11,.cls-12,.cls-13,.cls-2,.cls-3,.cls-4,.cls-5,.cls-6,.cls-8,.cls-9{stroke:#ccc;}.cls-1,.cls-10,.cls-11,.cls-12,.cls-13,.cls-14,.cls-17,.cls-2,.cls-3,.cls-4,.cls-5,.cls-6,.cls-8,.cls-9{stroke-miterlimit:10;}.cls-1,.cls-3,.cls-5{stroke-width:2px;}.cls-12,.cls-14,.cls-17,.cls-3,.cls-4,.cls-7,.cls-8{fill:#e6e6e6;}.cls-5,.cls-6{fill:#fff;}.cls-8{stroke-width:3px;}.cls-9{fill:#f2f2f2;}.cls-10,.cls-11{fill:#ccc;}.cls-11,.cls-12,.cls-13,.cls-14{stroke-width:0.5px;}.cls-14,.cls-17{stroke:#e6e6e6;}.cls-15{fill:url(#Gradiente_sem_nome_9);}.cls-16{fill:url(#Gradiente_sem_nome_9-2);}</style><linearGradient id="Gradiente_sem_nome_9" x1="1130.5" y1="-25.7" x2="1130.66" y2="-19.27" gradientTransform="matrix(-0.99, -0.1, -0.1, 0.99, 1702.03, 526.4)" gradientUnits="userSpaceOnUse"><stop offset="0.26" stop-color="#e6e6e6" stop-opacity="0"/><stop offset="0.38" stop-color="#e6e6e6" stop-opacity="0.22"/><stop offset="0.54" stop-color="#e6e6e6" stop-opacity="0.49"/><stop offset="0.69" stop-color="#e6e6e6" stop-opacity="0.71"/><stop offset="0.82" stop-color="#e6e6e6" stop-opacity="0.87"/><stop offset="0.93" stop-color="#e6e6e6" stop-opacity="0.96"/><stop offset="1" stop-color="#e6e6e6"/></linearGradient><linearGradient id="Gradiente_sem_nome_9-2" x1="814.03" y1="902.59" x2="814.19" y2="909.02" gradientTransform="matrix(0.99, 0.1, 0.1, -0.99, -321.87, 1208.69)" xlink:href="#Gradiente_sem_nome_9"/></defs><title>Predios</title><g id="Desenho"><rect class="cls-1" x="463.46" y="274.84" width="66.67" height="168.03"/><rect class="cls-1" x="415.46" y="263.25" width="43.33" height="179.61"/><rect class="cls-2" x="5.38" y="197.91" width="112.74" height="220.26"/><rect class="cls-2" x="13.27" y="418.17" width="97.65" height="24.69"/><rect class="cls-1" x="1004.96" y="137.25" width="9" height="101.58"/><rect class="cls-1" x="1194.17" y="386.02" width="84.46" height="56.85"/><rect class="cls-1" x="1138.83" y="247.77" width="55.34" height="195.09"/><rect class="cls-1" x="1040.93" y="204.35" width="97.9" height="238.51"/><rect class="cls-1" x="983.89" y="238.83" width="51.08" height="204.03"/><rect class="cls-1" x="897.58" y="392.5" width="77.66" height="40.44"/><path class="cls-1" d="M919.17,185h34.48a21.59,21.59,0,0,1,21.59,21.59v168a0,0,0,0,1,0,0H897.58a0,0,0,0,1,0,0v-168A21.59,21.59,0,0,1,919.17,185Z"/><rect class="cls-3" x="905.57" y="374.62" width="62" height="17.88"/><rect class="cls-4" x="906.31" y="432.93" width="62" height="9.93"/><rect class="cls-1" x="827.52" y="235.5" width="54.35" height="207.36"/><rect class="cls-5" x="837.22" y="204.35" width="34.85" height="238.51"/><rect class="cls-5" x="986.38" y="204.35" width="46.11" height="22.97"/><rect class="cls-1" x="725.81" y="204.35" width="77.23" height="140.96"/><rect class="cls-1" x="635.79" y="308.11" width="44.66" height="134.76"/><rect class="cls-1" x="648.58" y="345.32" width="167.49" height="97.55"/><rect class="cls-1" x="648.58" y="314.74" width="63.57" height="30.58"/><rect class="cls-1" x="638.87" y="286.51" width="39.33" height="21.59"/><rect class="cls-1" x="1194.17" y="381.93" width="84.46" height="4.09"/><rect class="cls-1" x="601.79" y="292.59" width="26" height="150.28"/><rect class="cls-1" x="566.79" y="255.59" width="35" height="187.28"/><path class="cls-1" d="M566.79,279.83h0a0,0,0,0,1,0,0v163a0,0,0,0,1,0,0h-27a0,0,0,0,1,0,0v-136A27,27,0,0,1,566.79,279.83Z"/><polygon class="cls-1" points="642.79 286.51 658.65 171.59 675.2 286.51 642.79 286.51"/><polygon class="cls-1" points="420.92 263.25 436.78 148.32 453.32 263.25 420.92 263.25"/><line class="cls-3" x1="658.65" y1="171.59" x2="658.65" y2="112.59"/><line class="cls-3" x1="988.46" y1="227.32" x2="986.38" y2="238.83"/><line class="cls-3" x1="1032.48" y1="238.83" x2="1030.46" y2="227.32"/><line class="cls-3" x1="1009.46" y1="238.57" x2="1009.46" y2="107.59"/><rect class="cls-1" x="132.71" y="178.59" width="277.08" height="264.28"/><line class="cls-3" x1="436.78" y1="148.33" x2="436.78" y2="99.59"/><polygon class="cls-1" points="376.79 178.59 385.4 116.21 394.38 178.59 376.79 178.59"/><line class="cls-3" x1="385.4" y1="116.21" x2="385.4" y2="89.76"/><rect class="cls-2" x="9.89" y="406.59" width="104.4" height="6.13"/><rect class="cls-2" x="11.71" y="412.71" width="100.77" height="5.46"/><rect class="cls-6" x="1.39" y="193.59" width="120.9" height="4.33"/><rect class="cls-6" x="0.5" y="189.26" width="122.5" height="4.33"/><rect class="cls-6" x="11.1" y="191.42" width="102" height="4.33"/><rect class="cls-6" x="8.24" y="187.1" width="107.72" height="4.33"/><rect class="cls-2" x="13.27" y="195.75" width="97.65" height="210.84"/><rect class="cls-1" x="176.12" y="99.59" width="92.5" height="79"/></g><g id="Detalhes"><rect class="cls-7" x="132.71" y="415.44" width="277.08" height="27.42"/><rect class="cls-4" x="393.29" y="209.87" width="16.25" height="205.57"/><rect class="cls-4" x="377.05" y="226.19" width="16.25" height="189.25"/><rect class="cls-4" x="360.83" y="242.93" width="16.25" height="172.51"/><rect class="cls-4" x="344.65" y="258.79" width="16.25" height="156.65"/><rect class="cls-4" x="328.4" y="276.07" width="16.25" height="139.37"/><rect class="cls-4" x="312.19" y="292.28" width="16.25" height="123.16"/><rect class="cls-4" x="295.91" y="308.04" width="16.25" height="107.4"/><rect class="cls-4" x="279.66" y="340.2" width="16.25" height="75.24"/><rect class="cls-4" x="246.28" y="340.2" width="16.25" height="75.24"/><rect class="cls-4" x="263.09" y="373.55" width="16.07" height="41.89"/><rect class="cls-4" x="230.06" y="308.04" width="16.25" height="107.4"/><rect class="cls-4" x="213.82" y="292.28" width="16.25" height="123.16"/><rect class="cls-4" x="197.57" y="276.07" width="16.25" height="139.37"/><rect class="cls-4" x="181.35" y="258.79" width="16.25" height="156.65"/><rect class="cls-4" x="165.17" y="242.93" width="16.25" height="172.51"/><rect class="cls-4" x="148.92" y="226.19" width="16.25" height="189.25"/><rect class="cls-4" x="132.71" y="209.87" width="16.25" height="205.57"/><rect class="cls-4" x="132.71" y="178.59" width="277.08" height="15"/><rect class="cls-3" x="176.12" y="99.59" width="92.5" height="39.5"/><line class="cls-3" x1="176.12" y1="144.67" x2="268.62" y2="144.67"/><line class="cls-3" x1="176.12" y1="147.77" x2="268.62" y2="147.77"/><line class="cls-3" x1="176.12" y1="153.48" x2="268.62" y2="153.48"/><line class="cls-3" x1="176.12" y1="156.58" x2="268.62" y2="156.58"/><line class="cls-3" x1="176.12" y1="161.94" x2="268.62" y2="161.94"/><line class="cls-3" x1="176.12" y1="165.04" x2="268.62" y2="165.04"/><line class="cls-3" x1="176.12" y1="170.15" x2="268.62" y2="170.15"/><line class="cls-3" x1="176.12" y1="173.25" x2="268.62" y2="173.25"/><line class="cls-4" x1="132.71" y1="373.55" x2="409.79" y2="373.55"/><line class="cls-4" x1="132.59" y1="389.05" x2="409.67" y2="389.05"/><line class="cls-4" x1="132.72" y1="404.77" x2="409.8" y2="404.77"/><line class="cls-4" x1="279.66" y1="356.41" x2="409.8" y2="356.41"/><line class="cls-4" x1="132.53" y1="356.41" x2="262.67" y2="356.41"/><line class="cls-4" x1="132.53" y1="340.2" x2="262.67" y2="340.2"/><line class="cls-4" x1="132.53" y1="323.99" x2="246.42" y2="323.99"/><line class="cls-4" x1="132.53" y1="308.04" x2="246.42" y2="308.04"/><line class="cls-4" x1="132.65" y1="292.28" x2="230.18" y2="292.28"/><line class="cls-4" x1="132.65" y1="276.07" x2="197.6" y2="276.07"/><line class="cls-4" x1="132.65" y1="258.79" x2="197.6" y2="258.79"/><line class="cls-4" x1="132.58" y1="242.93" x2="181.42" y2="242.93"/><line class="cls-4" x1="132.58" y1="226.19" x2="165.17" y2="226.19"/><line class="cls-4" x1="312.16" y1="292.28" x2="409.7" y2="292.28"/><line class="cls-4" x1="344.6" y1="276.07" x2="409.55" y2="276.07"/><line class="cls-4" x1="344.31" y1="258.79" x2="409.26" y2="258.79"/><line class="cls-4" x1="360.93" y1="242.93" x2="409.76" y2="242.93"/><line class="cls-4" x1="377" y1="226.19" x2="409.59" y2="226.19"/><line class="cls-4" x1="295.82" y1="323.99" x2="409.72" y2="323.99"/><line class="cls-4" x1="295.82" y1="308.04" x2="409.72" y2="308.04"/><line class="cls-4" x1="279.69" y1="340.2" x2="409.83" y2="340.2"/><line class="cls-4" x1="152.54" y1="178.59" x2="152.54" y2="156.58"/><line class="cls-3" x1="415.72" y1="264.25" x2="459.05" y2="264.25"/><line class="cls-3" x1="415.72" y1="269.59" x2="459.05" y2="269.59"/><line class="cls-3" x1="415.46" y1="276.92" x2="458.79" y2="276.92"/><line class="cls-3" x1="415.46" y1="284.25" x2="458.79" y2="284.25"/><line class="cls-3" x1="415.59" y1="291.28" x2="458.92" y2="291.28"/><line class="cls-3" x1="415.33" y1="298.61" x2="458.66" y2="298.61"/><line class="cls-3" x1="415.33" y1="305.95" x2="458.66" y2="305.95"/><line class="cls-3" x1="415.09" y1="313.28" x2="458.42" y2="313.28"/><line class="cls-3" x1="414.83" y1="320.61" x2="458.16" y2="320.61"/><line class="cls-3" x1="414.83" y1="327.95" x2="458.16" y2="327.95"/><line class="cls-3" x1="415.27" y1="320.61" x2="458.6" y2="320.61"/><line class="cls-3" x1="415.01" y1="327.95" x2="458.34" y2="327.95"/><line class="cls-3" x1="415.01" y1="335.28" x2="458.34" y2="335.28"/><line class="cls-3" x1="415.14" y1="342.31" x2="458.47" y2="342.31"/><line class="cls-3" x1="414.88" y1="349.64" x2="458.21" y2="349.64"/><line class="cls-3" x1="414.88" y1="356.97" x2="458.21" y2="356.97"/><line class="cls-3" x1="414.64" y1="364.31" x2="457.97" y2="364.31"/><line class="cls-3" x1="415.38" y1="371.64" x2="458.71" y2="371.64"/><line class="cls-3" x1="415.38" y1="378.97" x2="458.71" y2="378.97"/><line class="cls-3" x1="415.46" y1="385.8" x2="458.79" y2="385.8"/><line class="cls-3" x1="415.59" y1="392.83" x2="458.92" y2="392.83"/><line class="cls-3" x1="415.33" y1="400.16" x2="458.66" y2="400.16"/><line class="cls-3" x1="415.33" y1="407.5" x2="458.66" y2="407.5"/><line class="cls-3" x1="415.09" y1="414.83" x2="458.42" y2="414.83"/><line class="cls-3" x1="415.83" y1="422.16" x2="459.16" y2="422.16"/><line class="cls-3" x1="415.83" y1="429.5" x2="459.16" y2="429.5"/><line class="cls-3" x1="415.83" y1="436.83" x2="459.16" y2="436.83"/><line class="cls-4" x1="463.87" y1="285.06" x2="530.12" y2="285.06"/><line class="cls-4" x1="464.36" y1="278.83" x2="530.61" y2="278.83"/><line class="cls-4" x1="464" y1="292.08" x2="530.12" y2="292.08"/><line class="cls-4" x1="464.09" y1="299.42" x2="529.37" y2="299.42"/><line class="cls-4" x1="464.09" y1="306.75" x2="529.37" y2="306.75"/><line class="cls-4" x1="463.73" y1="314.08" x2="530.12" y2="314.08"/><line class="cls-4" x1="498.65" y1="278.83" x2="498.65" y2="437.64"/><line class="cls-4" x1="504.87" y1="278.83" x2="504.87" y2="437.64"/><line class="cls-4" x1="491.62" y1="278.83" x2="491.62" y2="437.64"/><line class="cls-4" x1="517.65" y1="278.83" x2="517.65" y2="437.64"/><line class="cls-4" x1="523.88" y1="278.83" x2="523.88" y2="437.64"/><line class="cls-4" x1="510.62" y1="278.83" x2="510.62" y2="437.64"/><line class="cls-4" x1="484.29" y1="278.83" x2="484.29" y2="437.64"/><line class="cls-4" x1="477.62" y1="278.83" x2="477.62" y2="437.64"/><line class="cls-4" x1="469.62" y1="278.83" x2="469.62" y2="437.64"/><line class="cls-4" x1="463.34" y1="321.42" x2="528.62" y2="321.42"/><line class="cls-4" x1="464.34" y1="328.75" x2="529.62" y2="328.75"/><line class="cls-4" x1="464.01" y1="321.42" x2="529.29" y2="321.42"/><line class="cls-4" x1="464.61" y1="328.75" x2="529.89" y2="328.75"/><line class="cls-4" x1="464.61" y1="336.08" x2="529.89" y2="336.08"/><line class="cls-4" x1="463.81" y1="343.11" x2="529.09" y2="343.11"/><line class="cls-4" x1="464.42" y1="350.44" x2="529.7" y2="350.44"/><line class="cls-4" x1="464.42" y1="357.78" x2="529.7" y2="357.78"/><line class="cls-4" x1="464.06" y1="365.11" x2="529.34" y2="365.11"/><line class="cls-4" x1="464.17" y1="372.44" x2="529.45" y2="372.44"/><line class="cls-4" x1="464.17" y1="379.78" x2="529.45" y2="379.78"/><line class="cls-4" x1="464.28" y1="386.61" x2="529.57" y2="386.61"/><line class="cls-4" x1="464.48" y1="393.64" x2="529.76" y2="393.64"/><line class="cls-4" x1="464.09" y1="400.97" x2="529.37" y2="400.97"/><line class="cls-4" x1="464.09" y1="408.3" x2="529.37" y2="408.3"/><line class="cls-4" x1="463.73" y1="415.64" x2="530.12" y2="415.64"/><line class="cls-4" x1="463.84" y1="422.97" x2="529.12" y2="422.97"/><line class="cls-4" x1="463.84" y1="430.3" x2="529.12" y2="430.3"/><line class="cls-4" x1="463.84" y1="437.64" x2="529.12" y2="437.64"/><rect class="cls-4" x="469.62" y="278.83" width="8" height="6.23"/><rect class="cls-4" x="464.09" y="292.28" width="13.53" height="7.14"/><rect class="cls-4" x="476.95" y="299.42" width="7.33" height="22"/><rect class="cls-4" x="469.62" y="314.08" width="8" height="14.67"/><rect class="cls-4" x="484.29" y="285.06" width="14.36" height="7.03"/><rect class="cls-4" x="491.62" y="278.83" width="7.03" height="6.23"/><rect class="cls-4" x="504.87" y="278.83" width="5.75" height="6.23"/><rect class="cls-4" x="510.62" y="285.06" width="7.03" height="7.22"/><rect class="cls-4" x="498.65" y="299.42" width="6.23" height="14.67"/><rect class="cls-4" x="491.47" y="314.08" width="13.41" height="7.33"/><rect class="cls-4" x="517.65" y="306.75" width="6.23" height="7.33"/><rect class="cls-4" x="510.62" y="321.42" width="13.25" height="7.77"/><rect class="cls-4" x="510.62" y="329.19" width="7.03" height="6.9"/><rect class="cls-4" x="523.88" y="336.08" width="6.73" height="14.36"/><rect class="cls-4" x="517.65" y="350.44" width="6.23" height="7.33"/><rect class="cls-4" x="491.47" y="336.08" width="13.41" height="14.36"/><rect class="cls-4" x="476.95" y="343.26" width="7.33" height="21.85"/><rect class="cls-4" x="484.29" y="357.78" width="7.33" height="7.33"/><rect class="cls-4" x="469.62" y="379.78" width="8" height="6.83"/><rect class="cls-4" x="463.34" y="386.61" width="6.29" height="7.03"/><rect class="cls-4" x="476.95" y="400.97" width="7.33" height="14.67"/><rect class="cls-4" x="484.29" y="393.64" width="7.18" height="7.33"/><rect class="cls-4" x="469.62" y="415.64" width="8" height="7.33"/><rect class="cls-4" x="491.62" y="408.3" width="13.25" height="7.14"/><rect class="cls-4" x="491.62" y="415.44" width="7.03" height="7.53"/><rect class="cls-4" x="484.13" y="430.3" width="7.33" height="7.33"/><rect class="cls-4" x="504.87" y="422.97" width="5.75" height="7.33"/><rect class="cls-4" x="510.62" y="393.64" width="7.33" height="7.33"/><rect class="cls-4" x="523.88" y="379.78" width="5.69" height="6.83"/><rect class="cls-4" x="498.65" y="365.11" width="6.23" height="21.5"/><rect class="cls-4" x="491.47" y="379.78" width="7.18" height="6.83"/><rect class="cls-4" x="491.47" y="328.75" width="7.18" height="7.18"/><rect class="cls-4" x="136.08" y="186.87" width="9.5" height="3.88"/><rect class="cls-4" x="152.3" y="186.87" width="9.5" height="3.88"/><rect class="cls-4" x="168.54" y="186.57" width="9.5" height="3.88"/><rect class="cls-4" x="184.73" y="186.57" width="9.5" height="3.88"/><rect class="cls-4" x="200.94" y="186.57" width="9.5" height="3.88"/><rect class="cls-4" x="217.25" y="186.72" width="9.5" height="3.88"/><rect class="cls-4" x="233.46" y="186.72" width="9.5" height="3.88"/><rect class="cls-4" x="249.71" y="186.42" width="9.5" height="3.88"/><rect class="cls-4" x="265.89" y="186.42" width="9.5" height="3.88"/><rect class="cls-4" x="282.11" y="186.42" width="9.5" height="3.88"/><rect class="cls-4" x="298.98" y="186.15" width="9.5" height="3.88"/><rect class="cls-4" x="315.29" y="186.3" width="9.5" height="3.88"/><rect class="cls-4" x="331.5" y="186.3" width="9.5" height="3.88"/><rect class="cls-4" x="347.75" y="185.99" width="9.5" height="3.88"/><rect class="cls-4" x="363.93" y="185.99" width="9.5" height="3.88"/><rect class="cls-4" x="380.15" y="185.99" width="9.5" height="3.88"/><rect class="cls-4" x="396.67" y="185.99" width="9.5" height="3.88"/><rect class="cls-4" x="419.73" y="244.47" width="34.15" height="3.08"/><rect class="cls-4" x="641.45" y="268.05" width="34.15" height="3.08"/><rect class="cls-4" x="645.78" y="241.62" width="26.42" height="3.08"/><rect class="cls-4" x="649.6" y="204.07" width="18.79" height="3.08"/><rect class="cls-4" x="426.38" y="208.33" width="21.13" height="3.08"/><rect class="cls-4" x="431.07" y="171.2" width="11.34" height="3.08"/><rect class="cls-4" x="379.91" y="133.92" width="11.34" height="3.08"/><rect class="cls-4" x="382.07" y="91.84" width="6.65" height="3.08"/><rect class="cls-4" x="433.46" y="103.36" width="6.65" height="4.75"/><rect class="cls-4" x="654.5" y="121.58" width="8.3" height="6.65"/><rect class="cls-4" x="377.64" y="149.09" width="15.89" height="3.08"/><rect class="cls-4" x="375.52" y="165.5" width="20.12" height="3.08"/><polyline class="cls-2" points="420.92 263.25 436.81 246.01 453.32 263.25"/><polyline class="cls-2" points="423.3 246.01 436.95 209.87 450.84 246.01"/><polyline class="cls-2" points="428.29 209.87 436.75 173.74 445.64 209.87"/><line class="cls-4" x1="422.11" y1="254.63" x2="452.08" y2="254.63"/><line class="cls-4" x1="425.79" y1="227.94" x2="448.24" y2="227.94"/><path class="cls-4" d="M446.24,344.22" transform="translate(-15.46 -152.41)"/><line class="cls-4" x1="443.04" y1="191.8" x2="430.78" y2="191.8"/><polyline class="cls-2" points="376.79 178.59 385.58 167.04 394.38 178.59"/><polyline class="cls-2" points="377.64 167.04 385.58 150.63 392.71 167.04"/><polyline class="cls-2" points="380.15 150.63 385.58 135.46 390.35 150.63"/><line class="cls-4" x1="377.6" y1="172.74" x2="393.53" y2="172.74"/><line class="cls-4" x1="379.52" y1="158.83" x2="391.53" y2="158.83"/><line class="cls-4" x1="381.69" y1="143.04" x2="388.72" y2="143.04"/><circle class="cls-4" cx="425.79" cy="227.94" r="6.86"/><ellipse class="cls-4" cx="446.94" cy="218.25" rx="3.9" ry="5.33"/><circle class="cls-4" cx="442.42" cy="191.8" r="4.25"/><ellipse class="cls-4" cx="436.78" cy="146.21" rx="3.32" ry="5.96"/><ellipse class="cls-4" cx="432.49" cy="179.21" rx="1.71" ry="4.02"/><ellipse class="cls-4" cx="379.52" cy="157.54" rx="1.38" ry="2.42"/><ellipse class="cls-4" cx="391.25" cy="154.25" rx="1.38" ry="2.42"/><ellipse class="cls-4" cx="385.4" cy="115.42" rx="1.38" ry="2.42"/><ellipse class="cls-4" cx="381.69" cy="140.02" rx="1.38" ry="2.42"/><line class="cls-4" x1="17.21" y1="195.75" x2="17.21" y2="406.59"/><line class="cls-4" x1="38.54" y1="195.75" x2="38.54" y2="406.59"/><line class="cls-4" x1="62.88" y1="195.75" x2="62.88" y2="406.59"/><line class="cls-4" x1="85.88" y1="195.75" x2="85.88" y2="406.59"/><line class="cls-4" x1="107.54" y1="195.75" x2="107.54" y2="406.59"/><path class="cls-4" d="M28,420.34h0a7,7,0,0,1,7,7v15.53a0,0,0,0,1,0,0H21a0,0,0,0,1,0,0V427.34A7,7,0,0,1,28,420.34Z"/><path class="cls-4" d="M50.79,420.34h0a7,7,0,0,1,7,7v15.53a0,0,0,0,1,0,0h-14a0,0,0,0,1,0,0V427.34A7,7,0,0,1,50.79,420.34Z"/><path class="cls-4" d="M96.79,420.34h0a7,7,0,0,1,7,7v15.53a0,0,0,0,1,0,0h-14a0,0,0,0,1,0,0V427.34A7,7,0,0,1,96.79,420.34Z"/><path class="cls-4" d="M74.29,420.34h0a7,7,0,0,1,7,7v15.53a0,0,0,0,1,0,0h-14a0,0,0,0,1,0,0V427.34A7,7,0,0,1,74.29,420.34Z"/><line class="cls-4" x1="38.04" y1="412.71" x2="38.04" y2="442.86"/><line class="cls-4" x1="41.04" y1="412.71" x2="41.04" y2="442.86"/><line class="cls-4" x1="15.71" y1="412.71" x2="15.71" y2="442.86"/><line class="cls-4" x1="18.71" y1="412.71" x2="18.71" y2="442.86"/><line class="cls-4" x1="60.6" y1="412.71" x2="60.6" y2="442.86"/><line class="cls-4" x1="63.6" y1="412.71" x2="63.6" y2="442.86"/><line class="cls-4" x1="84.04" y1="412.71" x2="84.04" y2="442.86"/><line class="cls-4" x1="87.04" y1="412.71" x2="87.04" y2="442.86"/><line class="cls-4" x1="106.04" y1="412.71" x2="106.04" y2="442.86"/><line class="cls-4" x1="109.04" y1="412.71" x2="109.04" y2="442.86"/><line class="cls-4" x1="17.21" y1="389.05" x2="107.54" y2="389.05"/><line class="cls-4" x1="17.21" y1="385.8" x2="107.54" y2="385.8"/><line class="cls-4" x1="17.43" y1="370.02" x2="107.76" y2="370.02"/><line class="cls-4" x1="17.43" y1="366.78" x2="107.76" y2="366.78"/><line class="cls-4" x1="17.43" y1="210.72" x2="107.76" y2="210.72"/><line class="cls-4" x1="17.43" y1="207.47" x2="107.76" y2="207.47"/><rect class="cls-4" x="19.43" y="390.94" width="17.2" height="13.63"/><rect class="cls-4" x="41.04" y="391.01" width="19.56" height="13.63"/><rect class="cls-4" x="65.03" y="391.01" width="18.57" height="13.63"/><rect class="cls-4" x="88.11" y="390.94" width="17.19" height="13.63"/><rect class="cls-4" x="19.44" y="371.88" width="17.2" height="12.06"/><rect class="cls-4" x="19.6" y="354.69" width="17.2" height="9.58"/><rect class="cls-4" x="19.6" y="343.06" width="17.2" height="9.58"/><rect class="cls-4" x="88.11" y="354.92" width="17.2" height="9.58"/><rect class="cls-4" x="88.11" y="343.29" width="17.2" height="9.58"/><rect class="cls-4" x="19.6" y="323.16" width="17.2" height="12.06"/><rect class="cls-4" x="19.6" y="308.25" width="17.2" height="12.06"/><rect class="cls-4" x="19.6" y="293.66" width="17.2" height="12.06"/><rect class="cls-4" x="19.6" y="270" width="17.2" height="15.44"/><rect class="cls-4" x="19.6" y="251.34" width="17.2" height="15.44"/><rect class="cls-4" x="88.38" y="269.62" width="17.2" height="15.44"/><rect class="cls-4" x="88.38" y="250.96" width="17.2" height="15.44"/><rect class="cls-4" x="42.22" y="352.65" width="17.2" height="12.06"/><rect class="cls-4" x="42.22" y="337.74" width="17.2" height="12.06"/><rect class="cls-4" x="42.22" y="323.16" width="17.2" height="12.06"/><rect class="cls-4" x="42.22" y="308.25" width="17.2" height="12.06"/><rect class="cls-4" x="42.22" y="293.34" width="17.2" height="12.06"/><rect class="cls-4" x="42.22" y="278.75" width="17.2" height="12.06"/><rect class="cls-4" x="42.22" y="264.17" width="17.2" height="12.06"/><rect class="cls-4" x="42.22" y="249.26" width="17.2" height="12.06"/><rect class="cls-4" x="42.22" y="234.68" width="17.2" height="12.06"/><rect class="cls-4" x="19.6" y="235.27" width="17.2" height="7.52"/><rect class="cls-4" x="19.6" y="197.85" width="7.52" height="7.52"/><rect class="cls-4" x="29.07" y="197.85" width="7.52" height="7.52"/><rect class="cls-4" x="42.21" y="197.85" width="7.52" height="7.52"/><rect class="cls-4" x="51.68" y="197.85" width="7.52" height="7.52"/><rect class="cls-4" x="65.88" y="197.85" width="7.52" height="7.52"/><rect class="cls-4" x="75.35" y="197.85" width="7.52" height="7.52"/><rect class="cls-4" x="88.48" y="197.85" width="7.52" height="7.52"/><rect class="cls-4" x="97.95" y="197.85" width="7.52" height="7.52"/><rect class="cls-4" x="88.11" y="235.27" width="17.2" height="7.52"/><rect class="cls-4" x="65.78" y="352.32" width="17.2" height="12.06"/><rect class="cls-4" x="65.78" y="337.42" width="17.2" height="12.06"/><rect class="cls-4" x="65.78" y="322.83" width="17.2" height="12.06"/><rect class="cls-4" x="65.78" y="307.92" width="17.2" height="12.06"/><rect class="cls-4" x="65.78" y="293.01" width="17.2" height="12.06"/><rect class="cls-4" x="65.78" y="278.43" width="17.2" height="12.06"/><rect class="cls-4" x="65.78" y="263.85" width="17.2" height="12.06"/><rect class="cls-4" x="65.78" y="248.94" width="17.2" height="12.06"/><rect class="cls-4" x="65.78" y="234.35" width="17.2" height="12.06"/><rect class="cls-4" x="88.11" y="322.99" width="17.2" height="12.06"/><rect class="cls-4" x="88.11" y="308.08" width="17.2" height="12.06"/><rect class="cls-4" x="88.11" y="293.5" width="17.2" height="12.06"/><rect class="cls-4" x="41.04" y="371.88" width="19.56" height="12.06"/><rect class="cls-4" x="65.03" y="371.88" width="18.57" height="12.06"/><rect class="cls-4" x="88.11" y="371.88" width="17.2" height="12.06"/><line class="cls-4" x1="16.88" y1="341.01" x2="38.54" y2="341.01"/><line class="cls-4" x1="16.88" y1="337.42" x2="38.54" y2="337.42"/><line class="cls-4" x1="85.96" y1="341.01" x2="107.45" y2="341.01"/><line class="cls-4" x1="85.96" y1="337.42" x2="107.45" y2="337.42"/><line class="cls-4" x1="17.78" y1="291.14" x2="38.62" y2="291.14"/><line class="cls-4" x1="17.78" y1="287.55" x2="38.62" y2="287.55"/><line class="cls-4" x1="85.88" y1="291.14" x2="107.97" y2="291.14"/><line class="cls-4" x1="85.88" y1="287.55" x2="107.97" y2="287.55"/><line class="cls-4" x1="17.47" y1="248.46" x2="38.31" y2="248.46"/><line class="cls-4" x1="17.47" y1="244.87" x2="38.31" y2="244.87"/><line class="cls-4" x1="86.23" y1="248.46" x2="107.72" y2="248.46"/><line class="cls-4" x1="86.23" y1="244.87" x2="107.72" y2="244.87"/><line class="cls-4" x1="17.75" y1="233.19" x2="38.58" y2="233.19"/><line class="cls-4" x1="17.75" y1="229.59" x2="38.58" y2="229.59"/><line class="cls-4" x1="85.5" y1="233.19" x2="107" y2="233.19"/><line class="cls-4" x1="85.5" y1="229.59" x2="107" y2="229.59"/><path class="cls-4" d="M28.2,213.09h0a8.6,8.6,0,0,1,8.6,8.6v5.65a0,0,0,0,1,0,0H19.6a0,0,0,0,1,0,0v-5.65A8.6,8.6,0,0,1,28.2,213.09Z"/><path class="cls-4" d="M50.71,213.09h0a8.6,8.6,0,0,1,8.6,8.6v5.65a0,0,0,0,1,0,0H42.11a0,0,0,0,1,0,0v-5.65A8.6,8.6,0,0,1,50.71,213.09Z"/><path class="cls-4" d="M74.38,213.09h0a8.6,8.6,0,0,1,8.6,8.6v5.65a0,0,0,0,1,0,0H65.78a0,0,0,0,1,0,0v-5.65A8.6,8.6,0,0,1,74.38,213.09Z"/><path class="cls-4" d="M97,213h0a8.6,8.6,0,0,1,8.6,8.6v5.65a0,0,0,0,1,0,0H88.38a0,0,0,0,1,0,0v-5.65A8.6,8.6,0,0,1,97,213Z"/><line class="cls-8" x1="539.79" y1="306.83" x2="627.79" y2="306.75"/><line class="cls-8" x1="566.79" y1="319.86" x2="627.79" y2="319.77"/><line class="cls-8" x1="567.34" y1="294.89" x2="628.34" y2="294.81"/><line class="cls-8" x1="567.06" y1="284.29" x2="601.79" y2="284.21"/><line class="cls-8" x1="566.79" y1="333.88" x2="627.79" y2="333.8"/><line class="cls-8" x1="566.24" y1="344.8" x2="627.24" y2="344.72"/><line class="cls-8" x1="566.79" y1="356.89" x2="627.79" y2="356.81"/><line class="cls-8" x1="567.06" y1="366.33" x2="628.06" y2="366.25"/><line class="cls-8" x1="567.06" y1="380.35" x2="628.06" y2="380.27"/><line class="cls-8" x1="566.52" y1="391.27" x2="627.52" y2="391.19"/><line class="cls-8" x1="567.06" y1="401.36" x2="628.06" y2="401.28"/><line class="cls-8" x1="567.34" y1="410.5" x2="628.34" y2="410.42"/><line class="cls-8" x1="566.79" y1="421.42" x2="627.79" y2="421.34"/><line class="cls-8" x1="567.34" y1="433.51" x2="628.34" y2="433.43"/><line class="cls-4" x1="580.21" y1="255.59" x2="580.21" y2="442.86"/><line class="cls-4" x1="592.54" y1="255.59" x2="592.54" y2="442.86"/><line class="cls-4" x1="609.88" y1="294.89" x2="609.88" y2="442.86"/><line class="cls-4" x1="618.79" y1="294.89" x2="618.79" y2="442.86"/><rect class="cls-4" x="569.59" y="251.84" width="29.67" height="3.75"/><rect class="cls-4" x="571.45" y="248.54" width="25.96" height="2.67"/><rect class="cls-4" x="562.68" y="244.96" width="43.22" height="3.75"/><line class="cls-4" x1="557.62" y1="246.84" x2="610.96" y2="246.84"/><rect class="cls-4" x="839.95" y="200.05" width="29.67" height="3.75"/><rect class="cls-4" x="841.8" y="196.76" width="25.96" height="2.67"/><rect class="cls-4" x="833.04" y="193.17" width="43.22" height="3.75"/><line class="cls-4" x1="827.98" y1="195.05" x2="881.31" y2="195.05"/><rect class="cls-4" x="635.79" y="308.11" width="12.79" height="134.76"/><rect class="cls-4" x="642.19" y="308.11" width="38.26" height="6.63"/><polyline class="cls-2" points="642.46 286.51 658.53 269.59 675.2 286.51"/><polyline class="cls-2" points="645.13 269.59 658.99 243.16 672.76 269.59"/><line class="cls-4" x1="643.96" y1="278.05" x2="673.98" y2="278.05"/><line class="cls-4" x1="646.95" y1="256.37" x2="670.86" y2="256.37"/><polyline class="cls-2" points="648.77 243.16 658.99 206.61 668.95 243.16"/><line class="cls-4" x1="651.29" y1="224.88" x2="666.32" y2="224.88"/><ellipse class="cls-4" cx="658.92" cy="171.59" rx="3.56" ry="5.5"/><ellipse class="cls-4" cx="653.01" cy="213.34" rx="2.34" ry="3.5"/><circle class="cls-4" cx="665.37" cy="224.88" r="2.89"/><circle class="cls-4" cx="646.95" cy="251.9" r="3.19"/><ellipse class="cls-4" cx="669.35" cy="248.4" rx="2.19" ry="3.44"/><rect class="cls-4" x="640.82" y="293.59" width="35.39" height="1.63"/><rect class="cls-4" x="640.82" y="299.35" width="35.39" height="1.63"/><rect class="cls-4" x="642.79" y="287.75" width="23.26" height="5.67"/><rect class="cls-4" x="667.65" y="287.75" width="8.33" height="5.67"/><rect class="cls-4" x="642.79" y="295.42" width="23.21" height="3.73"/><rect class="cls-4" x="667.65" y="295.45" width="8.33" height="3.73"/><rect class="cls-4" x="642.79" y="301.15" width="23.21" height="6.07"/><rect class="cls-4" x="667.8" y="301.15" width="8.04" height="6.07"/><line class="cls-4" x1="648.77" y1="330.03" x2="712.15" y2="330.03"/><line class="cls-4" x1="648.68" y1="364.84" x2="816.07" y2="364.84"/><line class="cls-4" x1="648.68" y1="383.19" x2="816.07" y2="383.19"/><rect class="cls-4" x="713.97" y="383.56" width="102.1" height="59.31"/><line class="cls-4" x1="713.97" y1="400.16" x2="648.77" y2="400.16"/><rect class="cls-4" x="651.54" y="404.08" width="12.67" height="15.59"/><rect class="cls-4" x="667.79" y="404.08" width="12.67" height="15.59"/><rect class="cls-4" x="683.27" y="404.08" width="12.67" height="15.59"/><rect class="cls-4" x="698.62" y="404.08" width="12.67" height="15.59"/><line class="cls-3" x1="651.54" y1="422.71" x2="664.21" y2="422.71"/><line class="cls-3" x1="651.54" y1="426.96" x2="664.21" y2="426.96"/><line class="cls-3" x1="651.54" y1="431.21" x2="664.21" y2="431.21"/><line class="cls-3" x1="651.54" y1="435.46" x2="664.21" y2="435.46"/><line class="cls-3" x1="667.79" y1="422.71" x2="680.46" y2="422.71"/><line class="cls-3" x1="667.79" y1="426.96" x2="680.46" y2="426.96"/><line class="cls-3" x1="667.79" y1="431.21" x2="680.46" y2="431.21"/><line class="cls-3" x1="667.79" y1="435.46" x2="680.46" y2="435.46"/><line class="cls-3" x1="683.27" y1="422.71" x2="695.93" y2="422.71"/><line class="cls-3" x1="683.27" y1="426.96" x2="695.93" y2="426.96"/><line class="cls-3" x1="683.27" y1="431.21" x2="695.93" y2="431.21"/><line class="cls-3" x1="683.27" y1="435.46" x2="695.93" y2="435.46"/><line class="cls-3" x1="698.62" y1="422.71" x2="711.28" y2="422.71"/><line class="cls-3" x1="698.62" y1="426.96" x2="711.28" y2="426.96"/><line class="cls-3" x1="698.62" y1="431.21" x2="711.28" y2="431.21"/><line class="cls-3" x1="698.62" y1="435.46" x2="711.28" y2="435.46"/><line class="cls-4" x1="657.88" y1="314.74" x2="657.88" y2="400.16"/><line class="cls-4" x1="674.13" y1="315.25" x2="674.13" y2="399.97"/><line class="cls-4" x1="681.37" y1="315.25" x2="681.37" y2="399.97"/><line class="cls-4" x1="666" y1="315.62" x2="666" y2="400.34"/><line class="cls-4" x1="689.6" y1="314.74" x2="689.6" y2="399.97"/><line class="cls-4" x1="697.27" y1="314.19" x2="697.27" y2="399.97"/><line class="cls-4" x1="704.95" y1="315.25" x2="704.95" y2="399.97"/><line class="cls-4" x1="712.15" y1="315.25" x2="712.15" y2="399.97"/><line class="cls-4" x1="719.35" y1="344.8" x2="719.35" y2="383.32"/><line class="cls-4" x1="751.08" y1="344.77" x2="751.08" y2="383.38"/><line class="cls-4" x1="766.43" y1="345.13" x2="766.43" y2="383.38"/><line class="cls-4" x1="727.48" y1="344.97" x2="727.48" y2="383.17"/><line class="cls-4" x1="742.95" y1="344.71" x2="742.95" y2="383.32"/><line class="cls-4" x1="758.3" y1="344.95" x2="758.3" y2="383.32"/><line class="cls-4" x1="774.61" y1="333.52" x2="774.61" y2="382.66"/><line class="cls-4" x1="790.08" y1="344.88" x2="790.08" y2="382.73"/><line class="cls-4" x1="808.8" y1="345.29" x2="808.8" y2="383.19"/><line class="cls-4" x1="802.67" y1="333.29" x2="802.67" y2="383.38"/><line class="cls-8" x1="725.81" y1="221.99" x2="744.88" y2="221.99"/><line class="cls-8" x1="761.83" y1="221.99" x2="803.04" y2="221.99"/><path class="cls-8" d="M766.53,356.77" transform="translate(-15.46 -152.41)"/><line class="cls-8" x1="744.88" y1="344.71" x2="744.88" y2="204.07"/><line class="cls-8" x1="761.43" y1="344.71" x2="761.43" y2="204.07"/><line class="cls-8" x1="776.21" y1="204.07" x2="776.21" y2="221.08"/><line class="cls-8" x1="791.05" y1="204.07" x2="791.05" y2="221.08"/><line class="cls-4" x1="768.88" y1="221.99" x2="768.88" y2="344.71"/><line class="cls-4" x1="732.33" y1="221.99" x2="732.33" y2="344.71"/><line class="cls-4" x1="738.6" y1="221.99" x2="738.6" y2="344.71"/><line class="cls-4" x1="775.81" y1="221.99" x2="775.81" y2="344.71"/><polyline class="cls-4" points="782.74 221.99 782.74 333.59 782.74 382.73"/><polyline class="cls-4" points="790.08 221.99 790.08 333.59 790.08 382.73"/><polyline class="cls-4" points="796.54 222.82 796.54 334.42 796.54 383.56"/><line class="cls-4" x1="735.34" y1="345.29" x2="735.34" y2="383.19"/><line class="cls-4" x1="725.81" y1="229.05" x2="744.88" y2="229.05"/><line class="cls-4" x1="726.34" y1="235.5" x2="745.4" y2="235.5"/><line class="cls-4" x1="726.48" y1="241.47" x2="745.54" y2="241.47"/><line class="cls-4" x1="726" y1="247.93" x2="745.07" y2="247.93"/><line class="cls-4" x1="726.21" y1="254.38" x2="745.27" y2="254.38"/><line class="cls-4" x1="726.73" y1="260.83" x2="745.8" y2="260.83"/><line class="cls-4" x1="726.88" y1="266.81" x2="745.94" y2="266.81"/><line class="cls-4" x1="726.4" y1="273.26" x2="745.47" y2="273.26"/><line class="cls-4" x1="725.28" y1="279.05" x2="744.34" y2="279.05"/><line class="cls-4" x1="725.8" y1="285.51" x2="744.87" y2="285.51"/><line class="cls-4" x1="725.95" y1="291.48" x2="745.01" y2="291.48"/><line class="cls-4" x1="725.47" y1="297.93" x2="744.53" y2="297.93"/><line class="cls-4" x1="725.68" y1="304.39" x2="744.74" y2="304.39"/><line class="cls-4" x1="726.2" y1="310.84" x2="745.27" y2="310.84"/><line class="cls-4" x1="726.34" y1="316.81" x2="745.41" y2="316.81"/><line class="cls-4" x1="725.87" y1="323.26" x2="744.93" y2="323.26"/><line class="cls-4" x1="726.3" y1="327.78" x2="745.36" y2="327.78"/><line class="cls-4" x1="726.44" y1="333.75" x2="745.5" y2="333.75"/><line class="cls-4" x1="761.98" y1="235.17" x2="803.04" y2="235.17"/><line class="cls-4" x1="761.43" y1="241.14" x2="802.23" y2="241.14"/><line class="cls-4" x1="762.39" y1="247.6" x2="802.67" y2="247.6"/><line class="cls-4" x1="762.81" y1="254.05" x2="803.04" y2="254.05"/><line class="cls-4" x1="761.72" y1="260.5" x2="802.75" y2="260.5"/><line class="cls-4" x1="761.3" y1="266.47" x2="803.04" y2="266.47"/><line class="cls-4" x1="761.98" y1="272.93" x2="802.07" y2="272.93"/><line class="cls-4" x1="760.91" y1="278.72" x2="802.75" y2="278.72"/><line class="cls-4" x1="761.98" y1="285.18" x2="802.67" y2="285.18"/><line class="cls-4" x1="762.27" y1="291.15" x2="803.04" y2="291.15"/><line class="cls-4" x1="761.3" y1="297.6" x2="803.04" y2="297.6"/><line class="cls-4" x1="761.72" y1="304.05" x2="803.04" y2="304.05"/><line class="cls-4" x1="762.79" y1="310.51" x2="802.67" y2="310.51"/><line class="cls-4" x1="762.11" y1="316.48" x2="803.04" y2="316.48"/><line class="cls-4" x1="762.11" y1="321.93" x2="803.04" y2="321.93"/><line class="cls-4" x1="761.98" y1="327.44" x2="802.67" y2="327.44"/><line class="cls-4" x1="761.43" y1="333.42" x2="802.15" y2="333.42"/><line class="cls-4" x1="725.96" y1="340.2" x2="745.03" y2="340.2"/><line class="cls-4" x1="762.95" y1="340.2" x2="802.67" y2="340.2"/><line class="cls-4" x1="761.43" y1="229.05" x2="802.67" y2="229.05"/><line class="cls-3" x1="748.54" y1="343.11" x2="748.54" y2="221.99"/><line class="cls-3" x1="751.42" y1="343.11" x2="751.42" y2="221.99"/><line class="cls-3" x1="754.73" y1="343.11" x2="754.73" y2="221.99"/><line class="cls-3" x1="757.82" y1="343.11" x2="757.82" y2="221.99"/><rect class="cls-3" x="748.54" y="207.14" width="9.28" height="14.85"/><rect class="cls-3" x="764.7" y="207.14" width="8.35" height="11.51"/><rect class="cls-3" x="729.03" y="207.14" width="12.41" height="11.51"/><rect class="cls-3" x="779.45" y="207.14" width="8.35" height="11.51"/><rect class="cls-3" x="794.19" y="207.14" width="5.99" height="11.51"/><line class="cls-4" x1="648.77" y1="317.75" x2="657.88" y2="317.75"/><line class="cls-4" x1="657.88" y1="327.34" x2="665.91" y2="327.34"/><line class="cls-4" x1="666.05" y1="317.72" x2="674.08" y2="317.72"/><line class="cls-4" x1="673.78" y1="327.34" x2="681.82" y2="327.34"/><line class="cls-4" x1="681.37" y1="317.72" x2="689.4" y2="317.72"/><line class="cls-4" x1="689.14" y1="327.34" x2="697.18" y2="327.34"/><line class="cls-4" x1="696.86" y1="317.72" x2="704.89" y2="317.72"/><line class="cls-4" x1="704.89" y1="327.34" x2="712.92" y2="327.34"/><line class="cls-4" x1="657.78" y1="332.59" x2="666.44" y2="332.59"/><line class="cls-4" x1="665.73" y1="342" x2="674.4" y2="342"/><line class="cls-4" x1="673.78" y1="332.59" x2="681.37" y2="332.59"/><line class="cls-4" x1="681.37" y1="342" x2="689.35" y2="342"/><line class="cls-4" x1="689.35" y1="332.59" x2="697.18" y2="332.59"/><line class="cls-4" x1="697.33" y1="342" x2="704.89" y2="342"/><line class="cls-4" x1="704.89" y1="332.59" x2="712.15" y2="332.59"/><line class="cls-4" x1="648.68" y1="342" x2="657.78" y2="342"/><line class="cls-4" x1="665.73" y1="349.22" x2="674.13" y2="349.22"/><line class="cls-4" x1="665.87" y1="380.27" x2="674.26" y2="380.27"/><line class="cls-4" x1="665.87" y1="385.9" x2="674.26" y2="385.9"/><line class="cls-4" x1="681.19" y1="349.22" x2="689.58" y2="349.22"/><line class="cls-4" x1="681.5" y1="380.27" x2="689.9" y2="380.27"/><line class="cls-4" x1="681.19" y1="385.9" x2="689.58" y2="385.9"/><line class="cls-4" x1="696.92" y1="349.22" x2="705.31" y2="349.22"/><line class="cls-4" x1="696.92" y1="380.27" x2="705.31" y2="380.27"/><line class="cls-4" x1="696.92" y1="385.9" x2="705.31" y2="385.9"/><line class="cls-4" x1="712.15" y1="349.22" x2="719.35" y2="349.22"/><line class="cls-4" x1="712.15" y1="380.27" x2="719.35" y2="380.27"/><line class="cls-4" x1="727.48" y1="349.22" x2="735.34" y2="349.22"/><line class="cls-4" x1="727.48" y1="380.27" x2="735.34" y2="380.27"/><line class="cls-4" x1="743.08" y1="349.3" x2="750.95" y2="349.3"/><line class="cls-4" x1="742.89" y1="380.27" x2="750.75" y2="380.27"/><line class="cls-4" x1="758.43" y1="349.3" x2="766.3" y2="349.3"/><line class="cls-4" x1="758.43" y1="380.27" x2="766.3" y2="380.27"/><line class="cls-4" x1="774.74" y1="349.3" x2="782.61" y2="349.3"/><line class="cls-4" x1="774.74" y1="380.27" x2="782.61" y2="380.27"/><line class="cls-4" x1="789.77" y1="349.3" x2="796.79" y2="349.3"/><line class="cls-4" x1="789.77" y1="380.27" x2="796.79" y2="380.27"/><line class="cls-4" x1="802.67" y1="349.3" x2="809.06" y2="349.3"/><line class="cls-4" x1="802.67" y1="380.27" x2="809.06" y2="380.27"/><line class="cls-4" x1="648.72" y1="349.22" x2="657.73" y2="349.22"/><line class="cls-4" x1="649.11" y1="380.27" x2="658.12" y2="380.27"/><line class="cls-4" x1="649.11" y1="385.9" x2="658.12" y2="385.9"/><line class="cls-4" x1="657.61" y1="361.92" x2="666" y2="361.92"/><line class="cls-4" x1="657.61" y1="367.72" x2="666" y2="367.72"/><line class="cls-4" x1="657.61" y1="397" x2="666" y2="397"/><line class="cls-4" x1="674.13" y1="361.92" x2="681.77" y2="361.92"/><line class="cls-4" x1="674.13" y1="367.72" x2="681.77" y2="367.72"/><line class="cls-4" x1="673.98" y1="397" x2="681.62" y2="397"/><line class="cls-4" x1="689.34" y1="361.92" x2="696.98" y2="361.92"/><line class="cls-4" x1="689.34" y1="367.72" x2="696.98" y2="367.72"/><line class="cls-4" x1="689.6" y1="397" x2="697.25" y2="397"/><line class="cls-4" x1="704.49" y1="361.92" x2="712.14" y2="361.92"/><line class="cls-4" x1="704.89" y1="367.72" x2="712.54" y2="367.72"/><line class="cls-4" x1="704.89" y1="397" x2="712.54" y2="397"/><line class="cls-4" x1="719.59" y1="361.92" x2="727.24" y2="361.92"/><line class="cls-4" x1="719.59" y1="367.77" x2="727.24" y2="367.77"/><line class="cls-4" x1="735.45" y1="361.92" x2="743.1" y2="361.92"/><line class="cls-4" x1="735.45" y1="367.72" x2="743.1" y2="367.72"/><line class="cls-4" x1="750.86" y1="361.92" x2="758.51" y2="361.92"/><line class="cls-4" x1="750.9" y1="367.72" x2="758.55" y2="367.72"/><line class="cls-4" x1="766.69" y1="361.92" x2="774.34" y2="361.92"/><line class="cls-4" x1="766.69" y1="367.77" x2="774.34" y2="367.77"/><line class="cls-4" x1="782.81" y1="361.92" x2="790.46" y2="361.92"/><line class="cls-4" x1="782.81" y1="367.72" x2="790.46" y2="367.72"/><line class="cls-4" x1="796.08" y1="361.92" x2="802.8" y2="361.92"/><line class="cls-4" x1="796.08" y1="367.72" x2="802.8" y2="367.72"/><line class="cls-4" x1="808.8" y1="361.92" x2="816.45" y2="361.92"/><line class="cls-4" x1="808.8" y1="367.77" x2="816.45" y2="367.77"/><rect class="cls-4" x="669.72" y="345.32" width="4.06" height="3.91"/><rect class="cls-4" x="701.11" y="346.25" width="3.78" height="2.97"/><rect class="cls-4" x="677.95" y="364.84" width="3.24" height="2.88"/><rect class="cls-4" x="662.11" y="364.84" width="3.89" height="2.88"/><rect class="cls-4" x="693.26" y="364.84" width="3.72" height="2.88"/><rect class="cls-4" x="670.06" y="383.56" width="3.91" height="2.34"/><rect class="cls-4" x="685.39" y="383.19" width="4.2" height="2.71"/><rect class="cls-4" x="723.42" y="364.84" width="3.82" height="2.92"/><rect class="cls-4" x="770.52" y="364.84" width="3.82" height="2.92"/><rect class="cls-4" x="905.57" y="374.62" width="62" height="17.88"/><rect class="cls-4" x="904.72" y="432.6" width="63.37" height="10.6"/><line class="cls-3" x1="897.58" y1="212.9" x2="975.24" y2="212.9"/><line class="cls-3" x1="897.58" y1="234.17" x2="975.24" y2="234.17"/><line class="cls-3" x1="898.48" y1="252.2" x2="976.14" y2="252.2"/><line class="cls-3" x1="898.48" y1="273.47" x2="976.14" y2="273.47"/><line class="cls-3" x1="897.12" y1="293.76" x2="974.78" y2="293.76"/><line class="cls-3" x1="897.12" y1="315.03" x2="974.78" y2="315.03"/><line class="cls-3" x1="898.03" y1="333.06" x2="975.69" y2="333.06"/><line class="cls-3" x1="898.03" y1="354.33" x2="975.69" y2="354.33"/><line class="cls-3" x1="897.12" y1="404.57" x2="974.78" y2="404.57"/><line class="cls-3" x1="897.12" y1="421.85" x2="974.78" y2="421.85"/><rect class="cls-3" x="830.69" y="238.83" width="5.19" height="8.01"/><rect class="cls-3" x="830.69" y="250.05" width="5.19" height="8.01"/><rect class="cls-3" x="830.69" y="261.26" width="5.19" height="8.01"/><rect class="cls-3" x="830.69" y="272.48" width="5.19" height="8.01"/><rect class="cls-3" x="830.69" y="283.69" width="5.19" height="8.01"/><rect class="cls-3" x="830.69" y="294.9" width="5.19" height="8.01"/><rect class="cls-3" x="830.69" y="306.12" width="5.19" height="8.01"/><rect class="cls-3" x="830.69" y="317.33" width="5.19" height="8.01"/><rect class="cls-3" x="830.69" y="328.55" width="5.19" height="8.01"/><rect class="cls-3" x="830.69" y="339.76" width="5.19" height="8.01"/><rect class="cls-3" x="830.69" y="350.97" width="5.19" height="8.01"/><rect class="cls-3" x="830.69" y="362.19" width="5.19" height="8.01"/><rect class="cls-3" x="830.69" y="373.4" width="5.19" height="8.01"/><rect class="cls-3" x="830.69" y="384.62" width="5.19" height="8.01"/><rect class="cls-3" x="830.69" y="395.83" width="5.19" height="8.01"/><rect class="cls-3" x="830.69" y="407.05" width="5.19" height="8.01"/><rect class="cls-3" x="830.69" y="418.26" width="5.19" height="8.01"/><rect class="cls-3" x="830.69" y="429.47" width="5.19" height="8.01"/><rect class="cls-3" x="872.07" y="238.83" width="6.53" height="8.01"/><rect class="cls-3" x="872.07" y="250.05" width="6.53" height="8.01"/><rect class="cls-3" x="872.07" y="261.26" width="6.53" height="8.01"/><rect class="cls-3" x="872.07" y="272.48" width="6.53" height="8.01"/><rect class="cls-3" x="872.07" y="283.69" width="6.53" height="8.01"/><rect class="cls-3" x="872.07" y="294.9" width="6.53" height="8.01"/><rect class="cls-3" x="872.07" y="306.12" width="6.53" height="8.01"/><rect class="cls-3" x="872.07" y="317.33" width="6.53" height="8.01"/><rect class="cls-3" x="872.07" y="328.55" width="6.53" height="8.01"/><rect class="cls-3" x="872.07" y="339.76" width="6.53" height="8.01"/><rect class="cls-3" x="872.07" y="350.97" width="6.53" height="8.01"/><rect class="cls-3" x="872.07" y="362.19" width="6.53" height="8.01"/><rect class="cls-3" x="872.07" y="373.4" width="6.53" height="8.01"/><rect class="cls-3" x="872.07" y="384.62" width="6.53" height="8.01"/><rect class="cls-3" x="872.07" y="395.83" width="6.53" height="8.01"/><rect class="cls-3" x="872.07" y="407.05" width="6.53" height="8.01"/><rect class="cls-3" x="872.07" y="418.26" width="6.53" height="8.01"/><rect class="cls-3" x="872.07" y="429.47" width="6.53" height="8.01"/><polyline class="cls-2" points="837.22 209.84 854.65 214.57 872.07 209.84"/><polyline class="cls-2" points="837.22 216.71 854.65 221.44 872.07 216.71"/><polyline class="cls-2" points="837.22 223.25 854.65 227.98 872.07 223.25"/><polyline class="cls-2" points="837.22 230.12 854.65 234.85 872.07 230.12"/><polyline class="cls-2" points="837.22 236.2 854.65 240.93 872.07 236.2"/><polyline class="cls-2" points="837.22 243.08 854.65 247.81 872.07 243.08"/><polyline class="cls-2" points="837.22 249.61 854.65 254.34 872.07 249.61"/><polyline class="cls-2" points="837.22 256.49 854.65 261.22 872.07 256.49"/><polyline class="cls-2" points="837.22 263.58 854.65 268.31 872.07 263.58"/><polyline class="cls-2" points="837.22 270.46 854.65 275.19 872.07 270.46"/><polyline class="cls-2" points="837.22 277 854.65 281.73 872.07 277"/><polyline class="cls-2" points="837.22 283.87 854.65 288.6 872.07 283.87"/><polyline class="cls-2" points="837.22 289.95 854.65 294.68 872.07 289.95"/><polyline class="cls-2" points="837.22 296.83 854.65 301.56 872.07 296.83"/><polyline class="cls-2" points="837.22 303.36 854.65 308.09 872.07 303.36"/><polyline class="cls-2" points="837.22 310.24 854.65 314.97 872.07 310.24"/><polyline class="cls-2" points="837.22 316.22 854.65 320.95 872.07 316.22"/><polyline class="cls-2" points="837.22 323.09 854.65 327.82 872.07 323.09"/><polyline class="cls-2" points="837.22 329.63 854.65 334.36 872.07 329.63"/><polyline class="cls-2" points="837.22 336.5 854.65 341.24 872.07 336.5"/><polyline class="cls-2" points="837.22 342.58 854.65 347.31 872.07 342.58"/><polyline class="cls-2" points="837.22 349.46 854.65 354.19 872.07 349.46"/><polyline class="cls-2" points="837.22 356 854.65 360.73 872.07 356"/><polyline class="cls-2" points="837.22 362.87 854.65 367.6 872.07 362.87"/><polyline class="cls-2" points="837.22 369.96 854.65 374.7 872.07 369.96"/><polyline class="cls-2" points="837.22 376.84 854.65 381.57 872.07 376.84"/><polyline class="cls-2" points="837.22 383.38 854.65 388.11 872.07 383.38"/><polyline class="cls-2" points="837.22 390.25 854.65 394.98 872.07 390.25"/><polyline class="cls-2" points="837.22 396.33 854.65 401.06 872.07 396.33"/><polyline class="cls-2" points="837.22 403.21 854.65 407.94 872.07 403.21"/><polyline class="cls-2" points="837.22 409.74 854.65 414.47 872.07 409.74"/><polyline class="cls-2" points="837.22 416.62 854.65 421.35 872.07 416.62"/><polyline class="cls-2" points="837.27 423.67 854.7 428.4 872.12 423.67"/><polyline class="cls-2" points="837.27 430.55 854.7 435.28 872.12 430.55"/><line class="cls-8" x1="1034.97" y1="266.47" x2="983.89" y2="266.47"/><line class="cls-8" x1="1034.97" y1="296.91" x2="983.89" y2="296.91"/><line class="cls-8" x1="983.77" y1="324.54" x2="1034.85" y2="324.54"/><line class="cls-8" x1="983.77" y1="354.98" x2="1034.85" y2="354.98"/><line class="cls-8" x1="983.71" y1="383.22" x2="1034.79" y2="383.22"/><polyline class="cls-1" points="1034.97 238.83 1017.58 251.98 1001.33 251.98 983.89 238.83"/><polyline class="cls-1" points="1034.97 296.91 1017.38 281.73 1001.13 281.73 983.89 296.91"/><polyline class="cls-1" points="983.89 324.54 1001.33 312.6 1017.58 312.6 1034.85 324.54"/><polyline class="cls-1" points="983.77 354.98 1001.13 339.76 1017.38 339.76 1034.85 354.98"/><path class="cls-3" d="M1033,404.39" transform="translate(-15.46 -152.41)"/><line class="cls-3" x1="1034.79" y1="265.95" x2="1017.58" y2="251.98"/><line class="cls-3" x1="1001.33" y1="251.98" x2="983.89" y2="266.47"/><line class="cls-3" x1="1034.97" y1="266.47" x2="1017.38" y2="281.73"/><line class="cls-3" x1="1001.13" y1="281.73" x2="983.89" y2="266.47"/><line class="cls-3" x1="1017.58" y1="312.6" x2="1034.97" y2="296.91"/><line class="cls-3" x1="1001.33" y1="312.6" x2="983.89" y2="296.91"/><line class="cls-3" x1="1017.38" y1="339.76" x2="1034.79" y2="325.34"/><line class="cls-3" x1="1001.13" y1="339.76" x2="983.89" y2="324.54"/><line class="cls-3" x1="1017.58" y1="369.1" x2="1034.85" y2="354.98"/><line class="cls-3" x1="1001.33" y1="369.1" x2="983.77" y2="354.98"/><rect class="cls-7" x="1017.58" y="409.74" width="17.39" height="33.12"/><rect class="cls-7" x="977.88" y="421.35" width="43.67" height="9.2"/><polygon class="cls-7" points="1025.65 410.46 1008.55 383.56 1034.36 383.56 1034.54 409.88 1025.65 410.46"/><line class="cls-3" x1="1009.43" y1="383.56" x2="983.89" y2="442.86"/><polyline class="cls-1" points="995.75 415.05 983.71 383.22 1001.33 369.1 1017.58 369.1 1034.79 383.22"/><rect class="cls-7" x="214.38" y="405.21" width="113.77" height="12.03"/><rect class="cls-4" x="1213.67" y="389.89" width="12.4" height="19.04"/><rect class="cls-4" x="1246.72" y="389.83" width="12.4" height="19.04"/><rect class="cls-4" x="1246.72" y="410.56" width="12.4" height="19.04"/><rect class="cls-4" x="1213.67" y="410.62" width="12.4" height="19.04"/><rect class="cls-4" x="1228.59" y="389.83" width="15.6" height="18.92"/><rect class="cls-4" x="1228.59" y="410.62" width="15.6" height="18.92"/><rect class="cls-4" x="1194.17" y="429.54" width="84.46" height="13.32"/><circle class="cls-6" cx="1236.4" cy="400.63" r="5.88"/><path class="cls-6" d="M1219.92,395.76h0a4.62,4.62,0,0,1,4.62,4.62v8.54a0,0,0,0,1,0,0h-9.25a0,0,0,0,1,0,0v-8.54A4.62,4.62,0,0,1,1219.92,395.76Z"/><path class="cls-6" d="M1252.92,395.59h0a4.62,4.62,0,0,1,4.62,4.62v8.54a0,0,0,0,1,0,0h-9.25a0,0,0,0,1,0,0v-8.54a4.62,4.62,0,0,1,4.62-4.62Z"/><path class="cls-6" d="M1236.4,412.27h0a5.87,5.87,0,0,1,5.87,5.87v11.39a0,0,0,0,1,0,0h-11.75a0,0,0,0,1,0,0V418.15A5.87,5.87,0,0,1,1236.4,412.27Z"/><line class="cls-6" x1="1215.29" y1="410.56" x2="1215.29" y2="429.54"/><line class="cls-6" x1="1224.54" y1="410.56" x2="1224.54" y2="429.54"/><line class="cls-6" x1="1248.3" y1="410.62" x2="1248.3" y2="429.54"/><line class="cls-6" x1="1257.55" y1="410.62" x2="1257.55" y2="429.54"/><path class="cls-9" d="M1138.83,240.93h39.38a0,0,0,0,1,0,0v0a15.56,15.56,0,0,1-15.56,15.56h-23.82a0,0,0,0,1,0,0V240.93A0,0,0,0,1,1138.83,240.93Z"/><rect class="cls-10" x="1147.28" y="264.68" width="12.18" height="177.6"/><rect class="cls-10" x="1162.86" y="264.68" width="12.18" height="177.6"/><rect class="cls-10" x="1138.83" y="264.68" width="5.57" height="177.6"/><rect class="cls-10" x="1178.21" y="264.68" width="5.57" height="177.6"/><rect class="cls-9" x="1138.3" y="270.46" width="47.91" height="6.02"/><rect class="cls-9" x="1138.3" y="281.46" width="47.91" height="6.02"/><rect class="cls-9" x="1138.3" y="292.46" width="47.91" height="6.02"/><rect class="cls-9" x="1138.3" y="303.46" width="47.91" height="6.02"/><rect class="cls-9" x="1138.3" y="314.46" width="47.91" height="6.02"/><rect class="cls-9" x="1138.3" y="325.46" width="47.91" height="6.02"/><rect class="cls-9" x="1138.3" y="336.46" width="47.91" height="6.02"/><rect class="cls-9" x="1138.3" y="347.46" width="47.91" height="6.02"/><rect class="cls-9" x="1138.3" y="358.46" width="47.91" height="6.02"/><rect class="cls-9" x="1138.3" y="369.46" width="47.91" height="6.02"/><rect class="cls-9" x="1138.3" y="380.46" width="47.91" height="6.02"/><rect class="cls-9" x="1138.3" y="391.46" width="47.91" height="6.02"/><rect class="cls-9" x="1138.3" y="402.46" width="47.91" height="6.02"/><rect class="cls-9" x="1138.3" y="413.46" width="47.91" height="6.02"/><rect class="cls-9" x="1138.3" y="424.46" width="47.91" height="6.02"/><rect class="cls-9" x="1138.3" y="435.46" width="47.91" height="6.02"/><rect class="cls-9" x="1138.83" y="408.87" width="44.71" height="33.99"/><line class="cls-10" x1="1040.93" y1="214.57" x2="1138.3" y2="214.57"/><line class="cls-10" x1="1040.93" y1="227.32" x2="1138.3" y2="227.32"/><line class="cls-10" x1="1040.93" y1="238.57" x2="1138.3" y2="238.57"/><line class="cls-10" x1="1040.93" y1="251.32" x2="1138.3" y2="251.32"/><line class="cls-10" x1="1040.93" y1="264.08" x2="1138.3" y2="264.08"/><line class="cls-10" x1="1040.93" y1="276.83" x2="1138.3" y2="276.83"/><line class="cls-10" x1="1040.93" y1="288.08" x2="1138.3" y2="288.08"/><line class="cls-10" x1="1040.93" y1="300.84" x2="1138.3" y2="300.84"/><line class="cls-10" x1="1040.93" y1="312.6" x2="1138.3" y2="312.6"/><line class="cls-10" x1="1040.93" y1="325.36" x2="1138.3" y2="325.36"/><line class="cls-10" x1="1040.93" y1="336.6" x2="1138.3" y2="336.6"/><line class="cls-10" x1="1040.93" y1="349.36" x2="1138.3" y2="349.36"/><line class="cls-10" x1="1040.93" y1="362.11" x2="1138.3" y2="362.11"/><line class="cls-10" x1="1040.93" y1="374.87" x2="1138.3" y2="374.87"/><line class="cls-10" x1="1040.93" y1="386.12" x2="1138.3" y2="386.12"/><line class="cls-10" x1="1040.93" y1="398.09" x2="1138.3" y2="398.09"/><line class="cls-10" x1="1040.93" y1="410.85" x2="1138.3" y2="410.85"/><line class="cls-10" x1="1040.93" y1="422.09" x2="1138.3" y2="422.09"/><line class="cls-10" x1="1040.93" y1="434.85" x2="1138.3" y2="434.85"/><line class="cls-11" x1="1040.93" y1="220.94" x2="1138.3" y2="220.94"/><line class="cls-11" x1="1040.93" y1="232.19" x2="1138.3" y2="232.19"/><line class="cls-11" x1="1040.93" y1="244.95" x2="1138.3" y2="244.95"/><line class="cls-11" x1="1040.93" y1="257.7" x2="1138.3" y2="257.7"/><line class="cls-11" x1="1040.93" y1="270.46" x2="1138.3" y2="270.46"/><line class="cls-11" x1="1040.93" y1="281.7" x2="1138.3" y2="281.7"/><line class="cls-11" x1="1040.93" y1="294.46" x2="1138.3" y2="294.46"/><line class="cls-11" x1="1040.93" y1="306.23" x2="1138.3" y2="306.23"/><line class="cls-11" x1="1040.93" y1="318.98" x2="1138.3" y2="318.98"/><line class="cls-11" x1="1040.93" y1="330.23" x2="1138.3" y2="330.23"/><line class="cls-11" x1="1040.93" y1="342.98" x2="1138.3" y2="342.98"/><line class="cls-11" x1="1040.93" y1="355.74" x2="1138.3" y2="355.74"/><line class="cls-11" x1="1040.93" y1="368.49" x2="1138.3" y2="368.49"/><line class="cls-11" x1="1040.93" y1="379.74" x2="1138.3" y2="379.74"/><line class="cls-11" x1="1040.93" y1="391.71" x2="1138.3" y2="391.71"/><line class="cls-11" x1="1040.93" y1="404.47" x2="1138.3" y2="404.47"/><line class="cls-11" x1="1040.93" y1="415.71" x2="1138.3" y2="415.71"/><line class="cls-11" x1="1040.93" y1="428.47" x2="1138.3" y2="428.47"/><line class="cls-11" x1="1048.54" y1="204.35" x2="1048.54" y2="434.85"/><line class="cls-11" x1="1054.31" y1="204.35" x2="1054.31" y2="434.85"/><line class="cls-11" x1="1060.71" y1="204.35" x2="1060.71" y2="434.85"/><line class="cls-11" x1="1066.48" y1="204.35" x2="1066.48" y2="434.85"/><line class="cls-11" x1="1072.68" y1="204.35" x2="1072.68" y2="434.85"/><line class="cls-11" x1="1078.45" y1="204.35" x2="1078.45" y2="434.85"/><line class="cls-11" x1="1084.85" y1="204.35" x2="1084.85" y2="434.85"/><line class="cls-11" x1="1090.62" y1="204.35" x2="1090.62" y2="434.85"/><line class="cls-11" x1="1096.21" y1="204.35" x2="1096.21" y2="434.85"/><line class="cls-11" x1="1101.98" y1="204.35" x2="1101.98" y2="434.85"/><line class="cls-11" x1="1108.38" y1="204.35" x2="1108.38" y2="434.85"/><line class="cls-11" x1="1114.14" y1="204.35" x2="1114.14" y2="434.85"/><line class="cls-11" x1="1120.35" y1="204.35" x2="1120.35" y2="434.85"/><line class="cls-11" x1="1126.12" y1="204.35" x2="1126.12" y2="434.85"/><line class="cls-11" x1="1132.52" y1="204.35" x2="1132.52" y2="434.85"/><rect class="cls-12" x="1048.54" y="410.85" width="59.83" height="32.02"/><rect class="cls-12" x="1046.88" y="408.48" width="63.17" height="2.37"/><rect class="cls-12" x="1048.54" y="406.11" width="59.83" height="2.37"/><polygon class="cls-12" points="1050.68 406.11 1075.81 406.11 1069.18 386.12 1057.73 386.12 1050.68 406.11"/><polygon class="cls-12" points="1107.23 406.11 1099.04 394.71 1072.03 394.71 1075.81 406.11 1107.23 406.11"/><rect class="cls-11" x="1056.88" y="425.17" width="12.67" height="17.69"/><polygon class="cls-11" points="1069.54 412.67 1063.21 411.67 1056.88 412.67 1056.88 421.35 1069.54 421.35 1069.54 412.67"/><rect class="cls-11" x="1087.79" y="413.87" width="11.25" height="7.44"/><rect class="cls-13" x="1086.21" y="413.87" width="1.58" height="7.44"/><rect class="cls-13" x="1099.04" y="413.87" width="1.58" height="7.44"/><line class="cls-12" x1="1075.81" y1="410.85" x2="1075.81" y2="442.86"/><line class="cls-12" x1="1083.29" y1="410.85" x2="1083.29" y2="442.86"/><rect class="cls-12" x="1054.95" y="421.35" width="16.52" height="0.99"/><rect class="cls-12" x="1075.29" y="421.1" width="33.6" height="0.99"/><rect class="cls-12" x="1075.29" y="425.35" width="33.6" height="0.99"/><rect class="cls-12" x="1054.95" y="424.18" width="16.52" height="0.99"/><line class="cls-12" x1="1084.85" y1="422.09" x2="1084.85" y2="425.35"/><line class="cls-12" x1="1084.85" y1="426.34" x2="1084.85" y2="442.86"/><line class="cls-12" x1="1099.04" y1="422.09" x2="1099.04" y2="425.35"/><line class="cls-12" x1="1099.04" y1="426.34" x2="1099.04" y2="442.86"/><line class="cls-12" x1="1100.62" y1="422.09" x2="1100.62" y2="425.35"/><line class="cls-12" x1="1100.62" y1="426.34" x2="1100.62" y2="442.86"/><line class="cls-12" x1="1106.21" y1="422.09" x2="1106.21" y2="425.35"/><line class="cls-12" x1="1106.21" y1="426.34" x2="1106.21" y2="442.86"/><line class="cls-12" x1="1083.29" y1="406.11" x2="1087.79" y2="394.71"/><line class="cls-12" x1="1095.13" y1="394.71" x2="1102.71" y2="406.11"/><line class="cls-12" x1="1075.81" y1="406.11" x2="1080.54" y2="394.71"/><line class="cls-12" x1="1055.6" y1="421.31" x2="1055.6" y2="410.85"/><line class="cls-12" x1="1070.76" y1="421.1" x2="1070.76" y2="410.64"/><line class="cls-12" x1="1055.6" y1="425.17" x2="1055.6" y2="442.86"/><line class="cls-12" x1="1070.76" y1="425.17" x2="1070.76" y2="442.86"/><rect class="cls-11" x="1089.84" y="398.09" width="4.51" height="8.02"/><line class="cls-11" x1="1048.54" y1="414.71" x2="1055.6" y2="414.71"/><line class="cls-11" x1="1070.76" y1="414.71" x2="1075.81" y2="414.71"/><line class="cls-11" x1="1049.6" y1="414.71" x2="1049.6" y2="410.85"/><line class="cls-11" x1="1050.85" y1="414.71" x2="1050.85" y2="410.85"/><line class="cls-11" x1="1052.07" y1="414.71" x2="1052.07" y2="410.85"/><line class="cls-11" x1="1053.29" y1="414.71" x2="1053.29" y2="410.85"/><line class="cls-11" x1="1071.67" y1="414.71" x2="1071.67" y2="410.85"/><line class="cls-11" x1="1072.82" y1="414.71" x2="1072.82" y2="410.85"/><line class="cls-11" x1="1073.91" y1="414.71" x2="1073.91" y2="410.85"/><line class="cls-11" x1="1074.98" y1="414.71" x2="1074.98" y2="410.85"/><line class="cls-11" x1="1054.58" y1="414.71" x2="1054.58" y2="410.85"/><line class="cls-11" x1="1086.21" y1="422.09" x2="1086.21" y2="425.35"/><line class="cls-11" x1="1087.79" y1="422.09" x2="1087.79" y2="425.35"/><line class="cls-11" x1="1090.62" y1="422.09" x2="1090.62" y2="425.35"/><line class="cls-11" x1="1092.09" y1="422.09" x2="1092.09" y2="425.35"/><path class="cls-14" d="M579.41,384l-1.6.51s-.11,0,.07.39,2,4.33,2,4.33.18.19-.4.21a34.25,34.25,0,0,0-3.69.13c-.5.13,2.22.75,2.22.75l11.29,2.51,10.1,2.26a18.93,18.93,0,0,0,5,.39c3.22,0,9.64-.41,11.09-.44s3.72-.21,4.06-1-2.43-1.63-2.43-1.63a24.59,24.59,0,0,1-3.09-2.12,6.26,6.26,0,0,0-3.89-1.19l-2.25-1.78a1.38,1.38,0,0,0-1.08-.34,22.41,22.41,0,0,0-5.28.29,1.14,1.14,0,0,0-.18.68,2.23,2.23,0,0,0-.37.23,1.12,1.12,0,0,0-.08.61,24.75,24.75,0,0,0-4.9.9,10.73,10.73,0,0,1-2.26.1c-2,0-9.49-.23-9.49-.23s-.18,0-.53-.42S579.41,384,579.41,384Z" transform="translate(-15.46 -152.41)"/><path class="cls-14" d="M583.78,391.61s-2.62,2.27-2.81,2.55-1.76-.16-1.76-.16-.44.36,1.31-3.12Z" transform="translate(-15.46 -152.41)"/><circle class="cls-14" cx="600.83" cy="243.77" r="0.68"/><circle class="cls-14" cx="586.99" cy="243.65" r="0.68"/><path class="cls-14" d="M616.62,395.59l2.61-.31s.22-.15-.33-.45c0,0-.17-.15-1.23,0s-1.5,0-1.37.64A.41.41,0,0,1,616.62,395.59Z" transform="translate(-15.46 -152.41)"/><path class="cls-15" d="M576.53,391.47a4,4,0,1,1,6.88-4Z" transform="translate(-15.46 -152.41)"/><path class="cls-16" d="M583.51,387.8a4,4,0,1,1-6.88,4Z" transform="translate(-15.46 -152.41)"/><path class="cls-14" d="M606.38,387v-.38h1.08l.08-.08,13.87.77v-.13l-13.78-1-.1-.16-1.28-.07v-.22a3.11,3.11,0,0,0-1.2-.11v.27l-20.46-1.16v.09l18.14,1.26,0,.09h.35l0,.07.53,0,0,.09.95.08V387A7.13,7.13,0,0,0,606.38,387Z" transform="translate(-15.46 -152.41)"/><path class="cls-14" d="M579.39,390.14s-.63-.94-3,.85c0,0,.1.65.46.65A25.66,25.66,0,0,0,579.39,390.14Z" transform="translate(-15.46 -152.41)"/><path class="cls-14" d="M580.65,389.1s.61.95,3-.79c0,0-.09-.66-.45-.67A25,25,0,0,0,580.65,389.1Z" transform="translate(-15.46 -152.41)"/><path class="cls-14" d="M603.29,396h-1.72v-.62a8.11,8.11,0,0,1,1.71,0Z" transform="translate(-15.46 -152.41)"/><path class="cls-14" d="M616.28,395.28s-.4,0-.5-.11.76-.24.76-.24v.35Z" transform="translate(-15.46 -152.41)"/><path class="cls-11" d="M613.84,390.33a.29.29,0,0,0-.2-.05c-.22,0-.67.09-.56.39s1,1.93,1.24,2.4a.4.4,0,0,0,.28.21,3.48,3.48,0,0,0,1,0,1.56,1.56,0,0,0,.8-.32c.21-.16.39-.38.24-.58A22.16,22.16,0,0,0,613.84,390.33Z" transform="translate(-15.46 -152.41)"/><path class="cls-11" d="M612.16,390.83a.37.37,0,0,1,.3.19l.88,1.62s.23.33-.33.36c-.34,0-.76,0-1,0a.33.33,0,0,1-.33-.27l-.4-1.68s-.06-.19.19-.22Z" transform="translate(-15.46 -152.41)"/><path class="cls-11" d="M609.46,390.94h.11a.39.39,0,0,1,.45.27c.11.35.32,1.52.32,1.52s.09.38-.42.42-2.84.1-2.85.1h0s-.27,0-.38-.41-.29-1.55-.29-1.55-.07-.25.57-.26S609.11,391,609.46,390.94Z" transform="translate(-15.46 -152.41)"/><path class="cls-17" d="M206.78,177.63a5,5,0,0,1-1.17-.88c-.58-.58-2.81-3.2-12.24-3.69s-55.76-.61-55.76-.61-3.79-.68-8.65-5.44L117.5,153.69s-.77-1.36-5.73-.48L117,173.12s-4.76-.29-6.12.1a25.37,25.37,0,0,0,3.11,1.46s-1.07,2,2.13,3.69,31.19,7.2,33.13,7.11c0,0,.19.87,1.55,1.16s12.25,1,12.25,1,6.12.49,10.3-2.14c0,0,30.31,1.76,37.3-4.06C210.66,181.42,213.29,179.48,206.78,177.63Z" transform="translate(-15.46 -152.41)"/><path class="cls-17" d="M168.4,172.62a2.75,2.75,0,0,1-1-1.23.74.74,0,0,0-.83,0,3.56,3.56,0,0,0,.49,1.23Z" transform="translate(-15.46 -152.41)"/><path class="cls-17" d="M177.63,185.65l-.39,1.15s0,.19.73,0a6.66,6.66,0,0,1,1.26-1.52Z" transform="translate(-15.46 -152.41)"/></g></svg>