<?xml version="1.0" encoding="UTF-8"?>
<svg width="243px" height="235px" viewBox="0 0 243 235" version="1.1" xmlns="http://www.w3.org/2000/svg" xmlns:xlink="http://www.w3.org/1999/xlink">
    <!-- Generator: Sketch 51 (57462) - http://www.bohemiancoding.com/sketch -->
    <title>Por quê a sobTIC?</title>
    <desc>Created with Sketch.</desc>
    <defs></defs>
    <g id="Page-1" stroke="none" stroke-width="1" fill="none" fill-rule="evenodd">
        <g id="Artboard-1" fill="#F7F7F7" fill-rule="nonzero">
            <path d="M168.915351,0 L181.247925,12.3156686 L168,25.9127363 C229.207936,31.9802155 277.907901,80.6131426 283.98649,141.780781 L297.579727,155 L309.917783,142.678855 C309.917783,142.383148 309.978075,142.081964 310,141.780781 C303.795345,66.6108461 244.007025,6.63151387 168.915351,0" id="Shape"></path>
            <path d="M142,284.001808 C80.7763752,277.929519 32.0890948,229.098419 26.0045551,167.716089 L12.4047867,155 L0.0712603744,167.358895 C0.0712603744,167.485287 0.0712603744,167.600688 0.0383709709,167.716089 L0,167.716089 C0,167.809509 0,167.897433 0.0274078363,167.990853 C0.0548156727,168.084273 0.0274078363,168.172197 0,168.265617 L0.0493341054,168.265617 C6.49017564,243.441112 66.1625169,303.361696 141.101023,310 L129.6884,297.641105 L142,284.001808 Z" id="Shape"></path>
            <path d="M142.678855,0.0877050762 C142.383148,0.0602972399 142.081964,0.0219262691 141.780781,0 C66.6108461,6.21061571 6.6260378,65.9871067 0,141.117468 L12.3156686,128.767497 L25.9017841,142 C31.9802155,80.7708936 80.6186186,32.0890948 141.780781,26.0155182 L155,12.4047867 L142.678855,0.0877050762 Z" id="Shape"></path>
            <path d="M310,168.899046 L297.662974,181.233525 L284.047813,168 C277.969812,229.233834 229.22512,277.946802 167.967865,284.004401 L155,297.599737 L167.342511,309.939698 L167.967865,310 L168.11049,310 L168.242143,310 C243.394323,303.662819 303.373443,243.947496 310,168.899046" id="Shape"></path>
            <path d="M114.136811,113.710164 C111.115006,110.81348 107.665384,109.855262 103.609235,109.855262 C98.5945561,109.855262 95.8381075,111.435772 95.8381075,114.161738 C95.8381075,116.887705 98.3400314,118.567341 103.777113,118.903268 C111.813596,119.426434 122,121.27128 122,132.780917 C122,140.413624 115.869745,147 103.690466,147 C96.9590993,147 90.2169018,145.865557 84,139.290195 L89.1879721,131.651981 C92.2043608,135.082844 99.1144364,137.62708 103.863759,137.709685 C107.838677,137.797797 111.54824,135.688615 111.54824,132.527595 C111.54824,129.542799 109.132963,128.314737 103.083939,127.962289 C95.058287,127.345505 85.4729942,124.360709 85.4729942,114.530708 C85.4729942,104.513468 95.664814,101 103.435941,101 C110.080661,101 115.089924,102.316174 120.012541,106.710763 L114.136811,113.710164 Z" id="Shape"></path>
            <path d="M172,123.5 C172,135.92439 163.491689,146 149.450501,146 C135.409313,146 127,135.940854 127,123.5 C127,111.157927 135.596309,101 149.362503,101 C163.128697,101 171.989,111.152439 171.989,123.5 M137.697262,123.5 C137.697262,130.057927 141.646175,136.187805 149.450501,136.187805 C157.254828,136.187805 161.20374,130.057927 161.20374,123.5 C161.20374,116.942073 156.644341,110.718902 149.450501,110.718902 C141.750672,110.718902 137.697262,117.018902 137.697262,123.5" id="Shape"></path>
            <path d="M189.719395,84 L189.719395,107.837308 C192.265596,103.379792 199.38614,100.937467 203.954972,100.937467 C216.630863,100.937467 226,108.603957 226,123.465995 C226,137.616146 216.415924,146 203.679409,146 C198.405136,146 193.048194,144.253135 189.702861,139.100159 L189.030488,145.041689 L179,145.041689 L179,84 L189.719395,84 Z M190.424836,123.465995 C190.424836,131.242007 196.228189,136.126656 202.990502,136.126656 C209.840994,136.126656 215.286116,130.984632 215.286116,123.465995 C215.286116,115.69546 209.840994,110.898428 202.990502,110.898428 C199.626474,110.842373 196.384782,112.151169 194.013533,114.522776 C191.642285,116.894384 190.346363,120.123888 190.424836,123.465995 Z" id="Shape"></path>
            <polygon id="Shape" points="109.843328 161.673671 85 161.673671 85 157 140 157 140 161.673671 115.14566 161.673671 115.14566 225 109.843328 225"></polygon>
            <rect id="Rectangle-path" x="149" y="157" width="5" height="68"></rect>
            <path d="M226,215.740006 C219.388985,222.328674 210.438829,226.018765 201.115,225.999928 C178.095007,225.999928 166.111922,209.864666 166.002538,191.389133 C165.800176,173.110906 177.701223,156.000074 201.115,156.000074 C210.439966,155.980889 219.390894,159.673269 226,166.265477 L222.384838,169.389492 C216.732645,163.769616 209.077085,160.640986 201.115,160.697058 C181.217938,160.697058 170.979538,174.777047 171.072515,191.191827 C171.269407,207.233917 181.41483,221.111119 201.115,221.111119 C209.099899,221.124096 216.771608,217.999375 222.483285,212.407724 L226,215.740006 Z" id="Shape"></path>
        </g>
    </g>
</svg>